<svg width="30" height="30" viewBox="0 0 30 30" fill="none" xmlns="http://www.w3.org/2000/svg">
<path d="M15 0C6.70455 0 0 6.70455 0 15C0 23.1818 6.70455 30 15 30C23.4091 30 30 23.1818 30 15C30 6.70455 23.2955 0 15 0ZM5 24.2045C6.93182 20.4545 10.7955 18.0682 15 18.0682C19.2045 18.0682 23.0682 20.4545 25 24.2045C22.3864 27.0455 18.6364 28.6364 15 28.6364C11.3636 28.6364 7.61364 27.1591 5 24.2045ZM10.9091 12.6136C10.9091 10.3409 12.7273 8.52273 15 8.52273C17.2727 8.52273 19.0909 10.3409 19.0909 12.6136C19.0909 14.8864 17.2727 16.7045 15 16.7045C12.7273 16.7045 10.9091 14.8864 10.9091 12.6136ZM26.0227 23.0682C24.3182 20.1136 21.4773 17.9545 18.1818 17.0455C19.5455 16.0227 20.5682 14.4318 20.5682 12.6136C20.5682 9.54545 18.0682 7.15909 15.1136 7.15909C12.1591 7.15909 9.65909 9.65909 9.65909 12.6136C9.65909 14.4318 10.5682 16.1364 12.0455 17.0455C8.75 17.8409 5.90909 20 4.20455 23.0682C2.27273 20.7955 1.36364 17.9545 1.36364 15C1.36364 7.5 7.5 1.36364 15 1.36364C22.5 1.36364 28.6364 7.5 28.6364 15C28.6364 17.9545 27.7273 20.7955 26.0227 23.0682Z" fill="#111928"/>
</svg>
