<svg width="512" height="512" viewBox="0 0 512 512" fill="none" xmlns="http://www.w3.org/2000/svg">
<path d="M377.376 377.376C379.328 375.424 381.568 373.904 383.904 372.592L347.488 336.16C344.368 333.04 339.296 333.04 336.176 336.16C333.056 339.296 333.056 344.352 336.176 347.488L372.512 383.824C373.888 381.536 375.424 379.312 377.376 377.376Z" fill="#111928"/>
<path d="M456 496C445.328 496 435.28 491.84 427.712 484.288L371.712 428.288C364.16 420.72 360 410.688 360 400C360 389.312 364.16 379.28 371.712 371.712C386.208 357.216 413.776 357.216 428.272 371.712L484.272 427.712C491.84 435.28 496 445.312 496 456C496 466.688 491.84 476.72 484.288 484.288C476.736 491.856 466.672 496 456 496ZM400 376.32C393.488 376.32 387.312 378.752 383.024 383.04C378.496 387.568 376 393.6 376 400C376 406.4 378.496 412.432 383.024 416.976L439.024 472.976C448.096 482.032 463.888 482.032 472.96 472.976C477.504 468.432 480 462.4 480 456C480 449.6 477.504 443.568 472.976 439.024L416.976 383.024C412.688 378.752 406.512 376.32 400 376.32Z" fill="#111928"/>
<path d="M208 359.2C203.584 359.2 200 355.616 200 351.2C200 346.784 203.584 343.2 208 343.2C255.888 343.2 299.36 318.896 324.288 278.192C326.608 274.416 331.52 273.216 335.296 275.536C339.056 277.856 340.256 282.768 337.936 286.544C310.064 332.048 261.504 359.2 208 359.2Z" fill="#111928"/>
<path d="M208 400C102.128 400 16 313.872 16 208C16 102.128 102.128 16 208 16C261.008 16 310.336 37.104 346.912 75.456C349.952 78.64 349.84 83.712 346.64 86.752C343.44 89.808 338.368 89.712 335.328 86.48C301.808 51.36 256.592 32 208 32C110.96 32 32 110.96 32 208C32 305.04 110.96 384 208 384C277.184 384 340.208 343.232 368.576 280.16C370.384 276.128 375.136 274.32 379.152 276.144C383.184 277.952 384.976 282.688 383.168 286.72C352.224 355.536 283.472 400 208 400Z" fill="#111928"/>
<path d="M472 224C467.584 224 464 220.416 464 216V88C464 83.584 467.584 80 472 80C476.416 80 480 83.584 480 88V216C480 220.416 476.416 224 472 224Z" fill="#111928"/>
<path d="M376 224C371.584 224 368 220.416 368 216V168C368 163.584 371.584 160 376 160C380.416 160 384 163.584 384 168V216C384 220.416 380.416 224 376 224Z" fill="#111928"/>
<path d="M280 224C275.584 224 272 220.416 272 216V200C272 195.584 275.584 192 280 192C284.416 192 288 195.584 288 200V216C288 220.416 284.416 224 280 224Z" fill="#111928"/>
<path d="M184 224C179.584 224 176 220.416 176 216V152C176 147.584 179.584 144 184 144C188.416 144 192 147.584 192 152V216C192 220.416 188.416 224 184 224Z" fill="#111928"/>
<path d="M88 224C85.92 224 83.84 223.2 82.4 221.6C80.8 220.16 80 218.08 80 216C80 213.92 80.8 211.84 82.4 210.384C85.28 207.36 90.72 207.36 93.6 210.384C95.2 211.84 96 213.92 96 216C96 218.08 95.2 220.16 93.6 221.6C92.16 223.2 90.08 224 88 224Z" fill="#111928"/>
<path d="M472 64C458.768 64 448 53.232 448 40C448 26.768 458.768 16 472 16C485.232 16 496 26.768 496 40C496 53.232 485.232 64 472 64ZM472 32C467.584 32 464 35.6 464 40C464 44.4 467.584 48 472 48C476.416 48 480 44.4 480 40C480 35.6 476.416 32 472 32Z" fill="#111928"/>
<path d="M376 144C362.768 144 352 133.232 352 120C352 106.768 362.768 96 376 96C389.232 96 400 106.768 400 120C400 133.232 389.232 144 376 144ZM376 112C371.584 112 368 115.6 368 120C368 124.4 371.584 128 376 128C380.416 128 384 124.4 384 120C384 115.6 380.416 112 376 112Z" fill="#111928"/>
<path d="M280 176C266.768 176 256 165.232 256 152C256 138.768 266.768 128 280 128C293.232 128 304 138.768 304 152C304 165.232 293.232 176 280 176ZM280 144C275.584 144 272 147.6 272 152C272 156.4 275.584 160 280 160C284.416 160 288 156.4 288 152C288 147.6 284.416 144 280 144Z" fill="#111928"/>
<path d="M184 128C170.768 128 160 117.232 160 104C160 90.768 170.768 80 184 80C197.232 80 208 90.768 208 104C208 117.232 197.232 128 184 128ZM184 96C179.584 96 176 99.6 176 104C176 108.4 179.584 112 184 112C188.416 112 192 108.4 192 104C192 99.6 188.416 96 184 96Z" fill="#111928"/>
<path d="M168.192 104.928L94.96 153.744C99.984 156.208 103.456 161.184 103.824 167.072L177.056 118.24C172 115.792 168.544 110.832 168.192 104.928Z" fill="#111928"/>
<path d="M360 120C360 118.816 360.432 117.776 360.672 116.672L290.432 140.096C293.776 143.008 296 147.184 296 152C296 153.184 295.568 154.224 295.328 155.328L365.568 131.904C362.224 128.992 360 124.816 360 120Z" fill="#111928"/>
<path d="M271.488 138.8L199.792 102.96C199.808 103.312 200 103.632 200 104C200 109.648 196.928 114.352 192.512 117.2L264.208 153.04C264.192 152.688 264 152.368 264 152C264 146.352 267.088 141.648 271.488 138.8Z" fill="#111928"/>
<path d="M456.72 43.6318L381.552 105.12C386.88 107.104 390.624 111.84 391.52 117.616L467.856 55.1678C462.272 53.6478 458.08 49.2958 456.72 43.6318Z" fill="#111928"/>
<path d="M88 192C74.768 192 64 181.232 64 168C64 154.768 74.768 144 88 144C101.232 144 112 154.768 112 168C112 181.232 101.232 192 88 192ZM88 160C83.584 160 80 163.6 80 168C80 172.4 83.584 176 88 176C92.416 176 96 172.4 96 168C96 163.6 92.416 160 88 160Z" fill="#111928"/>
<path d="M488 256H88C83.584 256 80 252.416 80 248C80 243.584 83.584 240 88 240H488C492.416 240 496 243.584 496 248C496 252.416 492.416 256 488 256Z" fill="#111928"/>
</svg>
