<svg height="512" viewBox="0 0 128 128" width="512" xmlns="http://www.w3.org/2000/svg"><g><path d="m31.958 53.032a1.748 1.748 0 0 0 -1.732-1.642h-.015a1.749 1.749 0 0 0 -1.744 1.61c-.017.21-1.658 21.127-3.523 30.186-.6 2.92-.974 6.376-1.446 10.752-.688 6.382-1.631 15.123-3.862 26.728a1.751 1.751 0 0 0 1.389 2.049 1.792 1.792 0 0 0 .332.031 1.751 1.751 0 0 0 1.717-1.42c2.257-11.747 3.209-20.57 3.9-27.012.462-4.283.827-7.666 1.395-10.423.683-3.316 1.327-8.067 1.876-12.839.292 2.14.624 4.3 1 6.378 2.093 11.668.6 22.506-.72 32.068-.553 4.019-1.077 7.814-1.3 11.39a1.75 1.75 0 1 0 3.493.216c.214-3.443.729-7.176 1.274-11.129 1.354-9.819 2.888-20.95.7-33.163-1.911-10.632-2.726-23.65-2.734-23.78z"/><path d="m35.467 23.221c9.233-1.334 19.706-2.846 19.706-16.221a1.75 1.75 0 0 0 -3.5 0c0 9.845-6.348 11.261-16.706 12.757-6.576.949-14.029 2.026-19.056 7.022-8.43 8.379-7.377 24.921-6.532 38.209.409 6.421.794 12.486-.059 15.932-4.02 16.252-4.07 39.115-4.07 40.08a1.75 1.75 0 0 0 3.5 0c0-.232.045-23.4 3.967-39.238.984-3.971.6-10.007.155-17-.8-12.584-1.8-28.246 5.507-35.5 4.205-4.181 10.754-5.126 17.088-6.041z"/><path d="m104.5 93.942c-.472-4.376-.845-7.832-1.446-10.752-1.863-9.059-3.504-29.976-3.521-30.19a1.749 1.749 0 0 0 -1.744-1.614h-.015a1.748 1.748 0 0 0 -1.732 1.642c-.008.13-.823 13.148-2.732 23.784-2.19 12.213-.656 23.344.7 33.163.545 3.953 1.06 7.686 1.274 11.129a1.75 1.75 0 1 0 3.493-.216c-.222-3.576-.746-7.371-1.3-11.39-1.319-9.562-2.813-20.4-.72-32.068.372-2.076.7-4.238 1-6.378.549 4.772 1.193 9.523 1.876 12.839.568 2.757.932 6.14 1.394 10.423.695 6.442 1.646 15.265 3.9 27.012a1.751 1.751 0 0 0 1.717 1.42 1.792 1.792 0 0 0 .332-.031 1.751 1.751 0 0 0 1.389-2.049c-2.232-11.601-3.175-20.342-3.865-26.724z"/><path d="m118.68 80.92c-.853-3.445-.468-9.51-.059-15.931.845-13.291 1.9-29.831-6.532-38.21-5.027-5-12.48-6.073-19.056-7.022-10.358-1.496-16.706-2.912-16.706-12.757a1.75 1.75 0 0 0 -3.5 0c0 13.375 10.469 14.887 19.706 16.221 6.334.915 12.883 1.86 17.088 6.041 7.3 7.259 6.307 22.921 5.507 35.5-.445 6.989-.829 13.024.154 17 3.918 15.832 3.968 39.006 3.968 39.238a1.75 1.75 0 0 0 3.5 0c0-.965-.05-23.828-4.07-40.08z"/><path d="m64 58.3a1.75 1.75 0 0 0 -1.75 1.75v51.483a1.75 1.75 0 0 0 3.5 0v-51.484a1.75 1.75 0 0 0 -1.75-1.749z"/><path d="m54.067 36.061a1.742 1.742 0 0 0 -1.944 1.532l-.813 6.836a15.225 15.225 0 0 1 -6.427 10.7l-3.2 2.224a1.75 1.75 0 0 0 2 2.875l3.197-2.228a18.734 18.734 0 0 0 7.906-13.163l.812-6.836a1.75 1.75 0 0 0 -1.531-1.94z"/><path d="m86.318 57.353-3.2-2.224a15.23 15.23 0 0 1 -6.428-10.7l-.812-6.836a1.75 1.75 0 1 0 -3.475.412l.812 6.836a18.734 18.734 0 0 0 7.905 13.159l3.2 2.224a1.75 1.75 0 0 0 2-2.875z"/></g></svg>