<svg id="hairstyle6" enable-background="new 0 0 300 300" height="512" viewBox="0 0 300 300" width="512" xmlns="http://www.w3.org/2000/svg"><g><circle cx="55.002" cy="69.817" r="4"/><path d="m88.354 53.091c.781.781 1.805 1.172 2.828 1.172s2.047-.391 2.828-1.172l3.068-3.068 3.068 3.068c.781.781 1.805 1.172 2.828 1.172s2.047-.391 2.828-1.172c1.562-1.562 1.562-4.094 0-5.656l-3.068-3.068 3.068-3.068c1.562-1.562 1.562-4.094 0-5.656s-4.094-1.562-5.656 0l-3.068 3.068-3.068-3.068c-1.562-1.562-4.094-1.562-5.656 0s-1.562 4.094 0 5.656l3.068 3.068-3.068 3.068c-1.563 1.562-1.563 4.093 0 5.656z"/><path d="m63.002 109.817c0-6.617-5.383-12-12-12s-12 5.383-12 12 5.383 12 12 12 12-5.382 12-12zm-12 4c-2.207 0-4-1.795-4-4s1.793-4 4-4 4 1.795 4 4-1.793 4-4 4z"/><path d="m250.518 158.124c-3.977-5.711-3.477-9.615-2.477-17.395.633-4.953 1.426-11.121 1.145-19.449-.332-10.021-4.238-18.453-7.605-24.684-.911-1.681-1.957-3.3-3.058-4.883.708-1.317.644-2.972-.286-4.25-1.359-1.869-34.035-45.76-91.52-41.637-24.004 1.715-43.832 12.936-55.832 31.596-14.191 22.065-15.709 52.453-4.454 86.035-7.641-.766-15.28 1.103-21.479 5.905-13.949 10.809-15.402 32.367-3.242 48.059 7.531 9.717 18.543 14.938 29.152 14.938 6.442 0 12.723-1.944 17.993-5.958-.371 1.385-.73 2.744-1.122 4.187l-.59 2.186c-1.312 4.838-5.766 18.119-8.996 25.855-.852 2.037.109 4.381 2.148 5.232.504.211 1.027.311 1.543.311 1.562 0 3.051-.926 3.691-2.461 3.348-8.012 7.969-21.811 9.332-26.848l.594-2.178c2.446-9.014 4.519-16.896 5.283-24.489 20.814-4.234 65.024-17.263 78.022-53.011 11.19-30.77 26.459-49.57 34.073-57.646.606.939 1.185 1.893 1.712 2.866 3.133 5.793 6.371 12.836 6.648 21.141.254 7.686-.457 13.254-1.09 18.168-.285 2.225-.541 4.32-.668 6.361l-6.312-.919c-2.195-.322-4.219 1.197-4.535 3.383-.32 2.186 1.195 4.217 3.379 4.535l7.457 1.086c.194.027.389.041.579.041.652 2.714 1.857 5.489 3.952 8.496 5.496 7.893 8.203 14.355 8.887 17.309-2.316.471-6.316.988-9.672 1.285-1.996.176-3.555 1.803-3.645 3.805-.012.283-.297 6.721-.027 10.898-.578.324-1.762.668-2.699.762-1.625.148-2.996 1.27-3.469 2.834-.469 1.562.059 3.254 1.332 4.273 1.098.877 2.305 2.18 2.844 3.02-.199.26-.426.551-.68.873-3.324 4.268-10.199 13.094-10.773 23.094-3.781 2.221-22.656-1.771-29.859-3.299-8.965-1.898-11.898-2.473-13.992-1.828-4.188 1.289-6.906 6.889-11.039 35.232-.32 2.186 1.195 4.215 3.379 4.535.195.027.391.041.582.041 1.953 0 3.664-1.434 3.953-3.424 2.883-19.752 4.863-26.396 5.973-28.566 2.016.254 6.094 1.117 9.484 1.836 17.25 3.66 30.895 6.098 36.66 1.633 1.734-1.35 2.742-3.293 2.836-5.475.32-7.584 6.258-15.201 9.109-18.863.703-.902 1.258-1.625 1.598-2.131 1.84-2.758 1-5.654-.535-8.045 2.156-1.48 3.539-3.684 3.309-6.621-.156-1.943-.145-4.758-.098-6.973 3.762-.43 8.598-1.15 10.645-2.172 1.355-.68 2.328-1.926 2.73-3.51 1.425-5.598-4.641-17.018-10.27-25.096zm-182.452 19.122c.946 10.793 7.464 21.128 17.752 27.543-5.982 4.265-13.088 6.075-19.827 4.733-6.728-11.019-5.916-24.471 2.075-32.276zm36.088 42.702c-8.725 6.765-21.431 5.54-30.901-2.122 10.548-.95 20.786-7.058 27.366-16.997 1.219-1.842.715-4.322-1.129-5.543-1.848-1.219-4.324-.719-5.543 1.129-.672 1.016-1.426 1.941-2.186 2.856-.239-.237-.455-.494-.76-.67-10.105-5.833-15.847-16.19-14.872-26.24 2.256-.74 4.63-1.103 7.043-1.103 8.195 0 16.836 4.168 22.801 11.859v-.002c9.455 12.204 8.638 28.728-1.819 36.833zm87.09-67.498c-11.364 31.251-50.848 43.415-70.763 47.64-.342-7.502-3.026-15.216-8.186-21.875 0-.002 0-.002 0-.002-4.552-5.872-10.375-10.1-16.612-12.528-12.249-33.147-11.57-62.944 1.928-83.935 10.605-16.488 28.246-26.412 49.676-27.943 44.957-3.209 74.211 26.32 82.238 35.621-7.039 6.882-25.211 27.075-38.281 63.022z"/><path d="m163.721 68.442c-36.164 5.932-59.141 41.719-60.102 43.238-1.18 1.867-.621 4.336 1.246 5.516.664.42 1.402.619 2.133.619 1.324 0 2.621-.658 3.383-1.859.219-.342 22.082-34.305 54.676-39.625 17.129-2.799 34.434 2.785 51.422 16.59 1.719 1.396 4.234 1.137 5.629-.582 1.391-1.713 1.133-4.232-.582-5.625-18.86-15.324-38.313-21.465-57.805-18.272z"/><path d="m216.486 94.103c-15.078-6.035-46.453-10.846-57.16 14.139-.871 2.031.07 4.383 2.102 5.252.512.221 1.047.326 1.574.326 1.551-.002 3.027-.91 3.676-2.426 10.316-24.072 45.352-10.453 46.844-9.861 2.051.82 4.375-.182 5.195-2.234.816-2.052-.18-4.376-2.231-5.196z"/></g></svg>