<svg width="36" height="36" viewBox="0 0 36 36" fill="none" xmlns="http://www.w3.org/2000/svg">
<g clip-path="url(#clip0_4800_8158)">
<path d="M35.3212 24.9297C34.9184 24.5903 34.4391 24.5631 33.8056 24.725C33.9196 24.1019 33.8639 23.6188 33.123 22.9918C32.3846 22.4283 31.2615 22.9115 29.3987 23.7107C27.9825 24.3468 26.5254 24.8877 25.0372 25.33C24.5384 24.3468 23.0345 24.1382 22.8622 24.2017C17.8439 24.2859 16.9967 23.7872 16.0135 23.2107C14.7713 22.4814 13.3632 21.6562 5.13231 21.6562H0.545356C0.400719 21.6562 0.262005 21.7137 0.159731 21.816C0.057457 21.9183 0 22.057 0 22.2016L0 32.0128C-2.02822e-07 32.0844 0.0141152 32.1553 0.0415378 32.2213C0.0689603 32.2874 0.109151 32.3475 0.159809 32.398C0.210468 32.4485 0.270597 32.4886 0.336755 32.5159C0.402914 32.5431 0.4738 32.5571 0.545356 32.5569H5.04422C11.6235 35 26.694 35.4067 34.6696 28.321C35.3212 27.922 36.8977 26.2225 35.3212 24.9297ZM29.8288 24.7147C30.8275 24.2859 32.1968 23.6939 32.4584 23.861C33.1217 24.3675 32.5659 24.8792 32.1644 25.3261C30.3703 26.0787 28.5101 26.9155 25.3209 27.7225C25.475 27.2756 25.4426 26.7937 25.3869 26.3663C27.1072 25.8779 28.6021 25.2419 29.8288 24.7147ZM1.09071 22.7457H4.58825V31.4675H1.09071V22.7457ZM34.022 27.444C22.8661 36.2876 8.17128 32.3665 5.67767 31.6139V22.7483C19.4087 22.6757 11.2893 25.3248 22.9063 25.2898C23.7431 25.2704 24.4607 25.8909 24.3377 27.1344C24.3377 27.2912 24.2612 27.8145 23.313 28.1811C22.2767 28.5775 20.0474 28.9233 15.1106 28.2834C14.967 28.2649 14.8219 28.3041 14.7073 28.3926C14.5926 28.481 14.5178 28.6113 14.4992 28.7549C14.4807 28.8986 14.5199 29.0437 14.6084 29.1583C14.6968 29.273 14.8271 29.3478 14.9707 29.3664C18.024 29.7265 21.2249 30.0413 23.6498 29.2174C27.6888 28.4143 30.413 27.2588 32.2175 26.4893C33.3341 26.0152 34.3898 25.567 34.6256 25.7639C35.4041 26.3572 34.3885 27.1487 34.022 27.444Z" fill="#4B5563"/>
<path d="M2.83808 23.9033C2.00385 23.9189 2.00644 25.1598 2.83808 25.1741C3.6723 25.1547 3.6736 23.9176 2.83808 23.9033Z" fill="#4B5563"/>
<path d="M18.5318 19.398C19.2119 19.8902 28.5995 13.3965 28.6514 7.37552C28.6523 6.23119 28.2983 5.11473 27.6383 4.17994C26.9782 3.24515 26.0446 2.53803 24.9659 2.15597C23.8872 1.77392 22.7166 1.73574 21.6154 2.0467C20.5141 2.35765 19.5364 3.00244 18.8168 3.89223C18.0974 3.00193 17.1195 2.35667 16.018 2.04541C14.9165 1.73414 13.7456 1.77218 12.6666 2.15429C11.5876 2.53641 10.6537 3.24377 9.99363 4.1789C9.33353 5.11403 8.97971 6.23088 8.98096 7.37552C8.98096 13.4962 18.1419 19.1596 18.5318 19.398ZM14.5161 2.92847C15.2894 2.9315 16.0487 3.13519 16.7196 3.5196C17.3906 3.90401 17.9503 4.45599 18.344 5.12155C18.3962 5.19796 18.4662 5.26048 18.5481 5.30368C18.6299 5.34688 18.721 5.36946 18.8136 5.36946C18.9061 5.36946 18.9972 5.34688 19.0791 5.30368C19.1609 5.26048 19.231 5.19796 19.2831 5.12155C23.7483 -1.32298 35.5376 7.4079 18.8168 18.2891C17.2818 17.2891 10.073 12.3304 10.073 7.3794C10.0733 6.19972 10.5418 5.0684 11.3756 4.23387C12.2094 3.39934 13.3403 2.92984 14.52 2.92847H14.5161Z" fill="#4B5563"/>
</g>
<defs>
<clipPath id="clip0_4800_8158">
<rect width="36" height="36" fill="white"/>
</clipPath>
</defs>
</svg>
