<svg width="48" height="48" viewBox="0 0 48 48" fill="none" xmlns="http://www.w3.org/2000/svg">
<path d="M44.4139 34.3778L29.1939 7.7638C28.1379 5.9138 26.2359 4.8058 24.1079 4.7998H24.0859C21.9659 4.7998 20.0659 5.8938 18.9999 7.7298L3.60589 34.2438C2.53389 36.0858 2.52789 38.2898 3.58789 40.1398C4.64589 41.9858 6.54589 43.0918 8.67189 43.0978L39.2899 43.1978H39.3099C41.4279 43.1978 43.3259 42.1058 44.3939 40.2738C45.4659 38.4318 45.4739 36.2278 44.4159 34.3758L44.4139 34.3778ZM42.3179 39.0678C41.6859 40.1538 40.5619 40.7998 39.3079 40.7998H39.2959L8.67789 40.6998C7.41989 40.6958 6.29589 40.0398 5.66789 38.9478C5.03989 37.8518 5.04389 36.5438 5.67789 35.4498L21.0719 8.9358C21.7039 7.8498 22.8299 7.1998 24.0839 7.1998H24.0979C25.3559 7.2038 26.4819 7.85981 27.1099 8.95581L42.3299 35.5698C42.9559 36.6678 42.9539 37.9758 42.3179 39.0678ZM22.7999 28.1998V18.6998C22.7999 18.0358 23.3379 17.4998 23.9999 17.4998C24.6619 17.4998 25.1999 18.0378 25.1999 18.6998V28.1998C25.1999 28.8638 24.6619 29.3998 23.9999 29.3998C23.3379 29.3998 22.7999 28.8618 22.7999 28.1998ZM25.5999 33.7098C25.5999 34.5958 24.8839 35.3118 23.9999 35.3118C23.1159 35.3118 22.3999 34.5938 22.3999 33.7098C22.3999 32.8258 23.1159 32.1078 23.9999 32.1078C24.8839 32.1078 25.5999 32.8258 25.5999 33.7098Z" fill="#F56060"/>
</svg>
