<svg width="70" height="70" viewBox="0 0 70 70" fill="none" xmlns="http://www.w3.org/2000/svg">
<g opacity="0.3" clip-path="url(#clip0_4555_3661)">
<path d="M40.5063 37.6348H29.4932C28.7382 37.6348 28.126 38.247 28.126 39.002C28.126 39.7569 28.7382 40.3691 29.4932 40.3691H40.5063C41.2612 40.3691 41.8735 39.7569 41.8735 39.002C41.8735 38.247 41.2614 37.6348 40.5063 37.6348Z" fill="white"/>
<path d="M38.1223 43.1035H31.8779C31.123 43.1035 30.5107 43.7157 30.5107 44.4707C30.5107 45.2257 31.123 45.8379 31.8779 45.8379H38.1223C38.8772 45.8379 39.4895 45.2257 39.4895 44.4707C39.4895 43.7157 38.8772 43.1035 38.1223 43.1035Z" fill="white"/>
<path d="M44.45 14.8404H43.7735V3.75197C43.7735 1.68328 42.0902 0 40.0215 0H29.9787C27.9097 0 26.2267 1.68328 26.2267 3.75197V14.8404H25.5501C22.373 14.8404 19.7881 17.4252 19.7881 20.6024V65.8984C19.7881 68.16 21.628 70 23.8896 70H28.8476C29.6026 70 30.2148 69.3878 30.2148 68.6328C30.2148 67.8779 29.6026 67.2656 28.8476 67.2656H23.8895C23.1356 67.2656 22.5223 66.6523 22.5223 65.8984V55.8098H47.4775V65.8984C47.4775 66.6523 46.8641 67.2656 46.1103 67.2656H41.1523C40.3973 67.2656 39.7851 67.8779 39.7851 68.6328C39.7851 69.3878 40.3973 70 41.1523 70H46.1104C48.372 70 50.212 68.16 50.212 65.8984V20.6023C50.212 17.4252 47.627 14.8404 44.45 14.8404ZM28.961 3.75197C28.961 3.19088 29.4175 2.73438 29.9786 2.73438H40.0214C40.5825 2.73438 41.039 3.19088 41.039 3.75197V14.8404H28.9608L28.961 3.75197ZM25.55 17.5748H44.45C46.1194 17.5748 47.4776 18.9329 47.4776 20.6024V29.0306H22.5223V20.6024C22.5223 18.9328 23.8805 17.5748 25.55 17.5748ZM22.5223 53.0755V31.765H47.4775V53.0755H22.5223Z" fill="white"/>
<path d="M35 70C35.7551 70 36.3672 69.3879 36.3672 68.6328C36.3672 67.8777 35.7551 67.2656 35 67.2656C34.2449 67.2656 33.6328 67.8777 33.6328 68.6328C33.6328 69.3879 34.2449 70 35 70Z" fill="white"/>
</g>
<defs>
<clipPath id="clip0_4555_3661">
<rect width="70" height="70" fill="white"/>
</clipPath>
</defs>
</svg>
