<svg id="Layer_1" enable-background="new 0 0 512 512" height="512" viewBox="0 0 512 512" width="512" xmlns="http://www.w3.org/2000/svg"><g><g><circle cx="292.476" cy="220.47" fill="#6b8df2" r="17.639"/><g><g><path d="m119.408 320.293-118.035 118.026c-5.535 5.534 6.167 26.208 26.136 46.175 19.97 19.968 40.645 31.668 46.18 26.134l33.104-33.104z" fill="#f2a7d0"/><path d="m151.129 392.602-106.745 106.736c13.647 10.388 25.347 15.246 29.305 11.289l33.104-33.104z" fill="#f294c7"/><path d="m159.721 279.984-125.244 125.231c-5.535 5.534 6.167 26.208 26.136 46.175 19.97 19.968 40.645 31.668 46.18 26.134l15.808-15.806 9.97-19.743 16.212-6.436 83.255-83.246z" fill="#ffca21"/><path d="m211.739 331.996-134.251 134.239c13.647 10.388 25.347 15.246 29.305 11.289l15.808-15.806 7.641-19.913 18.541-6.267 83.255-83.246z" fill="#f2bb0c"/></g><ellipse cx="195.065" cy="316.952" fill="#eb67a5" rx="14.172" ry="51.133" transform="matrix(.707 -.707 .707 .707 -166.991 230.786)"/></g><g><path d="m257.853 335c-2.724 0-5.359-1.466-6.727-4.04-1.973-3.711-.565-8.32 3.147-10.294 32.596-17.333 100.179-41.726 186.575-10.358 3.951 1.435 5.991 5.801 4.557 9.752-1.435 3.951-5.8 5.991-9.752 4.557-80.858-29.359-143.868-6.657-174.232 9.49-1.14.605-2.363.893-3.568.893z" fill="#b5c8ff"/></g><path d="m242.939 276.665c-1.948 0-3.896-.743-5.383-2.23-2.972-2.973-2.972-7.792.001-10.764l14.287-14.285c2.971-2.973 7.791-2.972 10.764.001 2.972 2.973 2.972 7.792-.001 10.764l-14.287 14.285c-1.486 1.486-3.434 2.229-5.381 2.229z" fill="#b5c8ff"/><path d="m323.04 196.566c-1.949 0-3.898-.744-5.385-2.231-2.971-2.974-2.969-7.793.005-10.765l105.632-105.545c2.973-2.971 7.793-2.969 10.764.004 2.971 2.974 2.969 7.793-.005 10.765l-105.632 105.545c-1.485 1.485-3.433 2.227-5.379 2.227z" fill="#b5c8ff"/><g fill="#6b8df2"><circle cx="383.459" cy="34.384" r="17.639"/><circle cx="476.599" cy="128.282" r="17.639"/><circle cx="316.673" cy="372.381" r="17.639"/></g><path d="m474.355 253.939-18.619-10.165-18.945 9.545 3.933-20.814-14.951-15.033 21.05-2.699 9.705-18.836 9.077 19.146 20.949 3.391-15.44 14.532z" fill="#ffca21"/><path d="m470.686 67.75-5.978-20.353-20.146-6.647 17.499-11.937.058-21.202 16.793 12.976 20.182-6.456-7.12 19.956 12.414 17.211-21.193-.642z" fill="#ffca21"/><path d="m387.514 471.042-18.619-10.165-18.945 9.546 3.932-20.815-14.95-15.033 21.049-2.699 9.706-18.836 9.076 19.146 20.949 3.392-15.44 14.532z" fill="#ffca21"/><g><path d="m415.941 174.867c9.795 0 9.811-15.223 0-15.223-9.796 0-9.812 15.223 0 15.223z" fill="#eb67a5"/></g><g><g><path d="m504.647 291.893c9.795 0 9.812-15.223 0-15.223-9.795 0-9.811 15.223 0 15.223z" fill="#eb67a5"/></g><g><path d="m227.836 15.223c9.795 0 9.811-15.223 0-15.223-9.795 0-9.812 15.223 0 15.223z" fill="#eb67a5"/></g></g><g><path d="m476.237 338.603c9.795 0 9.811-15.223 0-15.223-9.796 0-9.812 15.223 0 15.223z" fill="#eb67a5"/></g><g><path d="m185.051 260.127c-1.188 0-2.393-.279-3.52-.867-3.725-1.947-5.167-6.546-3.219-10.272 15.761-30.154 37.858-92.656 8.767-172.461-1.439-3.949.596-8.318 4.545-9.758 3.949-1.441 8.318.596 9.758 4.544 31.092 85.296 7.344 152.349-9.58 184.726-1.359 2.601-4.009 4.088-6.751 4.088z" fill="#b5c8ff"/></g><ellipse cx="139.204" cy="195.26" fill="#6b8df2" rx="17.673" ry="17.606"/><g fill="#f2a7d0"><path d="m450.547 379.403c-2.468-.635-3.206-1.722-5.168-5.062-2.305-3.923-5.788-9.852-14.501-12.094-8.709-2.242-14.625 1.266-18.541 3.586-3.34 1.98-4.514 2.575-6.988 1.94-2.469-.635-3.207-1.722-5.168-5.061-2.304-3.923-5.787-9.852-14.5-12.094-4.076-1.05-8.221 1.404-9.269 5.474-1.048 4.071 1.404 8.221 5.475 9.268 2.469.635 3.207 1.722 5.168 5.062 2.304 3.923 5.787 9.851 14.5 12.093 8.711 2.242 14.628-1.265 18.543-3.586 3.339-1.979 4.513-2.577 6.986-1.939 2.469.635 3.207 1.722 5.169 5.062 2.305 3.923 5.788 9.851 14.501 12.093.636.164 1.275.242 1.902.242 3.391 0 6.483-2.282 7.367-5.717 1.046-4.07-1.405-8.22-5.476-9.267z"/><path d="m393.928 249.995c3.689-2.016 5.044-6.641 3.028-10.33-2.018-3.689-6.643-5.045-10.33-3.027-2.239 1.223-3.524.935-7.251-.163-4.368-1.286-10.967-3.231-18.855 1.082-7.895 4.316-9.809 10.921-11.075 15.29-1.076 3.717-1.523 4.95-3.756 6.171-2.239 1.224-3.524.935-7.25-.164-4.367-1.286-10.965-3.231-18.855 1.082-3.689 2.016-5.044 6.641-3.028 10.33 2.018 3.689 6.643 5.044 10.33 3.027 2.241-1.223 3.525-.934 7.25.164 2.345.691 5.332 1.571 8.818 1.571 3.006 0 6.385-.656 10.038-2.653 7.896-4.317 9.81-10.921 11.076-15.291 1.076-3.716 1.523-4.95 3.755-6.17 2.237-1.223 3.523-.935 7.251.163 4.366 1.286 10.966 3.231 18.854-1.082z"/><path d="m148.874 111.897c-3.346-1.958-4.434-2.694-5.068-5.15-.633-2.451-.038-3.62 1.94-6.944 2.328-3.913 5.846-9.826 3.597-18.535-2.249-8.705-8.189-12.181-12.12-14.482-3.346-1.958-4.435-2.695-5.069-5.15-1.052-4.069-5.197-6.518-9.274-5.466-4.07 1.052-6.517 5.204-5.466 9.274 2.249 8.705 8.189 12.181 12.12 14.481 3.347 1.958 4.435 2.694 5.069 5.15.633 2.451.038 3.62-1.94 6.944-2.328 3.913-5.846 9.826-3.597 18.535 2.249 8.705 8.189 12.181 12.12 14.481 3.347 1.958 4.435 2.695 5.069 5.15.887 3.432 3.977 5.709 7.365 5.709.63 0 1.271-.079 1.909-.244 4.07-1.052 6.517-5.204 5.466-9.274-2.25-8.703-8.189-12.179-12.121-14.479z"/><path d="m275.195 125.463c2.022-3.685.674-8.312-3.011-10.334-3.685-2.024-8.311-.675-10.335 3.01-4.328 7.887-2.377 14.483-1.086 18.848 1.096 3.707 1.386 4.985.166 7.206-1.222 2.227-2.46 2.674-6.189 3.751-4.377 1.263-10.989 3.171-15.315 11.052-4.328 7.887-2.377 14.483-1.086 18.848 1.096 3.707 1.386 4.985.167 7.206-2.023 3.685-.676 8.312 3.01 10.335 1.162.638 2.417.941 3.655.941 2.689 0 5.294-1.428 6.679-3.95 4.33-7.888 2.379-14.484 1.087-18.849-1.096-3.707-1.385-4.985-.166-7.206 1.222-2.227 2.46-2.674 6.189-3.751 4.377-1.263 10.989-3.171 15.314-11.052 4.33-7.888 2.379-14.484 1.087-18.849-1.096-3.707-1.385-4.985-.166-7.206z"/></g><path d="m257.879 37.886 10.185 18.583-9.564 18.908 20.854-3.925 15.063 14.921 2.704-21.008 18.874-9.686-19.184-9.059-3.398-20.908-14.561 15.41z" fill="#ffca21"/><path d="m40.35 124.558 10.184 18.582-9.564 18.908 20.855-3.924 15.063 14.921 2.704-21.009 18.873-9.686-19.183-9.059-3.398-20.908-14.561 15.41z" fill="#ffca21"/><g><path d="m345.003 104.024c9.795 0 9.811-15.223 0-15.223-9.795 0-9.811 15.223 0 15.223z" fill="#eb67a5"/></g><g><path d="m179.956 42.897c9.795 0 9.811-15.223 0-15.223-9.795 0-9.812 15.223 0 15.223z" fill="#eb67a5"/></g></g><g fill="#fff"><path d="m130.391 368.461 4.787-21.952 20.799-8.502-19.4-11.336-1.626-21.957-29.516 29.55-.088.173-11.83 19.103 22.36-2.231z"/><path d="m93.517 443.872 22.197 3.482 6.887 14.365 26.182-26.18-6.824-6.805 4.048-22.102-20.004 10.23-19.767-10.68 3.547 22.188z"/></g></g></svg>