<svg id="Image" viewBox="0 0 64 64" xmlns="http://www.w3.org/2000/svg"><g fill="none" stroke="#464747" stroke-linecap="round" stroke-linejoin="round" stroke-width="2"><path d="m62 51h-60"/><path d="m2 19c4.167 0 5.833-6 10-6s5.833 6 10 6 5.833-6 10-6 5.833 6 10 6 5.833-6 10-6 5.833 6 10 6"/><path d="m2 31c4.167 0 5.833-4 10-4s5.833 4 10 4 5.833-4 10-4 5.833 4 10 4 5.833-4 10-4 5.833 4 10 4"/><path d="m2 42c4.167 0 5.833-2 10-2s5.833 2 10 2 5.833-2 10-2 5.833 2 10 2 5.833-2 10-2 5.833 2 10 2"/></g></svg>