<svg width="100" height="100" viewBox="0 0 100 100" fill="none" xmlns="http://www.w3.org/2000/svg">
<path d="M89.0625 12.5H81.25V9.375C81.25 7.7174 80.5915 6.12769 79.4194 4.95558C78.2473 3.78348 76.6576 3.125 75 3.125C73.3424 3.125 71.7527 3.78348 70.5806 4.95558C69.4085 6.12769 68.75 7.7174 68.75 9.375V12.5H56.25V9.375C56.25 7.7174 55.5915 6.12769 54.4194 4.95558C53.2473 3.78348 51.6576 3.125 50 3.125C48.3424 3.125 46.7527 3.78348 45.5806 4.95558C44.4085 6.12769 43.75 7.7174 43.75 9.375V12.5H31.25V9.375C31.25 7.7174 30.5915 6.12769 29.4194 4.95558C28.2473 3.78348 26.6576 3.125 25 3.125C23.3424 3.125 21.7527 3.78348 20.5806 4.95558C19.4085 6.12769 18.75 7.7174 18.75 9.375V12.5H10.9375C8.8655 12.5 6.87836 13.3231 5.41323 14.7882C3.9481 16.2534 3.125 18.2405 3.125 20.3125V82.8125C3.125 84.8845 3.9481 86.8716 5.41323 88.3368C6.87836 89.8019 8.8655 90.625 10.9375 90.625H54.6875C55.1019 90.625 55.4993 90.4604 55.7924 90.1674C56.0854 89.8743 56.25 89.4769 56.25 89.0625C56.25 88.6481 56.0854 88.2507 55.7924 87.9576C55.4993 87.6646 55.1019 87.5 54.6875 87.5H10.9375C9.69544 87.4963 8.50531 87.0012 7.62703 86.123C6.74876 85.2447 6.25371 84.0546 6.25 82.8125V34.375H93.75V60.9375C93.75 61.3519 93.9146 61.7493 94.2076 62.0424C94.5007 62.3354 94.8981 62.5 95.3125 62.5C95.7269 62.5 96.1243 62.3354 96.4174 62.0424C96.7104 61.7493 96.875 61.3519 96.875 60.9375V20.3125C96.875 18.2405 96.0519 16.2534 94.5868 14.7882C93.1216 13.3231 91.1345 12.5 89.0625 12.5ZM71.875 9.375C71.875 8.5462 72.2042 7.75134 72.7903 7.16529C73.3763 6.57924 74.1712 6.25 75 6.25C75.8288 6.25 76.6237 6.57924 77.2097 7.16529C77.7958 7.75134 78.125 8.5462 78.125 9.375V18.75C78.125 19.5788 77.7958 20.3737 77.2097 20.9597C76.6237 21.5458 75.8288 21.875 75 21.875C74.1712 21.875 73.3763 21.5458 72.7903 20.9597C72.2042 20.3737 71.875 19.5788 71.875 18.75V9.375ZM46.875 9.375C46.875 8.5462 47.2042 7.75134 47.7903 7.16529C48.3763 6.57924 49.1712 6.25 50 6.25C50.8288 6.25 51.6237 6.57924 52.2097 7.16529C52.7958 7.75134 53.125 8.5462 53.125 9.375V18.75C53.125 19.5788 52.7958 20.3737 52.2097 20.9597C51.6237 21.5458 50.8288 21.875 50 21.875C49.1712 21.875 48.3763 21.5458 47.7903 20.9597C47.2042 20.3737 46.875 19.5788 46.875 18.75V9.375ZM21.875 9.375C21.875 8.5462 22.2042 7.75134 22.7903 7.16529C23.3763 6.57924 24.1712 6.25 25 6.25C25.8288 6.25 26.6237 6.57924 27.2097 7.16529C27.7958 7.75134 28.125 8.5462 28.125 9.375V18.75C28.125 19.5788 27.7958 20.3737 27.2097 20.9597C26.6237 21.5458 25.8288 21.875 25 21.875C24.1712 21.875 23.3763 21.5458 22.7903 20.9597C22.2042 20.3737 21.875 19.5788 21.875 18.75V9.375ZM93.75 31.25H6.25V20.3125C6.25371 19.0704 6.74876 17.8803 7.62703 17.002C8.50531 16.1238 9.69544 15.6287 10.9375 15.625H18.75V18.75C18.75 20.4076 19.4085 21.9973 20.5806 23.1694C21.7527 24.3415 23.3424 25 25 25C26.6576 25 28.2473 24.3415 29.4194 23.1694C30.5915 21.9973 31.25 20.4076 31.25 18.75V15.625H43.75V18.75C43.75 20.4076 44.4085 21.9973 45.5806 23.1694C46.7527 24.3415 48.3424 25 50 25C51.6576 25 53.2473 24.3415 54.4194 23.1694C55.5915 21.9973 56.25 20.4076 56.25 18.75V15.625H68.75V18.75C68.75 20.4076 69.4085 21.9973 70.5806 23.1694C71.7527 24.3415 73.3424 25 75 25C76.6576 25 78.2473 24.3415 79.4194 23.1694C80.5915 21.9973 81.25 20.4076 81.25 18.75V15.625H89.0625C90.3046 15.6287 91.4947 16.1238 92.373 17.002C93.2512 17.8803 93.7463 19.0704 93.75 20.3125V31.25Z" fill="#111928"/>
<path d="M46.875 45.3125C46.875 44.4837 46.5458 43.6888 45.9597 43.1028C45.3737 42.5167 44.5788 42.1875 43.75 42.1875H37.5C36.6712 42.1875 35.8763 42.5167 35.2903 43.1028C34.7042 43.6888 34.375 44.4837 34.375 45.3125V50C34.375 50.8288 34.7042 51.6237 35.2903 52.2097C35.8763 52.7958 36.6712 53.125 37.5 53.125H43.75C44.5788 53.125 45.3737 52.7958 45.9597 52.2097C46.5458 51.6237 46.875 50.8288 46.875 50V45.3125ZM37.5 50V45.3125H43.75V50H37.5Z" fill="#111928"/>
<path d="M28.125 45.3125C28.125 44.4837 27.7958 43.6888 27.2097 43.1028C26.6237 42.5167 25.8288 42.1875 25 42.1875H18.75C17.9212 42.1875 17.1263 42.5167 16.5403 43.1028C15.9542 43.6888 15.625 44.4837 15.625 45.3125V50C15.625 50.8288 15.9542 51.6237 16.5403 52.2097C17.1263 52.7958 17.9212 53.125 18.75 53.125H25C25.8288 53.125 26.6237 52.7958 27.2097 52.2097C27.7958 51.6237 28.125 50.8288 28.125 50V45.3125ZM18.75 50V45.3125H25V50H18.75Z" fill="#111928"/>
<path d="M81.25 53.125C82.0788 53.125 82.8737 52.7958 83.4597 52.2097C84.0458 51.6237 84.375 50.8288 84.375 50V45.3125C84.375 44.4837 84.0458 43.6888 83.4597 43.1028C82.8737 42.5167 82.0788 42.1875 81.25 42.1875H75C74.1712 42.1875 73.3763 42.5167 72.7903 43.1028C72.2042 43.6888 71.875 44.4837 71.875 45.3125V50C71.875 50.8288 72.2042 51.6237 72.7903 52.2097C73.3763 52.7958 74.1712 53.125 75 53.125H81.25ZM75 45.3125H81.25V50H75V45.3125Z" fill="#111928"/>
<path d="M46.875 59.375C46.875 58.5462 46.5458 57.7513 45.9597 57.1653C45.3737 56.5792 44.5788 56.25 43.75 56.25H37.5C36.6712 56.25 35.8763 56.5792 35.2903 57.1653C34.7042 57.7513 34.375 58.5462 34.375 59.375V64.0625C34.375 64.8913 34.7042 65.6862 35.2903 66.2722C35.8763 66.8583 36.6712 67.1875 37.5 67.1875H43.75C44.5788 67.1875 45.3737 66.8583 45.9597 66.2722C46.5458 65.6862 46.875 64.8913 46.875 64.0625V59.375ZM37.5 64.0625V59.375H43.75V64.0625H37.5Z" fill="#111928"/>
<path d="M28.125 59.375C28.125 58.5462 27.7958 57.7513 27.2097 57.1653C26.6237 56.5792 25.8288 56.25 25 56.25H18.75C17.9212 56.25 17.1263 56.5792 16.5403 57.1653C15.9542 57.7513 15.625 58.5462 15.625 59.375V64.0625C15.625 64.8913 15.9542 65.6862 16.5403 66.2722C17.1263 66.8583 17.9212 67.1875 18.75 67.1875H25C25.8288 67.1875 26.6237 66.8583 27.2097 66.2722C27.7958 65.6862 28.125 64.8913 28.125 64.0625V59.375ZM18.75 64.0625V59.375H25V64.0625H18.75Z" fill="#111928"/>
<path d="M43.75 70.3125H37.5C36.6712 70.3125 35.8763 70.6417 35.2903 71.2278C34.7042 71.8138 34.375 72.6087 34.375 73.4375V78.125C34.375 78.9538 34.7042 79.7487 35.2903 80.3347C35.8763 80.9208 36.6712 81.25 37.5 81.25H43.75C44.5788 81.25 45.3737 80.9208 45.9597 80.3347C46.5458 79.7487 46.875 78.9538 46.875 78.125V73.4375C46.875 72.6087 46.5458 71.8138 45.9597 71.2278C45.3737 70.6417 44.5788 70.3125 43.75 70.3125ZM37.5 78.125V73.4375H43.75V78.125H37.5Z" fill="#111928"/>
<path d="M56.25 53.125H62.5C63.3288 53.125 64.1237 52.7958 64.7097 52.2097C65.2958 51.6237 65.625 50.8288 65.625 50V45.3125C65.625 44.4837 65.2958 43.6888 64.7097 43.1028C64.1237 42.5167 63.3288 42.1875 62.5 42.1875H56.25C55.4212 42.1875 54.6263 42.5167 54.0403 43.1028C53.4542 43.6888 53.125 44.4837 53.125 45.3125V50C53.125 50.8288 53.4542 51.6237 54.0403 52.2097C54.6263 52.7958 55.4212 53.125 56.25 53.125ZM56.25 45.3125H62.5V50H56.25V45.3125Z" fill="#111928"/>
<path d="M53.125 64.0625C53.125 64.8913 53.4542 65.6862 54.0403 66.2722C54.6263 66.8583 55.4212 67.1875 56.25 67.1875C56.6644 67.1875 57.0618 67.0229 57.3549 66.7299C57.6479 66.4368 57.8125 66.0394 57.8125 65.625C57.8125 65.2106 57.6479 64.8132 57.3549 64.5201C57.0618 64.2271 56.6644 64.0625 56.25 64.0625V59.375H62.5C62.9144 59.375 63.3118 59.2104 63.6049 58.9174C63.8979 58.6243 64.0625 58.2269 64.0625 57.8125C64.0625 57.3981 63.8979 57.0007 63.6049 56.7076C63.3118 56.4146 62.9144 56.25 62.5 56.25H56.25C55.4212 56.25 54.6263 56.5792 54.0403 57.1653C53.4542 57.7513 53.125 58.5462 53.125 59.375V64.0625Z" fill="#111928"/>
<path d="M25 70.3125H18.75C17.9212 70.3125 17.1263 70.6417 16.5403 71.2278C15.9542 71.8138 15.625 72.6087 15.625 73.4375V78.125C15.625 78.9538 15.9542 79.7487 16.5403 80.3347C17.1263 80.9208 17.9212 81.25 18.75 81.25H25C25.8288 81.25 26.6237 80.9208 27.2097 80.3347C27.7958 79.7487 28.125 78.9538 28.125 78.125V73.4375C28.125 72.6087 27.7958 71.8138 27.2097 71.2278C26.6237 70.6417 25.8288 70.3125 25 70.3125ZM18.75 78.125V73.4375H25V78.125H18.75Z" fill="#111928"/>
<path d="M76.5625 56.25C72.5451 56.25 68.6179 57.4413 65.2775 59.6733C61.9371 61.9052 59.3336 65.0776 57.7962 68.7892C56.2588 72.5009 55.8565 76.585 56.6403 80.5253C57.4241 84.4655 59.3587 88.0848 62.1994 90.9256C65.0402 93.7664 68.6595 95.7009 72.5997 96.4847C76.54 97.2685 80.6241 96.8662 84.3358 95.3288C88.0474 93.7914 91.2198 91.1879 93.4517 87.8475C95.6837 84.5071 96.875 80.5799 96.875 76.5625C96.8688 71.1772 94.7268 66.0142 90.9188 62.2062C87.1108 58.3983 81.9478 56.2562 76.5625 56.25ZM76.5625 93.75C73.1631 93.75 69.8401 92.742 67.0136 90.8534C64.1872 88.9648 61.9842 86.2805 60.6833 83.1399C59.3825 79.9993 59.0421 76.5434 59.7053 73.2094C60.3684 69.8753 62.0054 66.8128 64.4091 64.4091C66.8128 62.0054 69.8753 60.3684 73.2094 59.7053C76.5434 59.0421 79.9993 59.3824 83.1399 60.6833C86.2805 61.9842 88.9648 64.1872 90.8534 67.0136C92.742 69.8401 93.75 73.1631 93.75 76.5625C93.7446 81.1193 91.9321 85.4878 88.71 88.71C85.4879 91.9321 81.1193 93.7446 76.5625 93.75Z" fill="#111928"/>
<path d="M85.5907 70.0123L73.4375 82.1655L67.9141 76.6405C67.6194 76.3558 67.2247 76.1984 66.815 76.2019C66.4054 76.2055 66.0135 76.3698 65.7238 76.6595C65.4341 76.9492 65.2697 77.3411 65.2662 77.7508C65.2626 78.1605 65.4201 78.5552 65.7047 78.8498L72.3329 85.4795C72.6259 85.7725 73.0232 85.937 73.4375 85.937C73.8519 85.937 74.2492 85.7725 74.5422 85.4795L87.8 72.2217C88.0847 71.927 88.2422 71.5323 88.2386 71.1227C88.235 70.713 88.0707 70.3211 87.781 70.0314C87.4913 69.7417 87.0994 69.5773 86.6897 69.5738C86.28 69.5702 85.8854 69.7277 85.5907 70.0123Z" fill="#111928"/>
</svg>
