<svg width="512" height="512" viewBox="0 0 512 512" fill="none" xmlns="http://www.w3.org/2000/svg">
<g clip-path="url(#clip0_6069_17104)">
<path d="M505.418 138.497C499.496 132.437 490.13 130.344 482.14 133.107L379.033 29.4191C381.474 21.5778 379.645 12.7244 373.503 6.58219C364.649 -2.27016 350.153 -2.18315 341.189 6.7812C331.526 16.4456 324.082 28.5941 319.064 42.8876C315.718 52.016 330.123 57.0902 333.22 47.8538C337.485 35.6993 343.736 25.4489 351.798 17.3876C359.019 9.96532 370.13 21.0558 362.697 28.288C337.012 53.974 339.285 103.901 347.103 145.182C339.875 143.376 335.952 142.133 330.106 140.558C326.377 118.299 325.225 98.0468 326.683 80.3011C327.023 76.1729 323.951 72.5508 319.822 72.2118C315.71 71.8747 312.073 74.9429 311.733 79.072C310.306 96.4217 311.198 115.88 314.365 137.035C306.579 135.595 298.8 134.606 291.127 134.106C244.719 131.1 203.103 145.495 173.949 174.649C144.789 203.81 130.396 245.43 133.419 291.822C133.861 299.43 134.811 307.059 136.259 314.844C90.8874 307.97 38.5433 309.426 6.7801 341.187C-2.18325 350.152 -2.27226 364.646 6.58209 373.502C11.9333 378.936 19.9716 381.226 27.4189 379.573L85.5462 437.7C88.4763 440.628 93.2235 440.628 96.1536 437.7C99.0827 434.77 99.0827 430.022 96.1536 427.093L40.7054 371.644C49.2948 364.114 61.8313 359.903 76.5718 358.183L153.955 435.22C152.342 449.46 148.28 462.299 140.357 471.294L120.904 451.841C117.973 448.912 113.225 448.912 110.296 451.841C107.367 454.771 107.367 459.519 110.296 462.448L132.427 484.579C130.774 492.032 133.065 500.066 138.495 505.415C142.887 509.806 148.665 511.996 154.469 511.996C160.367 511.996 166.292 509.732 170.812 505.215C170.812 505.215 170.812 505.215 170.813 505.214C186.646 489.379 196.269 467.094 199.413 438.978C201.497 420.333 200.741 399.103 197.178 375.745C204.502 377.106 211.761 378.034 218.899 378.498C225.754 378.979 232.697 379.102 239.39 378.829C243.529 378.661 246.748 375.17 246.58 371.03C246.411 366.891 242.876 363.692 238.782 363.84C232.613 364.097 226.201 363.975 219.874 363.528C209.071 362.826 197.936 360.974 186.698 358.037C182.263 356.904 177.909 355.515 173.464 354.333C158.269 350.198 134.53 344.722 109.818 342.852C71.7686 339.972 44.3366 346.649 28.2879 362.697C25.3788 365.738 20.1246 365.939 17.1895 362.894C14.1834 359.889 14.2724 354.911 17.3875 351.796C47.2667 321.917 100.267 323.215 144.261 331.346C170.22 335.489 196.731 346.811 222.71 347.949C260.074 350.378 293.155 339.225 315.84 316.543C338.524 293.862 349.68 260.79 347.252 223.419C346.561 212.788 344.791 201.964 341.992 191.167C347.79 192.558 353.517 193.806 359.132 194.901C361.064 203.919 362.339 212.96 362.916 221.844C365.646 263.885 352.799 301.388 326.74 327.445C311.768 342.414 293.258 352.981 271.722 358.85C267.726 359.94 265.369 364.062 266.458 368.059C267.535 372.09 271.778 374.416 275.668 373.324C299.753 366.758 320.504 354.891 337.345 338.052C366.501 308.899 380.899 267.282 377.885 220.872C377.387 213.194 376.402 205.416 374.966 197.636C398.452 201.155 419.808 201.857 438.573 199.71C466.851 196.477 489.273 186.753 505.216 170.812C514.182 161.848 514.271 147.352 505.418 138.497ZM160.207 494.609C157.09 497.723 152.11 497.815 149.105 494.809C146.063 491.877 146.263 486.617 149.306 483.709C174.76 458.254 172.321 408.579 164.377 367.447C170.214 368.909 175.665 370.582 181.407 372.163C188.318 412.718 189.646 465.169 160.207 494.609ZM148.299 363.65C151.367 378.156 154.379 396.688 154.78 414.874L96.9296 357.283C113.216 357.57 130.917 359.967 148.299 363.65ZM370.476 42.0886L469.599 141.77C460.208 149.208 447.242 152.977 433.031 154.428L357.577 78.96C359.045 64.5955 362.879 51.5009 370.476 42.0886ZM363.13 148.865C360.226 134.851 357.403 117.104 356.913 99.5128L412.48 155.089C394.889 154.597 377.143 151.771 363.13 148.865ZM201.651 211.551L214.174 224.075C217.104 227.003 221.852 227.003 224.782 224.075C227.711 221.145 227.711 216.396 224.782 213.467L212.382 201.068C221.709 193.448 232.703 187.749 244.929 184.117L327.885 267.073C324.254 279.301 318.554 290.294 310.936 299.622L249.532 238.217C246.601 235.289 241.853 235.289 238.924 238.217C235.995 241.147 235.995 245.896 238.924 248.825L300.452 310.352C291.342 318.154 280.554 324.057 268.517 327.916L184.085 243.483C187.944 231.447 193.847 220.66 201.651 211.551ZM325.207 186.794C331.439 207.26 334.259 228.818 331.557 249.529L262.471 180.442C283.187 177.739 304.755 180.56 325.207 186.794ZM223.692 332.981C211.563 332.354 198.667 329.689 186.159 325.848C179.467 304.449 176.871 282.154 180.088 260.702L251.296 331.91C242.521 333.228 233.278 333.604 223.692 332.981ZM494.609 160.206C463.785 191.031 408.089 188.577 366.758 181.076C341.324 177.103 314.478 165.977 288.582 164.743C251.212 162.319 218.138 173.478 195.456 196.161C172.773 218.845 161.618 251.92 164.049 289.322C164.677 299.834 166.399 310.464 169.297 321.39C163.631 320.043 157.802 318.709 152.108 317.595C150.132 308.522 148.897 299.661 148.39 290.871C145.651 248.829 158.494 211.321 184.557 185.259C210.615 159.2 248.118 146.348 290.155 149.078C314.038 150.359 330.026 156.823 355.198 162.509C398.282 172.026 455.554 177.462 483.71 149.305C486.611 146.256 491.892 146.086 494.81 149.105C497.853 152.038 497.653 157.297 494.609 160.206Z" fill="#111928"/>
</g>
<defs>
<clipPath id="clip0_6069_17104">
<rect width="512" height="512" fill="white"/>
</clipPath>
</defs>
</svg>
