<svg width="512" height="512" viewBox="0 0 512 512" fill="none" xmlns="http://www.w3.org/2000/svg">
<path d="M256 202.667C245.452 202.667 235.14 205.795 226.37 211.655C217.599 217.515 210.763 225.845 206.726 235.59C202.69 245.336 201.634 256.059 203.691 266.405C205.749 276.75 210.829 286.254 218.288 293.712C225.746 301.171 235.25 306.251 245.595 308.309C255.941 310.366 266.664 309.31 276.41 305.274C286.155 301.237 294.485 294.401 300.345 285.63C306.205 276.86 309.333 266.548 309.333 256C309.316 241.86 303.692 228.305 293.694 218.306C283.695 208.308 270.14 202.684 256 202.667ZM256 288C249.671 288 243.484 286.123 238.222 282.607C232.959 279.091 228.858 274.093 226.436 268.246C224.014 262.399 223.38 255.964 224.615 249.757C225.85 243.55 228.897 237.848 233.373 233.373C237.848 228.897 243.55 225.85 249.757 224.615C255.964 223.38 262.399 224.014 268.246 226.436C274.093 228.858 279.091 232.959 282.607 238.222C286.123 243.484 288 249.671 288 256C287.99 264.484 284.616 272.618 278.617 278.617C272.618 284.616 264.484 287.99 256 288ZM256 373.333C245.452 373.333 235.14 376.461 226.37 382.322C217.599 388.182 210.763 396.511 206.726 406.257C202.69 416.002 201.634 426.726 203.691 437.072C205.749 447.417 210.829 456.92 218.288 464.379C225.746 471.838 235.25 476.917 245.595 478.975C255.941 481.033 266.664 479.977 276.41 475.94C286.155 471.904 294.485 465.068 300.345 456.297C306.205 447.526 309.333 437.215 309.333 426.667C309.316 412.527 303.692 398.971 293.694 388.973C283.695 378.975 270.14 373.35 256 373.333ZM256 458.667C249.671 458.667 243.484 456.79 238.222 453.274C232.959 449.757 228.858 444.76 226.436 438.913C224.014 433.065 223.38 426.631 224.615 420.424C225.85 414.216 228.897 408.515 233.373 404.039C237.848 399.564 243.55 396.516 249.757 395.282C255.964 394.047 262.399 394.681 268.246 397.103C274.093 399.525 279.091 403.626 282.607 408.888C286.123 414.151 288 420.338 288 426.667C287.99 435.151 284.616 443.284 278.617 449.284C272.618 455.283 264.484 458.657 256 458.667ZM85.3333 309.333C95.8817 309.333 106.193 306.205 114.964 300.345C123.734 294.485 130.57 286.155 134.607 276.41C138.644 266.664 139.7 255.941 137.642 245.595C135.584 235.25 130.504 225.746 123.046 218.288C115.587 210.829 106.084 205.749 95.7382 203.691C85.3925 201.634 74.6689 202.69 64.9235 206.726C55.1782 210.763 46.8486 217.599 40.9883 226.37C35.1279 235.14 32 245.452 32 256C32.0169 270.14 37.6414 283.695 47.6397 293.694C57.638 303.692 71.1937 309.316 85.3333 309.333ZM85.3333 224C91.6623 224 97.8492 225.877 103.112 229.393C108.374 232.909 112.475 237.907 114.897 243.754C117.319 249.601 117.953 256.036 116.718 262.243C115.484 268.45 112.436 274.152 107.961 278.627C103.485 283.103 97.7836 286.15 91.5762 287.385C85.3688 288.62 78.9347 287.986 73.0875 285.564C67.2402 283.142 62.2425 279.041 58.7263 273.778C55.2101 268.516 53.3333 262.329 53.3333 256C53.3429 247.516 56.7174 239.382 62.7165 233.383C68.7156 227.384 76.8494 224.01 85.3333 224ZM426.667 202.667C416.118 202.667 405.807 205.795 397.036 211.655C388.266 217.515 381.43 225.845 377.393 235.59C373.356 245.336 372.3 256.059 374.358 266.405C376.416 276.75 381.496 286.254 388.954 293.712C396.413 301.171 405.916 306.251 416.262 308.309C426.608 310.366 437.331 309.31 447.076 305.274C456.822 301.237 465.151 294.401 471.012 285.63C476.872 276.86 480 266.548 480 256C479.983 241.86 474.359 228.305 464.36 218.306C454.362 208.308 440.806 202.684 426.667 202.667ZM426.667 288C420.338 288 414.151 286.123 408.888 282.607C403.626 279.091 399.525 274.093 397.103 268.246C394.681 262.399 394.047 255.964 395.282 249.757C396.516 243.55 399.564 237.848 404.039 233.373C408.515 228.897 414.216 225.85 420.424 224.615C426.631 223.38 433.065 224.014 438.913 226.436C444.76 228.858 449.757 232.959 453.274 238.222C456.79 243.484 458.667 249.671 458.667 256C458.657 264.484 455.283 272.618 449.284 278.617C443.284 284.616 435.151 287.99 426.667 288ZM85.3333 480C95.8817 480 106.193 476.872 114.964 471.012C123.734 465.151 130.57 456.822 134.607 447.076C138.644 437.331 139.7 426.608 137.642 416.262C135.584 405.916 130.504 396.413 123.046 388.954C115.587 381.496 106.084 376.416 95.7382 374.358C85.3925 372.3 74.6689 373.356 64.9235 377.393C55.1782 381.43 46.8486 388.266 40.9883 397.036C35.1279 405.807 32 416.118 32 426.667C32.0169 440.806 37.6414 454.362 47.6397 464.36C57.638 474.359 71.1937 479.983 85.3333 480ZM85.3333 394.667C91.6623 394.667 97.8492 396.543 103.112 400.06C108.374 403.576 112.475 408.574 114.897 414.421C117.319 420.268 117.953 426.702 116.718 432.91C115.484 439.117 112.436 444.819 107.961 449.294C103.485 453.769 97.7836 456.817 91.5762 458.052C85.3688 459.287 78.9347 458.653 73.0875 456.231C67.2402 453.809 62.2425 449.707 58.7263 444.445C55.2101 439.183 53.3333 432.996 53.3333 426.667C53.3429 418.183 56.7174 410.049 62.7165 404.05C68.7156 398.051 76.8494 394.676 85.3333 394.667ZM426.667 373.333C416.118 373.333 405.807 376.461 397.036 382.322C388.266 388.182 381.43 396.511 377.393 406.257C373.356 416.002 372.3 426.726 374.358 437.072C376.416 447.417 381.496 456.92 388.954 464.379C396.413 471.838 405.916 476.917 416.262 478.975C426.608 481.033 437.331 479.977 447.076 475.94C456.822 471.904 465.151 465.068 471.012 456.297C476.872 447.526 480 437.215 480 426.667C479.983 412.527 474.359 398.971 464.36 388.973C454.362 378.975 440.806 373.35 426.667 373.333ZM426.667 458.667C420.338 458.667 414.151 456.79 408.888 453.274C403.626 449.757 399.525 444.76 397.103 438.913C394.681 433.065 394.047 426.631 395.282 420.424C396.516 414.216 399.564 408.515 404.039 404.039C408.515 399.564 414.216 396.516 420.424 395.282C426.631 394.047 433.065 394.681 438.913 397.103C444.76 399.525 449.757 403.626 453.274 408.888C456.79 414.151 458.667 420.338 458.667 426.667C458.657 435.151 455.283 443.284 449.284 449.284C443.284 455.283 435.151 458.657 426.667 458.667ZM256 32C245.452 32 235.14 35.1279 226.37 40.9883C217.599 46.8486 210.763 55.1782 206.726 64.9235C202.69 74.6689 201.634 85.3925 203.691 95.7382C205.749 106.084 210.829 115.587 218.288 123.046C225.746 130.504 235.25 135.584 245.595 137.642C255.941 139.7 266.664 138.644 276.41 134.607C286.155 130.57 294.485 123.734 300.345 114.964C306.205 106.193 309.333 95.8817 309.333 85.3333C309.316 71.1937 303.692 57.638 293.694 47.6397C283.695 37.6414 270.14 32.0169 256 32ZM256 117.333C249.671 117.333 243.484 115.457 238.222 111.94C232.959 108.424 228.858 103.426 226.436 97.5792C224.014 91.732 223.38 85.2978 224.615 79.0904C225.85 72.8831 228.897 67.1812 233.373 62.7059C237.848 58.2306 243.55 55.1829 249.757 53.9482C255.964 52.7135 262.399 53.3472 268.246 55.7692C274.093 58.1912 279.091 62.2927 282.607 67.5551C286.123 72.8175 288 79.0043 288 85.3333C287.99 93.8173 284.616 101.951 278.617 107.95C272.618 113.949 264.484 117.324 256 117.333ZM32 85.3333C32 95.8817 35.1279 106.193 40.9883 114.964C46.8486 123.734 55.1782 130.57 64.9235 134.607C74.6689 138.644 85.3925 139.7 95.7382 137.642C106.084 135.584 115.587 130.504 123.046 123.046C130.504 115.587 135.584 106.084 137.642 95.7382C139.7 85.3925 138.644 74.6689 134.607 64.9235C130.57 55.1782 123.734 46.8486 114.964 40.9883C106.193 35.1279 95.8817 32 85.3333 32C71.1937 32.0169 57.638 37.6414 47.6397 47.6397C37.6414 57.638 32.0169 71.1937 32 85.3333ZM117.333 85.3333C117.333 91.6623 115.457 97.8492 111.94 103.112C108.424 108.374 103.426 112.475 97.5792 114.897C91.732 117.319 85.2978 117.953 79.0904 116.718C72.8831 115.484 67.1812 112.436 62.7059 107.961C58.2306 103.485 55.1829 97.7836 53.9482 91.5762C52.7135 85.3688 53.3472 78.9347 55.7692 73.0875C58.1912 67.2402 62.2927 62.2425 67.5551 58.7263C72.8175 55.2101 79.0043 53.3333 85.3333 53.3333C93.8173 53.3429 101.951 56.7174 107.95 62.7165C113.949 68.7156 117.324 76.8494 117.333 85.3333ZM426.667 32C416.118 32 405.807 35.1279 397.036 40.9883C388.266 46.8486 381.43 55.1782 377.393 64.9235C373.356 74.6689 372.3 85.3925 374.358 95.7382C376.416 106.084 381.496 115.587 388.954 123.046C396.413 130.504 405.916 135.584 416.262 137.642C426.608 139.7 437.331 138.644 447.076 134.607C456.822 130.57 465.151 123.734 471.012 114.964C476.872 106.193 480 95.8817 480 85.3333C479.983 71.1937 474.359 57.638 464.36 47.6397C454.362 37.6414 440.806 32.0169 426.667 32ZM426.667 117.333C420.338 117.333 414.151 115.457 408.888 111.94C403.626 108.424 399.525 103.426 397.103 97.5792C394.681 91.732 394.047 85.2978 395.282 79.0904C396.516 72.8831 399.564 67.1812 404.039 62.7059C408.515 58.2306 414.216 55.1829 420.424 53.9482C426.631 52.7135 433.065 53.3472 438.913 55.7692C444.76 58.1912 449.757 62.2927 453.274 67.5551C456.79 72.8175 458.667 79.0043 458.667 85.3333C458.657 93.8173 455.283 101.951 449.284 107.95C443.284 113.949 435.151 117.324 426.667 117.333Z" fill="#111928"/>
</svg>
