<svg width="40" height="40" viewBox="0 0 40 40" fill="none" xmlns="http://www.w3.org/2000/svg">
<path d="M24.5473 21.0572L27.0328 21.8884C27.8708 22.2321 28.8231 21.782 29.0894 20.9163C29.2945 20.2491 29.0254 19.5273 28.4334 19.1574L24.6953 17.0879L22.3613 13.4863" stroke="#F27430" stroke-width="1.2" stroke-miterlimit="10" stroke-linecap="round" stroke-linejoin="round"/>
<path d="M19.6738 9.98031C21.7372 9.98031 23.41 8.30754 23.41 6.24406C23.41 4.18059 21.7372 2.50781 19.6738 2.50781C17.6103 2.50781 15.9375 4.18059 15.9375 6.24406C15.9375 8.30754 17.6103 9.98031 19.6738 9.98031Z" stroke="#F27430" stroke-width="1.2" stroke-miterlimit="10" stroke-linecap="round" stroke-linejoin="round"/>
<path d="M15.3838 25.3398L15.1188 28.4804L10.6033 34.8431C10.0444 35.5025 10.1046 36.4852 10.7397 37.0716C11.3604 37.6445 12.318 37.6417 12.9352 37.065L17.4778 31.8523C18.0591 31.1853 18.5009 30.4087 18.7773 29.5682L19.6741 26.7241" stroke="#F27430" stroke-width="1.2" stroke-miterlimit="10" stroke-linecap="round" stroke-linejoin="round"/>
<path d="M18.4832 11.25H19.1243C21.0377 11.25 22.5888 12.8011 22.5888 14.7146V20.8897C22.5888 21.675 22.9008 22.4281 23.4561 22.9834L25.8475 25.3749C26.7022 26.2296 27.2977 27.3087 27.5652 28.4875L29.1695 35.557C29.3251 36.5792 28.5339 37.5 27.5 37.5C26.7399 37.5 26.0736 36.9923 25.8718 36.2595L23.4104 29.5125L17.2301 24.452C16.241 23.6421 15.6888 22.4153 15.7383 21.1379L15.9221 16.3944L13.7174 18.1792L12.9813 21.8966C12.8083 22.7702 11.9575 23.3362 11.085 23.1582C10.2429 22.9865 9.68533 22.1822 9.81979 21.3334L10.495 17.071C10.6483 16.103 11.1754 15.2338 11.9629 14.6503L15.0004 12.3997C16.0081 11.653 17.2291 11.25 18.4832 11.25Z" stroke="#F27430" stroke-width="1.2" stroke-miterlimit="10" stroke-linecap="round" stroke-linejoin="round"/>
</svg>
