<svg width="40" height="40" viewBox="0 0 40 40" fill="none" xmlns="http://www.w3.org/2000/svg">
<path d="M33.8011 10.0851C33.8011 7.28096 31.5168 5 28.7093 5C26.0716 5 23.8978 7.01938 23.6496 9.59319C23.2602 9.49136 22.8582 9.42147 22.4382 9.42147C20.4135 9.42147 18.5113 10.1896 17.0809 11.584C15.2419 13.377 12.8199 16.4627 11.721 20.98C11.2777 22.803 11.685 24.69 12.8385 26.1576C13.1254 26.5223 13.4488 26.8478 13.8009 27.1307H7.66558C7.29752 27.1307 7 27.4288 7 27.7962V31.2906C7 31.658 7.29752 31.9561 7.66558 31.9561H13.6006V37.1144C13.6006 37.4818 13.8981 37.78 14.2662 37.78H17.7605C18.1286 37.78 18.4261 37.4818 18.4261 37.1144V31.9561H24.3611C24.7292 31.9561 25.0267 31.658 25.0267 31.2906V28.4379H26.4058V34.8767C26.4058 36.4775 27.7083 37.78 29.309 37.78C30.9098 37.78 32.2116 36.4775 32.2116 34.8767V27.4874C32.2116 25.5339 31.0216 23.854 29.3283 23.1332L27.4966 15.0264C27.892 15.1242 28.2987 15.1774 28.7087 15.1774C31.5168 15.1768 33.8011 12.8925 33.8011 10.0851ZM17.0942 36.4488H14.9311V31.9561H17.0942V36.4488ZM23.6948 30.625H17.7598H14.2655H8.3305V28.4618H23.6948V30.625ZM27.8827 22.7737C27.7502 22.7624 27.6165 22.7571 27.4807 22.7571H24.9215L23.0459 17.1689C22.9594 16.9113 22.7251 16.7322 22.4535 16.7163C22.1846 16.703 21.9284 16.8514 21.8126 17.097L18.9632 23.1385C18.866 23.3448 18.8807 23.5864 19.0031 23.7788C19.1256 23.9711 19.3373 24.0876 19.5656 24.0876H27.4813C29.3556 24.0876 30.8805 25.6125 30.8805 27.4867V34.8767C30.8805 35.7433 30.175 36.4488 29.309 36.4488C28.4418 36.4488 27.7369 35.7433 27.7369 34.8767V27.7723C27.7369 27.4049 27.4394 27.1067 27.0713 27.1067H17.5322C16.0992 27.1067 14.77 26.4611 13.8855 25.3349C12.9856 24.1901 12.6681 22.7172 13.0142 21.2942C14.0385 17.0837 16.2962 14.2077 18.0101 12.5364C19.1895 11.3863 20.7629 10.7526 22.4375 10.7526C24.0443 10.7526 25.414 11.8469 25.7675 13.4143L27.8827 22.7737ZM23.5185 22.7571H20.6158L22.3118 19.1623L23.5185 22.7571ZM27.1512 13.4955L27.0667 13.1208C26.7785 11.8449 25.9978 10.8059 24.9588 10.1543C24.9581 10.131 24.9561 10.1077 24.9561 10.0851C24.9561 8.01509 26.64 6.33117 28.71 6.33117C30.7833 6.33117 32.4706 8.01509 32.4706 10.0851C32.4706 12.1584 30.7833 13.8456 28.71 13.8456C28.1689 13.8456 27.6371 13.7211 27.1512 13.4955Z" fill="#FBBF24"/>
</svg>
