<svg width="40" height="40" viewBox="0 0 40 40" fill="none" xmlns="http://www.w3.org/2000/svg">
<path fill-rule="evenodd" clip-rule="evenodd" d="M29.5765 5.17426C29.8644 5.02638 30.2176 5.13983 30.3655 5.42766L31.0323 6.72548C31.0394 6.73942 31.0461 6.75365 31.0521 6.76812C31.0586 6.78372 31.0664 6.80171 31.0751 6.82187C31.135 6.96028 31.239 7.20066 31.2703 7.46704C31.311 7.81287 31.2364 8.17725 30.9929 8.55793C30.9894 8.56339 30.9859 8.56879 30.9822 8.57414L30.2573 9.62867C30.074 9.89535 29.7092 9.96294 29.4426 9.77963C29.1759 9.59633 29.1083 9.23154 29.2916 8.96486L30.0104 7.91916C30.1135 7.75521 30.1133 7.66194 30.1065 7.60391C30.0965 7.51914 30.0672 7.44939 30.0055 7.30266C29.9973 7.28329 29.9886 7.26257 29.9793 7.2403L29.3231 5.96321C29.1753 5.67537 29.2887 5.32215 29.5765 5.17426Z" fill="#1A8245"/>
<path fill-rule="evenodd" clip-rule="evenodd" d="M15.3814 23.0464C15.6158 23.2695 15.6249 23.6404 15.4017 23.8748L1.81595 38.1429C1.5928 38.3772 1.22191 38.3863 0.987553 38.1632C0.753195 37.94 0.74411 37.5691 0.96726 37.3348L14.553 23.0667C14.7762 22.8323 15.1471 22.8232 15.3814 23.0464Z" fill="#1A8245"/>
<path fill-rule="evenodd" clip-rule="evenodd" d="M29.2156 1.39675C29.4885 1.26433 29.8174 1.3621 29.9736 1.62212C30.9845 3.3044 31.0794 4.66656 30.3508 5.6171C29.6729 6.50163 28.4565 6.7726 27.4643 6.75365C27.1408 6.74747 26.8835 6.48018 26.8897 6.15663C26.8959 5.83309 27.1632 5.57581 27.4867 5.58199C28.3353 5.5982 29.0796 5.34936 29.4207 4.90423C29.6799 4.56603 29.8451 3.91091 29.2285 2.69301L25.7675 4.37232L25.7675 4.37235C25.1497 4.67203 24.8918 5.41587 25.1915 6.03373C25.1953 6.04155 25.1989 6.04945 25.2024 6.05744L26.7914 9.74212C26.8679 9.91958 26.852 10.1234 26.7489 10.2868C26.6457 10.4503 26.4687 10.5523 26.2755 10.5597L24.5828 10.6239L24.5828 10.6239C24.2068 10.6381 23.8513 10.7996 23.5931 11.0736C23.5931 11.0736 23.5931 11.0736 23.5931 11.0736L20.2909 14.5778C19.8815 15.0123 20.0503 15.724 20.6112 15.9284C20.6206 15.9318 20.6299 15.9355 20.6392 15.9394L26.4054 18.3812C26.8111 18.5222 27.2601 18.3456 27.4605 17.9641C27.7056 17.4976 27.4826 16.922 26.9871 16.7422C26.9796 16.7395 26.9721 16.7366 26.9646 16.7336L23.2163 15.1967C23.0372 15.1232 22.9059 14.9661 22.8655 14.7768C22.8251 14.5876 22.8808 14.3905 23.0143 14.2504L24.2977 12.9031C24.521 12.6688 24.8918 12.6598 25.1261 12.883C25.3605 13.1062 25.3695 13.4771 25.1462 13.7114L24.4543 14.4377L27.399 15.6451C28.5535 16.0719 29.0714 17.4175 28.498 18.5091C28.0228 19.4137 26.952 19.8277 25.9919 19.4779C25.9825 19.4745 25.9732 19.4708 25.964 19.4669L20.1949 17.0239C18.8549 16.524 18.4548 14.8175 19.4381 13.7741L19.4381 13.7741L22.7403 10.2699L22.7403 10.2698C23.2093 9.77224 23.8551 9.47875 24.5384 9.45285L25.3767 9.42105L24.1311 6.53265C23.5585 5.33505 24.06 3.89818 25.256 3.318C25.256 3.31799 25.256 3.31799 25.256 3.31798L29.2156 1.39675Z" fill="#1A8245"/>
<path fill-rule="evenodd" clip-rule="evenodd" d="M18.1968 24.8813C18.4328 25.1028 18.4446 25.4736 18.2231 25.7096L8.8047 35.7455C8.58325 35.9815 8.21244 35.9932 7.97648 35.7718C7.74051 35.5503 7.72874 35.1795 7.95019 34.9436L17.3686 24.9076C17.5901 24.6717 17.9609 24.6599 18.1968 24.8813Z" fill="#1A8245"/>
<path fill-rule="evenodd" clip-rule="evenodd" d="M21.1679 16.4383C21.4059 16.6576 21.421 17.0283 21.2017 17.2662L18.5826 20.108C18.5826 20.108 18.5826 20.108 18.5826 20.108C17.8784 20.872 18.1147 22.0961 19.0448 22.5461L23.9085 24.1582C24.1149 24.2266 24.2664 24.4037 24.3021 24.6181C24.3378 24.8326 24.2518 25.0492 24.0787 25.1808L19.6289 28.5639C19.2386 28.8605 19.1821 29.4261 19.5059 29.7942C19.7986 30.1268 20.2984 30.1768 20.6511 29.9088L20.6537 29.9069L26.7994 25.2897C27.5798 24.7034 27.4163 23.4885 26.5087 23.1294L22.1434 21.4018C21.8425 21.2827 21.6951 20.9422 21.8141 20.6413C21.9332 20.3404 22.2737 20.1931 22.5746 20.3121L26.9399 22.0397C26.9399 22.0397 26.9399 22.0397 26.9399 22.0397C28.699 22.7358 29.0158 25.0902 27.5033 26.2266C27.5033 26.2266 27.5033 26.2266 27.5033 26.2266L21.3601 30.8419C21.3596 30.8423 21.3591 30.8427 21.3587 30.843C20.5166 31.4816 19.3243 31.3618 18.6261 30.5683C17.8529 29.6895 17.9879 28.3393 18.9197 27.631L22.4845 24.9208L18.6426 23.6474C18.6219 23.6405 18.6015 23.6325 18.5817 23.6233C16.9064 22.8513 16.4708 20.6701 17.7208 19.3138L20.34 16.472C20.5593 16.2341 20.93 16.219 21.1679 16.4383Z" fill="#1A8245"/>
<path fill-rule="evenodd" clip-rule="evenodd" d="M37.7141 4.45361C37.4401 4.13261 36.9577 4.09454 36.6367 4.36857L36.2563 3.92293L36.6367 4.36857L33.0805 7.40451C32.8344 7.61462 32.4645 7.58542 32.2544 7.33931C32.0443 7.09319 32.0735 6.72334 32.3196 6.51323L35.8759 3.4773C36.6891 2.78304 37.9111 2.87951 38.6054 3.69273C39.2996 4.50596 39.2032 5.72799 38.3899 6.42224L28.5494 14.8231C28.3033 15.0332 27.9334 15.004 27.7233 14.7579C27.5132 14.5118 27.5424 14.1419 27.7885 13.9318L37.6291 5.53097C37.9501 5.25694 37.9881 4.77459 37.7141 4.45361Z" fill="#1A8245"/>
<path fill-rule="evenodd" clip-rule="evenodd" d="M24.3813 10.0597C24.465 10.3723 24.2793 10.6935 23.9667 10.7771L5.29969 15.7701C5.28839 15.7794 5.27601 15.7897 5.26264 15.8011C5.18354 15.8682 5.0713 15.9698 4.94583 16.1019C4.69199 16.369 4.3997 16.7447 4.20859 17.1982C4.02034 17.645 3.93148 18.1624 4.06836 18.7414C4.18879 19.2507 4.4941 19.8504 5.13504 20.5183L16.6943 14.3107C16.9793 14.1576 17.3346 14.2645 17.4877 14.5496C17.6408 14.8347 17.5338 15.19 17.2487 15.3431L5.30971 21.7547C5.08903 21.8732 4.81743 21.8384 4.63385 21.6679C3.66127 20.7651 3.13124 19.8709 2.92793 19.011C2.72385 18.1478 2.8623 17.3753 3.12867 16.7432C3.39218 16.1178 3.78181 15.6257 4.09625 15.2947C4.25492 15.1277 4.3984 14.9976 4.50399 14.9079C4.55689 14.863 4.6006 14.8279 4.63235 14.8032C4.64823 14.7908 4.66115 14.781 4.67076 14.7738C4.67556 14.7702 4.67954 14.7672 4.68266 14.7649L4.68668 14.762L4.68819 14.7609L4.68882 14.7604C4.6891 14.7602 4.68936 14.76 5.03249 15.235L4.68936 14.76C4.74719 14.7182 4.81217 14.6874 4.88109 14.6689L23.6639 9.64504C23.9765 9.56143 24.2977 9.74707 24.3813 10.0597Z" fill="#1A8245"/>
<path fill-rule="evenodd" clip-rule="evenodd" d="M6.42619 19.9893C6.65322 19.7587 7.0242 19.7558 7.25481 19.9828C7.82058 20.5398 8.38237 20.8654 8.94306 21.0805C9.24518 21.1965 9.39611 21.5354 9.28016 21.8375C9.16421 22.1396 8.82531 22.2906 8.52319 22.1746C7.82419 21.9064 7.12224 21.4968 6.43269 20.8179C6.20208 20.5909 6.19917 20.2199 6.42619 19.9893Z" fill="#1A8245"/>
<path fill-rule="evenodd" clip-rule="evenodd" d="M11.7456 21.7726C11.9747 22.001 11.9753 22.372 11.7468 22.6012L7.25869 27.1028C7.03021 27.332 6.65922 27.3326 6.43005 27.1041C6.20089 26.8756 6.20033 26.5046 6.42881 26.2754L10.9169 21.7738C11.1454 21.5446 11.5164 21.5441 11.7456 21.7726Z" fill="#1A8245"/>
</svg>
