<svg id="Layer_1" enable-background="new 0 0 50 50" height="512" viewBox="0 0 50 50" width="512" xmlns="http://www.w3.org/2000/svg"><g><path d="m4.4 1c-1.6 0-2.9 1.3-2.9 2.9v5.5c0 .6.4 1 1 1s1-.4 1-1v-5.5c0-.5.4-.9.9-.9h5.5c.6 0 1-.4 1-1s-.4-1-1-1z"/><path d="m2.5 33c-.6 0-1 .4-1 1v5.4c0 1.6 1.3 2.9 2.9 2.9h5.5c.6 0 1-.4 1-1s-.4-1-1-1h-5.5c-.5 0-.9-.4-.9-.9v-5.4c0-.6-.5-1-1-1z"/><path d="m45.6 42.3c1.6 0 2.9-1.3 2.9-2.9v-5.4c0-.6-.4-1-1-1s-1 .4-1 1v5.4c0 .5-.4.9-.9.9h-5.5c-.6 0-1 .4-1 1s.4 1 1 1z"/><path d="m47.5 10.4c.6 0 1-.4 1-1v-5.5c0-1.6-1.3-2.9-2.9-2.9h-5.5c-.6 0-1 .4-1 1s.4 1 1 1h5.5c.5 0 .9.4.9.9v5.5c0 .5.5 1 1 1z"/><path d="m48 23.1h-7.9c.1-.7.1-1.4.1-2.1 0-9.3-5.8-15.1-15.2-15.1s-15.2 5.7-15.2 15c0 .7 0 1.4.1 2.1h-7.9c-.6 0-1 .4-1 1s.4 1 1 1h8.2c.9 5.3 3.5 10.6 7.1 13.8v2.5c0 2.1-1.2 4.2-3.3 5.8-.4.3-.5 1-.2 1.4.2.3.5.4.8.4.2 0 .4-.1.6-.2 2.6-2 4-4.6 4-7.4v-1c1.8 1.1 3.7 1.8 5.8 1.8s4-.7 5.8-1.8v1c0 2.7 1.4 5.4 4 7.4.2.1.4.2.6.2.3 0 .6-.1.8-.4.3-.4.3-1.1-.2-1.4-2.1-1.6-3.3-3.7-3.3-5.8v-2.5c3.6-3.3 6.2-8.5 7.1-13.8h8.2c.6 0 1-.4 1-1s-.4-.9-1-.9zm-36.2-2.2c0-8.2 4.9-13.1 13.2-13.1s13.2 4.9 13.2 13.1c0 .7 0 1.4-.1 2.1h-26.2c-.1-.7-.1-1.4-.1-2.1zm13.2 19.4c-6.2 0-11.4-7.6-12.8-15.2h25.6c-1.4 7.6-6.6 15.2-12.8 15.2z"/></g></svg>