<?xml version="1.0" encoding="UTF-8" standalone="no"?>
<!-- Created with Inkscape (http://www.inkscape.org/) -->

<svg
   version="1.1"
   id="svg2727"
   xml:space="preserve"
   width="682.66669"
   height="682.66669"
   viewBox="0 0 682.66669 682.66669"
   xmlns="http://www.w3.org/2000/svg"
   xmlns:svg="http://www.w3.org/2000/svg"><defs
     id="defs2731"><clipPath
       clipPathUnits="userSpaceOnUse"
       id="clipPath2741"><path
         d="M 0,512 H 512 V 0 H 0 Z"
         id="path2739" /></clipPath></defs><g
     id="g2733"
     transform="matrix(1.3333333,0,0,-1.3333333,0,682.66667)"><g
       id="g2735"><g
         id="g2737"
         clip-path="url(#clipPath2741)"><g
           id="g2743"
           transform="translate(206.6667,10)"><path
             d="M 0,0 -33.859,73.193"
             style="fill:none;stroke:#000000;stroke-width:20;stroke-linecap:round;stroke-linejoin:round;stroke-miterlimit:10;stroke-dasharray:none;stroke-opacity:1"
             id="path2745" /></g><g
           id="g2747"
           transform="translate(356.9164,10)"><path
             d="M 0,0 -45.416,164.5"
             style="fill:none;stroke:#000000;stroke-width:20;stroke-linecap:round;stroke-linejoin:round;stroke-miterlimit:10;stroke-dasharray:none;stroke-opacity:1"
             id="path2749" /></g><g
           id="g2751"
           transform="translate(428.2362,245.1506)"><path
             d="m 0,0 c 4.956,17.506 7.609,35.98 7.609,55.074 0.002,110.393 -91.642,201.916 -202.034,201.775 -10.269,-0.013 -20.358,-0.793 -30.213,-2.285 -62.807,-9.513 -116.439,-51.249 -138.75,-110.726 -6.099,-16.258 -10.252,-34.726 -10.252,-54.874 0,-52.591 -25.512,-80.413 -41.16,-92.532 -5.01,-3.88 -4.421,-11.633 1.102,-14.738 15.046,-8.459 37.765,-16.806 37.765,-22.065 v -18.595 c 0,-6.549 -1.267,-13.037 -3.732,-19.104 v 0 c -2.959,-7.284 -1.785,-15.595 3.077,-21.773 v 0 -0.329 c 0,-6.693 2.951,-13.046 8.066,-17.363 v 0 -16.131 c 0,-22.032 17.861,-39.892 39.892,-39.892 h 10e-4 c 44.18,0 87.48,12.359 125.005,35.68 v 0"
             style="fill:none;stroke:#000000;stroke-width:20;stroke-linecap:round;stroke-linejoin:round;stroke-miterlimit:10;stroke-dasharray:none;stroke-opacity:1"
             id="path2753" /></g><g
           id="g2755"
           transform="translate(331.7257,123.6194)"><path
             d="M 0,0 C 20.252,11.222 38.37,25.826 53.592,43.05"
             style="fill:none;stroke:#000000;stroke-width:20;stroke-linecap:round;stroke-linejoin:round;stroke-miterlimit:10;stroke-dasharray:none;stroke-opacity:1"
             id="path2757" /></g><g
           id="g2759"
           transform="translate(81.7531,422.3281)"><path
             d="m 0,0 1.23,-0.313 c 50.483,-12.836 91.361,-49.79 109.211,-98.726 v 0 c 9.372,-25.694 25.27,-48.507 46.131,-66.195 l 17.802,-15.094 14.884,21.861 c 6.875,10.097 18.299,16.139 30.513,16.139 h 0.015 c 20.379,0 36.9,-16.521 36.9,-36.9 v 0 c 0,-28.289 -12.861,-55.045 -34.952,-72.716 v 0 c -9.689,-7.748 -22.583,-10.201 -34.44,-6.552"
             style="fill:none;stroke:#000000;stroke-width:20;stroke-linecap:round;stroke-linejoin:round;stroke-miterlimit:10;stroke-dasharray:none;stroke-opacity:1"
             id="path2761" /></g><g
           id="g2763"
           transform="translate(434.0567,330.9548)"><path
             d="m 0,0 c 38.856,8.502 67.943,43.116 67.943,84.523 0,47.785 -38.737,86.522 -86.522,86.522 -27.788,0 -52.516,-13.099 -68.346,-33.46"
             style="fill:none;stroke:#000000;stroke-width:20;stroke-linecap:round;stroke-linejoin:round;stroke-miterlimit:10;stroke-dasharray:none;stroke-opacity:1"
             id="path2765" /></g><g
           id="g2767"
           transform="translate(101.5586,291.3749)"><path
             d="M 0,0 C 12.21,-12.21 32.006,-12.21 44.216,0"
             style="fill:none;stroke:#000000;stroke-width:20;stroke-linecap:round;stroke-linejoin:round;stroke-miterlimit:10;stroke-dasharray:none;stroke-opacity:1"
             id="path2769" /></g><g
           id="g2771"
           transform="translate(281.6667,200.3333)"><path
             d="M 0,0 V 0"
             style="fill:none;stroke:#000000;stroke-width:20;stroke-linecap:round;stroke-linejoin:round;stroke-miterlimit:10;stroke-dasharray:none;stroke-opacity:1"
             id="path2773" /></g><g
           id="g2775"
           transform="translate(411.1824,203.4977)"><path
             d="M 0,0 V 0"
             style="fill:none;stroke:#000000;stroke-width:20;stroke-linecap:round;stroke-linejoin:round;stroke-miterlimit:10;stroke-dasharray:none;stroke-opacity:1"
             id="path2777" /></g></g></g></g></svg>
