<svg id="Layer_2" enable-background="new 0 0 512 512" viewBox="0 0 512 512" xmlns="http://www.w3.org/2000/svg"><g><g><path d="m476.342 245.09h-141.203c-15.918 0-30.572-8.671-38.234-22.623-7.452-13.57-21.704-22.003-37.185-22.003-15.481 0-29.733 8.433-37.185 22.003-7.662 13.953-22.316 22.623-38.234 22.623h-148.643" style="fill:none;stroke:#474747;stroke-linecap:round;stroke-linejoin:round;stroke-miterlimit:10;stroke-width:15"/><path d="m40.306 303.186c26.96 0 26.96 20 53.921 20s26.961-20 53.923-20c26.96 0 26.96 20 53.92 20s26.96-20 53.921-20c26.962 0 26.962 20 53.923 20s26.961-20 53.922-20c26.965 0 26.965 20 53.929 20s26.964-20 53.929-20" style="fill:none;stroke:#474747;stroke-linecap:round;stroke-linejoin:round;stroke-miterlimit:10;stroke-width:15"/><g fill="#474747"><circle cx="35.747" cy="427.458" r="10.498"/><circle cx="86.71" cy="378.788" r="10.498"/><circle cx="145.873" cy="427.458" r="10.498"/><circle cx="196.837" cy="378.788" r="10.498"/><circle cx="256" cy="427.458" r="10.498"/><circle cx="306.963" cy="378.788" r="10.498"/><circle cx="366.127" cy="427.458" r="10.498"/><circle cx="417.09" cy="378.788" r="10.498"/><circle cx="476.253" cy="427.458" r="10.498"/></g></g><g style="fill:none;stroke:#474747;stroke-linecap:round;stroke-linejoin:round;stroke-miterlimit:10;stroke-width:15"><path d="m256 152.155v-44.11"/><path d="m298.81 169.887 31.191-31.19"/><path d="m213.19 169.887-31.191-31.19"/></g></g></svg>