<svg width="70" height="70" viewBox="0 0 70 70" fill="none" xmlns="http://www.w3.org/2000/svg">
<g opacity="0.3">
<path d="M60.6563 12.8333C60.6591 12.5255 60.54 12.229 60.325 12.0085L48.6583 0.341833C48.4389 0.125417 48.1416 0.006125 47.8335 0.0105V0H12.8335C10.9005 0 9.3335 1.56698 9.3335 3.5V66.5C9.3335 68.433 10.9005 70 12.8335 70H57.1668C59.0999 70 60.6668 68.433 60.6668 66.5V12.8333H60.6563ZM49.0002 3.983L56.6838 11.6667H50.1668C49.5225 11.6667 49.0002 11.1443 49.0002 10.5V3.983ZM58.3335 66.5C58.3335 67.1443 57.8111 67.6667 57.1668 67.6667H12.8335C12.1892 67.6667 11.6668 67.1443 11.6668 66.5V3.5C11.6668 2.85571 12.1892 2.33333 12.8335 2.33333H46.6668V10.5C46.6668 12.433 48.2338 14 50.1668 14H58.3335V66.5Z" fill="white"/>
<path d="M21 31.5C19.067 31.5 17.5 33.067 17.5 35C17.5 36.933 19.067 38.5 21 38.5C22.933 38.5 24.5 36.933 24.5 35C24.5 33.067 22.933 31.5 21 31.5ZM21 36.1667C20.3557 36.1667 19.8333 35.6443 19.8333 35C19.8333 34.3557 20.3557 33.8333 21 33.8333C21.6443 33.8333 22.1667 34.3557 22.1667 35C22.1667 35.6443 21.6443 36.1667 21 36.1667Z" fill="white"/>
<path d="M52.4998 33.833H29.1665V36.1663H52.4998V33.833Z" fill="white"/>
<path d="M21 19.833C19.067 19.833 17.5 21.4 17.5 23.333C17.5 25.266 19.067 26.833 21 26.833C22.933 26.833 24.5 25.266 24.5 23.333C24.5 21.4 22.933 19.833 21 19.833ZM21 24.4997C20.3557 24.4997 19.8333 23.9773 19.8333 23.333C19.8333 22.6887 20.3557 22.1663 21 22.1663C21.6443 22.1663 22.1667 22.6887 22.1667 23.333C22.1667 23.9773 21.6443 24.4997 21 24.4997Z" fill="white"/>
<path d="M52.4998 22.167H29.1665V24.5003H52.4998V22.167Z" fill="white"/>
<path d="M21 43.167C19.067 43.167 17.5 44.734 17.5 46.667C17.5 48.6 19.067 50.167 21 50.167C22.933 50.167 24.5 48.6 24.5 46.667C24.5 44.734 22.933 43.167 21 43.167ZM21 47.8337C20.3557 47.8337 19.8333 47.3113 19.8333 46.667C19.8333 46.0227 20.3557 45.5003 21 45.5003C21.6443 45.5003 22.1667 46.0227 22.1667 46.667C22.1667 47.3113 21.6443 47.8337 21 47.8337Z" fill="white"/>
<path d="M52.4998 45.5H29.1665V47.8333H52.4998V45.5Z" fill="white"/>
<path d="M21 54.833C19.067 54.833 17.5 56.4 17.5 58.333C17.5 60.266 19.067 61.833 21 61.833C22.933 61.833 24.5 60.266 24.5 58.333C24.5 56.4 22.933 54.833 21 54.833ZM21 59.4997C20.3557 59.4997 19.8333 58.9773 19.8333 58.333C19.8333 57.6887 20.3557 57.1663 21 57.1663C21.6443 57.1663 22.1667 57.6887 22.1667 58.333C22.1667 58.9773 21.6443 59.4997 21 59.4997Z" fill="white"/>
<path d="M52.4998 57.167H29.1665V59.5003H52.4998V57.167Z" fill="white"/>
</g>
</svg>
