<svg width="24" height="24" viewBox="0 0 24 24" fill="none" xmlns="http://www.w3.org/2000/svg">
<g clip-path="url(#clip0_4560_3733)">
<path d="M12.1542 8.90723C10.8022 8.90723 9.70605 10.0033 9.70605 11.3554C9.70605 12.7074 10.8021 13.8035 12.1542 13.8035C13.5062 13.8035 14.6023 12.7075 14.6023 11.3554C14.6023 10.0033 13.5063 8.90723 12.1542 8.90723ZM12.1542 12.6377C11.446 12.6377 10.8718 12.0635 10.8718 11.3553C10.8718 10.6471 11.446 10.0729 12.1542 10.0729C12.8624 10.0729 13.4366 10.6471 13.4366 11.3553C13.4366 12.0635 12.8624 12.6377 12.1542 12.6377Z" fill="white"/>
<path d="M21.9174 3.3111L6.00455 1.50419C5.38697 1.41639 4.76124 1.59668 4.28506 1.99967C3.80895 2.36885 3.50375 2.91609 3.43988 3.51515L3.14846 5.905H2.24493C0.962561 5.905 0.000787611 7.0416 0.000787611 8.32397V20.244C-0.0315114 21.4668 0.93361 22.4844 2.15651 22.5167C2.18596 22.5175 2.21547 22.5176 2.24493 22.5172H18.2451C19.5275 22.5172 20.6933 21.5263 20.6933 20.244V19.7777C21.0909 19.7009 21.468 19.542 21.8008 19.3114C22.273 18.9138 22.5753 18.3508 22.646 17.7376L23.9866 5.905C24.1233 4.61968 23.2009 3.46344 21.9174 3.3111ZM19.5275 20.244C19.5275 20.8852 18.8863 21.3515 18.2451 21.3515H2.24493C1.66572 21.3685 1.18241 20.9127 1.16539 20.3335C1.1645 20.3037 1.16489 20.2738 1.16656 20.244V18.0873L5.68396 14.7649C6.22663 14.3482 6.99098 14.3852 7.49092 14.8523L10.6677 17.6501C11.1501 18.0552 11.7573 18.2816 12.3872 18.2913C12.8797 18.2973 13.364 18.1662 13.7862 17.9124L19.5276 14.59V20.244H19.5275ZM19.5275 13.2202L13.174 16.9215C12.6285 17.2447 11.9379 17.1862 11.4545 16.7758L8.24864 13.9488C7.32982 13.1593 5.98687 13.1109 5.0136 13.8322L1.16656 16.6301V8.32397C1.16656 7.68279 1.60374 7.07078 2.24493 7.07078H18.2451C18.9302 7.09917 19.4834 7.63983 19.5275 8.32397V13.2202ZM22.822 5.74763C22.8216 5.75148 22.8212 5.75539 22.8208 5.75924L21.451 17.5918C21.4534 17.8986 21.3134 18.1892 21.0721 18.3787C20.9555 18.4953 20.6932 18.5536 20.6932 18.6119V8.32397C20.6472 6.99625 19.5733 5.93507 18.2451 5.905H4.31418L4.57648 3.63174C4.63338 3.33737 4.78729 3.07061 5.01366 2.87397C5.26926 2.69725 5.57831 2.61485 5.88802 2.64079L21.7717 4.47687C22.4126 4.53773 22.8828 5.10668 22.822 5.74763Z" fill="white"/>
</g>
<defs>
<clipPath id="clip0_4560_3733">
<rect width="24" height="24" fill="white"/>
</clipPath>
</defs>
</svg>
