<svg width="32" height="32" viewBox="0 0 32 32" fill="none" xmlns="http://www.w3.org/2000/svg">
<g clip-path="url(#clip0_5800_13164)">
<path fill-rule="evenodd" clip-rule="evenodd" d="M4.80469 15.9988L16 31.2099L11.3114 12.7168L4.80469 15.9988Z" fill="#A9E899"/>
<path fill-rule="evenodd" clip-rule="evenodd" d="M4.80469 15.9981L11.3114 12.7161L16 0.791016L4.80469 15.9981Z" fill="#6BD24D"/>
<path fill-rule="evenodd" clip-rule="evenodd" d="M11.3115 12.7161L20.6886 17.4046L16.0001 0.791016L11.3115 12.7161Z" fill="#A9E899"/>
<path fill-rule="evenodd" clip-rule="evenodd" d="M20.6886 17.4053L11.3115 12.7168L16.0001 31.2099L20.6886 17.4053Z" fill="#6BD24D"/>
<path fill-rule="evenodd" clip-rule="evenodd" d="M20.6886 17.4046L16 31.2091L27.1953 15.998L20.6886 17.4046Z" fill="#A9E899"/>
<path fill-rule="evenodd" clip-rule="evenodd" d="M20.8438 11.7605C22.6489 11.7605 24.1258 13.2374 24.1258 15.0425C24.1258 13.2374 25.6027 11.7605 27.4078 11.7605C25.6027 11.7605 24.1258 10.2836 24.1258 8.47852C24.1258 9.32134 23.8038 10.0926 23.2768 10.6755C22.675 11.3409 21.806 11.7605 20.8438 11.7605Z" fill="#FDEF8E"/>
<path fill-rule="evenodd" clip-rule="evenodd" d="M24.1255 15.0421C24.1255 13.237 22.6486 11.7601 20.8435 11.7601C21.8058 11.7601 22.6748 11.3403 23.2765 10.6749L16 0.791016L20.6885 17.4046L27.1954 15.9981L24.9199 12.9071C24.4253 13.4822 24.1255 14.2288 24.1255 15.0421Z" fill="#6BD24D"/>
<path d="M16.1336 9.73488L15.8835 8.8311L16.7873 8.58104L17.0374 9.48482L16.1336 9.73488ZM15.6334 7.92733L15.3833 7.02362L16.2871 6.77344L16.5372 7.67715L15.6334 7.92733Z" fill="white"/>
<path d="M22.2533 23.5038L27.7777 15.9979L25.532 12.9476C26.0302 12.501 26.6876 12.2288 27.4077 12.2288V11.2911C25.8566 11.2911 24.5946 10.0291 24.5946 8.47791H23.6569C23.6569 8.99053 23.5183 9.47114 23.2778 9.88548L16.0001 0L4.22266 15.9978L16.0001 32L21.6975 24.259L20.9423 23.7032L17.4185 28.4911L21.0473 17.8066L26.0834 16.718L21.4982 22.948L22.2533 23.5038ZM11.0009 13.3978L14.9565 29L5.51121 16.1668L11.0009 13.3978ZM12.0177 13.5932L20.1132 17.6409L16.0654 29.5589L12.0177 13.5932ZM11.9049 12.4883L13.2923 8.95977L12.4196 8.61669L10.9408 12.3779L6.34584 14.6955L14.2517 3.95673L12.7628 7.74374L13.6355 8.08682L15.9271 2.25809L19.9493 16.5105L11.9049 12.4883ZM17.1521 3.14636L22.6581 10.6253C22.1678 11.0402 21.5347 11.291 20.8437 11.291V12.2287C22.3949 12.2287 23.6569 13.4907 23.6569 15.0419H24.5946C24.5946 14.5608 24.7162 14.1077 24.9299 13.7112L26.3886 15.6926L21.0202 16.853L17.1521 3.14636ZM24.1257 10.2925C24.4675 10.9081 24.9775 11.4182 25.5931 11.7599C24.9775 12.1017 24.4675 12.6117 24.1257 13.2273C23.784 12.6117 23.2739 12.1017 22.6583 11.7599C23.2739 11.4181 23.784 10.908 24.1257 10.2925Z" fill="black"/>
</g>
<defs>
<clipPath id="clip0_5800_13164">
<rect width="32" height="32" fill="white"/>
</clipPath>
</defs>
</svg>
