<svg id="Layer_2" enable-background="new 0 0 512 512" viewBox="0 0 512 512" xmlns="http://www.w3.org/2000/svg"><g style="fill:none;stroke:#474747;stroke-width:15;stroke-linecap:round;stroke-linejoin:round;stroke-miterlimit:10"><path d="m117.693 355.849c-.874.184-1.761.336-2.661.457-19.535 2.608-37.486-11.115-40.094-30.65l-5.625-42.138c-2.608-19.535 11.115-37.486 30.65-40.094"/><path d="m403.957 356.623c17.562-.056 32.826-13.073 35.214-30.968l5.625-42.138c2.245-16.822-7.619-32.47-22.876-38.156"/><path d="m173.733 296.15s7.112 3.874 18.217 3.874 18.217-3.874 18.217-3.874"/><path d="m311.514 296.15s7.112 3.874 18.217 3.874 18.217-3.874 18.217-3.874"/><path d="m271.772 354.713v-62.083c0-16.511 10.514-31.189 26.147-36.503l4.732-1.679c19.448-6.61 40.776-4.765 58.799 5.088l11.218 6.132"/><path d="m234.731 259.731-15.545-5.284c-19.448-6.61-40.776-4.765-58.799 5.088l-11.218 6.132"/><path d="m409.792 307.661c0 60.233-26.058 103.144-71.884 142.233-25.478 21.732-53.603 34.836-76.989 34.836s-51.512-13.104-76.989-34.836c-45.826-39.089-71.884-82-71.884-142.233l-15.255-98.045c-9.689-97.984 67.28-182.94 165.742-182.94 102.022 0 180.066 90.895 164.634 191.743z"/><path d="m325.342 122.548s-163.803 21.761-217.251 145.8"/><path d="m311.514 158.336s68.208 15.215 104.464 110.011"/><path d="m222.361 385.615c11.774 12.289 29.569-1.966 40.18 8.411 11.95-9.722 25.931 3.222 40.18-8.411"/><path d="m252.206 420.64h20.67"/></g></svg>