<svg id="honey" enable-background="new 0 0 300 300" height="512" viewBox="0 0 300 300" width="512" xmlns="http://www.w3.org/2000/svg"><g><path d="m245.558 196v8c0 2.209 1.791 4 4 4s4-1.791 4-4v-8c0-2.209-1.791-4-4-4s-4 1.791-4 4z"/><path d="m249.558 216c-2.209 0-4 1.791-4 4v8c0 2.209 1.791 4 4 4s4-1.791 4-4v-8c0-2.209-1.791-4-4-4z"/><path d="m241.558 208h-8c-2.209 0-4 1.791-4 4s1.791 4 4 4h8c2.209 0 4-1.791 4-4s-1.791-4-4-4z"/><path d="m265.558 208h-8c-2.209 0-4 1.791-4 4s1.791 4 4 4h8c2.209 0 4-1.791 4-4s-1.791-4-4-4z"/><path d="m67.558 92c7.719 0 14-6.281 14-14s-6.281-14-14-14-14 6.281-14 14 6.282 14 14 14zm0-20c3.309 0 6 2.691 6 6s-2.691 6-6 6-6-2.691-6-6 2.692-6 6-6z"/><path d="m253.61 170.391c0 2.362 1.915 4.276 4.276 4.276s4.277-1.915 4.277-4.276-1.915-4.277-4.277-4.277-4.276 1.916-4.276 4.277z"/><path d="m225.887 150.115c-2.362 0-4.276 1.915-4.276 4.277s1.915 4.276 4.276 4.276 4.277-1.915 4.277-4.276-1.915-4.277-4.277-4.277z"/><path d="m130.238 156h34.641c1.43 0 2.75-.762 3.465-2l17.32-30c.713-1.238.713-2.762 0-4l-17.32-30c-.715-1.238-2.035-2-3.465-2h-34.641c-1.43 0-2.75.762-3.465 2l-17.32 30c-.713 1.238-.713 2.762 0 4l17.32 30c.715 1.238 2.035 2 3.465 2zm2.309-60h30.023l15.01 26-15.01 26h-30.023l-15.01-26z"/><path d="m197.582 166c-.715-1.238-2.035-2-3.465-2h-13.071l16.166-28h36.905c1.43 0 2.75-.762 3.465-2l26.559-46c.713-1.238.713-2.762 0-4l-26.559-46c-.715-1.238-2.035-2-3.465-2h-53.117c-1.43 0-2.75.762-3.465 2l-19.629 34h-36.906c-1.43 0-2.75.762-3.465 2l-24.249 42h-32.286c-1.43 0-2.75.762-3.465 2l-26.559 46c-.713 1.238-.713 2.762 0 4l26.559 46c.715 1.238 2.035 2 3.465 2h49.977l26.559 46c.715 1.238 2.035 2 3.465 2h53.117c1.43 0 2.75-.762 3.465-2l26.559-46c.713-1.238.713-2.762 0-4zm-16.559-86.04 11.524-19.96h30.023l15.01 26-15.01 26h-23.049zm2.285-35.96h48.5l24.248 42-24.248 42h-29.977l2.309-4c.713-1.238.713-2.762 0-4h20.738c1.43 0 2.75-.762 3.465-2l17.32-30c.713-1.238.713-2.762 0-4l-17.32-30c-.715-1.238-2.035-2-3.465-2h-34.641c-1.43 0-2.75.762-3.465 2l-10.692 18.52c-.59-.333-1.262-.52-1.963-.52h-6.972zm-60 36h48.5l24.248 42-24.248 42h-30.808-17.691l-24.249-42zm-6.905 88.039-13.833 23.961h-30.023l-15.01-26 15.01-26h27.667zm-77.343-2.039 24.248-42h27.668l4.619 8h-25.357c-1.43 0-2.75.762-3.465 2l-17.32 30c-.713 1.238-.713 2.762 0 4l17.32 30c.715 1.238 2.035 2 3.465 2h34.641c1.43 0 2.75-.762 3.465-2l15.011-26h10.716l-20.785 36h-49.978zm152.748 90h-48.5l-24.248-42 24.248-42h30.809 17.691l24.248 42z"/><path d="m184.879 180h-34.641c-1.43 0-2.75.762-3.465 2l-17.32 30c-.713 1.238-.713 2.762 0 4l17.32 30c.715 1.238 2.035 2 3.465 2h34.641c1.43 0 2.75-.762 3.465-2l17.32-30c.713-1.238.713-2.762 0-4l-17.32-30c-.715-1.238-2.036-2-3.465-2zm-2.309 60h-30.023l-15.01-26 15.01-26h30.023l15.01 26z"/></g></svg>