<svg width="24" height="24" viewBox="0 0 24 24" fill="none" xmlns="http://www.w3.org/2000/svg">
<path d="M14.85 11.8875C16.6125 11.8875 18.075 10.4625 18.075 8.6625C18.075 6.8625 16.65 5.4375 14.85 5.4375C13.05 5.4375 11.625 6.9375 11.625 8.7C11.625 10.4625 13.0875 11.8875 14.85 11.8875ZM14.85 7.1625C15.675 7.1625 16.3875 7.8375 16.3875 8.7C16.3875 9.5625 15.7125 10.2375 14.85 10.2375C13.9875 10.2375 13.3125 9.5625 13.3125 8.7C13.3125 7.8375 13.9875 7.1625 14.85 7.1625Z" fill="#111928"/>
<path d="M19.7621 0.675781H4.23711C2.96211 0.675781 1.91211 1.72578 1.91211 3.00078V21.0008C1.91211 22.2758 2.96211 23.3633 4.27461 23.3633H19.7621C21.0371 23.3633 22.1246 22.3133 22.1246 21.0008V3.00078C22.0871 1.72578 21.0371 0.675781 19.7621 0.675781ZM4.23711 2.36328H19.7246C20.0996 2.36328 20.3996 2.66328 20.3996 3.03828V16.1258L17.6621 13.8758C16.8746 13.2383 15.7496 13.2758 15.0371 13.9883L11.9621 17.0258L8.02461 13.5008C7.27461 12.8258 6.14961 12.8258 5.39961 13.5008L3.59961 15.1133V3.00078C3.59961 2.62578 3.89961 2.36328 4.23711 2.36328ZM19.7621 21.6758H4.23711C3.86211 21.6758 3.56211 21.3758 3.56211 21.0008V17.3633L6.48711 14.7008C6.59961 14.5883 6.74961 14.5883 6.86211 14.7008L11.3996 18.7508C11.5496 18.9008 11.7746 18.9758 11.9621 18.9758C12.1871 18.9758 12.3746 18.9008 12.5621 18.7133L16.1996 15.1133C16.3121 15.0008 16.4621 15.0008 16.5746 15.1133L20.3621 18.2633V21.0008C20.3996 21.3758 20.0996 21.6758 19.7621 21.6758Z" fill="#111928"/>
</svg>
