<svg width="512" height="512" viewBox="0 0 512 512" fill="none" xmlns="http://www.w3.org/2000/svg">
<path d="M419.086 334.507V348.161C419.086 351.931 422.143 354.987 425.913 354.987C429.683 354.987 432.739 351.931 432.739 348.161V334.507C432.739 330.737 429.683 327.681 425.913 327.681C422.143 327.681 419.086 330.737 419.086 334.507Z" fill="#111928"/>
<path d="M425.913 368.641C422.143 368.641 419.086 371.697 419.086 375.467V389.121C419.086 392.891 422.143 395.947 425.913 395.947C429.683 395.947 432.739 392.891 432.739 389.121V375.467C432.739 371.697 429.683 368.641 425.913 368.641Z" fill="#111928"/>
<path d="M412.259 354.987H398.606C394.836 354.987 391.779 358.044 391.779 361.814C391.779 365.584 394.836 368.641 398.606 368.641H412.259C416.029 368.641 419.086 365.584 419.086 361.814C419.086 358.044 416.029 354.987 412.259 354.987Z" fill="#111928"/>
<path d="M453.219 354.987H439.566C435.796 354.987 432.739 358.044 432.739 361.814C432.739 365.584 435.796 368.641 439.566 368.641H453.219C456.989 368.641 460.046 365.584 460.046 361.814C460.046 358.044 456.989 354.987 453.219 354.987Z" fill="#111928"/>
<path d="M115.299 157.014C128.473 157.014 139.192 146.295 139.192 133.121C139.192 119.947 128.473 109.228 115.299 109.228C102.125 109.228 91.4058 119.947 91.4058 133.121C91.4058 146.295 102.127 157.014 115.299 157.014ZM115.299 122.881C120.946 122.881 125.539 127.474 125.539 133.121C125.539 138.768 120.946 143.361 115.299 143.361C109.652 143.361 105.059 138.768 105.059 133.121C105.059 127.474 109.653 122.881 115.299 122.881Z" fill="#111928"/>
<path d="M432.828 290.801C432.828 294.833 436.096 298.099 440.125 298.099C444.155 298.099 447.425 294.831 447.425 290.801C447.425 286.772 444.156 283.502 440.125 283.502C436.094 283.502 432.828 286.772 432.828 290.801Z" fill="#111928"/>
<path d="M385.514 256.196C381.483 256.196 378.216 259.465 378.216 263.496C378.216 267.527 381.485 270.793 385.514 270.793C389.543 270.793 392.813 267.525 392.813 263.496C392.813 259.466 389.545 256.196 385.514 256.196Z" fill="#111928"/>
<path d="M222.273 266.241H281.394C283.834 266.241 286.087 264.94 287.307 262.828L316.867 211.628C318.083 209.515 318.083 206.914 316.867 204.801L287.307 153.601C286.087 151.488 283.834 150.188 281.394 150.188H222.273C219.832 150.188 217.58 151.488 216.359 153.601L186.8 204.801C185.583 206.914 185.583 209.515 186.8 211.628L216.359 262.828C217.58 264.94 219.832 266.241 222.273 266.241ZM226.214 163.841H277.453L303.07 208.214L277.453 252.588H226.214L200.597 208.214L226.214 163.841Z" fill="#111928"/>
<path d="M337.207 283.307C335.986 281.194 333.734 279.894 331.293 279.894H308.985L336.575 232.107H399.56C402 232.107 404.253 230.807 405.473 228.694L450.801 150.187C452.018 148.074 452.018 145.473 450.801 143.36L405.473 64.8538C404.253 62.7409 402 61.4404 399.56 61.4404H308.907C306.466 61.4404 304.213 62.7409 302.993 64.8538L269.493 122.88H206.507C204.066 122.88 201.813 124.181 200.593 126.294L159.208 197.974H104.107C101.666 197.974 99.4134 199.274 98.1931 201.387L52.8658 279.894C51.6489 282.007 51.6489 284.608 52.8658 286.72L98.1931 365.227C99.4134 367.34 101.666 368.64 104.107 368.64H189.401L234.728 447.147C235.948 449.26 238.201 450.56 240.642 450.56H331.295C333.735 450.56 335.988 449.26 337.208 447.147L382.536 368.64C383.753 366.528 383.753 363.927 382.536 361.814L337.207 283.307ZM308.946 136.465L328.614 102.4H379.853L405.47 146.774L379.853 191.147H340.516L308.946 136.465ZM312.846 75.0938H395.619L437.002 146.774L395.619 218.454H344.458L348.399 211.627C349.616 209.514 349.616 206.913 348.399 204.8H383.792C386.232 204.8 388.485 203.5 389.705 201.387L419.265 150.187C420.482 148.074 420.482 145.473 419.265 143.36L389.705 92.1604C388.485 90.0476 386.232 88.7471 383.792 88.7471H324.671C322.231 88.7471 319.978 90.0476 318.758 92.1604L300.51 123.768C299.503 123.2 298.356 122.88 297.16 122.88H285.261L312.846 75.0938ZM210.446 136.534H293.219L334.602 208.214L293.219 279.894H240.64H210.447L169.062 208.214L210.446 136.534ZM198.661 286.787L175.053 327.68H123.814L98.1965 283.307L123.814 238.934H171.032L198.661 286.787ZM66.6625 283.307L108.046 211.627H155.266L163.149 225.28H119.873C117.432 225.28 115.18 226.581 113.959 228.694L84.3998 279.894C83.183 282.007 83.183 284.608 84.3998 286.72L113.959 337.92C115.18 340.033 117.432 341.334 119.873 341.334H178.994C181.434 341.334 183.687 340.033 184.907 337.92L210.526 293.547H228.815L193.342 354.987H108.046L66.6625 283.307ZM327.352 436.907H244.579L203.196 365.227L244.579 293.547H297.16H327.352L368.736 365.227L327.352 436.907Z" fill="#111928"/>
<path d="M315.527 307.2H256.406C253.966 307.2 251.713 308.501 250.493 310.614L220.933 361.814C219.716 363.926 219.716 366.527 220.933 368.64L250.493 419.84C251.713 421.953 253.966 423.254 256.406 423.254H315.527C317.967 423.254 320.22 421.953 321.44 419.84L351 368.64C352.217 366.527 352.217 363.926 351 361.814L321.44 310.614C320.22 308.501 317.966 307.2 315.527 307.2ZM311.586 409.6H260.347L234.73 365.227L260.347 320.854H311.586L337.203 365.227L311.586 409.6Z" fill="#111928"/>
</svg>
