<svg width="683" height="683" viewBox="0 0 683 683" fill="none" xmlns="http://www.w3.org/2000/svg">
<g clip-path="url(#clip0_6069_16536)">
<mask id="mask0_6069_16536" style="mask-type:luminance" maskUnits="userSpaceOnUse" x="0" y="0" width="683" height="683">
<path d="M0 0.000366211H682.667V682.667H0V0.000366211Z" fill="white"/>
</mask>
<g mask="url(#mask0_6069_16536)">
<path fill-rule="evenodd" clip-rule="evenodd" d="M548.77 476.155C554.293 476.155 558.77 471.678 558.77 466.155V382.083C558.77 370.179 554.473 360.426 547.313 353.688C540.293 347.083 531.116 343.933 522.178 343.933C513.24 343.933 504.063 347.083 497.043 353.688C489.883 360.426 485.586 370.179 485.586 382.083C485.586 387.606 490.063 392.083 495.586 392.083C501.109 392.083 505.586 387.606 505.586 382.083C505.586 375.221 507.937 370.899 510.749 368.254C513.701 365.476 517.82 363.933 522.178 363.933C526.536 363.933 530.655 365.476 533.607 368.254C536.419 370.899 538.77 375.221 538.77 382.083V466.155C538.77 471.678 543.247 476.155 548.77 476.155Z" fill="#111928"/>
<path fill-rule="evenodd" clip-rule="evenodd" d="M601.916 475.475C607.439 475.475 611.916 470.997 611.916 465.475V404.748C611.916 392.846 607.624 383.093 600.47 376.352C593.456 369.743 584.284 366.587 575.347 366.583C566.409 366.58 557.234 369.73 550.217 376.34C543.06 383.082 538.77 392.839 538.77 404.748C538.77 410.271 543.247 414.748 548.77 414.748C554.292 414.748 558.77 410.271 558.77 404.748C558.77 397.871 561.122 393.543 563.93 390.898C566.878 388.121 570.99 386.582 575.339 386.583C579.689 386.585 583.803 388.128 586.754 390.908C589.565 393.557 591.916 397.883 591.916 404.748V465.475C591.916 470.997 596.393 475.475 601.916 475.475Z" fill="#111928"/>
<path fill-rule="evenodd" clip-rule="evenodd" d="M442.401 449.444C447.924 449.444 452.401 444.967 452.401 439.444V266.986C452.401 255.081 448.104 245.328 440.944 238.59C433.924 231.985 424.747 228.836 415.809 228.836C406.871 228.836 397.694 231.985 390.674 238.59C383.514 245.328 379.217 255.081 379.217 266.986C379.217 272.509 383.694 276.986 389.217 276.986C394.74 276.986 399.217 272.509 399.217 266.986C399.217 260.123 401.568 255.802 404.38 253.156C407.332 250.378 411.451 248.836 415.809 248.836C420.167 248.836 424.286 250.378 427.238 253.156C430.05 255.802 432.401 260.123 432.401 266.986V439.444C432.401 444.967 436.878 449.444 442.401 449.444Z" fill="#111928"/>
<path fill-rule="evenodd" clip-rule="evenodd" d="M495.586 462.8C501.109 462.8 505.586 458.323 505.586 452.8V359.42C505.586 347.515 501.289 337.762 494.128 331.024C487.108 324.419 477.931 321.27 468.993 321.27C460.055 321.27 450.878 324.419 443.858 331.024C436.697 337.762 432.4 347.515 432.4 359.42C432.4 364.943 436.878 369.42 442.4 369.42C447.923 369.42 452.4 364.943 452.4 359.42C452.4 352.558 454.752 348.236 457.563 345.59C460.516 342.812 464.635 341.27 468.993 341.27C473.351 341.27 477.47 342.812 480.423 345.59C483.234 348.236 485.586 352.558 485.586 359.42V452.8C485.586 458.323 490.063 462.8 495.586 462.8Z" fill="#111928"/>
<path fill-rule="evenodd" clip-rule="evenodd" d="M389.217 462.763C394.74 462.763 399.217 458.286 399.217 452.763V266.985C399.217 261.463 394.74 256.985 389.217 256.985C383.694 256.985 379.217 261.463 379.217 266.985V452.763C379.217 458.286 383.694 462.763 389.217 462.763Z" fill="#111928"/>
<path fill-rule="evenodd" clip-rule="evenodd" d="M411.065 662.667C409.32 662.667 407.873 661.195 407.873 659.5C407.873 647.353 407.244 636.179 404.016 624.41C400.777 612.6 395.081 600.751 385.618 586.832L301.396 463.175C301.279 463.003 301.156 462.835 301.029 462.671C296.686 457.079 296.73 452.806 297.6 450.456C298.467 448.111 301.051 445.231 306.952 444.185C319.182 442.058 327.684 444.399 335.598 450.114C344.218 456.338 352.488 466.799 363.058 482.185C363.199 482.391 363.348 482.591 363.504 482.785C367.151 487.326 371.655 491.748 377.182 493.282C380.34 494.158 383.822 494.078 387.124 492.568C390.246 491.14 392.351 488.829 393.729 486.736C396.329 482.785 397.548 477.766 398.221 473.371C398.938 468.695 399.217 463.41 399.217 458.059V438.611C399.217 433.088 394.74 428.611 389.217 428.611C383.695 428.611 379.217 433.088 379.217 438.611V458.059C379.217 462.401 379.005 466.281 378.578 469.461C368.443 454.793 358.709 442.132 347.306 433.899C334.84 424.897 320.834 421.468 303.511 424.483L303.486 424.488C292.047 426.509 282.651 433.218 278.842 443.518C275.067 453.722 277.657 465.038 285.031 474.676L369.078 598.076C369.079 598.076 369.079 598.077 369.079 598.078C377.647 610.68 382.213 620.53 384.728 629.7C387.255 638.912 387.873 647.999 387.873 659.5C387.873 672.259 398.293 682.667 411.065 682.667H568.615C581.385 682.667 591.807 672.26 591.807 659.5V618.712C591.807 610.959 592.687 605.726 593.902 601.636C595.14 597.469 596.824 594.108 599.071 589.733L599.093 589.69C603.842 580.439 609.43 569.552 611.859 546.985C611.897 546.629 611.916 546.272 611.916 545.915V511.672C611.916 506.149 607.439 501.672 601.916 501.672C596.393 501.672 591.916 506.149 591.916 511.672V545.37C589.86 563.89 585.564 572.255 581.487 580.192L581.259 580.636C579.045 584.949 576.555 589.8 574.73 595.939C572.878 602.172 571.807 609.363 571.807 618.712V659.5C571.807 661.194 570.359 662.667 568.615 662.667H411.065Z" fill="#111928"/>
<path fill-rule="evenodd" clip-rule="evenodd" d="M474.304 206.068C478.211 209.971 484.543 209.968 488.446 206.061L565.634 128.8C569.538 124.892 569.535 118.561 565.628 114.657C561.721 110.754 555.389 110.757 551.486 114.664L474.298 191.925C470.394 195.833 470.397 202.164 474.304 206.068Z" fill="#111928"/>
<path fill-rule="evenodd" clip-rule="evenodd" d="M498.513 264.639C498.513 270.162 502.99 274.639 508.513 274.639H581.581C587.104 274.639 591.581 270.162 591.581 264.639C591.581 259.116 587.104 254.639 581.581 254.639H508.513C502.99 254.639 498.513 259.116 498.513 264.639Z" fill="#111928"/>
<path fill-rule="evenodd" clip-rule="evenodd" d="M357.313 206.068C361.22 202.164 361.223 195.833 357.32 191.925L316.76 151.327C312.857 147.42 306.525 147.417 302.618 151.32C298.711 155.223 298.708 161.555 302.611 165.462L343.171 206.061C347.074 209.968 353.406 209.971 357.313 206.068Z" fill="#111928"/>
<path fill-rule="evenodd" clip-rule="evenodd" d="M30.0596 135.126C30.0596 153.694 45.1883 168.849 63.7609 168.849H142.573C148.096 168.849 152.573 164.371 152.573 158.849C152.573 153.326 148.096 148.849 142.573 148.849H63.7609C56.2508 148.849 50.0596 142.665 50.0596 135.126V33.7233C50.0596 26.1844 56.2508 20.0006 63.7609 20.0006H290.712C298.22 20.0006 304.412 26.1841 304.412 33.7233V135.126C304.412 142.637 298.209 148.849 290.712 148.849H188.765C183.242 148.849 178.765 153.326 178.765 158.849C178.765 164.371 183.242 168.849 188.765 168.849H290.712C309.294 168.849 324.412 153.644 324.412 135.126V33.7233C324.412 15.1559 309.283 0.000640869 290.712 0.000640869H63.7609C45.1883 0.000640869 30.0596 15.1555 30.0596 33.7233V135.126Z" fill="#111928"/>
<path fill-rule="evenodd" clip-rule="evenodd" d="M70.582 59.9063C70.582 65.4291 75.0592 69.9062 80.582 69.9062H111.01C116.533 69.9062 121.01 65.4291 121.01 59.9063C121.01 54.3834 116.533 49.9063 111.01 49.9063H80.582C75.0592 49.9063 70.582 54.3834 70.582 59.9063ZM152.531 59.9063C152.531 65.4291 157.009 69.9062 162.531 69.9062H266.935C272.458 69.9062 276.935 65.4291 276.935 59.9063C276.935 54.3834 272.458 49.9063 266.935 49.9063H162.531C157.009 49.9063 152.531 54.3834 152.531 59.9063Z" fill="#111928"/>
<path fill-rule="evenodd" clip-rule="evenodd" d="M191.409 366.581C194.173 371.362 200.29 372.997 205.071 370.233L331.247 297.285C336.029 294.52 337.664 288.404 334.899 283.622C332.135 278.841 326.018 277.206 321.237 279.97L195.061 352.918C190.28 355.682 188.645 361.799 191.409 366.581Z" fill="#111928"/>
<path fill-rule="evenodd" clip-rule="evenodd" d="M398.795 356.392C400.383 351.102 397.382 345.527 392.092 343.939C365.537 335.968 343.627 314.802 335.902 286.041C324.098 241.872 350.279 196.476 394.41 184.665L394.419 184.663C438.512 172.818 483.872 199.036 495.678 243.196L495.68 243.205C503.937 273.973 493.708 305.373 471.757 325.621C467.697 329.366 467.442 335.692 471.187 339.752C474.931 343.811 481.258 344.067 485.317 340.322C512.506 315.243 525.259 276.27 514.998 238.026C500.34 183.209 444.019 150.63 389.231 165.347C334.409 180.025 301.931 236.402 316.582 291.21L316.584 291.221C326.173 326.928 353.401 353.207 386.342 363.095C391.632 364.682 397.207 361.681 398.795 356.392Z" fill="#111928"/>
<path fill-rule="evenodd" clip-rule="evenodd" d="M70.582 107.846C70.582 113.369 75.0592 117.846 80.582 117.846H184.985C190.508 117.846 194.985 113.369 194.985 107.846C194.985 102.323 190.508 97.8457 184.985 97.8457H80.582C75.0592 97.8457 70.582 102.323 70.582 107.846ZM226.506 107.846C226.506 113.369 230.983 117.846 236.506 117.846H266.935C272.458 117.846 276.935 113.369 276.935 107.846C276.935 102.323 272.458 97.8457 266.935 97.8457H236.506C230.983 97.8457 226.506 102.323 226.506 107.846Z" fill="#111928"/>
<path fill-rule="evenodd" clip-rule="evenodd" d="M563.355 130.124C589.563 156.394 632.111 156.395 658.318 130.125C684.562 103.894 684.56 61.316 658.313 35.0879C632.106 8.86086 589.565 8.86221 563.358 35.0908C537.115 61.3188 537.114 103.894 563.355 130.124ZM644.164 115.995C625.77 134.438 595.906 134.438 577.51 115.994L577.498 115.983C559.067 97.5644 559.067 67.6533 577.498 49.2351L577.504 49.2292C595.901 30.8148 625.775 30.8151 644.17 49.229L644.176 49.2351C662.607 67.6533 662.607 97.5644 644.176 115.983L644.164 115.995Z" fill="#111928"/>
<path fill-rule="evenodd" clip-rule="evenodd" d="M571.58 264.639C571.58 290.862 592.844 312.097 619.04 312.097C645.248 312.097 666.461 290.849 666.461 264.639C666.461 238.443 645.261 217.143 619.04 217.143C592.831 217.143 571.58 238.43 571.58 264.639ZM619.04 292.097C603.881 292.097 591.58 279.808 591.58 264.639C591.58 249.457 603.895 237.143 619.04 237.143C634.171 237.143 646.461 249.444 646.461 264.639C646.461 279.822 634.184 292.097 619.04 292.097Z" fill="#111928"/>
<path fill-rule="evenodd" clip-rule="evenodd" d="M19.1113 475.879C48.8237 527.472 114.705 545.115 166.209 515.339C166.21 515.338 166.211 515.337 166.212 515.337M166.214 515.335C217.717 485.593 235.374 419.66 205.628 368.117C175.917 316.571 110.037 298.882 58.5279 328.666L58.5277 328.666C7.03321 358.442 -10.6335 424.332 19.1113 475.879M156.203 498.022C114.268 522.269 60.6324 507.905 36.4408 465.895L36.4361 465.887C12.2082 423.904 26.5952 370.234 68.5394 345.979C110.469 321.735 164.109 336.129 188.303 378.109L188.306 378.114C212.537 420.101 198.144 473.804 156.208 498.018L156.203 498.022Z" fill="#111928"/>
<path fill-rule="evenodd" clip-rule="evenodd" d="M68.5184 447.356C82.5074 471.589 113.459 479.884 137.706 465.887L137.714 465.882C161.919 451.883 170.208 420.916 156.228 396.69C142.241 372.414 111.286 364.116 87.0356 378.115L87.0284 378.119C62.8159 392.123 54.5367 423.133 68.5182 447.356L68.5184 447.356ZM85.8396 437.357C77.3721 422.687 82.3939 403.909 97.0344 395.436C111.717 386.96 130.431 391.979 138.898 406.674L138.902 406.681C147.369 421.349 142.352 440.093 127.704 448.567C113.019 457.042 94.3037 452.019 85.8398 437.358" fill="#111928"/>
</g>
</g>
<defs>
<clipPath id="clip0_6069_16536">
<rect width="682.667" height="682.667" fill="white"/>
</clipPath>
</defs>
</svg>
