<svg width="30" height="30" viewBox="0 0 30 30" fill="none" xmlns="http://www.w3.org/2000/svg">
<g clip-path="url(#clip0_5734_9003)">
<path d="M23.125 25.0006C23.0488 25.0006 22.9738 24.9869 22.9 24.9594L6.65 18.7094C6.40875 18.6169 6.25 18.3844 6.25 18.1256V10.6256C6.25 10.3669 6.40875 10.1344 6.65 10.0419L22.9 3.79186C23.0938 3.71686 23.3075 3.74436 23.4788 3.86061C23.6488 3.97686 23.75 4.16936 23.75 4.37561V24.3756C23.75 24.5819 23.6488 24.7744 23.4788 24.8906C23.3725 24.9631 23.25 25.0006 23.125 25.0006ZM7.5 17.6956L22.5 23.4656V5.28561L7.5 11.0556V17.6956Z" fill="#111928"/>
<path d="M6.875 18.75H2.5C1.12125 18.75 0 17.6288 0 16.25V12.5C0 11.1213 1.12125 10 2.5 10H6.875C7.22 10 7.5 10.28 7.5 10.625V18.125C7.5 18.47 7.22 18.75 6.875 18.75ZM2.5 11.25C1.81 11.25 1.25 11.81 1.25 12.5V16.25C1.25 16.94 1.81 17.5 2.5 17.5H6.25V11.25H2.5Z" fill="#111928"/>
<path d="M9.37509 27.5007H5.62509C5.31384 27.5007 5.05009 27.272 5.00634 26.9632L3.75634 18.2132C3.70759 17.872 3.94509 17.5557 4.28759 17.507C4.62259 17.4645 4.94509 17.6957 4.99384 18.0382L6.16759 26.2507H8.67509L7.84009 18.8082C7.80259 18.4657 8.04884 18.157 8.39134 18.117C8.72259 18.0807 9.04259 18.3257 9.08259 18.6682L9.99509 26.8057C10.0151 26.9832 9.95884 27.1595 9.84009 27.292C9.72259 27.4245 9.55384 27.5007 9.37509 27.5007Z" fill="#111928"/>
<path d="M25.6249 11.2497C25.4236 11.2497 25.2261 11.1522 25.1049 10.9709C24.9136 10.6847 24.9911 10.2959 25.2786 10.1047L29.0286 7.60466C29.3136 7.41466 29.7024 7.48966 29.8949 7.77841C30.0861 8.06466 30.0086 8.45341 29.7211 8.64466L25.9711 11.1447C25.8649 11.2159 25.7449 11.2497 25.6249 11.2497Z" fill="#111928"/>
<path d="M29.3751 22.4993C29.2551 22.4993 29.1351 22.4656 29.0288 22.3943L25.2788 19.8943C24.9926 19.7031 24.9138 19.3143 25.1051 19.0281C25.2976 18.7406 25.6876 18.6643 25.9713 18.8543L29.7213 21.3543C30.0076 21.5456 30.0863 21.9343 29.8951 22.2206C29.7738 22.4018 29.5763 22.4993 29.3751 22.4993Z" fill="#111928"/>
<path d="M29.375 15.625H25.625C25.28 15.625 25 15.345 25 15C25 14.655 25.28 14.375 25.625 14.375H29.375C29.72 14.375 30 14.655 30 15C30 15.345 29.72 15.625 29.375 15.625Z" fill="#111928"/>
</g>
<defs>
<clipPath id="clip0_5734_9003">
<rect width="30" height="30" fill="white"/>
</clipPath>
</defs>
</svg>
