<svg id="Layer_1" enable-background="new 0 0 64 64" viewBox="0 0 64 64" xmlns="http://www.w3.org/2000/svg"><g><path d="m31.68 47.15c-4.72 0-9.44-.17-13.04-.51-6.12-.58-10.73-4.51-10.73-9.15v-.84c0-2.85 2.18-5.36 6.13-7.06 4.97-2.14 5.85-5.3 6.56-11.52.22-1.92 2.24-3.36 4.71-3.36h12.73c2.47 0 4.49 1.44 4.71 3.36.7 6.16 1.58 9.3 6.57 11.52 3.95 1.75 6.12 4.26 6.12 7.06v.97c0 4.56-4.56 8.43-10.62 9l-.13.01c-3.58.35-8.3.52-13.01.52zm-9.09-28.85c-.71 6.22-1.63 10.49-7.76 13.13-3.13 1.34-4.92 3.25-4.92 5.23v.84c0 3.6 3.84 6.68 8.92 7.16 7.08.67 18.6.67 25.68 0l.13-.01c5.02-.47 8.8-3.49 8.8-7.01v-.97c0-2.64-3.09-4.41-4.93-5.23-6.13-2.73-7.04-6.97-7.75-13.12-.1-.87-1.32-1.59-2.73-1.59h-12.72c-1.4-.02-2.62.69-2.72 1.57z"/></g><g><path d="m54.45 38.54h-45.54c-.55 0-1-.45-1-1s.45-1 1-1h45.54c.55 0 1 .45 1 1s-.45 1-1 1z"/></g><g><path d="m39.79 17.02c-.55 0-1-.45-1-1v-2.2c0-.75-.66-1.35-1.46-1.35h-11.31c-.81 0-1.46.61-1.46 1.35v2.2c0 .55-.45 1-1 1s-1-.45-1-1v-2.2c0-1.85 1.55-3.35 3.46-3.35h11.31c1.91 0 3.46 1.5 3.46 3.35v2.2c0 .56-.45 1-1 1z"/></g><g><path d="m37.55 12.47c-.55 0-1-.45-1-1v-2.11c0-.39-.35-.7-.78-.7h-8.18c-.43 0-.78.32-.78.7v2.12c0 .55-.45 1-1 1s-1-.45-1-1v-2.12c0-1.49 1.25-2.7 2.78-2.7h8.18c1.53 0 2.78 1.21 2.78 2.7v2.12c0 .55-.45.99-1 .99z"/></g><g><path d="m36.21 8.65c-.55 0-1-.45-1-1v-1.87c0-.27-.17-.5-.38-.5h-6.32c-.21 0-.38.23-.38.5v1.87c0 .55-.45 1-1 1s-1-.45-1-1v-1.87c0-1.38 1.07-2.5 2.38-2.5h6.32c1.31 0 2.38 1.12 2.38 2.5v1.87c0 .56-.44 1-1 1z"/></g><g><path d="m8.6 52.68c-.31 0-.61-.14-.81-.41-.33-.45-.23-1.07.22-1.4l4.67-3.39c.45-.32 1.07-.23 1.4.22s.23 1.07-.22 1.4l-4.67 3.39c-.18.13-.39.19-.59.19z"/></g><g><path d="m15.68 58.47c-.12 0-.24-.02-.36-.07-.51-.2-.77-.78-.57-1.3l2.95-7.54c.2-.51.78-.77 1.3-.57.51.2.77.78.57 1.3l-2.95 7.54c-.16.4-.54.64-.94.64z"/></g><g><path d="m23.38 60.72c-.05 0-.1 0-.14-.01-.55-.08-.92-.59-.85-1.13l1.22-8.44c.08-.55.58-.94 1.13-.85.55.08.92.59.85 1.13l-1.22 8.44c-.08.5-.5.86-.99.86z"/></g><g><path d="m55.4 52.68c-.2 0-.41-.06-.59-.19l-4.67-3.39c-.45-.32-.55-.95-.22-1.4.32-.45.95-.55 1.4-.22l4.67 3.39c.45.32.55.95.22 1.4-.19.27-.5.41-.81.41z"/></g><g><path d="m48.32 58.47c-.4 0-.78-.24-.93-.64l-2.95-7.54c-.2-.51.05-1.09.57-1.3.52-.2 1.09.05 1.3.57l2.95 7.54c.2.51-.05 1.09-.57 1.3-.13.05-.25.07-.37.07z"/></g><g><path d="m40.62 60.72c-.49 0-.92-.36-.99-.86l-1.22-8.44c-.08-.55.3-1.05.85-1.13.56-.09 1.05.3 1.13.85l1.22 8.44c.08.55-.3 1.05-.85 1.13-.04.01-.09.01-.14.01z"/></g><g><path d="m31.61 60.72c-.55 0-1-.45-1-1v-8.44c0-.55.45-1 1-1s1 .45 1 1v8.44c0 .55-.45 1-1 1z"/></g></svg>