<svg width="512" height="512" viewBox="0 0 512 512" fill="none" xmlns="http://www.w3.org/2000/svg">
<g clip-path="url(#clip0_6069_17051)">
<path d="M344.184 4.00781C344.182 4.00781 344.18 4.00781 344.178 4.00781C344.176 4.00781 344.174 4.00781 344.172 4.00781C251.637 4.01081 176.356 79.2948 176.356 171.83C176.356 192.039 179.912 211.802 186.925 230.569C188.375 234.45 192.695 236.419 196.576 234.969C200.456 233.519 202.426 229.198 200.976 225.319C195.462 210.564 192.302 195.127 191.542 179.33H240.586C241.048 196.582 243.107 213.454 246.723 229.584C247.629 233.626 251.641 236.166 255.682 235.261C259.724 234.355 262.265 230.344 261.359 226.302C257.982 211.241 256.053 195.473 255.596 179.33H336.678V332.153C336.678 336.295 340.036 339.653 344.178 339.653C436.716 339.653 512.001 264.368 512.001 171.83C512 79.2948 436.719 4.01181 344.184 4.00781ZM473.911 252.508H435.269C442.773 230.217 447.071 205.295 447.766 179.331H496.814C495.514 206.095 487.292 231.068 473.911 252.508ZM336.677 19.5688V76.1528H275.224C277.497 71.3388 279.952 66.7178 282.589 62.3238C297.513 37.4518 316.491 22.5408 336.677 19.5688ZM351.677 19.5688C371.864 22.5398 390.842 37.4508 405.765 62.3238C408.402 66.7188 410.856 71.3388 413.13 76.1528H351.677V19.5688ZM419.383 91.1528C427.409 113.075 432.025 138.085 432.764 164.33H351.677V91.1528H419.383ZM447.766 164.331C447.071 138.367 442.773 113.445 435.269 91.1538H473.911C487.292 112.593 495.515 137.567 496.814 164.331H447.766ZM463.249 76.1528H429.566C426.321 68.5528 422.671 61.3438 418.628 54.6058C412.752 44.8128 406.253 36.3498 399.272 29.2878C424.519 39.0798 446.535 55.3948 463.249 76.1528ZM289.083 29.2878C282.102 36.3508 275.603 44.8128 269.727 54.6068C265.685 61.3448 262.034 68.5538 258.789 76.1538H225.106C241.82 55.3938 263.836 39.0798 289.083 29.2878ZM214.444 91.1528H253.086C245.582 113.445 241.284 138.366 240.589 164.33H191.541C192.841 137.566 201.063 112.593 214.444 91.1528ZM255.591 164.331C256.33 138.085 260.946 113.076 268.972 91.1538H336.677V164.331H255.591ZM432.764 179.331C432.025 205.577 427.409 230.586 419.383 252.508H351.677V179.331H432.764ZM351.677 324.092V267.508H413.13C410.857 272.322 408.402 276.943 405.765 281.337C390.842 306.209 371.864 321.121 351.677 324.092ZM399.272 314.374C406.253 307.311 412.751 298.849 418.628 289.055C422.67 282.317 426.321 275.108 429.566 267.508H463.249C446.535 288.267 424.519 304.582 399.272 314.374Z" fill="#111928"/>
<path d="M312.113 252.508H66.347L60.178 233.999C55.877 221.097 43.849 212.428 30.248 212.428H7.5C3.358 212.428 0 215.785 0 219.928C0 224.07 3.358 227.428 7.5 227.428H30.248C37.382 227.428 43.691 231.975 45.947 238.743L95.987 388.864C97.938 394.718 101.127 399.832 105.177 403.998L85.807 445.504C83.813 445.108 81.753 444.896 79.645 444.896C62.249 444.896 48.097 459.048 48.097 476.444C48.097 493.84 62.249 507.993 79.645 507.993C94.457 507.993 106.91 497.73 110.285 483.944H257.424C260.799 497.73 273.253 507.993 288.064 507.993C305.46 507.993 319.612 493.84 319.612 476.444C319.612 459.048 305.46 444.896 288.064 444.896C273.252 444.896 260.799 455.158 257.424 468.944H110.285C108.612 462.111 104.709 456.146 99.391 451.866L117.692 412.651C122.569 414.774 127.905 415.928 133.421 415.928C135.517 415.928 137.64 415.762 139.771 415.421L286.298 391.977C305.601 388.888 319.611 372.458 319.611 352.91V260.01C319.613 255.866 316.255 252.508 312.113 252.508ZM79.645 492.992C70.52 492.992 63.097 485.568 63.097 476.443C63.097 467.318 70.52 459.895 79.645 459.895C88.77 459.895 96.193 467.318 96.193 476.443C96.193 485.568 88.77 492.992 79.645 492.992ZM288.064 459.896C297.189 459.896 304.612 467.319 304.612 476.444C304.612 485.569 297.189 492.993 288.064 492.993C278.939 492.993 271.516 485.569 271.516 476.444C271.516 467.319 278.939 459.896 288.064 459.896ZM304.613 352.908C304.613 365.045 295.914 375.246 283.929 377.164L137.402 400.608C125.472 402.515 114.038 395.583 110.217 384.12L71.347 267.508H304.613V352.908Z" fill="#111928"/>
<path d="M272.032 361.328C276.174 361.328 279.532 357.97 279.532 353.828V292.072C279.532 287.93 276.174 284.572 272.032 284.572C267.89 284.572 264.532 287.93 264.532 292.072V353.828C264.532 357.97 267.89 361.328 272.032 361.328Z" fill="#111928"/>
<path d="M231.952 367.748C236.094 367.748 239.452 364.39 239.452 360.248V292.072C239.452 287.93 236.094 284.572 231.952 284.572C227.81 284.572 224.452 287.93 224.452 292.072V360.248C224.452 364.39 227.81 367.748 231.952 367.748Z" fill="#111928"/>
<path d="M191.871 374.114C196.013 374.114 199.371 370.756 199.371 366.614V292.072C199.371 287.93 196.013 284.572 191.871 284.572C187.729 284.572 184.371 287.93 184.371 292.072V366.614C184.371 370.756 187.729 374.114 191.871 374.114Z" fill="#111928"/>
<path d="M151.79 380.643C155.932 380.643 159.29 377.285 159.29 373.143V292.073C159.29 287.931 155.932 284.573 151.79 284.573C147.648 284.573 144.29 287.931 144.29 292.073V373.143C144.29 377.285 147.648 380.643 151.79 380.643Z" fill="#111928"/>
<path d="M111.709 315.604C115.851 315.604 119.209 312.247 119.209 308.104V292.072C119.209 287.93 115.851 284.572 111.709 284.572C107.567 284.572 104.209 287.93 104.209 292.072V308.104C104.209 312.247 107.567 315.604 111.709 315.604Z" fill="#111928"/>
</g>
<defs>
<clipPath id="clip0_6069_17051">
<rect width="512" height="512" fill="white"/>
</clipPath>
</defs>
</svg>
