<svg width="500" height="500" viewBox="0 0 500 500" fill="none" xmlns="http://www.w3.org/2000/svg">
<path d="M171.762 338.365H137.229C133.236 338.365 130 335.129 130 331.137C130 316.5 118.093 304.59 103.458 304.59C88.8198 304.59 76.9138 316.5 76.9138 331.137C76.9138 335.13 73.6778 338.365 69.6858 338.365H35.1518C31.1588 338.365 27.9238 335.129 27.9238 331.137V216.549C27.9238 200.42 41.0448 187.302 57.1758 187.302H171.762C175.755 187.302 178.99 190.538 178.99 194.53V222.659C198.278 226.369 212.992 243.124 212.992 262.833C212.992 282.537 198.279 299.292 178.99 303.002V331.136C178.99 335.129 175.755 338.365 171.762 338.365ZM143.82 323.908H164.534V296.524C164.534 292.594 167.671 289.386 171.599 289.296C186.2 288.969 198.536 276.849 198.536 262.833C198.536 248.811 186.2 236.692 171.599 236.365C167.671 236.274 164.534 233.067 164.534 229.137V201.759H57.1758C49.0188 201.759 42.3798 208.395 42.3798 216.55V323.909H63.0938C66.5198 304.737 83.3148 290.133 103.458 290.133C123.6 290.132 140.395 304.736 143.82 323.908Z" fill="#111928"/>
<path d="M171.762 475H57.1758C41.0448 475 27.9238 461.876 27.9238 445.747V331.159C27.9238 327.166 31.1598 323.931 35.1518 323.931H63.2918C67.0108 304.759 83.7568 290.143 103.458 290.143C123.156 290.143 139.903 304.758 143.621 323.931H171.761C175.754 323.931 178.989 327.167 178.989 331.159V365.692C178.989 369.685 175.753 372.92 171.761 372.92C157.123 372.92 145.216 384.829 145.216 399.467C145.216 414.105 157.123 426.009 171.761 426.009C175.754 426.009 178.989 429.245 178.989 433.237V467.77C178.99 471.764 175.755 475 171.762 475ZM42.3808 338.388V445.748C42.3808 453.908 49.0198 460.544 57.1768 460.544H164.534V439.83C145.362 436.407 130.76 419.613 130.76 399.469C130.76 379.325 145.362 362.525 164.534 359.102V338.388H137.153C133.225 338.388 130.015 335.248 129.927 331.324C129.593 316.59 117.72 304.601 103.458 304.601C89.1928 304.601 77.3198 316.591 76.9868 331.324C76.8988 335.248 73.6888 338.388 69.7608 338.388H42.3808Z" fill="#111928"/>
<path d="M286.576 475H171.991C167.998 475 164.762 471.764 164.762 467.772V439.638C145.474 435.927 130.76 419.172 130.76 399.469C130.76 379.76 145.474 363.005 164.762 359.294V331.16C164.762 327.167 167.999 323.932 171.991 323.932H206.524C210.517 323.932 213.752 327.168 213.752 331.16C213.752 345.798 225.659 357.708 240.294 357.708C254.932 357.708 266.839 345.798 266.839 331.16C266.839 327.167 270.075 323.932 274.067 323.932H308.6C312.593 323.932 315.828 327.168 315.828 331.16V445.749C315.828 461.876 302.707 475 286.576 475ZM179.219 460.543H286.575C294.733 460.543 301.371 453.907 301.371 445.747V338.387H280.657C277.232 357.56 260.437 372.163 240.293 372.163C220.153 372.163 203.358 357.559 199.933 338.387H179.219V365.77C179.219 369.701 176.081 372.908 172.154 372.998C157.553 373.326 145.216 385.445 145.216 399.467C145.216 413.483 157.553 425.602 172.154 425.93C176.081 426.02 179.219 429.228 179.219 433.158V460.543Z" fill="#111928"/>
<path d="M333.352 75.04C329.359 75.04 326.124 71.804 326.124 67.812V32.228C326.124 28.235 329.36 25 333.352 25C337.345 25 340.58 28.236 340.58 32.228V67.811C340.58 71.804 337.344 75.04 333.352 75.04Z" fill="#111928"/>
<path d="M464.848 170.818H429.268C425.275 170.818 422.04 167.582 422.04 163.59C422.04 159.598 425.276 156.362 429.268 156.362H464.848C468.841 156.362 472.076 159.598 472.076 163.59C472.076 167.582 468.84 170.818 464.848 170.818Z" fill="#111928"/>
<path d="M232.836 170.818H197.253C193.26 170.818 190.025 167.582 190.025 163.59C190.025 159.598 193.261 156.362 197.253 156.362H232.836C236.829 156.362 240.064 159.598 240.064 163.59C240.064 167.582 236.828 170.818 232.836 170.818Z" fill="#111928"/>
<path d="M419.983 102.746C418.057 102.746 416.137 101.984 414.715 100.465C411.981 97.5561 412.125 92.9821 415.034 90.2491L442.88 64.0901C445.788 61.3621 450.365 61.4981 453.099 64.4121C455.832 67.3211 455.688 71.8951 452.78 74.6281L424.933 100.786C423.538 102.096 421.759 102.746 419.983 102.746Z" fill="#111928"/>
<path d="M331.804 291.708C312.109 291.708 295.359 277.093 291.638 257.921H263.501C259.508 257.921 256.273 254.685 256.273 250.693V216.16C256.273 212.167 259.509 208.932 263.501 208.932C278.136 208.932 290.043 197.028 290.043 182.39C290.043 167.753 278.136 155.843 263.501 155.843C259.508 155.843 256.273 152.607 256.273 148.614V114.086C256.273 110.093 259.509 106.858 263.501 106.858H378.087C394.215 106.858 407.337 119.976 407.337 136.105V250.693C407.337 254.686 404.101 257.921 400.108 257.921H371.968C368.248 277.093 351.501 291.708 331.804 291.708ZM270.729 243.463H298.107C302.035 243.463 305.245 246.603 305.332 250.528C305.669 265.262 317.542 277.251 331.804 277.251C346.066 277.251 357.939 265.262 358.273 250.528C358.36 246.603 361.571 243.463 365.498 243.463H392.878V136.104C392.878 127.949 386.242 121.313 378.085 121.313H270.729V142.022C289.901 145.444 304.5 162.245 304.5 182.388C304.5 202.532 289.901 219.327 270.729 222.749V243.463Z" fill="#111928"/>
<path d="M244.936 102.746C243.16 102.746 241.381 102.097 239.986 100.787L212.14 74.6283C209.232 71.8953 209.087 67.3213 211.821 64.4123C214.555 61.4923 219.129 61.3573 222.04 64.0903L249.886 90.2493C252.795 92.9823 252.939 97.5563 250.205 100.465C248.782 101.984 246.862 102.746 244.936 102.746Z" fill="#111928"/>
</svg>
