<svg width="64" height="64" viewBox="0 0 64 64" fill="none" xmlns="http://www.w3.org/2000/svg">
<path d="M37.8877 59.3156C37.8877 59.6406 38.1527 59.9046 38.4767 59.9046H41.6257C41.9507 59.9046 42.2147 59.6396 42.2147 59.3156C42.2147 58.9906 41.9497 58.7266 41.6257 58.7266H38.4767C38.1527 58.7266 37.8877 58.9906 37.8877 59.3156Z" fill="#111928"/>
<path d="M19.8717 22.26C19.8507 22.061 19.7017 21.891 19.5257 21.81C19.5237 21.809 19.5217 21.808 19.5187 21.807C13.6347 18.811 7.14674 25.292 10.1377 31.177C10.1407 31.185 10.1437 31.192 10.1467 31.2C10.3077 31.568 10.8137 31.672 11.1027 31.384L19.7167 22.77C19.8327 22.63 19.9147 22.446 19.8717 22.26ZM12.2947 23.962C13.8747 22.382 16.1847 21.866 18.2587 22.562L10.8947 29.926C10.2007 27.852 10.7157 25.542 12.2947 23.962Z" fill="#111928"/>
<path d="M16.4127 38.801C24.4877 39.011 29.9177 29.521 25.6617 22.676C26.9457 22.197 27.2757 21.3 28.8657 21.305C29.8617 21.305 30.3377 21.636 30.8897 22.018C31.5137 22.453 32.2217 22.943 33.5867 22.943C36.0587 22.985 36.0847 21.366 38.3067 21.304C39.3027 21.304 39.7787 21.635 40.3317 22.019C40.9557 22.452 41.6637 22.943 43.0277 22.943C44.3927 22.943 45.0997 22.451 45.7247 22.018C46.1537 21.721 46.5437 21.461 47.1587 21.356V23.369C47.1487 24.133 48.3477 24.133 48.3367 23.369C48.3347 23.263 48.3447 20.8 48.3247 20.773C48.3437 20.722 48.3317 20.672 48.3167 20.621C48.1467 15.909 44.8707 11.987 40.4727 10.837V3.047C40.4737 1.368 39.1077 0 37.4277 0H26.7797C25.1007 0 23.7337 1.368 23.7337 3.047V10.853C20.4547 11.704 17.7607 14.084 16.5507 17.35C14.3067 17.322 12.0447 17.996 10.1007 19.415C9.83771 19.607 9.78071 19.975 9.97271 20.238C10.1637 20.497 10.5327 20.559 10.7947 20.366C12.6617 19.003 14.8517 18.418 17.0047 18.545C25.0107 18.892 29.0007 29.206 23.1597 34.828C14.7597 42.91 2.01171 32.09 8.67171 22.499C8.86171 22.236 8.80271 21.868 8.53971 21.677C8.27671 21.487 7.90771 21.545 7.71771 21.809C2.52871 28.631 7.87072 38.989 16.4127 38.801ZM24.9117 3.047C24.9117 2.017 25.7497 1.178 26.7797 1.178H33.0047C34.0347 1.178 34.8727 2.016 34.8727 3.047V8.037C34.8727 8.362 35.1377 8.626 35.4617 8.626C35.7867 8.626 36.0507 8.361 36.0507 8.037V3.047C36.0507 2.34 35.7987 1.696 35.3927 1.178H37.4277C38.4577 1.178 39.2947 2.016 39.2947 3.047V10.6C37.1767 10.401 27.0307 10.4 24.9117 10.602V3.047ZM17.7827 17.439C19.2177 13.963 22.5697 11.663 26.3867 11.663H34.8727V13.218C34.8617 14.8 36.2887 15.924 37.8197 15.758C39.8757 15.758 41.7537 16.972 42.6027 18.852C42.9107 19.553 44.0017 19.057 43.6767 18.366C42.5857 15.924 40.0647 14.441 37.4117 14.579C36.6617 14.579 36.0517 13.968 36.0517 13.218V11.663C41.6087 11.104 46.5877 14.518 47.1167 20.185C45.1757 20.401 44.9867 21.743 43.0277 21.766C40.8067 21.705 40.7787 20.085 38.3077 20.127C35.8357 20.084 35.8097 21.704 33.5877 21.766C32.5917 21.766 32.1147 21.435 31.5627 21.051C30.9387 20.618 30.2317 20.127 28.8667 20.127C26.8137 20.109 26.4787 21.175 24.9837 21.659C23.2797 19.312 20.5147 17.769 17.7827 17.439Z" fill="#111928"/>
<path d="M12.7967 33.8122C12.8177 34.0142 12.9647 34.1882 13.1437 34.2712C13.1457 34.2722 13.1477 34.2732 13.1507 34.2742C19.1167 37.4762 25.8057 30.8102 22.6067 24.8262C22.6037 24.8192 22.6007 24.8122 22.5977 24.8052C22.4407 24.4362 21.9267 24.3442 21.6417 24.6212L12.9527 33.3112C12.8377 33.4482 12.7587 33.6282 12.7967 33.8122ZM20.5317 32.1982C18.9217 33.8082 16.4977 34.3042 14.3957 33.5342L21.8657 26.0632C22.6367 28.1642 22.1417 30.5892 20.5317 32.1982Z" fill="#111928"/>
<path d="M54.1507 50.7929C56.9177 48.0259 57.5867 43.8229 55.8147 40.3339L49.1567 27.2299C48.8917 26.7069 48.3627 26.3829 47.7767 26.3809C47.1907 26.3809 46.6607 26.7049 46.3937 27.2279L45.2417 29.4949C44.8857 30.1749 45.9537 30.7119 46.2927 30.0289L47.4447 27.7619C47.6187 27.4729 47.9397 27.4889 48.1067 27.7619L54.7647 40.8679C57.4907 45.8529 53.4467 52.4229 47.7757 52.2549C42.1047 52.4189 38.0617 45.8569 40.7887 40.8679L44.8937 32.7849C45.0407 32.4949 44.9257 32.1399 44.6357 31.9929C44.3457 31.8449 43.9887 31.9599 43.8437 32.2509L39.7387 40.3339C36.7137 45.8769 40.9457 53.2229 47.2407 53.4069V57.2069C47.2407 60.3029 44.7227 62.8199 41.6277 62.8199H22.5807C19.4847 62.8199 16.9677 60.3019 16.9677 57.2069V46.3099H19.0467C19.5087 46.3099 19.8847 46.6859 19.8847 47.1479V55.7799C19.8847 58.0539 21.7347 59.9039 24.0087 59.9039H34.7257C35.0507 59.9039 35.3147 59.6389 35.3147 59.3149C35.3147 58.9899 35.0497 58.7259 34.7257 58.7259H24.0077C22.3837 58.7259 21.0627 57.4039 21.0627 55.7799V47.1479C21.0627 46.0359 20.1577 45.1309 19.0467 45.1309H16.9677V41.8729C16.9847 41.1149 15.7737 41.1039 15.7897 41.8729V57.2079C15.7897 60.9529 18.8367 63.9999 22.5817 63.9999H41.6277C45.3727 63.9999 48.4197 60.9529 48.4197 57.2079V53.4019C50.5847 53.2509 52.6007 52.3429 54.1507 50.7929Z" fill="#111928"/>
<path d="M50.1031 39.3735C49.8151 39.2295 49.4601 39.3445 49.3131 39.6365L45.4611 47.3425C45.3151 47.6335 45.4331 47.9865 45.7241 48.1325C46.0081 48.2765 46.3681 48.1645 46.5141 47.8695L50.3661 40.1635C50.5121 39.8725 50.3951 39.5195 50.1031 39.3735Z" fill="#111928"/>
<path d="M45.1038 39.1514C42.5368 39.1974 42.5358 43.0124 45.1038 43.0584C47.6708 43.0124 47.6698 39.1974 45.1038 39.1514ZM45.1038 41.8804C44.0888 41.8754 44.0898 40.3344 45.1038 40.3304C46.1158 40.3354 46.1178 41.8754 45.1038 41.8804Z" fill="#111928"/>
<path d="M48.9297 46.4024C48.9757 48.9714 52.7907 48.9694 52.8367 46.4024C52.7907 43.8364 48.9757 43.8354 48.9297 46.4024ZM50.8827 45.6274C51.8977 45.6324 51.8967 47.1734 50.8827 47.1774C49.8707 47.1724 49.8697 45.6324 50.8827 45.6274Z" fill="#111928"/>
<path d="M33.0048 53.4024H25.1418C24.3798 53.3914 24.3758 54.5914 25.1418 54.5804H33.0048C33.7668 54.5914 33.7708 53.3914 33.0048 53.4024Z" fill="#111928"/>
<path d="M33.0048 49.3067H25.1418C24.3798 49.2957 24.3758 50.4957 25.1418 50.4847H33.0048C33.7668 50.4957 33.7708 49.2957 33.0048 49.3067Z" fill="#111928"/>
<path d="M33.0048 45.212H25.1418C24.3798 45.201 24.3758 46.401 25.1418 46.39H33.0048C33.7668 46.401 33.7708 45.201 33.0048 45.212Z" fill="#111928"/>
<path d="M10.6519 42.8278C10.4219 42.5978 10.0489 42.5978 9.81891 42.8278L7.93491 44.7108L6.05091 42.8278C5.82091 42.5978 5.44791 42.5978 5.21791 42.8278C4.98791 43.0578 4.98791 43.4308 5.21791 43.6608L7.10191 45.5438L5.21791 47.4268C4.98791 47.6568 4.98791 48.0298 5.21791 48.2598C5.44791 48.4898 5.82091 48.4898 6.05091 48.2598L7.93491 46.3768L9.81891 48.2598C10.0489 48.4898 10.4219 48.4898 10.6519 48.2598C10.8819 48.0298 10.8819 47.6568 10.6519 47.4268L8.76791 45.5438L10.6519 43.6608C10.8819 43.4308 10.8819 43.0578 10.6519 42.8278Z" fill="#111928"/>
<path d="M56.1769 19.4719L58.7829 16.8658C59.0129 16.6358 59.0129 16.2629 58.7829 16.0329C58.5529 15.8029 58.1799 15.8029 57.9499 16.0329L55.3439 18.6389L52.7379 16.0329C52.5079 15.8029 52.1349 15.8029 51.9049 16.0329C51.6749 16.2629 51.6749 16.6358 51.9049 16.8658L54.5109 19.4719L51.9049 22.0778C51.6749 22.3078 51.6749 22.6809 51.9049 22.9109C52.1349 23.1409 52.5079 23.1409 52.7379 22.9109L55.3439 20.3049L57.9499 22.9109C58.1799 23.1409 58.5529 23.1409 58.7829 22.9109C59.0129 22.6809 59.0129 22.3078 58.7829 22.0778L56.1769 19.4719Z" fill="#111928"/>
<path d="M12.697 11.9296C18.078 11.7886 18.077 3.90758 12.697 3.76758C7.316 3.90858 7.317 11.7896 12.697 11.9296ZM12.697 4.94558C16.524 5.04558 16.524 10.6506 12.697 10.7506C8.87 10.6506 8.871 5.04558 12.697 4.94558Z" fill="#111928"/>
<path d="M55.5678 54.2803C51.6358 54.3843 51.6368 60.1403 55.5678 60.2443C59.4998 60.1403 59.4988 54.3833 55.5678 54.2803ZM55.5678 59.0653C53.1978 59.0233 53.1978 55.5003 55.5678 55.4583C57.9378 55.5013 57.9378 59.0233 55.5678 59.0653Z" fill="#111928"/>
</svg>
