<svg width="26" height="26" viewBox="0 0 26 26" fill="none" xmlns="http://www.w3.org/2000/svg">
<path d="M19.0938 19.0938H10.1562C10.0485 19.0938 9.94517 19.1366 9.86899 19.2127C9.7928 19.2889 9.75 19.3923 9.75 19.5V21.9375C9.75 22.0452 9.7928 22.1486 9.86899 22.2248C9.94517 22.3009 10.0485 22.3438 10.1562 22.3438H19.0938C19.2015 22.3438 19.3048 22.3009 19.381 22.2248C19.4572 22.1486 19.5 22.0452 19.5 21.9375V19.5C19.5 19.3923 19.4572 19.2889 19.381 19.2127C19.3048 19.1366 19.2015 19.0938 19.0938 19.0938ZM18.6875 21.5312H10.5625V19.9062H18.6875V21.5312Z" fill="white"/>
<path d="M23.9688 7.7935V2.03125C23.9688 1.60027 23.7975 1.18695 23.4928 0.882202C23.1881 0.577455 22.7747 0.40625 22.3438 0.40625H18.2812C17.8503 0.40625 17.4369 0.577455 17.1322 0.882202C16.8275 1.18695 16.6562 1.60027 16.6562 2.03125V7.7935C16.4194 7.87722 16.2143 8.03206 16.0688 8.23684C15.9234 8.44162 15.8448 8.68633 15.8438 8.9375V14.625H11.7812V11.375C11.78 10.4761 11.4481 9.60913 10.8487 8.93926C10.2494 8.26939 9.42446 7.84348 8.53125 7.74272V6.90625H9.34375C9.45149 6.90625 9.55483 6.86345 9.63101 6.78726C9.7072 6.71108 9.75 6.60774 9.75 6.5V4.0625C9.75 3.95476 9.7072 3.85142 9.63101 3.77524C9.55483 3.69905 9.45149 3.65625 9.34375 3.65625H8.125V2.03125C8.125 1.60027 7.95379 1.18695 7.64905 0.882202C7.3443 0.577455 6.93098 0.40625 6.5 0.40625C6.06902 0.40625 5.6557 0.577455 5.35095 0.882202C5.0462 1.18695 4.875 1.60027 4.875 2.03125V3.65625H3.65625C3.54851 3.65625 3.44517 3.69905 3.36899 3.77524C3.2928 3.85142 3.25 3.95476 3.25 4.0625V6.5C3.25 6.60774 3.2928 6.71108 3.36899 6.78726C3.44517 6.86345 3.54851 6.90625 3.65625 6.90625H4.46875V7.74272C3.57554 7.84348 2.75064 8.26939 2.15127 8.93926C1.5519 9.60913 1.21997 10.4761 1.21875 11.375V24.375C1.21875 24.6982 1.34715 25.0082 1.57571 25.2368C1.80427 25.4653 2.11427 25.5938 2.4375 25.5938H23.5625C23.8857 25.5938 24.1957 25.4653 24.4243 25.2368C24.6528 25.0082 24.7812 24.6982 24.7812 24.375V8.9375C24.7802 8.68633 24.7016 8.44162 24.5562 8.23684C24.4107 8.03206 24.2056 7.87722 23.9688 7.7935ZM21.5312 6.09375H19.0938V2.84375H21.5312V6.09375ZM23.1562 6.90625V7.71875H17.4688V6.90625H23.1562ZM18.2812 1.21875H22.3438C22.5592 1.21875 22.7659 1.30435 22.9183 1.45673C23.0706 1.6091 23.1562 1.81576 23.1562 2.03125V6.09375H22.3438V2.4375C22.3438 2.32976 22.3009 2.22642 22.2248 2.15024C22.1486 2.07405 22.0452 2.03125 21.9375 2.03125H18.6875C18.5798 2.03125 18.4764 2.07405 18.4002 2.15024C18.3241 2.22642 18.2812 2.32976 18.2812 2.4375V6.09375H17.4688V2.03125C17.4688 1.81576 17.5544 1.6091 17.7067 1.45673C17.8591 1.30435 18.0658 1.21875 18.2812 1.21875ZM20.2312 17.0052C20.2844 16.8965 20.3122 16.7772 20.3125 16.6562V15.4375C20.3125 15.222 20.2269 15.0153 20.0745 14.863C19.9222 14.7106 19.7155 14.625 19.5 14.625H18.2812V12.1875C18.2812 12.0798 18.3241 11.9764 18.4002 11.9002C18.4764 11.8241 18.5798 11.7812 18.6875 11.7812H21.9375C22.0452 11.7812 22.1486 11.8241 22.2248 11.9002C22.3009 11.9764 22.3438 12.0798 22.3438 12.1875V21.125C22.3438 21.2327 22.3009 21.3361 22.2248 21.4123C22.1486 21.4884 22.0452 21.5312 21.9375 21.5312H21.125V18.6875C21.1249 18.3554 21.0434 18.0284 20.8876 17.7351C20.7317 17.4418 20.5064 17.1912 20.2312 17.0052ZM19.5 15.4375V16.6969C19.3663 16.6697 19.2302 16.6561 19.0938 16.6562H10.1562C10.0198 16.6561 9.88371 16.6697 9.75 16.6969V15.4375H19.5ZM10.9688 11.375V13.4062H7.71875V8.53125H8.125C8.87895 8.53211 9.60176 8.832 10.1349 9.36512C10.668 9.89824 10.9679 10.6211 10.9688 11.375ZM6.90625 8.53125V13.4396C6.62454 13.4817 6.35069 13.5656 6.09375 13.6886V8.53125H6.90625ZM6.09375 14.625C6.33487 14.4469 6.61228 14.3241 6.90625 14.2655V18.6375L6.6105 19.8197C6.60198 19.8421 6.58685 19.8614 6.56711 19.875C6.54738 19.8886 6.52397 19.8959 6.5 19.8959C6.47603 19.8959 6.45262 19.8886 6.43289 19.875C6.41315 19.8614 6.39802 19.8421 6.3895 19.8197L6.09375 18.6375V14.625ZM5.6875 2.03125C5.6875 1.81576 5.7731 1.6091 5.92548 1.45673C6.07785 1.30435 6.28451 1.21875 6.5 1.21875C6.71549 1.21875 6.92215 1.30435 7.07452 1.45673C7.2269 1.6091 7.3125 1.81576 7.3125 2.03125V3.65625H5.6875V2.03125ZM4.0625 4.46875H8.9375V6.09375H4.0625V4.46875ZM7.71875 6.90625V7.71875H5.28125V6.90625H7.71875ZM4.875 8.53125H5.28125V14.2188C4.92927 14.4817 4.50187 14.6242 4.0625 14.625H2.03125V11.375C2.03211 10.6211 2.332 9.89824 2.86512 9.36512C3.39824 8.832 4.12105 8.53211 4.875 8.53125ZM2.03125 24.375V15.4375H4.0625C4.48478 15.434 4.90101 15.3368 5.28125 15.1531V18.6875C5.28122 18.7206 5.28531 18.7537 5.29344 18.7858L5.60097 20.0172C5.65106 20.2177 5.76675 20.3957 5.92966 20.5229C6.09256 20.6501 6.29331 20.7192 6.5 20.7192C6.70669 20.7192 6.90744 20.6501 7.07034 20.5229C7.23325 20.3957 7.34894 20.2177 7.39903 20.0172L7.70656 18.7862C7.71472 18.7539 7.71881 18.7208 7.71875 18.6875V14.2188H10.9688V14.625H9.75C9.53451 14.625 9.32785 14.7106 9.17548 14.863C9.0231 15.0153 8.9375 15.222 8.9375 15.4375V16.6562C8.93782 16.7772 8.9656 16.8965 9.01875 17.0052C8.7436 17.1912 8.51825 17.4418 8.36244 17.7351C8.20662 18.0284 8.1251 18.3554 8.125 18.6875V24.375C8.12635 24.5137 8.15163 24.6511 8.19975 24.7812H2.4375C2.32976 24.7812 2.22642 24.7384 2.15024 24.6623C2.07405 24.5861 2.03125 24.4827 2.03125 24.375ZM9.34375 24.7812C9.23601 24.7812 9.13267 24.7384 9.05649 24.6623C8.9803 24.5861 8.9375 24.4827 8.9375 24.375V18.6875C8.9375 18.3643 9.0659 18.0543 9.29446 17.8257C9.52302 17.5972 9.83302 17.4688 10.1562 17.4688H19.0938C19.417 17.4688 19.727 17.5972 19.9555 17.8257C20.1841 18.0543 20.3125 18.3643 20.3125 18.6875V24.375C20.3125 24.4827 20.2697 24.5861 20.1935 24.6623C20.1173 24.7384 20.014 24.7812 19.9062 24.7812H9.34375ZM23.9688 24.375C23.9688 24.4827 23.9259 24.5861 23.8498 24.6623C23.7736 24.7384 23.6702 24.7812 23.5625 24.7812H21.0503C21.0984 24.6511 21.1237 24.5137 21.125 24.375V22.3438H21.9375C22.2607 22.3438 22.5707 22.2153 22.7993 21.9868C23.0278 21.7582 23.1562 21.4482 23.1562 21.125V12.1875C23.1562 11.8643 23.0278 11.5543 22.7993 11.3257C22.5707 11.0972 22.2607 10.9688 21.9375 10.9688H18.6875C18.3643 10.9688 18.0543 11.0972 17.8257 11.3257C17.5972 11.5543 17.4688 11.8643 17.4688 12.1875V14.625H16.6562V8.9375C16.6562 8.82976 16.6991 8.72642 16.7752 8.65024C16.8514 8.57405 16.9548 8.53125 17.0625 8.53125H23.5625C23.6702 8.53125 23.7736 8.57405 23.8498 8.65024C23.9259 8.72642 23.9688 8.82976 23.9688 8.9375V24.375Z" fill="white"/>
<path d="M20.7188 3.65625H19.9062V4.46875H20.7188V3.65625Z" fill="white"/>
</svg>
