<svg width="26" height="26" viewBox="0 0 26 26" fill="none" xmlns="http://www.w3.org/2000/svg">
<path d="M11.7899 3.80429L11.7904 3.80331C11.9739 3.45725 12.1857 3.22484 12.4148 3.07767C12.6414 2.93215 12.9119 2.85254 13.2439 2.85254C13.5744 2.85254 13.8443 2.932 14.0712 3.07767C14.3006 3.22503 14.5132 3.4578 14.6978 3.80429C15.0674 4.49765 15.2869 5.7705 15.2869 7.712C15.2869 9.6535 15.0674 10.9263 14.6978 11.6197L14.6973 11.6207C14.514 11.9664 14.3018 12.1989 14.0722 12.3462C13.8451 12.4919 13.5745 12.5715 13.2439 12.5715C12.9133 12.5715 12.6434 12.492 12.4165 12.3463C12.1872 12.199 11.9748 11.9664 11.7902 11.6202C11.4225 10.9262 11.2031 9.65283 11.2031 7.712C11.2031 5.76974 11.4205 4.49733 11.7899 3.80429ZM13.2439 2.35254C12.41 2.35254 11.7782 2.75879 11.3486 3.56912L15.1391 11.8549C15.5709 11.0445 15.7869 9.66287 15.7869 7.712C15.7869 5.76113 15.5709 4.37944 15.1391 3.56912C14.7072 2.75879 14.0755 2.35254 13.2439 2.35254Z" stroke="white"/>
<path d="M9.20952 13.2483C8.68115 13.6785 8.46292 14.1391 8.55251 14.63C8.68575 15.3643 9.28992 15.7293 10.365 15.7293H14.7596C17.1258 15.7293 19.0807 16.1008 20.6267 16.8459C22.1728 17.5911 23.0848 18.7295 23.3627 20.2632C23.3906 20.4186 23.4104 20.5718 23.4221 20.723C23.5451 20.5482 23.6632 20.3701 23.7764 20.1889C23.7766 20.1887 23.7767 20.1884 23.7769 20.1882C23.7976 20.155 23.8181 20.1217 23.8385 20.0884M9.20952 13.2483L9.07689 13.7304C9.16472 13.7546 9.25341 13.7779 9.34297 13.8003M9.20952 13.2483C9.84125 13.4221 10.5235 13.5503 11.2609 13.6329L12.4417 13.7545H13.2457C15.922 13.7545 18.0699 13.2483 19.6918 12.2338M9.20952 13.2483L9.52519 13.6361C9.45593 13.6925 9.39549 13.7472 9.34297 13.8003M9.34297 13.8003C9.05797 14.0887 9.00613 14.3306 9.04439 14.5403L9.04448 14.5408C9.08713 14.7758 9.19257 14.9231 9.36466 15.0274C9.55784 15.1444 9.87449 15.2293 10.365 15.2293H14.7596C17.1739 15.2293 19.2094 15.6077 20.8438 16.3955C22.4889 17.1884 23.5103 18.4228 23.8385 20.0884M9.34297 13.8003C9.92622 13.9464 10.5462 14.056 11.2053 14.1298L11.2053 14.1298L11.2097 14.1302L12.3905 14.2519L12.416 14.2545H12.4417H13.2457C15.9798 14.2545 18.2297 13.7381 19.9568 12.6578M23.8385 20.0884C23.8441 20.1168 23.8495 20.1454 23.8547 20.1741L23.8549 20.1748C23.8967 20.4081 23.9223 20.6384 23.9312 20.8661C25.2396 18.9481 25.9999 16.6638 25.9999 14.2107C25.9999 10.8584 24.5812 7.81911 22.2797 5.60125C22.3913 5.91361 22.4754 6.24047 22.5323 6.5814M23.8385 20.0884C24.8958 18.3569 25.4999 16.3503 25.4999 14.2107C25.4999 11.3054 24.3864 8.64106 22.5323 6.5814M22.5323 6.5814C22.3138 6.33864 22.0849 6.10429 21.8465 5.87893C22.03 6.43343 22.1222 7.04289 22.1222 7.70857V7.71074C22.1222 9.71375 21.3113 11.2214 19.6918 12.2338M22.5323 6.5814C22.5924 6.9416 22.6222 7.3175 22.6222 7.70857V7.71074C22.6222 9.8762 21.7307 11.5489 19.9568 12.6578M19.9568 12.6578C19.9568 12.6578 19.9569 12.6577 19.9569 12.6577L19.6918 12.2338M19.9568 12.6578L19.6918 12.2338" stroke="white"/>
<path d="M5.63301 14.3023C6.0249 13.8532 6.55412 13.4273 7.20823 13.0212C6.74484 12.7859 6.31723 12.5152 5.9289 12.2078C4.54675 11.1145 3.86473 9.59449 3.86473 7.712C3.86473 7.07981 3.9408 6.48772 4.09445 5.93803C1.86832 8.0699 0.5 10.993 0.5 14.212C0.5 17.4409 1.72386 20.2523 3.89389 22.2594C6.06576 24.2683 9.2171 25.4998 13.1149 25.4998C14.8652 25.4998 16.1892 25.2126 17.1267 24.6862C17.9777 24.208 18.4373 23.3016 18.2872 22.4334L5.63301 14.3023ZM5.63301 14.3023C4.95607 15.0771 4.69958 15.9864 4.88126 16.9865L4.88132 16.9868M5.63301 14.3023L4.88132 16.9868M4.88132 16.9868C5.09855 18.1784 5.84261 19.0503 7.02252 19.6009C8.16942 20.1361 9.63727 20.3865 11.3988 20.3865H13.8982C15.515 20.3865 16.5919 20.605 17.2096 20.9689M4.88132 16.9868L17.2096 20.9689M17.2096 20.9689C17.8428 21.3423 18.1819 21.8276 18.2871 22.4331L17.2096 20.9689Z" stroke="white"/>
<path d="M21.3405 2.4766C21.3405 2.00635 21.534 1.57249 21.8571 1.2408C21.884 1.21432 21.9433 1.14965 21.9789 1.04881C22.0021 0.982857 22.0198 0.887703 21.9966 0.777982C21.9785 0.692543 21.9406 0.621705 21.8958 0.566319C22.1687 0.522007 22.4424 0.5 22.7173 0.5C23.3196 0.5 23.7976 0.608653 24.1745 0.80271L24.3987 0.94068C24.9432 1.27585 25.2887 1.84346 25.2887 2.4766C25.2887 3.46713 24.432 4.31634 23.3146 4.31634C22.1972 4.31634 21.3405 3.46714 21.3405 2.4766ZM21.5044 0.645331C21.5044 0.645329 21.5044 0.645327 21.5044 0.645325C21.5044 0.707697 21.5044 0.784724 21.5044 0.879846L21.5044 0.645331Z" stroke="white"/>
</svg>
