<svg width="26" height="26" viewBox="0 0 26 26" fill="none" xmlns="http://www.w3.org/2000/svg">
<g clip-path="url(#clip0_6059_15556)">
<path d="M19.5276 25.2384H2.02148C1.5315 25.2384 1.13281 24.8398 1.13281 24.3498V13.8301C1.13281 13.6197 0.96234 13.4492 0.751953 13.4492C0.541566 13.4492 0.371094 13.6197 0.371094 13.8301V24.3498C0.371094 25.2598 1.11143 26.0002 2.02148 26.0002H19.5276C19.738 26.0002 19.9085 25.8297 19.9085 25.6193C19.9085 25.4089 19.7379 25.2384 19.5276 25.2384Z" fill="white"/>
<path d="M18.4023 16.231H22.5206C22.8781 16.231 23.169 15.9402 23.169 15.5827V11.4643C23.169 11.1068 22.8781 10.8159 22.5206 10.8159H18.4023C18.0447 10.8159 17.7539 11.1068 17.7539 11.4643V15.5827C17.7539 15.9402 18.0447 16.231 18.4023 16.231ZM18.5156 11.5776H22.4072V15.4693H18.5156V11.5776Z" fill="white"/>
<path d="M10.2925 22.5621C10.2925 22.9197 10.5834 23.2106 10.9409 23.2106H15.0592C15.4167 23.2106 15.7076 22.9197 15.7076 22.5621V18.4438C15.7076 18.0863 15.4167 17.7954 15.0592 17.7954H10.9409C10.5834 17.7954 10.2925 18.0863 10.2925 18.4438V22.5621ZM11.0542 18.5571H14.9458V22.4488H11.0542V18.5571Z" fill="white"/>
<path d="M2.83105 22.5621C2.83105 22.9197 3.12193 23.2106 3.47948 23.2106H7.59779C7.95534 23.2106 8.24621 22.9197 8.24621 22.5621V18.4438C8.24621 18.0863 7.95534 17.7954 7.59779 17.7954H3.47948C3.12193 17.7954 2.83105 18.0863 2.83105 18.4438V22.5621ZM3.59277 18.5571H7.48445V22.4488H3.59277V18.5571Z" fill="white"/>
<path d="M17.7537 22.5621C17.7537 22.9197 18.0445 23.2106 18.402 23.2106H22.5203C22.8779 23.2106 23.1687 22.9197 23.1687 22.5621V18.4438C23.1687 18.0863 22.8779 17.7954 22.5203 17.7954H18.402C18.0445 17.7954 17.7537 18.0863 17.7537 18.4438V22.5621ZM18.5154 18.5571H22.4071V22.4488H18.5154V18.5571Z" fill="white"/>
<path d="M15.0592 10.8159H10.9409C10.5834 10.8159 10.2925 11.1068 10.2925 11.4643V15.5827C10.2925 15.9402 10.5834 16.231 10.9409 16.231H15.0592C15.4167 16.231 15.7076 15.9402 15.7076 15.5827V13.2793L16.6927 12.2874C16.8409 12.1382 16.8401 11.897 16.6909 11.7488C16.5416 11.6006 16.3005 11.6015 16.1522 11.7506L15.7075 12.1984V11.4644C15.7075 11.1068 15.4167 10.8159 15.0592 10.8159ZM14.9458 15.4693H11.0542V11.5776H14.9458V12.9652L13.8472 14.0714L13.013 13.2517C12.863 13.1044 12.6219 13.1065 12.4744 13.2566C12.327 13.4066 12.3292 13.6477 12.4792 13.7952L13.5837 14.8802C13.6578 14.953 13.7542 14.9893 13.8506 14.9893C13.9485 14.9893 14.0463 14.9518 14.1208 14.8768L14.9458 14.0462V15.4693Z" fill="white"/>
<path d="M7.59774 10.8159H3.47948C3.12193 10.8159 2.83105 11.1068 2.83105 11.4643V15.5827C2.83105 15.9402 3.12193 16.231 3.47948 16.231H7.59779C7.95534 16.231 8.24621 15.9402 8.24621 15.5827V12.9342L8.8886 12.2874C9.03683 12.1382 9.03596 11.8969 8.88677 11.7488C8.73747 11.6005 8.49631 11.6014 8.34813 11.7506L8.24616 11.8532V11.4643C8.24616 11.1068 7.95529 10.8159 7.59774 10.8159ZM7.48444 15.4693H3.59277V11.5776H7.48444V12.6201L6.04312 14.0713L5.20889 13.2517C5.05893 13.1044 4.81772 13.1065 4.67035 13.2565C4.52293 13.4065 4.52507 13.6477 4.67513 13.7951L5.77952 14.88C5.85366 14.9529 5.95004 14.9892 6.04642 14.9892C6.14433 14.9892 6.24218 14.9517 6.31663 14.8767L7.48444 13.701V15.4693Z" fill="white"/>
<path d="M23.9785 2.48574H22.1325V1.5857C22.1325 0.711344 21.4211 0 20.5467 0C19.6724 0 18.961 0.711344 18.961 1.5857V2.48574H14.5856V1.5857C14.5857 0.711344 13.8743 0 13 0C12.1256 0 11.4143 0.711344 11.4143 1.5857V2.48574H7.03887V1.5857C7.03887 0.711344 6.32753 0 5.45323 0C4.57883 0 3.86748 0.711344 3.86748 1.5857V2.48574H2.02148C1.11143 2.48574 0.371094 3.22608 0.371094 4.13613V12.17C0.371094 12.3804 0.541566 12.5509 0.751953 12.5509C0.96234 12.5509 1.13281 12.3804 1.13281 12.17V8.72178H16.1666C16.377 8.72178 16.5475 8.55131 16.5475 8.34092C16.5475 8.13054 16.377 7.96006 16.1666 7.96006H1.13281V4.13613C1.13281 3.64614 1.5315 3.24746 2.02148 3.24746H3.86748V4.14756C3.86748 5.02191 4.57883 5.73325 5.45323 5.73325C6.32758 5.73325 7.03893 5.02191 7.03893 4.14756V3.24746H11.4143V4.14756C11.4143 5.02191 12.1257 5.73325 13 5.73325C13.8744 5.73325 14.5857 5.02191 14.5857 4.14756V3.24746H18.9611V4.14756C18.9611 5.02191 19.6725 5.73325 20.5468 5.73325C21.4212 5.73325 22.1326 5.02191 22.1326 4.14756V3.24746H23.9786C24.4686 3.24746 24.8673 3.64614 24.8673 4.13613V7.96006H17.8264C17.616 7.96006 17.4456 8.13054 17.4456 8.34092C17.4456 8.55131 17.616 8.72178 17.8264 8.72178H24.8672V24.3496C24.8672 24.8396 24.4685 25.2383 23.9785 25.2383H21.1875C20.9771 25.2383 20.8066 25.4088 20.8066 25.6191C20.8066 25.8295 20.9771 26 21.1875 26H23.9785C24.8885 26 25.6289 25.2597 25.6289 24.3496V4.13613C25.6289 3.22608 24.8885 2.48574 23.9785 2.48574ZM6.27716 4.14756C6.27716 4.6019 5.90757 4.97154 5.45318 4.97154C4.99884 4.97154 4.62915 4.60195 4.62915 4.14756V1.5857C4.6292 1.1313 4.99884 0.761719 5.45323 0.761719C5.90757 0.761719 6.27721 1.1313 6.27721 1.5857L6.27716 4.14756ZM13.824 4.14756C13.824 4.6019 13.4544 4.97154 13 4.97154C12.5456 4.97154 12.176 4.60195 12.176 4.14756V1.5857C12.176 1.1313 12.5456 0.761719 13 0.761719C13.4543 0.761719 13.824 1.1313 13.824 1.5857V4.14756ZM21.3708 4.14756C21.3708 4.6019 21.0011 4.97154 20.5467 4.97154C20.0924 4.97154 19.7228 4.60195 19.7228 4.14756V1.5857C19.7228 1.13136 20.0923 0.761719 20.5467 0.761719C21.0011 0.761719 21.3708 1.1313 21.3708 1.5857V4.14756Z" fill="white"/>
</g>
<defs>
<clipPath id="clip0_6059_15556">
<rect width="26" height="26" fill="white"/>
</clipPath>
</defs>
</svg>
