<svg width="26" height="26" viewBox="0 0 26 26" fill="none" xmlns="http://www.w3.org/2000/svg">
<g clip-path="url(#clip0_6059_15536)">
<path d="M10.1562 0.507812C10.1562 0.788298 9.92892 1.01562 9.64844 1.01562C9.36795 1.01562 9.14062 0.788298 9.14062 0.507812C9.14062 0.227325 9.36795 0 9.64844 0C9.92892 0 10.1562 0.227325 10.1562 0.507812Z" fill="white"/>
<path d="M9.67381 19.3224C11.5472 19.3224 13.3471 18.7904 14.9074 17.7805L22.9785 25.8514C23.1766 26.0495 23.4982 26.0497 23.6966 25.8514L25.8512 23.6967C26.0496 23.4984 26.0496 23.177 25.8512 22.9786L17.7804 14.9076C18.7902 13.3475 19.3222 11.5473 19.3222 9.67398C19.3222 8.8232 19.2115 7.98134 18.9933 7.16686L20.8306 5.32961C21.1329 5.50853 21.4852 5.61148 21.8613 5.61148C22.9813 5.61148 23.8925 4.7004 23.8925 3.58024C23.8925 2.46028 22.9813 1.54899 21.8613 1.54899C20.7413 1.54899 19.83 2.46028 19.83 3.58024C19.83 3.95653 19.9332 4.30903 20.1123 4.61153L18.6341 6.08974C17.4943 3.23885 15.0328 1.05348 12.0415 0.294538C11.7695 0.225507 11.4934 0.390149 11.4244 0.661908C11.3555 0.933865 11.52 1.21019 11.7917 1.27902C14.6113 1.99432 16.9054 4.12614 17.8448 6.87903L15.2754 9.44844C14.9729 9.26951 14.6204 9.16617 14.2441 9.16617C13.8754 9.16617 13.5217 9.26416 13.2122 9.44745L11.423 7.6582C11.6019 7.3557 11.7051 7.0034 11.7051 6.62711C11.7051 5.50715 10.7938 4.59586 9.67381 4.59586C8.55385 4.59586 7.64257 5.50715 7.64257 6.62711C7.64257 7.0034 7.74572 7.3559 7.92484 7.6584L6.1348 9.44844C5.8323 9.26951 5.4798 9.16617 5.10351 9.16617C3.98354 9.16617 3.07226 10.0775 3.07226 11.1974C3.07226 12.3176 3.98354 13.2287 5.10351 13.2287C6.22347 13.2287 7.13475 12.3176 7.13475 11.1974C7.13475 10.8215 7.03161 10.4692 6.85288 10.1669L8.64311 8.37648C8.94562 8.5554 9.29772 8.65836 9.67381 8.65836C10.0499 8.65836 10.4024 8.55521 10.7047 8.37628L12.494 10.1655C12.3109 10.475 12.2129 10.8287 12.2129 11.1974C12.2129 12.3176 13.1242 13.2287 14.2441 13.2287C15.3641 13.2287 16.2754 12.3176 16.2754 11.1974C16.2754 10.8215 16.1722 10.4692 15.9935 10.1669L18.1469 8.01328C18.2529 8.55798 18.3066 9.1138 18.3066 9.67398C18.3066 14.4417 14.4431 18.3068 9.67381 18.3068C4.89959 18.3068 1.01562 14.4341 1.01562 9.67398C1.01562 5.72852 3.6858 2.28115 7.50907 1.29072C7.78063 1.2203 7.94368 0.943188 7.87326 0.671628C7.80284 0.400266 7.52573 0.237012 7.25437 0.307431C3.1278 1.37641 0 5.14196 0 9.67398C0 14.9941 4.33961 19.3224 9.67381 19.3224ZM21.8613 2.56461C22.4213 2.56461 22.8769 3.02026 22.8769 3.58024C22.8769 4.14022 22.4213 4.59586 21.8613 4.59586C21.3013 4.59586 20.8457 4.14022 20.8457 3.58024C20.8457 3.02026 21.3013 2.56461 21.8613 2.56461ZM5.10351 12.213C4.54353 12.213 4.08788 11.7574 4.08788 11.1974C4.08788 10.6374 4.54353 10.1818 5.10351 10.1818C5.66349 10.1818 6.11913 10.6374 6.11913 11.1974C6.11913 11.7574 5.66349 12.213 5.10351 12.213ZM8.65819 6.62711C8.65819 6.06713 9.11383 5.61148 9.67381 5.61148C10.2338 5.61148 10.6894 6.06713 10.6894 6.62711C10.6894 7.18709 10.2338 7.64273 9.67381 7.64273C9.11383 7.64273 8.65819 7.18709 8.65819 6.62711ZM14.2441 12.213C13.6841 12.213 13.2285 11.7574 13.2285 11.1974C13.2285 10.6366 13.6831 10.1818 14.2441 10.1818C14.8041 10.1818 15.2597 10.6374 15.2597 11.1974C15.2597 11.7574 14.8041 12.213 14.2441 12.213ZM23.3375 24.7742L17.6939 19.1304L19.1302 17.694L24.7739 23.3377L23.3375 24.7742ZM17.1767 15.7403L18.4121 16.9758L16.9756 18.4123L15.7402 17.1769C16.2686 16.7494 16.7491 16.2688 17.1767 15.7403Z" fill="white"/>
</g>
<defs>
<clipPath id="clip0_6059_15536">
<rect width="26" height="26" fill="white"/>
</clipPath>
</defs>
</svg>
