<svg id="Capa_1" enable-background="new 0 0 511.695 511.695" height="512" viewBox="0 0 511.695 511.695" width="512" xmlns="http://www.w3.org/2000/svg"><g><path d="m189.772 205.975c-4.104-2.602-9.176-2.917-13.572-.844l-19.383 9.147c-4.913 2.317-8.088 7.325-8.088 12.758v27.467c-2.592 2.485-4.216 5.973-4.216 9.839v34.175c-5.941 2.174-10.201 7.867-10.201 14.552v35.065l-29.371 32.991c-.039.042-.133.124-.298.13-.188-.004-.274-.106-.311-.15-23.065-27.867-37.958-61.457-43.068-97.138-.586-4.101-4.394-6.949-8.487-6.36-4.1.587-6.948 4.387-6.36 8.487 5.501 38.417 21.533 74.578 46.361 104.576 2.871 3.467 7.098 5.502 11.597 5.582.093.002.185.003.277.003 4.392 0 8.566-1.869 11.492-5.155l257.895-289.677c2.99-3.357 4.361-7.839 3.762-12.295-.599-4.45-3.1-8.402-6.86-10.845-51.999-33.772-114.629-42.796-176.351-25.404-33.137 9.338-63.644 27.041-88.221 51.197-24.632 24.209-42.814 54.419-52.581 87.364-6.031 20.344-9.228 41.045-9.5 61.528-.056 4.142 3.257 7.544 7.399 7.599.034.001.067.001.102.001 4.096 0 7.442-3.292 7.497-7.4.255-19.106 3.243-38.44 8.883-57.464 9.047-30.514 25.892-58.498 48.714-80.93 22.783-22.393 51.061-38.803 81.775-47.458 57.501-16.203 115.787-7.84 164.113 23.547.045.03.14.091.163.264.024.184-.061.279-.098.32l-39.574 44.451h-104.493c-6.025 0-11.512 3.061-14.676 8.188-3.164 5.126-3.441 11.402-.741 16.786l9.568 19.087c.096.19.163.393.201.606l11.758 65.84-23.951 26.903v-8.968c0-4.053-1.786-7.688-4.602-10.189v-36.264c0-4.857-2.45-9.311-6.554-11.912zm-8.446 13.324v31.398h-17.597v-23.095zm-32.014 93.77c0-.279.227-.507.506-.507h2.195 13.968l-16.669 18.723zm79.675-128.975h19.303c4.143 0 7.5-3.357 7.5-7.5s-3.357-7.5-7.5-7.5h-24.038l-7.492-14.944c-.488-.974-.149-1.786.097-2.185.245-.398.821-1.066 1.911-1.066h91.14l-72.339 81.253zm-49.651 113.468h-19.822v-31.865h26.414v24.461z"/><path d="m501.909 185.545c-1.136-3.984-5.289-6.288-9.269-5.156-3.983 1.137-6.292 5.287-5.155 9.27 6.111 21.428 9.21 43.697 9.21 66.189 0 64.333-25.053 124.814-70.542 170.305-45.49 45.49-105.973 70.543-170.306 70.543-64.332 0-124.814-25.053-170.305-70.543s-70.542-105.973-70.542-170.305c0-64.333 25.053-124.815 70.543-170.306 45.49-45.489 105.972-70.542 170.305-70.542 96.194 0 183.014 57.076 221.183 145.407 1.644 3.803 6.058 5.557 9.859 3.91 3.803-1.643 5.553-6.058 3.91-9.859-40.544-93.83-132.769-154.458-234.952-154.458-68.339 0-132.588 26.612-180.911 74.936s-74.937 112.572-74.937 180.912c0 68.339 26.613 132.588 74.937 180.911s112.572 74.937 180.911 74.937c68.34 0 132.589-26.613 180.912-74.937s74.936-112.572 74.936-180.911c-.001-23.884-3.293-47.537-9.787-70.303z"/><path d="m140.755 433.412c34.701 22.538 74.129 34.053 114.87 34.053 20.308 0 40.948-2.863 61.479-8.648 33.137-9.337 63.644-27.04 88.221-51.196 24.632-24.209 42.814-54.419 52.581-87.363 10.811-36.462 12.463-72.984 4.911-108.553-7.031-33.118-22.212-64.474-43.9-90.678-2.869-3.467-7.096-5.502-11.595-5.583-4.457-.1-8.783 1.796-11.771 5.152l-257.895 289.676c-2.989 3.357-4.36 7.838-3.762 12.294.599 4.45 3.099 8.403 6.861 10.846zm173.171-74.253h-50.044v-13.41h50.044zm-50.044 15h50.044v6.316c0 3.911-3.182 7.094-7.093 7.094h-35.858c-3.911 0-7.093-3.183-7.093-7.094zm-67.752-7.008v12.19c0 4.537-3.69 8.228-8.228 8.228h-9.95zm-47.272 53.097 15.74-17.68h23.304c12.808 0 23.228-10.42 23.228-23.228v-29.038l26.905-30.221 2.045 11.453c.953 5.338 4.295 9.715 8.802 12.144v36.798c0 12.183 9.911 22.094 22.093 22.094h35.858c12.182 0 22.093-9.911 22.093-22.094v-36.798c4.507-2.428 7.85-6.805 8.803-12.144l7.601-42.564c.729-4.077-1.986-7.974-6.064-8.701-4.081-.728-7.973 1.987-8.701 6.064l-7.601 42.564c-.192 1.073-1.122 1.852-2.212 1.852h-63.694c-1.089 0-2.019-.778-2.211-1.852l-4.12-23.071 95.515-107.286-10.055 56.304c-.729 4.077 1.986 7.974 6.064 8.701.446.08.89.118 1.327.118 3.564 0 6.726-2.551 7.374-6.183l13.736-76.921c.038-.21.105-.414.201-.605l2.71-5.406 39.154-43.979c.039-.044.104-.161.298-.13.188.004.273.106.311.15 42.641 51.518 55.821 119.095 36.163 185.402-9.047 30.513-25.892 58.498-48.714 80.929-22.783 22.393-51.061 38.803-81.775 47.457-19.167 5.4-38.413 8.071-57.355 8.071-37.889-.002-74.539-10.693-106.756-31.618-.046-.029-.141-.091-.164-.264-.025-.181.06-.277.097-.318z"/></g></svg>