<svg width="52" height="52" viewBox="0 0 52 52" fill="none" xmlns="http://www.w3.org/2000/svg">
<path fill-rule="evenodd" clip-rule="evenodd" d="M23.2808 29.3125H29.0874C32.1344 29.3125 33.8218 30.4178 34.6967 31.7926C35.5252 33.0945 35.525 34.4937 35.5249 34.9262V34.9375C35.5249 35.3517 35.1891 35.6875 34.7749 35.6875H22.7499C22.3357 35.6875 21.9999 35.3517 21.9999 34.9375C21.9999 34.5233 22.3357 34.1875 22.7499 34.1875H33.9819C33.9218 33.7224 33.7774 33.142 33.4312 32.5979C32.8842 31.7384 31.7278 30.8125 29.0874 30.8125H23.0749C22.9373 30.8125 22.8024 30.7746 22.6849 30.7031C19.2717 28.6255 14.809 29.1986 11.9569 32.0041L11.6739 32.4285C11.4442 32.7731 10.9785 32.8663 10.6339 32.6365C10.2892 32.4068 10.1961 31.9411 10.4258 31.5965L10.7508 31.109C10.7782 31.0679 10.8096 31.0296 10.8446 30.9946C14.1197 27.7195 19.2654 26.984 23.2808 29.3125Z" fill="#111928"/>
<path fill-rule="evenodd" clip-rule="evenodd" d="M41.4457 31.5473L36.9164 33.9736C36.8443 34.0123 36.7663 34.0389 36.6856 34.0523L34.7356 34.3773C34.327 34.4454 33.9406 34.1694 33.8725 33.7608C33.8044 33.3523 34.0804 32.9658 34.489 32.8977L36.3171 32.5931L40.7581 30.2139C40.7718 30.2066 40.7857 30.1997 40.7998 30.1932C42.8215 29.2666 44.7653 28.9055 46.3122 29.3405C47.1016 29.5626 47.783 29.9924 48.2871 30.6451C48.7876 31.2932 49.0798 32.1171 49.1714 33.0789C49.1988 33.3666 49.0585 33.6445 48.8106 33.7931L39.8731 39.1557C39.8163 39.1897 39.7553 39.2161 39.6915 39.2342L31.0808 41.6712C31.0804 41.6713 31.08 41.6714 31.0797 41.6715C29.8894 42.0115 28.8445 42.1875 27.6248 42.1875H19.4998C18.7239 42.1875 17.7404 42.5977 17.1873 43.0125C17.1513 43.0395 17.1129 43.0632 17.0727 43.0834L16.7477 43.2459C16.3772 43.4311 15.9267 43.2809 15.7415 42.9104C15.5562 42.54 15.7064 42.0895 16.0769 41.9042L16.3444 41.7704C17.0988 41.2244 18.3551 40.6875 19.4998 40.6875H27.6248C28.6796 40.6875 29.5845 40.5387 30.6687 40.2289L30.6705 40.2284L39.187 37.8181L47.6118 32.7632C47.5096 32.25 47.328 31.8573 47.0999 31.562C46.8118 31.1889 46.4167 30.9281 45.9061 30.7845C44.8569 30.4894 43.3145 30.6944 41.4457 31.5473Z" fill="#111928"/>
<path fill-rule="evenodd" clip-rule="evenodd" d="M7.63173 33.2129C7.83264 33.2114 8.02576 33.2905 8.16783 33.4326L18.5678 43.8326C18.7085 43.9732 18.7875 44.164 18.7875 44.3629C18.7875 44.5618 18.7085 44.7526 18.5678 44.8932L13.3678 50.0932C13.0749 50.3861 12.6001 50.3861 12.3072 50.0932C12.0143 49.8003 12.0143 49.3255 12.3072 49.0326L16.9768 44.3629L7.64572 35.0318L2.97593 39.8475C2.68757 40.1449 2.21276 40.1522 1.91539 39.8638C1.61803 39.5755 1.61072 39.1006 1.89908 38.8033L7.09907 33.4408C7.23894 33.2965 7.43083 33.2145 7.63173 33.2129Z" fill="#111928"/>
<path fill-rule="evenodd" clip-rule="evenodd" d="M13.8125 16.3125C14.2267 16.3125 14.5625 16.6483 14.5625 17.0625V17.875C14.5625 18.2892 14.2267 18.625 13.8125 18.625C13.3983 18.625 13.0625 18.2892 13.0625 17.875V17.0625C13.0625 16.6483 13.3983 16.3125 13.8125 16.3125Z" fill="#111928"/>
<path fill-rule="evenodd" clip-rule="evenodd" d="M13.8125 12.25C14.2267 12.25 14.5625 12.5858 14.5625 13V13.8125C14.5625 14.2267 14.2267 14.5625 13.8125 14.5625C13.3983 14.5625 13.0625 14.2267 13.0625 13.8125V13C13.0625 12.5858 13.3983 12.25 13.8125 12.25Z" fill="#111928"/>
<path fill-rule="evenodd" clip-rule="evenodd" d="M10.625 15.4375C10.625 15.0233 10.9608 14.6875 11.375 14.6875H12.1875C12.6017 14.6875 12.9375 15.0233 12.9375 15.4375C12.9375 15.8517 12.6017 16.1875 12.1875 16.1875H11.375C10.9608 16.1875 10.625 15.8517 10.625 15.4375Z" fill="#111928"/>
<path fill-rule="evenodd" clip-rule="evenodd" d="M14.6875 15.4375C14.6875 15.0233 15.0233 14.6875 15.4375 14.6875H16.25C16.6642 14.6875 17 15.0233 17 15.4375C17 15.8517 16.6642 16.1875 16.25 16.1875H15.4375C15.0233 16.1875 14.6875 15.8517 14.6875 15.4375Z" fill="#111928"/>
<path fill-rule="evenodd" clip-rule="evenodd" d="M7.3125 6.5625C7.72671 6.5625 8.0625 6.89829 8.0625 7.3125V8.9375C8.0625 9.35171 7.72671 9.6875 7.3125 9.6875C6.89829 9.6875 6.5625 9.35171 6.5625 8.9375V7.3125C6.5625 6.89829 6.89829 6.5625 7.3125 6.5625Z" fill="#111928"/>
<path fill-rule="evenodd" clip-rule="evenodd" d="M7.3125 1.6875C7.72671 1.6875 8.0625 2.02329 8.0625 2.4375V4.0625C8.0625 4.47671 7.72671 4.8125 7.3125 4.8125C6.89829 4.8125 6.5625 4.47671 6.5625 4.0625V2.4375C6.5625 2.02329 6.89829 1.6875 7.3125 1.6875Z" fill="#111928"/>
<path fill-rule="evenodd" clip-rule="evenodd" d="M3.3125 5.6875C3.3125 5.27329 3.64829 4.9375 4.0625 4.9375H5.6875C6.10171 4.9375 6.4375 5.27329 6.4375 5.6875C6.4375 6.10171 6.10171 6.4375 5.6875 6.4375H4.0625C3.64829 6.4375 3.3125 6.10171 3.3125 5.6875Z" fill="#111928"/>
<path fill-rule="evenodd" clip-rule="evenodd" d="M8.1875 5.6875C8.1875 5.27329 8.52329 4.9375 8.9375 4.9375H10.5625C10.9767 4.9375 11.3125 5.27329 11.3125 5.6875C11.3125 6.10171 10.9767 6.4375 10.5625 6.4375H8.9375C8.52329 6.4375 8.1875 6.10171 8.1875 5.6875Z" fill="#111928"/>
<path fill-rule="evenodd" clip-rule="evenodd" d="M35.8676 19.7035C36.0244 19.3202 36.4623 19.1365 36.8457 19.2933L40.4207 20.7558C40.4381 20.763 40.4553 20.7708 40.4721 20.7792C41.5356 21.3109 42.4985 22.059 43.0825 23.2271C43.2678 23.5976 43.1176 24.0481 42.7471 24.2333C42.3766 24.4186 41.9261 24.2684 41.7409 23.8979C41.3536 23.1233 40.7001 22.5743 39.826 22.1332L36.2777 20.6817C35.8944 20.5248 35.7107 20.0869 35.8676 19.7035Z" fill="#111928"/>
<path fill-rule="evenodd" clip-rule="evenodd" d="M32.3699 19.6771C32.5413 20.0542 32.3745 20.4989 31.9974 20.6703L28.4354 22.2894C27.5549 22.7316 26.8971 23.2821 26.5079 24.0604C26.3227 24.4309 25.8722 24.5811 25.5017 24.3958C25.1312 24.2106 24.981 23.7601 25.1663 23.3896C25.7503 22.2215 26.7132 21.4734 27.7767 20.9417C27.7849 20.9375 27.7933 20.9335 27.8017 20.9297L31.3767 19.3047C31.7538 19.1333 32.1985 19.3 32.3699 19.6771Z" fill="#111928"/>
<path fill-rule="evenodd" clip-rule="evenodd" d="M34.125 8.0625C32.2642 8.0625 30.8125 9.51421 30.8125 11.375V13.8125C30.8125 14.8473 31.328 15.7866 32.1676 16.4863C32.3386 16.6288 32.4375 16.8399 32.4375 17.0625V19.9875C32.4375 20.4017 32.1017 20.7375 31.6875 20.7375C31.2733 20.7375 30.9375 20.4017 30.9375 19.9875V17.3995C29.972 16.4898 29.3125 15.2476 29.3125 13.8125V11.375C29.3125 8.68579 31.4358 6.5625 34.125 6.5625C36.8142 6.5625 38.9375 8.68579 38.9375 11.375V13.8125C38.9375 15.2476 38.278 16.4898 37.3125 17.3995V19.9875C37.3125 20.4017 36.9767 20.7375 36.5625 20.7375C36.1483 20.7375 35.8125 20.4017 35.8125 19.9875V17.0625C35.8125 16.8399 35.9114 16.6288 36.0824 16.4863C36.922 15.7866 37.4375 14.8473 37.4375 13.8125V11.375C37.4375 9.51421 35.9858 8.0625 34.125 8.0625Z" fill="#111928"/>
<path fill-rule="evenodd" clip-rule="evenodd" d="M38.1867 13.0625C38.6009 13.0625 38.9367 13.3983 38.9367 13.8125C38.9367 16.1388 37.2011 18.0631 35.0708 18.4504C34.6633 18.5245 34.2728 18.2542 34.1988 17.8467C34.1247 17.4391 34.395 17.0487 34.8025 16.9746C36.2472 16.7119 37.4367 15.3862 37.4367 13.8125C37.4367 13.3983 37.7724 13.0625 38.1867 13.0625Z" fill="#111928"/>
<path fill-rule="evenodd" clip-rule="evenodd" d="M34.125 3.1875C27.8082 3.1875 22.6875 8.30824 22.6875 14.625C22.6875 20.9418 27.8082 26.0625 34.125 26.0625C40.4418 26.0625 45.5625 20.9418 45.5625 14.625C45.5625 8.30824 40.4418 3.1875 34.125 3.1875ZM21.1875 14.625C21.1875 7.47982 26.9798 1.6875 34.125 1.6875C41.2702 1.6875 47.0625 7.47982 47.0625 14.625C47.0625 21.7702 41.2702 27.5625 34.125 27.5625C26.9798 27.5625 21.1875 21.7702 21.1875 14.625Z" fill="#111928"/>
</svg>
