<svg width="36" height="36" viewBox="0 0 36 36" fill="none" xmlns="http://www.w3.org/2000/svg">
<path d="M24.4281 6.711C24.8285 6.37976 25.3306 6.19464 25.8486 6.1875C25.9744 6.20728 26.1068 6.17871 26.2183 6.1106C26.3578 6.02545 26.454 5.88373 26.4803 5.72223C26.7056 4.36212 27.8701 3.375 29.25 3.375C30.6299 3.375 31.7944 4.36212 32.0196 5.72223C32.046 5.88373 32.1421 6.02545 32.2817 6.1106C32.3932 6.17871 32.5239 6.20618 32.6519 6.1875C33.8802 6.20178 34.875 7.20593 34.875 8.4375C34.875 9.67841 33.8659 10.6875 32.625 10.6875H29.6439C29.3329 10.6875 29.0814 10.9391 29.0814 11.25C29.0814 11.5609 29.3329 11.8125 29.6439 11.8125H32.625C34.4861 11.8125 36 10.2986 36 8.4375C36 6.71265 34.6992 5.28607 33.0276 5.08612C32.5481 3.41785 31.0259 2.25 29.25 2.25C27.4735 2.25 25.9519 3.4184 25.4723 5.08667C24.8296 5.16467 24.2155 5.4267 23.7107 5.84418C23.4717 6.04193 23.4377 6.39679 23.636 6.63629C23.8332 6.87469 24.188 6.90985 24.4281 6.711Z" fill="#111928"/>
<path d="M4.5 14.0625C4.77685 14.0625 5.05179 14.0361 5.31656 13.9845C5.62143 13.9246 5.82028 13.6296 5.76068 13.3248C5.70108 13.0199 5.40527 12.8194 5.10068 12.8804C4.90677 12.9183 4.70462 12.9375 4.5 12.9375C2.63892 12.9375 1.125 11.4236 1.125 9.5625C1.125 7.70142 2.63892 6.1875 4.5 6.1875C5.91449 6.1875 7.15182 7.04498 7.65253 8.37158C7.70746 8.51715 7.82007 8.63361 7.96371 8.69293C8.10763 8.75281 8.26968 8.75006 8.41086 8.68579C9.0022 8.41772 9.66852 8.36224 10.3195 8.54132C10.6183 8.62042 10.9284 8.44629 11.0105 8.14746C11.0926 7.84753 10.9163 7.53827 10.6166 7.45587C9.9017 7.26031 9.15958 7.26691 8.47705 7.46521C7.70636 5.9892 6.19903 5.0625 4.5 5.0625C2.01874 5.0625 0 7.08124 0 9.5625C0 12.0438 2.01874 14.0625 4.5 14.0625Z" fill="#111928"/>
<path d="M33.835 24.6075C33.5582 24.468 33.2193 24.5795 33.0792 24.8558C32.9391 25.1332 33.0501 25.4716 33.3275 25.6117C34.2822 26.094 34.8749 27.0569 34.8749 28.1248C34.8749 29.6755 33.6131 30.9373 32.0624 30.9373C31.0385 30.9373 30.0958 30.3808 29.602 29.4849C29.5267 29.3487 29.3988 29.2498 29.2482 29.2113C29.0977 29.1718 28.9379 29.1982 28.8066 29.2822C28.2633 29.6288 27.6387 29.8123 26.9999 29.8123C26.9658 29.8123 26.9318 29.8145 26.9021 29.8101C26.5967 29.7541 26.3039 29.959 26.2495 30.2649C26.1951 30.5709 26.3984 30.8631 26.7044 30.9175C26.7966 30.934 26.8983 30.9373 26.9999 30.9373C27.6673 30.9373 28.3232 30.7879 28.9236 30.5011C29.6608 31.4756 30.8187 32.0623 32.0624 32.0623C34.2333 32.0623 35.9999 30.2957 35.9999 28.1248C35.9999 26.6301 35.1704 25.2821 33.835 24.6075Z" fill="#111928"/>
<path d="M28.2975 26.4353C31.6296 26.3436 34.3125 23.6041 34.3125 20.25C34.3125 17.4677 32.4399 15.0315 29.7988 14.2927C29.6202 12.1712 27.7625 10.5167 25.5498 10.7018C24.5693 7.3559 21.5359 5.0625 18 5.0625C14.4643 5.0625 11.4307 7.3559 10.4499 10.7018C8.24249 10.5189 6.37949 12.1718 6.20151 14.2927C3.56039 15.0315 1.6875 17.4677 1.6875 20.25C1.6875 21.8046 2.26785 23.2905 3.32144 24.4336C3.53156 24.6616 3.88696 24.6758 4.1163 24.466C4.34482 24.2556 4.3591 23.8997 4.14871 23.6711C3.28711 22.7362 2.8125 21.5217 2.8125 20.25C2.8125 17.8484 4.51758 15.7621 6.86646 15.2891C7.12903 15.2364 7.31799 15.0057 7.31799 14.7376C7.31799 14.703 7.31607 14.6711 7.3125 14.625C7.3125 13.0743 8.57428 11.8125 10.125 11.8125C10.3208 11.8125 10.5249 11.8361 10.7485 11.8845C11.0514 11.9515 11.3489 11.7592 11.4164 11.4576C12.0998 8.40399 14.8686 6.1875 18 6.1875C21.1298 6.1875 23.8967 8.40149 24.5821 11.4523C24.6908 11.9367 24.75 12.4352 24.75 12.9375C24.75 13.2484 25.0016 13.5 25.3125 13.5C25.6234 13.5 25.875 13.2484 25.875 12.9375C25.875 12.5612 25.8393 12.1879 25.7866 11.8177C25.8157 11.8167 25.8463 11.8125 25.875 11.8125C27.4257 11.8125 28.6875 13.0743 28.6864 14.6393C28.6842 14.6711 28.682 14.703 28.682 14.7376C28.682 15.0057 28.871 15.2364 29.1335 15.2891C31.4824 15.7621 33.1875 17.8484 33.1875 20.25C33.1875 22.8836 31.1658 25.0516 28.5931 25.2888C28.6197 25.1265 28.6453 24.9638 28.66 24.8C28.6875 24.4907 28.4595 24.2177 28.1497 24.1897C27.8355 24.1595 27.5674 24.3902 27.5394 24.7C27.2874 27.532 24.8687 29.8125 21.9375 29.8125C20.6312 29.8125 19.3601 29.3571 18.3582 28.5293C18.1505 28.3579 17.85 28.3579 17.6418 28.5293C16.7679 29.2505 15.7066 29.6873 14.5731 29.7922C14.2638 29.8207 14.0364 30.0948 14.065 30.4041C14.0935 30.7134 14.3611 30.9435 14.6769 30.9128C15.8851 30.8007 17.025 30.3745 18.0003 29.673C19.1409 30.4915 20.5219 30.9375 21.9375 30.9375C24.7978 30.9375 27.3532 29.1072 28.2975 26.4353Z" fill="#111928"/>
<path d="M9 21.375V20.25H9.84375C10.9292 20.25 11.8125 19.3667 11.8125 18.2812C11.8125 17.1958 10.9292 16.3125 9.84375 16.3125H8.4375C8.12686 16.3125 7.875 16.5641 7.875 16.875V21.375C7.875 21.6859 8.12686 21.9375 8.4375 21.9375C8.74814 21.9375 9 21.6859 9 21.375ZM10.6875 18.2812C10.6875 18.7465 10.309 19.125 9.84375 19.125H9V17.4375H9.84375C10.309 17.4375 10.6875 17.816 10.6875 18.2812Z" fill="#111928"/>
<path d="M15.5852 18.9601L16.3125 18.2328V21.3749C16.3125 21.6858 16.5644 21.9374 16.875 21.9374C17.1856 21.9374 17.4375 21.6858 17.4375 21.3749V16.8749C17.4375 16.6475 17.3004 16.442 17.0903 16.3552C16.8797 16.2673 16.6382 16.3162 16.4773 16.4772L15.1875 17.767L13.8977 16.4772C13.7365 16.3162 13.4951 16.2673 13.2847 16.3552C13.0746 16.442 12.9375 16.6475 12.9375 16.8749V21.3749C12.9375 21.6858 13.1894 21.9374 13.5 21.9374C13.8106 21.9374 14.0625 21.6858 14.0625 21.3749V18.2328L14.7898 18.9601C15.0095 19.1798 15.3655 19.1798 15.5852 18.9601Z" fill="#111928"/>
<path d="M19.125 21.9375C19.4357 21.9375 19.6875 21.6857 19.6875 21.375C19.6875 21.0643 19.4357 20.8125 19.125 20.8125C18.8143 20.8125 18.5625 21.0643 18.5625 21.375C18.5625 21.6857 18.8143 21.9375 19.125 21.9375Z" fill="#111928"/>
<path d="M21.375 18.5625C21.0641 18.5625 20.8125 18.8141 20.8125 19.125V21.375C20.8125 21.6859 21.0641 21.9375 21.375 21.9375H23.625C23.9359 21.9375 24.1875 21.6859 24.1875 21.375C24.1875 21.0641 23.9359 20.8125 23.625 20.8125H21.9375V19.6875H23.625C23.9359 19.6875 24.1875 19.4359 24.1875 19.125V16.875C24.1875 16.5641 23.9359 16.3125 23.625 16.3125H21.375C21.0641 16.3125 20.8125 16.5641 20.8125 16.875C20.8125 17.1859 21.0641 17.4375 21.375 17.4375H23.0625V18.5625H21.375Z" fill="#111928"/>
<path d="M25.875 20.8125C25.5641 20.8125 25.3125 21.0641 25.3125 21.375C25.3125 21.6859 25.5641 21.9375 25.875 21.9375H28.125C28.4359 21.9375 28.6875 21.6859 28.6875 21.375V19.125C28.6875 18.8141 28.4359 18.5625 28.125 18.5625H26.4375V17.4375H28.125C28.4359 17.4375 28.6875 17.1859 28.6875 16.875C28.6875 16.5641 28.4359 16.3125 28.125 16.3125H25.875C25.5641 16.3125 25.3125 16.5641 25.3125 16.875V19.125C25.3125 19.4359 25.5641 19.6875 25.875 19.6875H27.5625V20.8125H25.875Z" fill="#111928"/>
<path d="M10.5274 27.0236C10.0475 25.3553 8.52594 24.1875 6.75 24.1875C4.97406 24.1875 3.45245 25.3553 2.97263 27.0236C1.30078 27.2236 0 28.6501 0 30.375C0 32.2361 1.51392 33.75 3.375 33.75H10.125C11.9861 33.75 13.5 32.2361 13.5 30.375C13.5 28.6501 12.1992 27.2236 10.5274 27.0236ZM10.125 32.625H3.375C2.13437 32.625 1.125 31.6159 1.125 30.375C1.125 29.1445 2.11816 28.1415 3.34863 28.125C3.4747 28.1442 3.60571 28.1168 3.71722 28.0492C3.85757 27.9641 3.9537 27.8218 3.98035 27.6597C4.20557 26.2996 5.37039 25.3125 6.75 25.3125C8.12961 25.3125 9.29443 26.2996 9.51965 27.6597C9.5463 27.8218 9.64243 27.9641 9.78278 28.0492C9.89429 28.1168 10.0242 28.1442 10.1519 28.125C11.3802 28.1393 12.375 29.1434 12.375 30.375C12.375 31.6159 11.3656 32.625 10.125 32.625Z" fill="#111928"/>
</svg>
