<svg width="512" height="512" viewBox="0 0 512 512" fill="none" xmlns="http://www.w3.org/2000/svg">
<path d="M224 344H342.4C342.4 336 342.4 296 286.4 296H227.2C190.4 273.6 142.4 280 112 310.4L108.8 315.2" stroke="#111928" stroke-width="14" stroke-miterlimit="10" stroke-linecap="round" stroke-linejoin="round"/>
<path d="M340.8 331.2L360 328L404.8 304C443.2 286.4 473.6 292.8 476.8 326.4L388.8 379.2L304 403.2C292.8 406.4 283.2 408 272 408H192C182.4 408 171.2 412.8 164.8 417.6L161.6 419.2" stroke="#111928" stroke-width="14" stroke-miterlimit="10" stroke-linecap="round" stroke-linejoin="round"/>
<path d="M24 387.2L75.2 334.4L177.6 436.8L126.4 488" stroke="#111928" stroke-width="14" stroke-miterlimit="10" stroke-linecap="round" stroke-linejoin="round"/>
<path d="M136 168V176" stroke="#111928" stroke-width="14" stroke-miterlimit="10" stroke-linecap="round" stroke-linejoin="round"/>
<path d="M136 128V136" stroke="#111928" stroke-width="14" stroke-miterlimit="10" stroke-linecap="round" stroke-linejoin="round"/>
<path d="M120 152H112" stroke="#111928" stroke-width="14" stroke-miterlimit="10" stroke-linecap="round" stroke-linejoin="round"/>
<path d="M160 152H152" stroke="#111928" stroke-width="14" stroke-miterlimit="10" stroke-linecap="round" stroke-linejoin="round"/>
<path d="M72 72V88" stroke="#111928" stroke-width="14" stroke-miterlimit="10" stroke-linecap="round" stroke-linejoin="round"/>
<path d="M72 24V40" stroke="#111928" stroke-width="14" stroke-miterlimit="10" stroke-linecap="round" stroke-linejoin="round"/>
<path d="M56 56H40" stroke="#111928" stroke-width="14" stroke-miterlimit="10" stroke-linecap="round" stroke-linejoin="round"/>
<path d="M104 56H88" stroke="#111928" stroke-width="14" stroke-miterlimit="10" stroke-linecap="round" stroke-linejoin="round"/>
<path d="M417.6 232C412.8 222.4 404.8 216 395.2 211.2L360 196.8" stroke="#111928" stroke-width="14" stroke-miterlimit="10" stroke-linecap="round" stroke-linejoin="round"/>
<path d="M312 196.8L276.8 212.8C267.2 217.6 259.2 224 254.4 233.6" stroke="#111928" stroke-width="14" stroke-miterlimit="10" stroke-linecap="round" stroke-linejoin="round"/>
<path d="M312 196.8V168C302.4 160 296 148.8 296 136V112C296 89.6 313.6 72 336 72C358.4 72 376 89.6 376 112V136C376 148.8 369.6 160 360 168V196.8" stroke="#111928" stroke-width="14" stroke-miterlimit="10" stroke-linecap="round" stroke-linejoin="round"/>
<path d="M376 136C376 155.2 361.6 171.2 344 174.4" stroke="#111928" stroke-width="14" stroke-miterlimit="10" stroke-linecap="round" stroke-linejoin="round"/>
<path d="M336 264C402.274 264 456 210.274 456 144C456 77.7258 402.274 24 336 24C269.726 24 216 77.7258 216 144C216 210.274 269.726 264 336 264Z" stroke="#111928" stroke-width="14" stroke-miterlimit="10" stroke-linecap="round" stroke-linejoin="round"/>
</svg>
