<svg width="40" height="40" viewBox="0 0 40 40" fill="none" xmlns="http://www.w3.org/2000/svg">
<path d="M20 0C8.97201 0 0 8.97201 0 20C0 31.028 8.97201 40 20 40C31.028 40 40 31.028 40 20C40 8.97201 31.0281 0 20 0ZM20 37.8378C15.1005 37.8378 10.6562 35.8518 7.42929 32.6431C6.14062 31.3618 5.04669 29.885 4.19492 28.262C2.89761 25.7905 2.16219 22.9796 2.16219 20C2.16219 10.1642 10.1642 2.16219 20 2.16219C24.6653 2.16219 28.9173 3.9633 32.0992 6.90577C33.749 8.4312 35.1113 10.2631 36.0936 12.3107C37.2112 14.6403 37.8378 17.2483 37.8378 20C37.8378 29.8358 29.8358 37.8378 20 37.8378Z" fill="#02AAA4"/>
<path d="M13.4683 17.7033C14.6625 17.7033 15.6305 16.7352 15.6305 15.5411C15.6305 14.347 14.6625 13.3789 13.4683 13.3789C12.2742 13.3789 11.3062 14.347 11.3062 15.5411C11.3062 16.7352 12.2742 17.7033 13.4683 17.7033Z" fill="#02AAA4"/>
<path d="M26.8468 17.7033C28.0409 17.7033 29.009 16.7352 29.009 15.5411C29.009 14.347 28.0409 13.3789 26.8468 13.3789C25.6526 13.3789 24.6846 14.347 24.6846 15.5411C24.6846 16.7352 25.6526 17.7033 26.8468 17.7033Z" fill="#02AAA4"/>
<path d="M19.962 31.0813C24.145 31.0813 28.1538 28.9421 30.4491 25.3903L28.633 24.2168C26.5253 27.4783 22.67 29.2985 18.8095 28.8531C15.8011 28.5062 13.019 26.7729 11.3672 24.2168L9.55127 25.3903C11.5499 28.4835 14.9184 30.5808 18.5617 31.0011C19.0294 31.055 19.4964 31.0813 19.962 31.0813Z" fill="#02AAA4"/>
</svg>
