<svg width="40" height="40" viewBox="0 0 40 40" fill="none" xmlns="http://www.w3.org/2000/svg">
<path d="M29.3946 28.1062H11.4153C10.8837 28.1062 10.4521 27.6748 10.4521 27.1433C10.4521 26.6111 10.8837 26.1797 11.4153 26.1797H29.3946C29.9262 26.1797 30.3577 26.6111 30.3577 27.1433C30.3578 27.6748 29.9263 28.1062 29.3946 28.1062Z" fill="#F27430"/>
<path d="M28.8945 14.7578C28.8945 16.0301 27.8632 17.0611 26.5912 17.0611C25.3192 17.0611 24.2886 16.0301 24.2886 14.7578C24.2886 13.4861 25.3192 12.4551 26.5912 12.4551C27.8632 12.4551 28.8945 13.4861 28.8945 14.7578Z" fill="#F27430"/>
<path d="M15.6521 14.7578C15.6521 16.0301 14.6209 17.0611 13.3495 17.0611C12.0775 17.0611 11.0469 16.0301 11.0469 14.7578C11.0469 13.4861 12.0775 12.4551 13.3495 12.4551C14.6215 12.4551 15.6521 13.4861 15.6521 14.7578Z" fill="#F27430"/>
<path d="M20 40C8.97162 40 0 31.028 0 20.0004C0.000572115 8.97202 8.97227 0 20 0C31.0277 0 40 8.97202 40 20.0003C40 31.0279 31.0277 40 20 40ZM20 1.92656C10.0343 1.92656 1.92631 10.0345 1.92631 20.0004C1.92631 29.9662 10.0343 38.0741 20 38.0741C29.9663 38.0741 38.0737 29.9661 38.0737 20.0003C38.0737 10.0345 29.9663 1.92656 20 1.92656Z" fill="#F27430"/>
</svg>
