<svg width="40" height="40" viewBox="0 0 40 40" fill="none" xmlns="http://www.w3.org/2000/svg">
<path d="M13.3331 17.7033C14.5272 17.7033 15.4953 16.7352 15.4953 15.5411C15.4953 14.347 14.5272 13.3789 13.3331 13.3789C12.1389 13.3789 11.1709 14.347 11.1709 15.5411C11.1709 16.7352 12.1389 17.7033 13.3331 17.7033Z" fill="#FBBF24"/>
<path d="M20 0C8.97201 0 0 8.97201 0 20C0 31.028 8.97201 40 20 40C31.028 40 40 31.028 40 20C40 8.97201 31.028 0 20 0ZM20 37.8378C15.1003 37.8378 10.6562 35.8518 7.42915 32.6431C6.14049 31.3618 5.04655 29.885 4.19479 28.262C2.89761 25.7905 2.16219 22.9796 2.16219 20C2.16219 10.1642 10.1642 2.16219 20 2.16219C24.6653 2.16219 28.9173 3.9633 32.0992 6.90577C33.749 8.4312 35.1113 10.2631 36.0936 12.3107C37.2112 14.6403 37.8378 17.2483 37.8378 20C37.8378 29.8358 29.8358 37.8378 20 37.8378Z" fill="#FBBF24"/>
<path d="M22.1134 25.352C24.4856 25.8481 26.6164 27.1818 28.1135 29.1073L29.8204 27.7803C28.0093 25.4505 25.4293 23.8365 22.556 23.2355C17.935 22.2698 13.0767 24.0534 10.1792 27.7803L11.8864 29.1073C14.2805 26.0277 18.295 24.5534 22.1134 25.352Z" fill="#FBBF24"/>
<path d="M26.712 17.7033C27.9061 17.7033 28.8742 16.7352 28.8742 15.5411C28.8742 14.347 27.9061 13.3789 26.712 13.3789C25.5179 13.3789 24.5498 14.347 24.5498 15.5411C24.5498 16.7352 25.5179 17.7033 26.712 17.7033Z" fill="#FBBF24"/>
</svg>
