<svg width="40" height="40" viewBox="0 0 40 40" fill="none" xmlns="http://www.w3.org/2000/svg">
<path d="M20 0C8.97201 0 0 8.97201 0 20C0 31.028 8.97201 40 20 40C31.028 40 40 31.028 40 20C40 8.97201 31.0281 0 20 0ZM20 37.8378C15.1005 37.8378 10.6562 35.8518 7.42929 32.6431C6.14062 31.3618 5.04669 29.885 4.19492 28.262C2.89761 25.7905 2.16219 22.9796 2.16219 20C2.16219 10.1642 10.1642 2.16219 20 2.16219C24.6653 2.16219 28.9173 3.9633 32.0992 6.90577C33.749 8.4312 35.1113 10.2631 36.0936 12.3107C37.2112 14.6403 37.8378 17.2483 37.8378 20C37.8378 29.8358 29.8358 37.8378 20 37.8378Z" fill="#1A8245"/>
<path d="M15.5801 14.4621C13.5885 12.5125 10.3478 12.5127 8.35623 14.4621C7.88126 14.927 7.88126 15.6808 8.35623 16.1457C8.83129 16.6106 9.60141 16.6106 10.0763 16.1457C11.1196 15.1246 12.8171 15.1246 13.8603 16.1457C14.0978 16.3782 14.409 16.4945 14.7202 16.4945C15.0314 16.4945 15.3428 16.3782 15.5801 16.1457C16.0551 15.6808 16.0551 14.9271 15.5801 14.4621Z" fill="#1A8245"/>
<path d="M31.6436 14.4621C29.652 12.5127 26.4113 12.5125 24.4197 14.4621C23.9447 14.927 23.9447 15.6808 24.4197 16.1457C24.8948 16.6106 25.6649 16.6106 26.1398 16.1457C27.183 15.1246 28.8804 15.1245 29.9238 16.1457C30.1613 16.3782 30.4725 16.4945 30.7837 16.4945C31.0949 16.4945 31.4063 16.3782 31.6436 16.1457C32.1186 15.6808 32.1186 14.9271 31.6436 14.4621Z" fill="#1A8245"/>
<path fill-rule="evenodd" clip-rule="evenodd" d="M29.7007 24C25.5981 24 18.9378 24 13.8085 24.0001C12.5205 24.0001 11.329 24.0001 10.2988 24.0001C11.3824 27.6652 15.291 31 19.9997 31C24.7084 31 28.6171 27.6651 29.7007 24ZM31.87 23.4927C32.011 22.6764 31.3307 22.0001 30.5023 22C26.512 22 19.2851 22 13.806 22.0001C12.1696 22.0001 10.6891 22.0001 9.49727 22.0001C8.66885 22.0001 7.98849 22.6764 8.12943 23.4928C8.98533 28.4503 13.9738 33 19.9997 33C26.0257 33 31.0142 28.4502 31.87 23.4927Z" fill="#1A8245"/>
</svg>
