<svg width="40" height="40" viewBox="0 0 40 40" fill="none" xmlns="http://www.w3.org/2000/svg">
<path d="M20 0C8.97201 0 0 8.97201 0 20C0 31.028 8.97201 40 20 40C31.028 40 40 31.028 40 20C40 8.97201 31.0281 0 20 0ZM20 37.8378C15.1005 37.8378 10.6562 35.8518 7.42929 32.6431C6.14062 31.3618 5.04669 29.885 4.19492 28.262C2.89761 25.7905 2.16219 22.9796 2.16219 20C2.16219 10.1642 10.1642 2.16219 20 2.16219C24.6653 2.16219 28.9173 3.9633 32.0992 6.90577C33.749 8.4312 35.1113 10.2631 36.0936 12.3107C37.2112 14.6403 37.8378 17.2483 37.8378 20C37.8378 29.8358 29.8358 37.8378 20 37.8378Z" fill="#9E9E9E"/>
<path d="M13.3106 17.7033C14.5048 17.7033 15.4728 16.7352 15.4728 15.5411C15.4728 14.347 14.5048 13.3789 13.3106 13.3789C12.1165 13.3789 11.1484 14.347 11.1484 15.5411C11.1484 16.7352 12.1165 17.7033 13.3106 17.7033Z" fill="#9E9E9E"/>
<path d="M26.689 17.7033C27.8832 17.7033 28.8512 16.7352 28.8512 15.5411C28.8512 14.347 27.8832 13.3789 26.689 13.3789C25.4949 13.3789 24.5269 14.347 24.5269 15.5411C24.5269 16.7352 25.4949 17.7033 26.689 17.7033Z" fill="#9E9E9E"/>
<path d="M18.7017 27.1051C19.8246 26.9579 20.9774 26.9929 22.1131 27.2305C24.4853 27.7266 26.6161 29.0602 28.1132 30.9858L29.8201 29.6588C28.009 27.329 25.429 25.7149 22.5557 25.114C20.9665 24.7818 19.349 24.7748 17.7932 25.0603C17.4194 24.4456 16.9443 23.7845 16.361 23.0706C15.2238 21.6787 14.1013 20.6111 14.0542 20.5663L13.3104 19.8613L12.5668 20.5662C12.5195 20.6111 11.3969 21.6785 10.2597 23.0706C8.60618 25.0945 7.80225 26.7043 7.80225 27.9917C7.80225 31.0289 10.2732 33.4999 13.3104 33.4999C16.3475 33.4999 18.8183 31.0289 18.8183 27.9917C18.8183 27.712 18.7779 27.4162 18.7017 27.1051ZM13.3104 31.3376C11.4655 31.3376 9.96444 29.8366 9.96444 27.9916C9.96444 26.8195 11.7349 24.5221 13.3108 22.877C14.8864 24.5204 16.6561 26.8167 16.6561 27.9916C16.6561 29.8366 15.1552 31.3376 13.3104 31.3376Z" fill="#9E9E9E"/>
</svg>
