<svg height="512" viewBox="0 0 512 512" width="512" xmlns="http://www.w3.org/2000/svg"><g id="b"><path d="m261.83 38c48.28 0 114.99 6.35 136.39 10.63.07.01.14.03.21.04 29.17 5.66 59.09 34.23 65.46 62.47 6.82 32.95 10.03 65.79 10.1 103.34-.07 37.54-3.28 70.39-10.1 103.34-6.37 28.23-36.29 56.81-65.46 62.47-.07.01-.14.03-.21.04-12.8 2.56-39.7 5.6-68.55 7.75-11.95.89-22.79 7.37-29.23 17.48-3.45 5.41-7.13 11.09-10.95 16.88-12.69 19.22-23.94 35.2-33.49 47.6-9.55-12.4-20.8-28.38-33.49-47.6-3.82-5.79-7.51-11.47-10.95-16.88-6.44-10.11-17.27-16.59-29.23-17.48-28.84-2.15-55.75-5.19-68.55-7.75-.07-.01-.14-.03-.21-.04-29.17-5.66-59.09-34.23-65.46-62.47-6.82-32.95-10.03-65.79-10.1-103.34.07-37.55 3.28-70.39 10.1-103.34 6.37-28.23 36.29-56.8 65.46-62.46.07-.01.14-.03.21-.04 21.41-4.28 88.11-10.63 136.39-10.63 1.84 0 3.64 0 5.41.03h.42s.28 0 .42 0c1.77-.02 3.57-.03 5.41-.03m-11.66-38.01c-48.88 0-118.31 6.26-143.84 11.36-43.6 8.46-85.75 48.29-95.38 91.77-5.48 26.4-10.87 62.32-10.95 111.35.08 49.03 5.47 84.94 10.95 111.34 9.63 43.48 51.78 83.31 95.38 91.77 14.34 2.87 42.55 6.1 73.17 8.38 3.47 5.45 7.23 11.25 11.3 17.4 16.25 24.61 28.69 41.76 38.11 53.71 7.84 9.94 17.47 14.91 27.09 14.91s19.25-4.97 27.09-14.91c9.42-11.95 21.85-29.1 38.11-53.71 4.07-6.16 7.82-11.95 11.3-17.4 30.63-2.28 58.83-5.51 73.18-8.38 43.6-8.46 85.75-48.29 95.38-91.77 5.48-26.4 10.87-62.31 10.95-111.34-.08-49.03-5.47-84.94-10.95-111.34-9.63-43.48-51.78-83.31-95.38-91.77-25.54-5.11-94.97-11.37-143.85-11.37-1.98 0-3.92.01-5.83.03-1.9-.02-3.85-.03-5.83-.03z"/><path d="m284.28 363.63c-1.08 6.09-6.6 11.61-12.69 12.69-3.69.61-8.72 1.19-15.59 1.2-6.86 0-11.89-.58-15.59-1.2-6.09-1.08-11.61-6.6-12.69-12.69-.61-3.69-1.19-8.72-1.2-15.59 0-6.86.58-11.89 1.2-15.59 1.08-6.09 6.6-11.61 12.69-12.69 3.69-.61 8.72-1.19 15.59-1.2 6.86 0 11.89.58 15.59 1.2 6.09 1.08 11.61 6.6 12.69 12.69.61 3.69 1.19 8.72 1.2 15.59 0 6.86-.58 11.89-1.2 15.59z"/><path d="m254.96 288.4c-9.56 0-17.79-7.2-18.86-16.92-.14-1.32-1.31-13.27 2.36-27.59 5.23-20.39 17.53-35.92 35.57-44.88 33.02-16.42 35.58-34.98 35.58-40.28 0-3.96-1.56-12.6-7.39-19.85-7.82-9.71-21.36-14.63-40.25-14.63s-31.42 6.4-41.21 19.57c-7.32 9.84-9.65 19.74-9.67 19.83-2.17 10.27-12.25 16.83-22.52 14.65-10.27-2.17-16.83-12.26-14.65-22.52.38-1.81 4.1-18.16 16.35-34.64 11.84-15.92 33.89-34.9 71.71-34.9 67.75 0 85.65 47.41 85.65 72.47 0 13.87-5.52 48.88-56.66 74.3-19.56 9.72-17.11 34.04-17.08 34.28 1.15 10.43-6.37 19.82-16.8 20.97-.71.08-1.41.12-2.11.12z"/></g></svg>