<svg width="30" height="30" viewBox="0 0 30 30" fill="none" xmlns="http://www.w3.org/2000/svg">
<g clip-path="url(#clip0_5668_8541)">
<path d="M20.6989 25.0953C17.1706 27.7443 12.2828 27.615 8.89955 24.7831C5.51629 21.9513 4.52853 17.1625 6.51513 13.223C6.60212 13.0628 6.59509 12.868 6.49673 12.7146C6.39837 12.5611 6.22432 12.4733 6.04248 12.4855C5.86064 12.4977 5.69983 12.6079 5.6228 12.773C4.88132 14.2369 4.49725 15.8556 4.502 17.4966C4.502 21.4729 6.74858 25.108 10.3051 26.8863C13.8617 28.6645 18.1177 28.2808 21.2988 25.895C21.4417 25.7878 21.5165 25.6126 21.4951 25.4353C21.4738 25.258 21.3595 25.1055 21.1952 25.0353C21.031 24.9653 20.8418 24.9881 20.6989 25.0953Z" fill="#111928"/>
<path d="M15 6.99809C12.7275 6.9917 10.5154 7.72908 8.7012 9.09769C8.48035 9.26336 8.43559 9.57666 8.6012 9.79757C8.76681 10.0185 9.08017 10.0632 9.30109 9.89757C12.8343 7.25169 17.7246 7.38784 21.1051 10.2262C24.4857 13.0646 25.466 17.8575 23.4714 21.7953C23.3895 21.9546 23.3992 22.1455 23.4967 22.2958C23.5942 22.4461 23.7647 22.5327 23.9436 22.5228C24.1224 22.513 24.2823 22.4082 24.3628 22.2482C25.1133 20.7768 25.5024 19.1478 25.498 17.4961C25.4917 11.7008 20.7953 7.00441 15 6.99809Z" fill="#111928"/>
<path d="M21.1927 14.0474L18.1388 13.586C17.9646 13.5557 17.8169 13.4412 17.7443 13.2801L16.3676 10.3806C16.1254 9.84232 15.5901 9.49609 14.9998 9.49609C14.4096 9.49609 13.8742 9.84232 13.6321 10.3806L12.2554 13.2801C12.1828 13.4412 12.035 13.5558 11.8609 13.586L8.80702 14.0474C8.23402 14.1379 7.76126 14.5443 7.58575 15.0972C7.38962 15.6727 7.5349 16.3097 7.9612 16.7433L10.1508 18.9634C10.2873 19.1047 10.3481 19.3028 10.3142 19.4964L9.79431 22.6458C9.68793 23.2497 9.93801 23.8612 10.4372 24.2175C10.8992 24.5487 11.5105 24.5849 12.0084 24.3104L14.7679 22.8022C14.912 22.7217 15.0876 22.7217 15.2318 22.8022L17.9912 24.3104C18.489 24.5853 19.1006 24.5491 19.5624 24.2175C20.0616 23.8612 20.3117 23.2497 20.2053 22.6458L19.6854 19.4964C19.6515 19.3032 19.7117 19.1056 19.8474 18.964L22.0385 16.7439C22.4648 16.31 22.61 15.6729 22.4139 15.0972C22.2384 14.5443 21.7657 14.1379 21.1927 14.0474ZM21.3266 16.0395L19.1361 18.2596C18.775 18.6294 18.6124 19.1496 18.6986 19.6593L19.2185 22.8087C19.261 23.0352 19.1699 23.2661 18.9841 23.4026C18.834 23.5132 18.633 23.5254 18.4707 23.4336L15.7112 21.9254C15.2681 21.682 14.7315 21.682 14.2885 21.9254L11.529 23.4336C11.3668 23.5256 11.1656 23.5135 11.0156 23.4026C10.8298 23.2661 10.7387 23.0353 10.7811 22.8087L11.3011 19.6593C11.3865 19.1507 11.2243 18.6318 10.8641 18.2626L8.67304 16.0415C8.51223 15.8748 8.45869 15.6319 8.53455 15.4131C8.59214 15.2178 8.75582 15.0724 8.95646 15.0382L12.0104 14.5768C12.5141 14.498 12.9453 14.1733 13.1602 13.7109L14.5369 10.8115C14.6146 10.6232 14.7981 10.5004 15.0018 10.5004C15.2055 10.5004 15.3891 10.6232 15.4667 10.8115L16.8435 13.7109C17.0583 14.1733 17.4896 14.498 17.9933 14.5768L21.0472 15.0382C21.2478 15.0724 21.4115 15.2178 21.4691 15.4131C21.5433 15.6324 21.4883 15.8747 21.3266 16.0405V16.0395Z" fill="#111928"/>
<path d="M15.4998 3.49931V0.499885C15.4998 0.223785 15.2759 0 14.9999 0C14.7238 0 14.5 0.223844 14.5 0.499885V3.49931C14.5 3.77541 14.7238 3.9992 14.9999 3.9992C15.2759 3.99925 15.4998 3.77541 15.4998 3.49931Z" fill="#111928"/>
<path d="M18.9993 3.99925V0.499885C18.9993 0.223785 18.7755 0 18.4994 0C18.2233 0 17.9995 0.223844 17.9995 0.499885V3.9992C17.9995 4.2753 18.2233 4.49908 18.4994 4.49908C18.7755 4.49908 18.9993 4.27535 18.9993 3.99925Z" fill="#111928"/>
<path d="M21.4988 5.49954C21.4988 5.77564 21.7226 5.99943 21.9987 5.99943C22.2748 5.99943 22.4985 5.77558 22.4985 5.49954V3.49988C22.4985 3.22379 22.2748 3 21.9987 3C21.7226 3 21.4988 3.22384 21.4988 3.49988V5.49954Z" fill="#111928"/>
<path d="M21.9987 1.9996C22.2748 1.9996 22.4985 1.77575 22.4985 1.49971V0.499885C22.4985 0.223785 22.2748 0 21.9987 0C21.7226 0 21.4988 0.223844 21.4988 0.499885V1.49971C21.4988 1.77581 21.7226 1.9996 21.9987 1.9996Z" fill="#111928"/>
<path d="M25.9979 2.99988C25.9979 2.72379 25.7741 2.5 25.498 2.5C25.2219 2.5 24.9981 2.72384 24.9981 2.99988V10.0071C22.6409 6.85538 18.9356 4.99966 14.9999 4.99966C11.0643 4.99966 7.35903 6.85538 5.00184 10.0071V2.99988C5.00184 2.72379 4.778 2.5 4.50196 2.5C4.22592 2.5 4.00207 2.72384 4.00207 2.99988V11.5662C1.52702 16.1518 2.15696 21.7918 5.58263 25.7184C9.0083 29.6449 14.5108 31.0339 19.3897 29.2036C24.2685 27.3733 27.4998 22.708 27.4976 17.4971C27.4999 15.4261 26.9843 13.3873 25.9979 11.5663V2.99988ZM14.9999 28.9949C8.64989 28.9949 3.50213 23.8471 3.50213 17.4971C3.50213 11.147 8.64989 5.99931 14.9999 5.99931C21.35 5.99931 26.4978 11.1471 26.4978 17.4971C26.4906 23.8442 21.3471 28.9877 14.9999 28.9949Z" fill="#111928"/>
<path d="M12.0005 3.99925V0.499885C12.0005 0.223785 11.7767 0 11.5006 0C11.2245 0 11.0007 0.223844 11.0007 0.499885V3.9992C11.0007 4.2753 11.2246 4.49908 11.5006 4.49908C11.7767 4.49914 12.0005 4.27535 12.0005 3.99925Z" fill="#111928"/>
<path d="M7.50146 5.49954C7.50146 5.77564 7.72531 5.99943 8.00135 5.99943C8.27745 5.99943 8.50123 5.77558 8.50123 5.49954V3.49988C8.50123 3.22379 8.27739 3 8.00135 3C7.72525 3 7.50146 3.22384 7.50146 3.49988V5.49954Z" fill="#111928"/>
<path d="M8.00135 1.9996C8.27745 1.9996 8.50124 1.77575 8.50124 1.49971V0.499885C8.50124 0.223785 8.27739 0 8.00135 0C7.72525 0 7.50146 0.223844 7.50146 0.499885V1.49971C7.50141 1.77581 7.72525 1.9996 8.00135 1.9996Z" fill="#111928"/>
</g>
<defs>
<clipPath id="clip0_5668_8541">
<rect width="30" height="30" fill="white"/>
</clipPath>
</defs>
</svg>
