<svg id="Capa_1" enable-background="new 0 0 512 512" height="512" viewBox="0 0 512 512" width="512" xmlns="http://www.w3.org/2000/svg"><g><path d="m344.184 4.008c-.002 0-.004 0-.006 0s-.004 0-.006 0c-92.535.003-167.816 75.287-167.816 167.822 0 20.209 3.556 39.972 10.569 58.739 1.45 3.881 5.77 5.85 9.651 4.4 3.88-1.45 5.85-5.771 4.4-9.65-5.514-14.755-8.674-30.192-9.434-45.989h49.044c.462 17.252 2.521 34.124 6.137 50.254.906 4.042 4.918 6.582 8.959 5.677 4.042-.906 6.583-4.917 5.677-8.959-3.377-15.061-5.306-30.829-5.763-46.972h81.082v152.823c0 4.142 3.358 7.5 7.5 7.5 92.538 0 167.823-75.285 167.823-167.823-.001-92.535-75.282-167.818-167.817-167.822zm129.727 248.5h-38.642c7.504-22.291 11.802-47.213 12.497-73.177h49.048c-1.3 26.764-9.522 51.737-22.903 73.177zm-137.234-232.939v56.584h-61.453c2.273-4.814 4.728-9.435 7.365-13.829 14.924-24.872 33.902-39.783 54.088-42.755zm15 0c20.187 2.971 39.165 17.882 54.088 42.755 2.637 4.395 5.091 9.015 7.365 13.829h-61.453zm67.706 71.584c8.026 21.922 12.642 46.932 13.381 73.177h-81.087v-73.177zm28.383 73.178c-.695-25.964-4.993-50.886-12.497-73.177h38.642c13.381 21.439 21.604 46.413 22.903 73.177zm15.483-88.178h-33.683c-3.245-7.6-6.895-14.809-10.938-21.547-5.876-9.793-12.375-18.256-19.356-25.318 25.247 9.792 47.263 26.107 63.977 46.865zm-174.166-46.865c-6.981 7.063-13.48 15.525-19.356 25.319-4.042 6.738-7.693 13.947-10.938 21.547h-33.683c16.714-20.76 38.73-37.074 63.977-46.866zm-74.639 61.865h38.642c-7.504 22.292-11.802 47.213-12.497 73.177h-49.048c1.3-26.764 9.522-51.737 22.903-73.177zm41.147 73.178c.739-26.246 5.355-51.255 13.381-73.177h67.705v73.177zm177.173 15c-.739 26.246-5.355 51.255-13.381 73.177h-67.706v-73.177zm-81.087 144.761v-56.584h61.453c-2.273 4.814-4.728 9.435-7.365 13.829-14.923 24.872-33.901 39.784-54.088 42.755zm47.595-9.718c6.981-7.063 13.479-15.525 19.356-25.319 4.042-6.738 7.693-13.947 10.938-21.547h33.683c-16.714 20.759-38.73 37.074-63.977 46.866z"/><path d="m312.113 252.508h-245.766l-6.169-18.509c-4.301-12.902-16.329-21.571-29.93-21.571h-22.748c-4.142 0-7.5 3.357-7.5 7.5 0 4.142 3.358 7.5 7.5 7.5h22.748c7.134 0 13.443 4.547 15.699 11.315l50.04 150.121c1.951 5.854 5.14 10.968 9.19 15.134l-19.37 41.506c-1.994-.396-4.054-.608-6.162-.608-17.396 0-31.548 14.152-31.548 31.548s14.152 31.549 31.548 31.549c14.812 0 27.265-10.263 30.64-24.049h147.139c3.375 13.786 15.829 24.049 30.64 24.049 17.396 0 31.548-14.153 31.548-31.549s-14.152-31.548-31.548-31.548c-14.812 0-27.265 10.262-30.64 24.048h-147.139c-1.673-6.833-5.576-12.798-10.894-17.078l18.301-39.215c4.877 2.123 10.213 3.277 15.729 3.277 2.096 0 4.219-.166 6.35-.507l146.527-23.444c19.303-3.089 33.313-19.519 33.313-39.067v-92.9c.002-4.144-3.356-7.502-7.498-7.502zm-232.468 240.484c-9.125 0-16.548-7.424-16.548-16.549s7.423-16.548 16.548-16.548 16.548 7.423 16.548 16.548-7.423 16.549-16.548 16.549zm208.419-33.096c9.125 0 16.548 7.423 16.548 16.548s-7.423 16.549-16.548 16.549-16.548-7.424-16.548-16.549 7.423-16.548 16.548-16.548zm16.549-106.988c0 12.137-8.699 22.338-20.684 24.256l-146.527 23.444c-11.93 1.907-23.364-5.025-27.185-16.488l-38.87-116.612h233.266z"/><path d="m272.032 361.328c4.142 0 7.5-3.358 7.5-7.5v-61.756c0-4.142-3.358-7.5-7.5-7.5s-7.5 3.358-7.5 7.5v61.756c0 4.142 3.358 7.5 7.5 7.5z"/><path d="m231.952 367.748c4.142 0 7.5-3.358 7.5-7.5v-68.176c0-4.142-3.358-7.5-7.5-7.5s-7.5 3.358-7.5 7.5v68.176c0 4.142 3.358 7.5 7.5 7.5z"/><path d="m191.871 374.114c4.142 0 7.5-3.358 7.5-7.5v-74.542c0-4.142-3.358-7.5-7.5-7.5s-7.5 3.358-7.5 7.5v74.542c0 4.142 3.358 7.5 7.5 7.5z"/><path d="m151.79 380.643c4.142 0 7.5-3.358 7.5-7.5v-81.07c0-4.142-3.358-7.5-7.5-7.5s-7.5 3.358-7.5 7.5v81.07c0 4.142 3.358 7.5 7.5 7.5z"/><path d="m111.709 315.604c4.142 0 7.5-3.357 7.5-7.5v-16.032c0-4.142-3.358-7.5-7.5-7.5s-7.5 3.358-7.5 7.5v16.032c0 4.143 3.358 7.5 7.5 7.5z"/></g></svg>