<svg width="60" height="60" viewBox="0 0 60 60" fill="none" xmlns="http://www.w3.org/2000/svg">
<path d="M58.125 47.8125H1.875" stroke="#4B5563" stroke-width="2" stroke-linecap="round" stroke-linejoin="round"/>
<path d="M1.875 17.8125C5.78156 17.8125 7.34344 12.1875 11.25 12.1875C15.1566 12.1875 16.7184 17.8125 20.625 17.8125C24.5316 17.8125 26.0934 12.1875 30 12.1875C33.9066 12.1875 35.4684 17.8125 39.375 17.8125C43.2816 17.8125 44.8434 12.1875 48.75 12.1875C52.6566 12.1875 54.2184 17.8125 58.125 17.8125" stroke="#4B5563" stroke-width="2" stroke-linecap="round" stroke-linejoin="round"/>
<path d="M1.875 29.0625C5.78156 29.0625 7.34344 25.3125 11.25 25.3125C15.1566 25.3125 16.7184 29.0625 20.625 29.0625C24.5316 29.0625 26.0934 25.3125 30 25.3125C33.9066 25.3125 35.4684 29.0625 39.375 29.0625C43.2816 29.0625 44.8434 25.3125 48.75 25.3125C52.6566 25.3125 54.2184 29.0625 58.125 29.0625" stroke="#4B5563" stroke-width="2" stroke-linecap="round" stroke-linejoin="round"/>
<path d="M1.875 39.375C5.78156 39.375 7.34344 37.5 11.25 37.5C15.1566 37.5 16.7184 39.375 20.625 39.375C24.5316 39.375 26.0934 37.5 30 37.5C33.9066 37.5 35.4684 39.375 39.375 39.375C43.2816 39.375 44.8434 37.5 48.75 37.5C52.6566 37.5 54.2184 39.375 58.125 39.375" stroke="#4B5563" stroke-width="2" stroke-linecap="round" stroke-linejoin="round"/>
</svg>
