<svg width="48" height="48" viewBox="0 0 48 48" fill="none" xmlns="http://www.w3.org/2000/svg">
<path fill-rule="evenodd" clip-rule="evenodd" d="M0.450195 21.111C0.450195 20.8073 0.696439 20.561 1.0002 20.561H47.0002C47.304 20.561 47.5502 20.8073 47.5502 21.111C47.5502 21.4148 47.304 21.661 47.0002 21.661H1.0002C0.696439 21.661 0.450195 21.4148 0.450195 21.111Z" fill="#111928"/>
<path fill-rule="evenodd" clip-rule="evenodd" d="M0.450195 27C0.450195 26.6962 0.696439 26.45 1.0002 26.45C2.48899 26.45 3.72832 27.2226 4.85037 27.9222C4.90987 27.9593 4.96903 27.9962 5.02789 28.0327C6.24249 28.7871 7.38498 29.45 8.8202 29.45C10.2336 29.45 11.1377 28.8081 12.1775 28.0546L12.208 28.0324C13.2308 27.2912 14.3915 26.45 16.1802 26.45C17.9103 26.45 19.0561 27.239 20.0963 27.9552C20.1407 27.9858 20.1849 28.0163 20.229 28.0465C21.3077 28.7871 22.3383 29.45 24.0002 29.45C24.8387 29.45 25.4458 29.2806 25.9435 29.0371C26.4533 28.7878 26.867 28.4533 27.3327 28.0737L27.35 28.0595C27.7999 27.6927 28.3015 27.2838 28.9335 26.9746C29.5858 26.6556 30.3587 26.45 31.3602 26.45C33.3894 26.45 34.5477 27.2965 35.5475 28.0636C35.5718 28.0822 35.5959 28.1008 35.62 28.1192C36.5738 28.8518 37.3528 29.45 38.7202 29.45C40.0604 29.45 40.9357 28.8767 42.0211 28.1659C42.0849 28.1242 42.1494 28.0819 42.2147 28.0393C43.3927 27.271 44.7684 26.45 47.0002 26.45C47.304 26.45 47.5502 26.6962 47.5502 27C47.5502 27.3037 47.304 27.55 47.0002 27.55C45.092 27.55 43.9377 28.2289 42.8156 28.9606C42.7394 29.0104 42.6629 29.0607 42.586 29.1112C41.5312 29.8051 40.3988 30.55 38.7202 30.55C36.9743 30.55 35.9307 29.7466 34.9938 29.0254C34.955 28.9955 34.9164 28.9658 34.8779 28.9363C33.9227 28.2034 33.011 27.55 31.3602 27.55C30.5217 27.55 29.9146 27.7193 29.4169 27.9628C28.9071 28.2121 28.4934 28.5466 28.0277 28.9262L28.0104 28.9404C27.5605 29.3072 27.0589 29.7161 26.4269 30.0253C25.7746 30.3443 25.0017 30.55 24.0002 30.55C21.9821 30.55 20.7127 29.7129 19.6064 28.9534C19.5808 28.9358 19.5553 28.9183 19.5299 28.9008C18.4555 28.1628 17.5635 27.55 16.1802 27.55C14.7668 27.55 13.8627 28.1918 12.8229 28.9453L12.7923 28.9675C11.7696 29.7087 10.6089 30.55 8.8202 30.55C7.03541 30.55 5.6479 29.7128 4.4475 28.9672C4.42072 28.9505 4.39404 28.9339 4.36747 28.9174C3.15789 28.1658 2.16683 27.55 1.0002 27.55C0.696439 27.55 0.450195 27.3037 0.450195 27Z" fill="#111928"/>
<circle cx="4" cy="35" r="1" fill="#111928"/>
<circle cx="14" cy="35" r="1" fill="#111928"/>
<circle cx="19" cy="39" r="1" fill="#111928"/>
<circle cx="9" cy="39" r="1" fill="#111928"/>
<circle cx="29" cy="39" r="1" fill="#111928"/>
<circle cx="39" cy="39" r="1" fill="#111928"/>
<circle cx="24" cy="35" r="1" fill="#111928"/>
<circle cx="34" cy="35" r="1" fill="#111928"/>
<circle cx="44" cy="35" r="1" fill="#111928"/>
<path fill-rule="evenodd" clip-rule="evenodd" d="M12.6667 13.55L2 13.55L2 12.45L12.6667 12.45V13.55Z" fill="#111928"/>
<path fill-rule="evenodd" clip-rule="evenodd" d="M29.5553 13.55L18.8887 13.55V12.45L29.5553 12.45V13.55Z" fill="#111928"/>
<path fill-rule="evenodd" clip-rule="evenodd" d="M46.4445 13.55L35.7778 13.55V12.45L46.4445 12.45V13.55Z" fill="#111928"/>
<path fill-rule="evenodd" clip-rule="evenodd" d="M4.3891 9.61104C4.60389 9.82583 4.60389 10.1741 4.3891 10.3889L1.77801 13L4.3891 15.611C4.60389 15.8258 4.60389 16.1741 4.3891 16.3889C4.17432 16.6036 3.82607 16.6036 3.61129 16.3889L0.611287 13.3889C0.396498 13.1741 0.396498 12.8258 0.611287 12.611L3.61129 9.61104C3.82607 9.39625 4.17432 9.39625 4.3891 9.61104Z" fill="#111928"/>
<path fill-rule="evenodd" clip-rule="evenodd" d="M21.3891 9.61104C21.6039 9.82583 21.6039 10.1741 21.3891 10.3889L18.778 13L21.3891 15.611C21.6039 15.8258 21.6039 16.1741 21.3891 16.3889C21.1743 16.6036 20.8261 16.6036 20.6113 16.3889L17.6113 13.3889C17.3965 13.1741 17.3965 12.8258 17.6113 12.611L20.6113 9.61104C20.8261 9.39625 21.1743 9.39625 21.3891 9.61104Z" fill="#111928"/>
<path fill-rule="evenodd" clip-rule="evenodd" d="M38.3891 9.61104C38.6039 9.82583 38.6039 10.1741 38.3891 10.3889L35.778 13L38.3891 15.611C38.6039 15.8258 38.6039 16.1741 38.3891 16.3889C38.1743 16.6036 37.8261 16.6036 37.6113 16.3889L34.6113 13.3889C34.3965 13.1741 34.3965 12.8258 34.6113 12.611L37.6113 9.61104C37.8261 9.39625 38.1743 9.39625 38.3891 9.61104Z" fill="#111928"/>
<path fill-rule="evenodd" clip-rule="evenodd" d="M26.6109 16.389C26.3961 16.1742 26.3961 15.8259 26.6109 15.6111L29.222 13L26.6109 10.389C26.3961 10.1742 26.3961 9.82593 26.6109 9.61114C26.8257 9.39635 27.1739 9.39635 27.3887 9.61114L30.3887 12.6111C30.6035 12.8259 30.6035 13.1742 30.3887 13.389L27.3887 16.389C27.1739 16.6037 26.8257 16.6037 26.6109 16.389Z" fill="#111928"/>
<path fill-rule="evenodd" clip-rule="evenodd" d="M9.6109 16.389C9.39611 16.1742 9.39611 15.8259 9.6109 15.6111L12.222 13L9.6109 10.389C9.39611 10.1742 9.39611 9.82593 9.6109 9.61114C9.82568 9.39635 10.1739 9.39635 10.3887 9.61114L13.3887 12.6111C13.6035 12.8259 13.6035 13.1742 13.3887 13.389L10.3887 16.389C10.1739 16.6037 9.82568 16.6037 9.6109 16.389Z" fill="#111928"/>
<path fill-rule="evenodd" clip-rule="evenodd" d="M43.6109 16.389C43.3961 16.1742 43.3961 15.8259 43.6109 15.6111L46.222 13L43.6109 10.389C43.3961 10.1742 43.3961 9.82593 43.6109 9.61114C43.8257 9.39635 44.1739 9.39635 44.3887 9.61114L47.3887 12.6111C47.6035 12.8259 47.6035 13.1742 47.3887 13.389L44.3887 16.389C44.1739 16.6037 43.8257 16.6037 43.6109 16.389Z" fill="#111928"/>
</svg>
