<svg width="60" height="60" viewBox="0 0 60 60" fill="none" xmlns="http://www.w3.org/2000/svg">
<path d="M24.8529 35.7934C23.3998 35.7934 22.0592 35.1277 21.1873 33.9652C20.8779 33.5527 20.9529 32.9621 21.3654 32.6527C21.7779 32.3434 22.3686 32.4184 22.6779 32.8309C23.2029 33.5246 23.9904 33.9184 24.8529 33.9184C25.7154 33.9184 26.5029 33.5246 27.0279 32.8309C27.3373 32.4184 27.9279 32.334 28.3404 32.6527C28.7529 32.9621 28.8373 33.5527 28.5186 33.9652C27.6373 35.1277 26.2967 35.7934 24.8529 35.7934ZM38.2779 32.8309C37.7529 33.5246 36.9654 33.9184 36.1029 33.9184C35.2404 33.9184 34.4529 33.5246 33.9279 32.8309C33.6186 32.4184 33.0279 32.334 32.6154 32.6527C32.2029 32.9621 32.1186 33.5527 32.4373 33.9652C33.3186 35.1277 34.6592 35.7934 36.1029 35.7934C37.5467 35.7934 38.8967 35.1277 39.7686 33.9652C40.0779 33.5527 40.0029 32.9621 39.5904 32.6527C39.1779 32.3434 38.5873 32.4184 38.2779 32.8309ZM32.5592 42.5152C32.0904 42.9465 31.3123 43.1996 30.4873 43.1996C29.6623 43.1996 28.8842 42.9465 28.4154 42.5152C28.0311 42.1684 27.4404 42.1965 27.0936 42.5809C26.7467 42.9652 26.7748 43.5559 27.1592 43.9027C27.9748 44.6434 29.1936 45.0652 30.4873 45.0652C31.7811 45.0652 32.9998 44.6434 33.8154 43.9027C34.1998 43.5559 34.2279 42.9652 33.8811 42.5809C33.5342 42.1965 32.9436 42.1684 32.5592 42.5152ZM54.9373 49.6777C54.9373 50.0621 54.6936 50.409 54.3279 50.5402C51.3654 51.6465 50.0436 54.8434 50.0248 54.8715C49.8842 55.2277 49.5373 55.4527 49.1529 55.4527C48.7686 55.4527 48.4311 55.2184 48.2811 54.8715C46.9873 51.6559 44.0154 50.559 43.9873 50.5496C43.6311 50.4184 43.3779 50.0809 43.3686 49.7059C43.3498 49.3215 43.5748 48.9652 43.9217 48.8152C47.3061 47.3152 48.2248 44.634 48.2623 44.5215C48.3842 44.1371 48.7404 43.884 49.1436 43.8746C49.5186 43.8371 49.9029 44.1184 50.0342 44.4934C51.0842 47.4465 54.3092 48.7777 54.3373 48.7871C54.6936 48.9277 54.9279 49.284 54.9279 49.6684L54.9373 49.6777ZM52.0123 49.6402C51.1123 49.0402 49.9967 48.1309 49.1529 46.8559C48.5717 47.7184 47.6623 48.7684 46.2936 49.659C47.1936 50.2496 48.2998 51.1777 49.1811 52.5371C49.7811 51.6277 50.7092 50.5027 52.0123 49.6402ZM39.2904 50.2496V56.2496C39.2904 56.7652 38.8686 57.1871 38.3529 57.1871C37.8373 57.1871 37.4154 56.7652 37.4154 56.2496V51.3371C35.2967 52.3777 32.9342 52.9684 30.4779 52.9684C30.3842 52.9684 30.2904 52.9684 30.1873 52.9684C27.6748 52.9215 25.2654 52.2371 23.1186 51.0559V56.2496C23.1186 56.7652 22.6967 57.1871 22.1811 57.1871C21.6654 57.1871 21.2436 56.7652 21.2436 56.2496V49.8465C19.0404 48.1871 17.2404 45.9465 16.0873 43.3027C14.2686 45.0934 13.4342 47.1277 13.4248 47.1559C13.2842 47.5121 12.9373 47.7465 12.5529 47.7465C12.1686 47.7465 11.8217 47.5121 11.6811 47.1559C9.89043 42.7027 5.71856 41.1465 5.68106 41.1371C5.32481 41.0059 5.07168 40.6684 5.06231 40.284C5.05293 39.8996 5.26856 39.5527 5.61543 39.3934C8.24981 38.2215 9.80606 36.5434 10.6779 35.2496C10.1061 33.384 9.89043 31.9684 9.88106 31.9027C8.16543 22.8184 14.1654 16.359 14.4186 16.0871C15.3936 14.8871 16.5186 13.8746 17.7092 13.0121C18.7498 7.16211 23.8967 2.80273 29.8686 2.80273H31.0873C37.0779 2.80273 42.2342 7.18086 43.2561 13.0496C44.4561 13.9215 45.5998 14.9246 46.5842 16.134C46.7904 16.3496 52.7904 22.809 51.0748 31.9309C51.0279 32.2215 49.8186 40.0215 45.3467 43.3777C45.2154 43.4809 45.0654 43.5277 44.9061 43.5465C43.6873 46.3027 41.7186 48.609 39.2811 50.2402L39.2904 50.2496ZM37.3217 11.9715C37.5186 12.3934 37.6592 12.8059 37.7342 13.1527C38.3717 17.4746 35.9811 19.4902 34.9311 20.1559C34.6029 20.3621 34.2279 20.5121 33.8342 20.634C44.9998 24.909 45.1029 32.184 45.0748 33.0559L45.5904 40.5746C48.3654 37.2277 49.2279 31.6965 49.2279 31.6309C50.7748 23.4371 45.2342 17.4465 45.1779 17.3902C43.0029 14.7277 40.0404 13.0496 37.3123 11.9809L37.3217 11.9715ZM20.0436 11.5496C25.1248 8.78398 30.4779 8.31523 30.7967 8.29648C32.4748 8.18398 33.7967 8.56836 34.8186 9.17773C36.6467 9.66523 38.8123 10.434 40.9311 11.5871C39.4404 7.53711 35.5404 4.69648 31.0873 4.69648H29.8686C25.4342 4.69648 21.5436 7.52773 20.0436 11.559V11.5496ZM11.7279 31.5934C11.7279 31.5934 11.8123 32.1371 11.9998 32.9246C12.1498 32.8121 12.3373 32.7465 12.5342 32.7465C12.9279 32.7371 13.2936 32.9902 13.4342 33.3652C13.9311 34.7527 14.7561 35.8684 15.6373 36.759L15.8904 33.0465C15.8529 32.034 15.9748 22.5184 33.0279 18.909C33.3654 18.834 33.6654 18.7215 33.9279 18.5527C35.0623 17.8402 36.3186 16.3777 35.8873 13.4809C35.8686 13.4059 35.0061 9.88086 30.9279 10.1527C30.8436 10.1527 20.9436 11.034 15.8248 17.3246C15.7217 17.4371 10.1904 23.4277 11.7279 31.584V31.5934ZM17.0061 40.209C15.6561 39.384 13.8092 37.959 12.5342 35.8309C11.7467 37.1152 10.3498 38.8402 8.05293 40.2277C9.38418 41.034 11.2217 42.4496 12.5717 44.7371C13.4061 43.3777 14.8404 41.5027 17.0061 40.1996V40.209ZM43.7623 41.3152L43.1998 33.1215C43.1998 33.1215 43.1998 33.0371 43.1998 32.9902C43.2186 32.6809 43.4529 25.2184 30.4779 21.4777C17.5217 25.209 17.7654 32.6621 17.7748 32.9996V33.1215L17.4186 38.2309C18.5248 38.9902 19.4154 39.3559 19.4342 39.3652C19.7904 39.5059 20.0248 39.8621 20.0248 40.2465C20.0248 40.6309 19.7811 40.9777 19.4154 41.1184C18.7498 41.3715 18.1498 41.6996 17.6061 42.0652C19.7061 47.3902 24.6842 50.9996 30.2248 51.1027H30.4779C36.5436 51.1027 41.9529 47.1184 43.7623 41.3246V41.3152Z" fill="#111928"/>
</svg>
