<svg id="Layer_1" height="512" viewBox="0 0 256 256" width="512" xmlns="http://www.w3.org/2000/svg" data-name="Layer 1"><path d="m70.662 115.833a3 3 0 0 1 -2.7-1.694 64.149 64.149 0 0 1 85.668-85.661 3 3 0 0 1 -2.613 5.4 58.145 58.145 0 0 0 -77.657 77.648 3 3 0 0 1 -2.7 4.307z"/><path d="m134.268 45.312a3 3 0 0 1 -1.578-5.555l15.549-9.58-9.347-15.636a3 3 0 1 1 5.15-3.079l10.866 18.177a3 3 0 0 1 -1 4.093l-18.069 11.134a2.989 2.989 0 0 1 -1.571.446z"/><path d="m125.962 150.353a63.817 63.817 0 0 1 -27.8-6.367 3 3 0 0 1 2.613-5.4 58.145 58.145 0 0 0 77.656-77.647 3 3 0 1 1 5.4-2.612 64.113 64.113 0 0 1 -57.865 92.028z"/><path d="m110.323 162.463a3 3 0 0 1 -2.578-1.463l-10.867-18.175a3 3 0 0 1 1-4.094l18.07-11.131a3 3 0 0 1 3.147 5.109l-15.548 9.58 9.349 15.636a3 3 0 0 1 -2.573 4.54z"/><path d="m125.894 119.3a22.376 22.376 0 0 1 -22.351-22.351c0-11.176 17.737-41.89 19.76-45.356a3 3 0 0 1 5.181 0c2.023 3.466 19.76 34.18 19.76 45.356a22.376 22.376 0 0 1 -22.35 22.351zm0-60.13c-6.178 11.081-16.351 30.8-16.351 37.779a16.351 16.351 0 1 0 32.7 0c.001-6.989-10.172-26.7-16.349-37.78z"/><path d="m130.276 110.215a3 3 0 0 1 -1.649-5.508 11.841 11.841 0 0 0 5.366-9.933 3 3 0 0 1 6 0 17.832 17.832 0 0 1 -8.073 14.948 2.988 2.988 0 0 1 -1.644.493z"/><path d="m253 141h-68.489a3 3 0 0 1 0-6h68.489a3 3 0 0 1 0 6z"/><path d="m81.872 141h-78.872a3 3 0 0 1 0-6h78.872a3 3 0 0 1 0 6z"/><path d="m253 173h-250a3 3 0 0 1 0-6h250a3 3 0 0 1 0 6z"/><path d="m31.952 215.572a12 12 0 1 1 12-12 12.011 12.011 0 0 1 -12 12zm0-18a6 6 0 1 0 6 6 6 6 0 0 0 -6-5.995z"/><path d="m64 246a12 12 0 1 1 12-12 12.011 12.011 0 0 1 -12 12zm0-18a6 6 0 1 0 6 6 6 6 0 0 0 -6-6z"/><path d="m128 246a12 12 0 1 1 12-12 12.011 12.011 0 0 1 -12 12zm0-18a6 6 0 1 0 6 6 6 6 0 0 0 -6-6z"/><path d="m192 246a12 12 0 1 1 12-12 12.011 12.011 0 0 1 -12 12zm0-18a6 6 0 1 0 6 6 6 6 0 0 0 -6-6z"/><path d="m96 215.572a12 12 0 1 1 12-12 12.011 12.011 0 0 1 -12 12zm0-18a6 6 0 1 0 6 6 6 6 0 0 0 -6-5.995z"/><path d="m160.048 215.572a12 12 0 1 1 12-12 12.011 12.011 0 0 1 -12 12zm0-18a6 6 0 1 0 6 6 6 6 0 0 0 -6-5.995z"/><path d="m224.1 215.572a12 12 0 1 1 12-12 12.01 12.01 0 0 1 -12 12zm0-18a6 6 0 1 0 6 6 6 6 0 0 0 -6-5.995z"/></svg>