<svg width="60" height="60" viewBox="0 0 60 60" fill="none" xmlns="http://www.w3.org/2000/svg">
<g clip-path="url(#clip0_4800_8192)">
<path d="M59 36H1C0.734784 36 0.48043 36.1054 0.292893 36.2929C0.105357 36.4804 0 36.7348 0 37C0 37.2652 0.105357 37.5196 0.292893 37.7071C0.48043 37.8946 0.734784 38 1 38H59C59.2652 38 59.5196 37.8946 59.7071 37.7071C59.8946 37.5196 60 37.2652 60 37C60 36.7348 59.8946 36.4804 59.7071 36.2929C59.5196 36.1054 59.2652 36 59 36Z" fill="#4B5563"/>
<path d="M59 40H1C0.734784 40 0.48043 40.1054 0.292893 40.2929C0.105357 40.4804 0 40.7348 0 41C0 41.2652 0.105357 41.5196 0.292893 41.7071C0.48043 41.8946 0.734784 42 1 42H59C59.2652 42 59.5196 41.8946 59.7071 41.7071C59.8946 41.5196 60 41.2652 60 41C60 40.7348 59.8946 40.4804 59.7071 40.2929C59.5196 40.1054 59.2652 40 59 40Z" fill="#4B5563"/>
<path d="M3 46C3.55228 46 4 45.5523 4 45C4 44.4477 3.55228 44 3 44C2.44772 44 2 44.4477 2 45C2 45.5523 2.44772 46 3 46Z" fill="#4B5563"/>
<path d="M9 46C9.55228 46 10 45.5523 10 45C10 44.4477 9.55228 44 9 44C8.44772 44 8 44.4477 8 45C8 45.5523 8.44772 46 9 46Z" fill="#4B5563"/>
<path d="M15 46C15.5523 46 16 45.5523 16 45C16 44.4477 15.5523 44 15 44C14.4477 44 14 44.4477 14 45C14 45.5523 14.4477 46 15 46Z" fill="#4B5563"/>
<path d="M21 46C21.5523 46 22 45.5523 22 45C22 44.4477 21.5523 44 21 44C20.4477 44 20 44.4477 20 45C20 45.5523 20.4477 46 21 46Z" fill="#4B5563"/>
<path d="M27 46C27.5523 46 28 45.5523 28 45C28 44.4477 27.5523 44 27 44C26.4477 44 26 44.4477 26 45C26 45.5523 26.4477 46 27 46Z" fill="#4B5563"/>
<path d="M33 46C33.5523 46 34 45.5523 34 45C34 44.4477 33.5523 44 33 44C32.4477 44 32 44.4477 32 45C32 45.5523 32.4477 46 33 46Z" fill="#4B5563"/>
<path d="M39 46C39.5523 46 40 45.5523 40 45C40 44.4477 39.5523 44 39 44C38.4477 44 38 44.4477 38 45C38 45.5523 38.4477 46 39 46Z" fill="#4B5563"/>
<path d="M45 46C45.5523 46 46 45.5523 46 45C46 44.4477 45.5523 44 45 44C44.4477 44 44 44.4477 44 45C44 45.5523 44.4477 46 45 46Z" fill="#4B5563"/>
<path d="M51 46C51.5523 46 52 45.5523 52 45C52 44.4477 51.5523 44 51 44C50.4477 44 50 44.4477 50 45C50 45.5523 50.4477 46 51 46Z" fill="#4B5563"/>
<path d="M57 46C57.5523 46 58 45.5523 58 45C58 44.4477 57.5523 44 57 44C56.4477 44 56 44.4477 56 45C56 45.5523 56.4477 46 57 46Z" fill="#4B5563"/>
<path d="M30 3.02202e-05C29.4885 -0.00227239 28.985 0.127045 28.5379 0.375552C28.0908 0.624059 27.7151 0.983399 27.447 1.41903C23.918 7.12803 18 17.4 18 22.082C18 25.2646 19.2643 28.3169 21.5147 30.5673C23.7652 32.8178 26.8174 34.082 30 34.082C33.1826 34.082 36.2348 32.8178 38.4853 30.5673C40.7357 28.3169 42 25.2646 42 22.082C42 17.4 36.082 7.12803 32.553 1.41903C32.2849 0.983399 31.9092 0.624059 31.4621 0.375552C31.015 0.127045 30.5115 -0.00227239 30 3.02202e-05ZM40 22.082C40 24.7342 38.9464 27.2777 37.0711 29.1531C35.1957 31.0285 32.6522 32.082 30 32.082C27.3478 32.082 24.8043 31.0285 22.9289 29.1531C21.0536 27.2777 20 24.7342 20 22.082C20 19.026 23.334 11.882 29.148 2.47103C29.2387 2.3277 29.3642 2.20963 29.5129 2.12782C29.6615 2.04602 29.8284 2.00312 29.998 2.00312C30.1676 2.00312 30.3345 2.04602 30.4831 2.12782C30.6318 2.20963 30.7573 2.3277 30.848 2.47103C36.666 11.878 40 19.026 40 22.082Z" fill="#4B5563"/>
<path d="M29 29C29 29.2652 29.1054 29.5196 29.2929 29.7071C29.4804 29.8947 29.7348 30 30 30C32.1101 30.0085 34.1375 29.1797 35.6373 27.6953C37.1371 26.2109 37.9868 24.1922 38 22.082C38 21.8168 37.8946 21.5625 37.7071 21.3749C37.5196 21.1874 37.2652 21.082 37 21.082C36.7348 21.082 36.4804 21.1874 36.2929 21.3749C36.1054 21.5625 36 21.8168 36 22.082C35.9873 23.6619 35.3485 25.1722 34.2237 26.2816C33.0988 27.3911 31.5799 28.0091 30 28C29.7348 28 29.4804 28.1054 29.2929 28.2929C29.1054 28.4805 29 28.7348 29 29Z" fill="#4B5563"/>
<path d="M48 4C48 3.73478 47.8946 3.48043 47.7071 3.29289C47.5196 3.10536 47.2652 3 47 3C46.7348 3 46.4804 3.10536 46.2929 3.29289C46.1054 3.48043 46 3.73478 46 4V6C46 6.26522 46.1054 6.51957 46.2929 6.70711C46.4804 6.89464 46.7348 7 47 7C47.2652 7 47.5196 6.89464 47.7071 6.70711C47.8946 6.51957 48 6.26522 48 6V4Z" fill="#4B5563"/>
<path d="M47 13C47.2652 13 47.5196 12.8946 47.7071 12.7071C47.8946 12.5196 48 12.2652 48 12V10C48 9.73478 47.8946 9.48043 47.7071 9.29289C47.5196 9.10536 47.2652 9 47 9C46.7348 9 46.4804 9.10536 46.2929 9.29289C46.1054 9.48043 46 9.73478 46 10V12C46 12.2652 46.1054 12.5196 46.2929 12.7071C46.4804 12.8946 46.7348 13 47 13Z" fill="#4B5563"/>
<path d="M45 7H43C42.7348 7 42.4804 7.10536 42.2929 7.29289C42.1054 7.48043 42 7.73478 42 8C42 8.26522 42.1054 8.51957 42.2929 8.70711C42.4804 8.89464 42.7348 9 43 9H45C45.2652 9 45.5196 8.89464 45.7071 8.70711C45.8946 8.51957 46 8.26522 46 8C46 7.73478 45.8946 7.48043 45.7071 7.29289C45.5196 7.10536 45.2652 7 45 7Z" fill="#4B5563"/>
<path d="M49 9H51C51.2652 9 51.5196 8.89464 51.7071 8.70711C51.8946 8.51957 52 8.26522 52 8C52 7.73478 51.8946 7.48043 51.7071 7.29289C51.5196 7.10536 51.2652 7 51 7H49C48.7348 7 48.4804 7.10536 48.2929 7.29289C48.1054 7.48043 48 7.73478 48 8C48 8.26522 48.1054 8.51957 48.2929 8.70711C48.4804 8.89464 48.7348 9 49 9Z" fill="#4B5563"/>
<path d="M55 18C55 17.7348 54.8946 17.4804 54.7071 17.2929C54.5196 17.1054 54.2652 17 54 17C53.7348 17 53.4804 17.1054 53.2929 17.2929C53.1054 17.4804 53 17.7348 53 18V20C53 20.2652 53.1054 20.5196 53.2929 20.7071C53.4804 20.8946 53.7348 21 54 21C54.2652 21 54.5196 20.8946 54.7071 20.7071C54.8946 20.5196 55 20.2652 55 20V18Z" fill="#4B5563"/>
<path d="M54 27C54.2652 27 54.5196 26.8946 54.7071 26.7071C54.8946 26.5196 55 26.2652 55 26V24C55 23.7348 54.8946 23.4804 54.7071 23.2929C54.5196 23.1054 54.2652 23 54 23C53.7348 23 53.4804 23.1054 53.2929 23.2929C53.1054 23.4804 53 23.7348 53 24V26C53 26.2652 53.1054 26.5196 53.2929 26.7071C53.4804 26.8946 53.7348 27 54 27Z" fill="#4B5563"/>
<path d="M50 23H52C52.2652 23 52.5196 22.8946 52.7071 22.7071C52.8946 22.5196 53 22.2652 53 22C53 21.7348 52.8946 21.4804 52.7071 21.2929C52.5196 21.1054 52.2652 21 52 21H50C49.7348 21 49.4804 21.1054 49.2929 21.2929C49.1054 21.4804 49 21.7348 49 22C49 22.2652 49.1054 22.5196 49.2929 22.7071C49.4804 22.8946 49.7348 23 50 23Z" fill="#4B5563"/>
<path d="M55 22C55 22.2652 55.1054 22.5196 55.2929 22.7071C55.4804 22.8946 55.7348 23 56 23H58C58.2652 23 58.5196 22.8946 58.7071 22.7071C58.8946 22.5196 59 22.2652 59 22C59 21.7348 58.8946 21.4804 58.7071 21.2929C58.5196 21.1054 58.2652 21 58 21H56C55.7348 21 55.4804 21.1054 55.2929 21.2929C55.1054 21.4804 55 21.7348 55 22Z" fill="#4B5563"/>
<path d="M11 15C11 14.7348 10.8946 14.4804 10.7071 14.2929C10.5196 14.1054 10.2652 14 10 14C9.73478 14 9.48043 14.1054 9.29289 14.2929C9.10536 14.4804 9 14.7348 9 15V17C9 17.2652 9.10536 17.5196 9.29289 17.7071C9.48043 17.8946 9.73478 18 10 18C10.2652 18 10.5196 17.8946 10.7071 17.7071C10.8946 17.5196 11 17.2652 11 17V15Z" fill="#4B5563"/>
<path d="M10 24C10.2652 24 10.5196 23.8946 10.7071 23.7071C10.8946 23.5196 11 23.2652 11 23V21C11 20.7348 10.8946 20.4804 10.7071 20.2929C10.5196 20.1054 10.2652 20 10 20C9.73478 20 9.48043 20.1054 9.29289 20.2929C9.10536 20.4804 9 20.7348 9 21V23C9 23.2652 9.10536 23.5196 9.29289 23.7071C9.48043 23.8946 9.73478 24 10 24Z" fill="#4B5563"/>
<path d="M8 18H6C5.73478 18 5.48043 18.1054 5.29289 18.2929C5.10536 18.4804 5 18.7348 5 19C5 19.2652 5.10536 19.5196 5.29289 19.7071C5.48043 19.8946 5.73478 20 6 20H8C8.26522 20 8.51957 19.8946 8.70711 19.7071C8.89464 19.5196 9 19.2652 9 19C9 18.7348 8.89464 18.4804 8.70711 18.2929C8.51957 18.1054 8.26522 18 8 18Z" fill="#4B5563"/>
<path d="M12 20H14C14.2652 20 14.5196 19.8946 14.7071 19.7071C14.8946 19.5196 15 19.2652 15 19C15 18.7348 14.8946 18.4804 14.7071 18.2929C14.5196 18.1054 14.2652 18 14 18H12C11.7348 18 11.4804 18.1054 11.2929 18.2929C11.1054 18.4804 11 18.7348 11 19C11 19.2652 11.1054 19.5196 11.2929 19.7071C11.4804 19.8946 11.7348 20 12 20Z" fill="#4B5563"/>
<path d="M10.0002 59.9999C11.3563 59.9666 12.644 59.3972 13.5812 58.4163C14.5184 57.4355 15.0286 56.1232 15.0002 54.7669C15.0002 53.2859 13.8562 50.9519 11.6002 47.8289C11.4118 47.5835 11.1695 47.3848 10.8921 47.248C10.6147 47.1112 10.3095 47.04 10.0002 47.04C9.69082 47.04 9.38564 47.1112 9.1082 47.248C8.83076 47.3848 8.5885 47.5835 8.40015 47.8289C6.14415 50.9519 5.00015 53.2859 5.00015 54.7669C4.9717 56.1232 5.48193 57.4355 6.4191 58.4163C7.35627 59.3972 8.64397 59.9666 10.0002 59.9999ZM9.98015 48.9999C11.8432 51.5799 13.0002 53.7889 13.0002 54.7669C13.0288 55.5929 12.7294 56.3966 12.1672 57.0024C11.6051 57.6082 10.8259 57.9668 10.0002 57.9999C9.17436 57.9668 8.39524 57.6082 7.83309 57.0024C7.27094 56.3966 6.97148 55.5929 7.00015 54.7669C7.00015 53.7889 8.15715 51.5799 9.98015 48.9999Z" fill="#4B5563"/>
<path d="M30.0002 59.9999C31.3563 59.9666 32.644 59.3972 33.5812 58.4163C34.5184 57.4355 35.0286 56.1232 35.0002 54.7669C35.0002 53.2859 33.8562 50.9519 31.6002 47.8289C31.4118 47.5835 31.1695 47.3848 30.8921 47.248C30.6147 47.1112 30.3095 47.04 30.0002 47.04C29.6908 47.04 29.3856 47.1112 29.1082 47.248C28.8308 47.3848 28.5885 47.5835 28.4002 47.8289C26.1452 50.9519 25.0002 53.2859 25.0002 54.7669C24.9717 56.1232 25.4819 57.4355 26.4191 58.4163C27.3563 59.3972 28.644 59.9666 30.0002 59.9999ZM29.9802 48.9999C31.8432 51.5799 33.0002 53.7889 33.0002 54.7669C33.0303 55.1793 32.9751 55.5935 32.838 55.9836C32.7009 56.3737 32.4848 56.7313 32.2033 57.0341C31.9218 57.337 31.5808 57.5786 31.2018 57.7437C30.8227 57.9089 30.4136 57.9942 30.0002 57.9942C29.5867 57.9942 29.1776 57.9089 28.7986 57.7437C28.4195 57.5786 28.0786 57.337 27.797 57.0341C27.5155 56.7313 27.2994 56.3737 27.1623 55.9836C27.0252 55.5935 26.97 55.1793 27.0002 54.7669C27.0002 53.7889 28.1572 51.5799 29.9802 48.9999Z" fill="#4B5563"/>
<path d="M48.4001 47.8289C46.1451 50.9519 45.0001 53.2859 45.0001 54.7669C44.9699 55.4423 45.0768 56.1169 45.3145 56.7498C45.5521 57.3828 45.9156 57.961 46.3828 58.4497C46.8501 58.9383 47.4115 59.3272 48.0332 59.5929C48.6549 59.8586 49.324 59.9956 50.0001 59.9956C50.6762 59.9956 51.3453 59.8586 51.967 59.5929C52.5887 59.3272 53.1501 58.9383 53.6174 58.4497C54.0847 57.961 54.4481 57.3828 54.6857 56.7498C54.9234 56.1169 55.0303 55.4423 55.0001 54.7669C55.0001 53.2859 53.8561 50.9519 51.6001 47.8289C51.4118 47.5835 51.1695 47.3848 50.8921 47.248C50.6146 47.1112 50.3094 47.04 50.0001 47.04C49.6908 47.04 49.3856 47.1112 49.1082 47.248C48.8307 47.3848 48.5885 47.5835 48.4001 47.8289ZM53.0001 54.7669C53.0303 55.1793 52.975 55.5935 52.8379 55.9836C52.7008 56.3737 52.4848 56.7313 52.2032 57.0341C51.9217 57.337 51.5808 57.5786 51.2017 57.7437C50.8227 57.9089 50.4136 57.9941 50.0001 57.9941C49.5866 57.9941 49.1776 57.9089 48.7985 57.7437C48.4195 57.5786 48.0785 57.337 47.797 57.0341C47.5155 56.7313 47.2994 56.3737 47.1623 55.9836C47.0252 55.5935 46.97 55.1793 47.0001 54.7669C47.0001 53.7889 48.1571 51.5799 49.9801 48.9999C51.8431 51.5799 53.0001 53.7889 53.0001 54.7669Z" fill="#4B5563"/>
</g>
<defs>
<clipPath id="clip0_4800_8192">
<rect width="60" height="60" fill="white"/>
</clipPath>
</defs>
</svg>
