<svg width="512" height="512" viewBox="0 0 512 512" fill="none" xmlns="http://www.w3.org/2000/svg">
<path d="M162.15 169.378C160.964 169.378 159.804 169.026 158.817 168.366C157.831 167.707 157.062 166.77 156.608 165.674C156.154 164.578 156.035 163.371 156.267 162.208C156.498 161.044 157.069 159.975 157.908 159.136L188.124 128.92C189.257 127.837 190.769 127.241 192.336 127.259C193.903 127.276 195.401 127.906 196.51 129.014C197.618 130.122 198.25 131.62 198.268 133.187C198.287 134.754 197.692 136.266 196.61 137.4L166.4 167.622C165.842 168.18 165.179 168.622 164.45 168.923C163.721 169.225 162.939 169.379 162.15 169.378Z" fill="#111928"/>
<path d="M192.366 139.162C191.578 139.163 190.797 139.008 190.069 138.707C189.341 138.405 188.68 137.962 188.124 137.404L157.908 107.188C157.351 106.63 156.909 105.969 156.608 105.24C156.306 104.512 156.151 103.731 156.152 102.943C156.152 102.155 156.308 101.375 156.61 100.647C156.912 99.9185 157.354 99.2571 157.912 98.7C158.469 98.1429 159.131 97.7012 159.86 97.3999C160.588 97.0986 161.368 96.9437 162.157 96.9441C162.945 96.9445 163.725 97.1001 164.453 97.402C165.181 97.704 165.843 98.1464 166.4 98.704L196.61 128.92C197.449 129.759 198.02 130.828 198.251 131.992C198.483 133.156 198.364 134.363 197.909 135.459C197.455 136.555 196.686 137.492 195.699 138.151C194.713 138.81 193.552 139.162 192.366 139.162Z" fill="#111928"/>
<path d="M192.366 139.162H51.7661C50.1748 139.162 48.6487 138.53 47.5235 137.405C46.3983 136.28 45.7661 134.753 45.7661 133.162C45.7661 131.571 46.3983 130.045 47.5235 128.919C48.6487 127.794 50.1748 127.162 51.7661 127.162H192.366C193.957 127.162 195.484 127.794 196.609 128.919C197.734 130.045 198.366 131.571 198.366 133.162C198.366 134.753 197.734 136.28 196.609 137.405C195.484 138.53 193.957 139.162 192.366 139.162Z" fill="#111928"/>
<path d="M349.858 169.378C349.07 169.379 348.29 169.224 347.562 168.923C346.834 168.622 346.173 168.18 345.616 167.622L315.4 137.4C314.29 136.272 313.671 134.75 313.678 133.167C313.684 131.585 314.316 130.069 315.436 128.949C316.555 127.83 318.071 127.199 319.654 127.193C321.237 127.186 322.758 127.806 323.886 128.916L354.102 159.132C354.941 159.971 355.512 161.04 355.744 162.204C355.975 163.368 355.856 164.575 355.402 165.671C354.948 166.767 354.178 167.704 353.192 168.363C352.205 169.022 351.045 169.374 349.858 169.374V169.378Z" fill="#111928"/>
<path d="M319.642 139.162C318.455 139.162 317.295 138.81 316.309 138.15C315.323 137.491 314.554 136.554 314.1 135.458C313.646 134.362 313.527 133.155 313.758 131.992C313.99 130.828 314.561 129.759 315.4 128.92L345.616 98.7039C346.744 97.5937 348.265 96.9743 349.848 96.9805C351.431 96.9868 352.947 97.6182 354.066 98.7373C355.186 99.8564 355.818 101.373 355.824 102.955C355.831 104.538 355.212 106.059 354.102 107.188L323.886 137.4C323.329 137.959 322.668 138.402 321.94 138.705C321.211 139.007 320.43 139.162 319.642 139.162Z" fill="#111928"/>
<path d="M460.238 139.162H319.638C318.047 139.162 316.521 138.53 315.396 137.405C314.27 136.28 313.638 134.753 313.638 133.162C313.638 131.571 314.27 130.045 315.396 128.919C316.521 127.794 318.047 127.162 319.638 127.162H460.238C461.829 127.162 463.356 127.794 464.481 128.919C465.606 130.045 466.238 131.571 466.238 133.162C466.238 134.753 465.606 136.28 464.481 137.405C463.356 138.53 461.829 139.162 460.238 139.162Z" fill="#111928"/>
<path d="M506 269.058H338.086C336.495 269.058 334.969 268.426 333.843 267.301C332.718 266.176 332.086 264.649 332.086 263.058C332.086 261.467 332.718 259.941 333.843 258.815C334.969 257.69 336.495 257.058 338.086 257.058H506C507.591 257.058 509.117 257.69 510.243 258.815C511.368 259.941 512 261.467 512 263.058C512 264.649 511.368 266.176 510.243 267.301C509.117 268.426 507.591 269.058 506 269.058Z" fill="#111928"/>
<path d="M174 269.058H6C4.4087 269.058 2.88258 268.426 1.75736 267.301C0.632141 266.176 0 264.649 0 263.058C0 261.467 0.632141 259.941 1.75736 258.815C2.88258 257.69 4.4087 257.058 6 257.058H174C175.591 257.058 177.117 257.69 178.243 258.815C179.368 259.941 180 261.467 180 263.058C180 264.649 179.368 266.176 178.243 267.301C177.117 268.426 175.591 269.058 174 269.058Z" fill="#111928"/>
<path d="M63.8999 354.2C59.1532 354.2 54.513 352.792 50.5662 350.155C46.6194 347.518 43.5433 343.77 41.7268 339.384C39.9103 334.999 39.435 330.173 40.3611 325.518C41.2871 320.862 43.5729 316.586 46.9293 313.229C50.2858 309.873 54.5622 307.587 59.2177 306.661C63.8733 305.735 68.6989 306.21 73.0843 308.027C77.4697 309.843 81.218 312.919 83.8552 316.866C86.4923 320.813 87.8999 325.453 87.8999 330.2C87.8941 336.563 85.3637 342.664 80.864 347.164C76.3644 351.664 70.2633 354.194 63.8999 354.2ZM63.8999 318.2C61.5265 318.2 59.2065 318.904 57.2331 320.222C55.2597 321.541 53.7216 323.415 52.8134 325.608C51.9051 327.8 51.6675 330.213 52.1305 332.541C52.5935 334.869 53.7364 337.007 55.4146 338.685C57.0929 340.363 59.2311 341.506 61.5588 341.969C63.8866 342.432 66.2994 342.195 68.4921 341.287C70.6848 340.378 72.559 338.84 73.8775 336.867C75.1961 334.893 75.8999 332.573 75.8999 330.2C75.8999 327.017 74.6356 323.965 72.3852 321.715C70.1348 319.464 67.0825 318.2 63.8999 318.2Z" fill="#111928"/>
<path d="M128 415.054C123.253 415.054 118.613 413.646 114.666 411.009C110.72 408.372 107.643 404.624 105.827 400.238C104.01 395.853 103.535 391.027 104.461 386.372C105.387 381.716 107.673 377.44 111.029 374.083C114.386 370.727 118.662 368.441 123.318 367.515C127.973 366.589 132.799 367.064 137.184 368.881C141.57 370.697 145.318 373.773 147.955 377.72C150.592 381.667 152 386.307 152 391.054C151.994 397.417 149.464 403.518 144.964 408.018C140.465 412.518 134.363 415.048 128 415.054ZM128 379.064C125.627 379.064 123.307 379.768 121.333 381.086C119.36 382.405 117.822 384.279 116.913 386.472C116.005 388.664 115.768 391.077 116.231 393.405C116.694 395.733 117.837 397.871 119.515 399.549C121.193 401.227 123.331 402.37 125.659 402.833C127.987 403.296 130.399 403.059 132.592 402.15C134.785 401.242 136.659 399.704 137.978 397.731C139.296 395.757 140 393.437 140 391.064C140 387.881 138.736 384.829 136.485 382.579C134.235 380.328 131.183 379.064 128 379.064Z" fill="#111928"/>
<path d="M256 415.054C251.253 415.054 246.613 413.646 242.666 411.009C238.72 408.372 235.643 404.624 233.827 400.238C232.01 395.853 231.535 391.027 232.461 386.372C233.387 381.716 235.673 377.44 239.029 374.083C242.386 370.727 246.662 368.441 251.318 367.515C255.973 366.589 260.799 367.064 265.184 368.881C269.57 370.697 273.318 373.773 275.955 377.72C278.592 381.667 280 386.307 280 391.054C279.994 397.417 277.464 403.518 272.964 408.018C268.465 412.518 262.363 415.048 256 415.054ZM256 379.064C253.627 379.064 251.307 379.768 249.333 381.086C247.36 382.405 245.822 384.279 244.913 386.472C244.005 388.664 243.768 391.077 244.231 393.405C244.694 395.733 245.837 397.871 247.515 399.549C249.193 401.227 251.331 402.37 253.659 402.833C255.987 403.296 258.399 403.059 260.592 402.15C262.785 401.242 264.659 399.704 265.978 397.731C267.296 395.757 268 393.437 268 391.064C268 387.881 266.736 384.829 264.485 382.579C262.235 380.328 259.183 379.064 256 379.064Z" fill="#111928"/>
<path d="M384 415.054C379.253 415.054 374.613 413.646 370.666 411.009C366.72 408.372 363.643 404.624 361.827 400.238C360.01 395.853 359.535 391.027 360.461 386.372C361.387 381.716 363.673 377.44 367.029 374.083C370.386 370.727 374.662 368.441 379.318 367.515C383.973 366.589 388.799 367.064 393.184 368.881C397.57 370.697 401.318 373.773 403.955 377.72C406.592 381.667 408 386.307 408 391.054C407.994 397.417 405.464 403.518 400.964 408.018C396.465 412.518 390.363 415.048 384 415.054ZM384 379.064C381.627 379.064 379.307 379.768 377.333 381.086C375.36 382.405 373.822 384.279 372.913 386.472C372.005 388.664 371.768 391.077 372.231 393.405C372.694 395.733 373.836 397.871 375.515 399.549C377.193 401.227 379.331 402.37 381.659 402.833C383.987 403.296 386.399 403.059 388.592 402.15C390.785 401.242 392.659 399.704 393.978 397.731C395.296 395.757 396 393.437 396 391.064C396 387.881 394.736 384.829 392.485 382.579C390.235 380.328 387.183 379.064 384 379.064Z" fill="#111928"/>
<path d="M192 354.2C187.253 354.2 182.613 352.792 178.666 350.155C174.72 347.518 171.643 343.77 169.827 339.384C168.01 334.999 167.535 330.173 168.461 325.518C169.387 320.862 171.673 316.586 175.029 313.229C178.386 309.873 182.662 307.587 187.318 306.661C191.973 305.735 196.799 306.21 201.184 308.027C205.57 309.843 209.318 312.919 211.955 316.866C214.592 320.813 216 325.453 216 330.2C215.994 336.563 213.464 342.664 208.964 347.164C204.465 351.664 198.363 354.194 192 354.2ZM192 318.2C189.627 318.2 187.307 318.904 185.333 320.222C183.36 321.541 181.822 323.415 180.913 325.608C180.005 327.8 179.768 330.213 180.231 332.541C180.694 334.869 181.837 337.007 183.515 338.685C185.193 340.363 187.331 341.506 189.659 341.969C191.987 342.432 194.399 342.195 196.592 341.287C198.785 340.378 200.659 338.84 201.978 336.867C203.296 334.893 204 332.573 204 330.2C203.997 327.018 202.732 323.967 200.482 321.718C198.233 319.468 195.182 318.203 192 318.2Z" fill="#111928"/>
<path d="M320.09 354.2C315.343 354.2 310.703 352.792 306.756 350.155C302.809 347.518 299.733 343.77 297.917 339.384C296.1 334.999 295.625 330.173 296.551 325.518C297.477 320.862 299.763 316.586 303.119 313.229C306.476 309.873 310.752 307.587 315.408 306.661C320.063 305.735 324.889 306.21 329.274 308.027C333.66 309.843 337.408 312.919 340.045 316.866C342.682 320.813 344.09 325.453 344.09 330.2C344.084 336.563 341.554 342.664 337.054 347.164C332.554 351.664 326.453 354.194 320.09 354.2ZM320.09 318.2C317.716 318.2 315.396 318.904 313.423 320.222C311.45 321.541 309.912 323.415 309.003 325.608C308.095 327.8 307.857 330.213 308.32 332.541C308.783 334.869 309.926 337.007 311.605 338.685C313.283 340.363 315.421 341.506 317.749 341.969C320.077 342.432 322.489 342.195 324.682 341.287C326.875 340.378 328.749 338.84 330.067 336.867C331.386 334.893 332.09 332.573 332.09 330.2C332.09 327.017 330.826 323.965 328.575 321.715C326.325 319.464 323.272 318.2 320.09 318.2Z" fill="#111928"/>
<path d="M448.186 354.2C443.439 354.2 438.799 352.792 434.852 350.155C430.906 347.518 427.829 343.77 426.013 339.384C424.196 334.999 423.721 330.173 424.647 325.518C425.573 320.862 427.859 316.586 431.215 313.229C434.572 309.873 438.848 307.587 443.504 306.661C448.159 305.735 452.985 306.21 457.37 308.027C461.756 309.843 465.504 312.919 468.141 316.866C470.778 320.813 472.186 325.453 472.186 330.2C472.18 336.563 469.65 342.664 465.15 347.164C460.651 351.664 454.549 354.194 448.186 354.2ZM448.186 318.2C445.813 318.2 443.493 318.904 441.519 320.222C439.546 321.541 438.008 323.415 437.1 325.608C436.191 327.8 435.954 330.213 436.417 332.541C436.88 334.869 438.023 337.007 439.701 338.685C441.379 340.363 443.517 341.506 445.845 341.969C448.173 342.432 450.586 342.195 452.778 341.287C454.971 340.378 456.845 338.84 458.164 336.867C459.482 334.893 460.186 332.573 460.186 330.2C460.186 327.017 458.922 323.965 456.671 321.715C454.421 319.464 451.369 318.2 448.186 318.2Z" fill="#111928"/>
<path d="M256 318.218C219.74 318.218 190.24 283.156 190.24 240.058C190.178 228.045 192.535 216.142 197.17 205.058H6C4.4087 205.058 2.88258 204.426 1.75736 203.301C0.632141 202.176 0 200.649 0 199.058C0 197.467 0.632141 195.941 1.75736 194.815C2.88258 193.69 4.4087 193.058 6 193.058H197.674C199.615 193.056 201.526 193.538 203.234 194.46C204.943 195.381 206.394 196.714 207.458 198.338C208.513 199.931 209.155 201.762 209.326 203.665C209.497 205.569 209.191 207.485 208.436 209.24C204.314 218.99 202.205 229.473 202.236 240.058C202.236 276.54 226.354 306.218 255.996 306.218C285.638 306.218 309.736 276.54 309.736 240.058C309.764 229.472 307.655 218.99 303.536 209.238C302.781 207.482 302.476 205.566 302.647 203.663C302.818 201.759 303.461 199.929 304.518 198.336C305.582 196.713 307.033 195.381 308.741 194.459C310.449 193.538 312.359 193.056 314.3 193.058H506C507.591 193.058 509.117 193.69 510.243 194.815C511.368 195.941 512 197.467 512 199.058C512 200.649 511.368 202.176 510.243 203.301C509.117 204.426 507.591 205.058 506 205.058H314.8C319.436 216.142 321.796 228.044 321.738 240.058C321.744 283.156 292.254 318.218 256 318.218Z" fill="#111928"/>
</svg>
