<svg width="80" height="80" viewBox="0 0 80 80" fill="none" xmlns="http://www.w3.org/2000/svg">
<mask id="mask0_6069_16146" style="mask-type:luminance" maskUnits="userSpaceOnUse" x="0" y="0" width="80" height="80">
<path d="M0 9.85463e-06H80V80H0V9.85463e-06Z" fill="white"/>
</mask>
<g mask="url(#mask0_6069_16146)">
<path fill-rule="evenodd" clip-rule="evenodd" d="M39.499 70.74C39.499 72.3971 40.852 73.75 42.509 73.75H63.7107C65.3678 73.75 66.7207 72.3971 66.7207 70.74V54.4408C66.7207 52.7837 65.3678 51.4308 63.7107 51.4308H42.509C40.852 51.4308 39.499 52.7837 39.499 54.4408V70.74ZM42.509 71.4063C42.1464 71.4063 41.8428 71.1026 41.8428 70.74V54.4408C41.8428 54.0781 42.1464 53.7745 42.509 53.7745H63.7107C64.0734 53.7745 64.377 54.0781 64.377 54.4408V70.74C64.377 71.1026 64.0734 71.4063 63.7107 71.4063H42.509Z" fill="#111928"/>
<path fill-rule="evenodd" clip-rule="evenodd" d="M3.26562 40.312C3.26562 44.219 6.4565 47.4102 10.3636 47.4102C12.8335 47.4102 15.0174 46.1348 16.2897 44.2094C17.5619 46.1348 19.7457 47.4102 22.2156 47.4102C24.6882 47.4102 26.8733 46.1348 28.146 44.2093C29.4183 46.1347 31.6021 47.4102 34.0722 47.4102C36.5421 47.4102 38.7259 46.1348 39.9981 44.2094C41.2704 46.1348 43.4542 47.4102 45.9242 47.4102C48.3968 47.4102 50.5819 46.1348 51.8546 44.2093C53.1268 46.1347 55.3106 47.4102 57.7806 47.4102C60.2507 47.4102 62.4346 46.1347 63.7068 44.2092C64.9796 46.1348 67.1647 47.4102 69.6372 47.4102C73.5443 47.4102 76.7352 44.219 76.7352 40.312V36.4322C76.7352 35.785 76.2105 35.2603 75.5633 35.2603H4.4375C3.79029 35.2603 3.26562 35.785 3.26562 36.4322V40.312ZM62.5348 40.312C62.5348 42.9247 60.3932 45.0664 57.7806 45.0664C55.1682 45.0664 53.0266 42.9247 53.0266 40.312C53.0266 39.6648 52.5019 39.1402 51.8547 39.1402C51.2075 39.1402 50.6828 39.6648 50.6828 40.312C50.6828 42.9241 48.5418 45.0664 45.9242 45.0664C43.3116 45.0664 41.17 42.9247 41.17 40.312C41.17 39.6648 40.6453 39.1402 39.9981 39.1402C39.3509 39.1402 38.8263 39.6648 38.8263 40.312C38.8263 42.9247 36.6846 45.0664 34.0722 45.0664C31.4596 45.0664 29.318 42.9247 29.318 40.312C29.318 39.6648 28.7933 39.1402 28.1461 39.1402C27.4989 39.1402 26.9742 39.6648 26.9742 40.312C26.9742 42.9241 24.8332 45.0664 22.2156 45.0664C19.6032 45.0664 17.4616 42.9247 17.4616 40.312C17.4616 39.6648 16.9369 39.1402 16.2897 39.1402C15.6425 39.1402 15.1178 39.6648 15.1178 40.312C15.1178 42.9247 12.9761 45.0664 10.3636 45.0664C7.751 45.0664 5.60937 42.9247 5.60937 40.312V37.6041H74.3914V40.312C74.3914 42.9247 72.2498 45.0664 69.6372 45.0664C67.0198 45.0664 64.8786 42.9241 64.8786 40.312C64.8786 39.6648 64.3539 39.1402 63.7067 39.1402C63.0595 39.1402 62.5348 39.6648 62.5348 40.312Z" fill="#111928"/>
<path fill-rule="evenodd" clip-rule="evenodd" d="M7.02539 76.9013C7.02539 78.6071 8.41812 80 10.124 80H69.8715C71.5837 80 72.9701 78.6054 72.9701 76.9013V64.5086C72.9701 63.8614 72.4454 63.3367 71.7982 63.3367C71.151 63.3367 70.6263 63.8614 70.6263 64.5086V76.9013C70.6263 77.3146 70.2855 77.6563 69.8715 77.6563H10.124C9.71266 77.6563 9.36914 77.3129 9.36914 76.9013V45.8266C9.36914 45.1794 8.84447 44.6547 8.19727 44.6547C7.55006 44.6547 7.02539 45.1794 7.02539 45.8266V76.9013ZM71.7982 60.2725C72.4454 60.2725 72.9701 59.7478 72.9701 59.1006V45.8266C72.9701 45.1794 72.4454 44.6547 71.7982 44.6547C71.151 44.6547 70.6263 45.1794 70.6263 45.8266V59.1006C70.6263 59.7478 71.151 60.2725 71.7982 60.2725Z" fill="#111928"/>
<path fill-rule="evenodd" clip-rule="evenodd" d="M3.4039 36.9848C3.6077 37.3663 4.00502 37.6045 4.4375 37.6045H75.5633C75.9958 37.6045 76.3932 37.3662 76.5969 36.9847C76.8007 36.6032 76.7778 36.1405 76.5373 35.781L67.8962 22.8657C67.6787 22.5406 67.3133 22.3454 66.9222 22.3454H13.0741C12.6828 22.3454 12.3174 22.5407 12.0999 22.8659L3.46336 35.7812C3.22296 36.1407 3.2001 36.6034 3.4039 36.9848ZM6.63089 35.2607L13.7002 24.6892H66.2963L73.3692 35.2607H6.63089Z" fill="#111928"/>
<path fill-rule="evenodd" clip-rule="evenodd" d="M16.29 41.4844C16.9372 41.4844 17.4619 40.9597 17.4619 40.3125V36.4327C17.4619 35.7854 16.9372 35.2608 16.29 35.2608C15.6428 35.2608 15.1182 35.7854 15.1182 36.4327V40.3125C15.1182 40.9597 15.6428 41.4844 16.29 41.4844Z" fill="#111928"/>
<path fill-rule="evenodd" clip-rule="evenodd" d="M28.1465 41.4844C28.7937 41.4844 29.3184 40.9597 29.3184 40.3125V36.4327C29.3184 35.7854 28.7937 35.2608 28.1465 35.2608C27.4993 35.2608 26.9746 35.7854 26.9746 36.4327V40.3125C26.9746 40.9597 27.4993 41.4844 28.1465 41.4844Z" fill="#111928"/>
<path fill-rule="evenodd" clip-rule="evenodd" d="M39.998 41.4844C40.6453 41.4844 41.1699 40.9597 41.1699 40.3125V36.4327C41.1699 35.7854 40.6453 35.2608 39.998 35.2608C39.3508 35.2608 38.8262 35.7854 38.8262 36.4327V40.3125C38.8262 40.9597 39.3508 41.4844 39.998 41.4844Z" fill="#111928"/>
<path fill-rule="evenodd" clip-rule="evenodd" d="M51.8545 41.4844C52.5017 41.4844 53.0264 40.9597 53.0264 40.3125V36.4327C53.0264 35.7854 52.5017 35.2608 51.8545 35.2608C51.2073 35.2608 50.6826 35.7854 50.6826 36.4327V40.3125C50.6826 40.9597 51.2073 41.4844 51.8545 41.4844Z" fill="#111928"/>
<path fill-rule="evenodd" clip-rule="evenodd" d="M63.707 41.4844C64.3542 41.4844 64.8789 40.9597 64.8789 40.3125V36.4327C64.8789 35.7854 64.3542 35.2608 63.707 35.2608C63.0598 35.2608 62.5352 35.7854 62.5352 36.4327V40.3125C62.5352 40.9597 63.0598 41.4844 63.707 41.4844Z" fill="#111928"/>
<path fill-rule="evenodd" clip-rule="evenodd" d="M39.998 37.6045C40.6453 37.6045 41.1699 37.0798 41.1699 36.4326V23.5173C41.1699 22.8701 40.6453 22.3454 39.998 22.3454C39.3508 22.3454 38.8262 22.8701 38.8262 23.5173V36.4326C38.8262 37.0798 39.3508 37.6045 39.998 37.6045Z" fill="#111928"/>
<path fill-rule="evenodd" clip-rule="evenodd" d="M15.7261 37.4601C16.2937 37.7711 17.0059 37.5631 17.317 36.9956L24.3946 24.0803C24.7056 23.5127 24.4977 22.8004 23.9301 22.4894C23.3625 22.1784 22.6503 22.3863 22.3393 22.9539L15.2616 35.8692C14.9506 36.4368 15.1585 37.149 15.7261 37.4601Z" fill="#111928"/>
<path fill-rule="evenodd" clip-rule="evenodd" d="M27.803 37.5529C28.4219 37.7422 29.0771 37.394 29.2664 36.7751L33.2171 23.8598C33.4064 23.2409 33.0581 22.5857 32.4392 22.3964C31.8203 22.2071 31.1651 22.5553 30.9758 23.1742L27.0252 36.0895C26.8359 36.7084 27.1841 37.3636 27.803 37.5529Z" fill="#111928"/>
<path fill-rule="evenodd" clip-rule="evenodd" d="M64.2702 37.4602C64.8378 37.1493 65.046 36.4371 64.7351 35.8695L57.6618 22.9542C57.351 22.3865 56.6388 22.1784 56.0711 22.4893C55.5034 22.8001 55.2953 23.5123 55.6062 24.08L62.6795 36.9953C62.9903 37.563 63.7025 37.7711 64.2702 37.4602Z" fill="#111928"/>
<path fill-rule="evenodd" clip-rule="evenodd" d="M52.197 37.5529C52.8159 37.3636 53.1642 36.7084 52.9749 36.0895L49.0243 23.1742C48.8349 22.5553 48.1797 22.2071 47.5608 22.3964C46.9419 22.5857 46.5937 23.2409 46.783 23.8598L50.7336 36.7751C50.9229 37.394 51.5781 37.7422 52.197 37.5529Z" fill="#111928"/>
<path fill-rule="evenodd" clip-rule="evenodd" d="M40.6788 13.8618L38.536 6.5939C38.5323 6.58106 38.5282 6.56828 38.524 6.55558C38.0482 5.12432 36.0669 5.35688 35.7935 6.72697C35.7921 6.73398 35.7908 6.74101 35.7895 6.74805L33.9114 17.1521C33.7964 17.789 34.2196 18.3986 34.8565 18.5135C35.4934 18.6285 36.1029 18.2054 36.2179 17.5685L37.399 11.0253L39.3397 17.6076C39.3442 17.6231 39.3491 17.6384 39.3543 17.6536C39.7786 18.9011 41.6117 18.9745 42.0406 17.6331C42.0443 17.6212 42.0479 17.6093 42.0513 17.5974L43.9242 11.0251L45.1767 17.5802C45.2982 18.2159 45.912 18.6328 46.5477 18.5113C47.1834 18.3899 47.6003 17.7761 47.4788 17.1404L45.4901 6.73192C45.4895 6.72881 45.4889 6.7257 45.4883 6.7226C45.201 5.28272 43.1994 5.19141 42.7581 6.56743C42.7542 6.5796 42.7505 6.59184 42.747 6.60413L40.6788 13.8618Z" fill="#111928"/>
<path fill-rule="evenodd" clip-rule="evenodd" d="M50.3154 17.3916C50.3154 18.0388 50.8401 18.5635 51.4873 18.5635H55.9517C56.5989 18.5635 57.1236 18.0388 57.1236 17.3916C57.1236 16.7444 56.5989 16.2197 55.9517 16.2197H52.6592V7.97785H55.9517C56.5989 7.97785 57.1236 7.45319 57.1236 6.80598C57.1236 6.15877 56.5989 5.6341 55.9517 5.6341H51.4873C50.8401 5.6341 50.3154 6.15877 50.3154 6.80598V17.3916Z" fill="#111928"/>
<path fill-rule="evenodd" clip-rule="evenodd" d="M50.3154 12.0986C50.3154 12.7458 50.8401 13.2705 51.4873 13.2705H55.6195C56.2667 13.2705 56.7914 12.7458 56.7914 12.0986C56.7914 11.4514 56.2667 10.9268 55.6195 10.9268H51.4873C50.8401 10.9268 50.3154 11.4514 50.3154 12.0986Z" fill="#111928"/>
<path fill-rule="evenodd" clip-rule="evenodd" d="M23.1811 16.6457C24.203 17.7743 25.8443 18.6123 27.77 18.6123C29.8077 18.6123 31.5336 17.38 32.0248 15.6822C32.2761 14.8136 32.1841 13.8588 31.6583 13.0036C31.141 12.1622 30.2649 11.5117 29.1062 11.0837L29.1054 11.0834C28.3087 10.7897 27.5476 10.4819 26.9841 10.2467C26.7029 10.1293 26.4722 10.0306 26.3123 9.96141C26.2562 9.93713 26.2089 9.91652 26.1712 9.90005C25.6683 9.49699 25.5907 8.40982 26.7928 8.04763C27.5783 7.81092 28.3327 7.96216 28.9429 8.21655C29.2442 8.34213 29.4909 8.48537 29.6599 8.59571C29.7436 8.65039 29.8062 8.69562 29.8445 8.72444C29.8636 8.73881 29.8765 8.74896 29.8829 8.75401C29.8847 8.75548 29.886 8.75652 29.8867 8.75709C30.382 9.16877 31.1176 9.10352 31.5326 8.60985C31.9491 8.11446 31.8851 7.37523 31.3897 6.95874L30.6356 7.85574C31.3897 6.95874 31.3894 6.95845 31.389 6.95814L31.3882 6.9575L31.3866 6.95612L31.3827 6.95289C31.3799 6.95054 31.3765 6.9478 31.3727 6.94469C31.3651 6.93846 31.3556 6.93072 31.3442 6.9216C31.3213 6.90336 31.2908 6.87954 31.253 6.85116C31.1777 6.79448 31.0727 6.71909 30.9413 6.63328C30.68 6.46264 30.3059 6.24547 29.8448 6.05325C28.9304 5.67206 27.5943 5.35823 26.1165 5.80355C23.2195 6.67651 22.5029 10.3108 24.9511 11.9068C25.0033 11.9408 25.0581 11.9707 25.1151 11.996L25.5911 10.9251C25.1151 11.996 25.115 11.996 25.1151 11.996L25.1153 11.9961L25.1345 12.0046C25.1465 12.0099 25.164 12.0176 25.1866 12.0275C25.2319 12.0474 25.2978 12.0762 25.3817 12.1125C25.5494 12.1851 25.7895 12.2878 26.0813 12.4096C26.6636 12.6526 27.457 12.9737 28.2945 13.2824C29.102 13.5807 29.4891 13.9505 29.6617 14.2311C29.8257 14.4979 29.8499 14.7666 29.7734 15.0308C29.6092 15.5985 28.9035 16.2686 27.77 16.2686C26.5247 16.2686 25.5085 15.7243 24.9185 15.0727C24.4841 14.5929 23.7431 14.5561 23.2633 14.9905C22.7835 15.4248 22.7467 16.1659 23.1811 16.6457ZM29.8822 8.7533C29.8827 8.75372 29.8832 8.75414 29.8837 8.75456C29.8838 8.75465 29.8839 8.75475 29.884 8.75484L29.8837 8.75456L29.8828 8.75383L29.8822 8.7533Z" fill="#111928"/>
<path fill-rule="evenodd" clip-rule="evenodd" d="M16.3447 23.5166C16.3447 24.1638 16.8694 24.6885 17.5166 24.6885H62.48C63.1272 24.6885 63.6519 24.1638 63.6519 23.5166V6.79645C63.6519 3.05334 60.5984 -0.000429511 56.8552 -0.000429511H42.7975C42.1503 -0.000429511 41.6257 0.524237 41.6257 1.17145C41.6257 1.81866 42.1503 2.34332 42.7975 2.34332H56.8552C59.3039 2.34332 61.3082 4.34767 61.3082 6.79645V22.3447H18.6885V6.79645C18.6885 4.34829 20.6967 2.34332 23.1414 2.34332H37.3852C38.0324 2.34332 38.5571 1.81866 38.5571 1.17145C38.5571 0.524237 38.0324 -0.000429511 37.3852 -0.000429511H23.1414C19.4034 -0.000429511 16.3447 3.05273 16.3447 6.79645V23.5166Z" fill="#111928"/>
<path fill-rule="evenodd" clip-rule="evenodd" d="M13.2754 78.8281C13.2754 79.4753 13.8001 80 14.4473 80H32.097C32.7442 80 33.2688 79.4753 33.2688 78.8281V53.4048C33.2688 52.3105 32.3769 51.4313 31.2952 51.4313H15.249C14.1673 51.4313 13.2754 52.3105 13.2754 53.4048V78.8281ZM15.6191 77.6563V53.775H30.9251V77.6563H15.6191Z" fill="#111928"/>
<path fill-rule="evenodd" clip-rule="evenodd" d="M20.1387 68.9805C20.7859 68.9805 21.3105 68.4558 21.3105 67.8086V63.6187C21.3105 62.9715 20.7859 62.4469 20.1387 62.4469C19.4915 62.4469 18.9668 62.9715 18.9668 63.6187V67.8086C18.9668 68.4558 19.4915 68.9805 20.1387 68.9805Z" fill="#111928"/>
<path fill-rule="evenodd" clip-rule="evenodd" d="M39.499 66.8867C39.499 67.5339 40.0237 68.0586 40.6709 68.0586H65.5489C66.1961 68.0586 66.7207 67.5339 66.7207 66.8867C66.7207 66.2395 66.1961 65.7148 65.5489 65.7148H40.6709C40.0237 65.7148 39.499 66.2395 39.499 66.8867Z" fill="#111928"/>
</g>
</svg>
