<svg width="30" height="30" viewBox="0 0 30 30" fill="none" xmlns="http://www.w3.org/2000/svg">
<g clip-path="url(#clip0_5668_8523)">
<path d="M10.0534 7.61544H19.9473C20.2142 7.61544 20.4398 7.42794 20.4727 7.17744L21.2253 1.49987C21.2533 1.28937 21.1368 1.08487 20.9356 0.989868C20.7332 0.895367 20.4912 0.930867 20.3302 1.07937L17.5449 3.6414L15.4105 1.12537C15.3099 1.00687 15.1579 0.937867 14.9969 0.937867C14.8359 0.937867 14.6839 1.00737 14.5832 1.12587L12.4552 3.6409L9.67045 1.07937C9.50944 0.931367 9.26688 0.895367 9.06509 0.989868C8.86383 1.08437 8.74731 1.28887 8.77538 1.49987L9.52798 7.17744C9.56082 7.42744 9.78644 7.61544 10.0534 7.61544ZM12.1348 4.74241C12.2418 4.84091 12.3874 4.89441 12.5373 4.88341C12.6867 4.87441 12.8249 4.80691 12.9181 4.69641L14.9974 2.23838L17.0831 4.69691C17.1768 4.80691 17.315 4.87491 17.4639 4.88341C17.6106 4.89391 17.7594 4.84091 17.8659 4.74241L19.9865 2.79189L19.4796 6.61543H10.5205L10.0131 2.79189L12.1337 4.74241H12.1348Z" fill="#111928"/>
<path d="M14.8564 30.9188C14.9025 30.9308 14.9497 30.9368 14.9968 30.9368C15.0439 30.9368 15.0911 30.9308 15.1366 30.9188C26.228 28.0487 26.0029 17.1926 25.9992 17.0986V9.29102C25.9992 9.01502 25.7619 8.79102 25.4696 8.79102H4.53035C4.238 8.79102 4.00073 9.01502 4.00073 9.29102V17.0831C3.99755 17.1926 3.77193 28.0487 14.8564 30.9188ZM5.05998 17.0986V9.79103H24.94V17.1141C24.9437 17.2151 25.1497 27.1982 14.9968 29.9178C4.86878 27.2062 5.04727 17.5261 5.05998 17.0986Z" fill="#111928"/>
<path d="M14.8296 28.9082C14.8841 28.9252 14.9403 28.9337 14.9969 28.9337H14.999H15.0006C15.0054 28.9337 15.0096 28.9312 15.0144 28.9312C15.0653 28.9297 15.1161 28.9237 15.1648 28.9082C15.1775 28.9042 15.1887 28.8997 15.2014 28.8957C15.2045 28.8947 15.2072 28.8937 15.2104 28.8927C24.0413 26.0882 23.9539 17.3391 23.946 16.9776L23.9449 11.1856C23.9449 10.9095 23.7077 10.6855 23.4153 10.6855H6.58597C6.29361 10.6855 6.05634 10.9095 6.05634 11.1856V16.9536C6.04734 17.3266 5.95253 26.1182 14.8296 28.9082ZM7.11506 16.9641V11.6851H22.8846L22.8857 16.9876C22.8931 17.3201 22.9657 24.9247 15.5297 27.7137V18.0826C15.5297 17.8066 15.2925 17.5826 15.0001 17.5826C14.7078 17.5826 14.4705 17.8066 14.4705 18.0826V27.7157C7.02926 24.9267 7.10711 17.3071 7.11506 16.9641Z" fill="#111928"/>
<path d="M14.9998 16.1298C15.2922 16.1298 15.5295 15.9058 15.5295 15.6298V14.7363C15.5295 14.4603 15.2922 14.2363 14.9998 14.2363C14.7075 14.2363 14.4702 14.4603 14.4702 14.7363V15.6298C14.4702 15.9058 14.7075 16.1298 14.9998 16.1298Z" fill="#111928"/>
</g>
<defs>
<clipPath id="clip0_5668_8523">
<rect width="30" height="30" fill="white"/>
</clipPath>
</defs>
</svg>
