<svg width="36" height="36" viewBox="0 0 36 36" fill="none" xmlns="http://www.w3.org/2000/svg">
<g clip-path="url(#clip0_4800_8120)">
<path d="M28.9707 2.62273C29.262 2.62273 29.498 2.38669 29.498 2.09538V0.527344C29.498 0.236039 29.262 0 28.9707 0C28.6794 0 28.4434 0.236039 28.4434 0.527344V2.09531C28.4433 2.38662 28.6794 2.62273 28.9707 2.62273Z" fill="#4B5563"/>
<path d="M23.521 3.86285C23.6239 3.96586 23.7589 4.01733 23.8939 4.01733C24.0289 4.01733 24.1638 3.96586 24.2668 3.86292C24.4727 3.65705 24.4728 3.32313 24.2669 3.11712L23.1581 2.00801C22.9522 1.80206 22.6183 1.80199 22.4123 2.00794C22.2064 2.21381 22.2063 2.54773 22.4122 2.75374L23.521 3.86285Z" fill="#4B5563"/>
<path d="M35.5295 2.00804C35.3234 1.80189 34.9895 1.8021 34.7837 2.00812L33.6749 3.11722C33.469 3.32324 33.4691 3.65715 33.675 3.86303C33.778 3.96604 33.9129 4.01744 34.0479 4.01744C34.1829 4.01744 34.3179 3.96597 34.4208 3.86296L35.5296 2.75385C35.7354 2.54783 35.7354 2.21392 35.5295 2.00804Z" fill="#4B5563"/>
<path d="M21.8793 20.7842H8.82373C8.53243 20.7842 8.29639 21.0203 8.29639 21.3115C8.29639 21.6028 8.53243 21.8389 8.82373 21.8389H21.8793C22.1706 21.8389 22.4066 21.6028 22.4066 21.3115C22.4066 21.0202 22.1706 20.7842 21.8793 20.7842Z" fill="#4B5563"/>
<path d="M18.5712 17.2031H8.82373C8.53243 17.2031 8.29639 17.4392 8.29639 17.7305C8.29639 18.0218 8.53243 18.2578 8.82373 18.2578H18.5712C18.8625 18.2578 19.0986 18.0218 19.0986 17.7305C19.0986 17.4392 18.8625 17.2031 18.5712 17.2031Z" fill="#4B5563"/>
<path d="M21.8793 24.3633H8.82373C8.53243 24.3633 8.29639 24.5993 8.29639 24.8906C8.29639 25.1819 8.53243 25.418 8.82373 25.418H21.8793C22.1706 25.418 22.4066 25.1819 22.4066 24.8906C22.4066 24.5993 22.1706 24.3633 21.8793 24.3633Z" fill="#4B5563"/>
<path d="M29.2191 4.32818C28.9273 4.32396 28.6869 4.55318 28.6812 4.84428C28.6749 5.13537 28.9062 5.37654 29.1973 5.38217C31.7744 5.43631 34.3759 7.04928 34.3794 10.5319C34.3815 12.3889 33.5385 13.4057 32.6455 14.4829C31.8876 15.3976 31.1063 16.3412 30.8514 17.7775H29.4941V14.5634C30.4161 14.328 31.0999 13.4903 31.0999 12.4959C31.0999 11.3194 30.1429 10.3623 28.9667 10.3623C27.7905 10.3623 26.8336 11.3195 26.8336 12.4959C26.8336 13.4903 27.5174 14.328 28.4393 14.5634V17.7776H27.0823C26.8284 16.3406 26.0471 15.3976 25.2892 14.4822C24.4982 13.5281 23.7459 12.6203 23.5877 11.1325C23.5666 10.9419 23.556 10.7422 23.556 10.532C23.556 10.3267 23.5659 10.1263 23.5841 9.93012C23.7789 7.88262 24.9707 6.35677 26.9205 5.69513C27.1962 5.60161 27.3438 5.30208 27.2503 5.02575C27.1568 4.75013 26.858 4.60247 26.5816 4.69599C24.3646 5.44833 22.9218 7.19215 22.5801 9.46395C21.0993 8.85575 19.5024 8.53653 17.8592 8.53653H16.5852C16.2941 8.53653 16.0578 8.77278 16.0578 9.06387C16.0578 9.35567 16.2941 9.59122 16.5852 9.59122H17.8592C19.5109 9.59122 21.0817 9.94348 22.5013 10.577C22.5133 12.7856 23.556 14.0442 24.4765 15.1551C25.1476 15.9653 25.7858 16.7363 26.019 17.8377C25.6564 17.9723 25.3968 18.3207 25.3968 18.7296V20.3982C25.3968 20.9232 25.8238 21.3503 26.3487 21.3503H26.5036V22.1415C26.5036 23.1589 27.3312 23.9873 28.3487 23.9873H29.0328C27.9127 29.1272 23.3283 32.9881 17.8592 32.9881H10.3638C10.0889 32.9881 10.0059 33.0078 9.74292 33.1428L5.64575 34.8008L5.61481 30.776C5.64293 30.5777 5.57262 30.3921 5.41864 30.262C2.84583 28.0746 1.37068 24.8992 1.37068 21.5495V21.0306C1.37068 14.7227 6.50004 9.59122 12.8044 9.59122H14.2613C14.5524 9.59122 14.7887 9.35567 14.7887 9.06387C14.7887 8.77278 14.5524 8.53653 14.2613 8.53653H12.8044C9.48207 8.53653 6.34957 9.84012 3.98419 12.2069C1.61888 14.5736 0.315918 17.7068 0.315918 21.0306V21.5495C0.315918 25.1327 1.85998 28.5324 4.56146 30.9146L4.5938 35.1862C4.57903 35.5616 4.74075 35.7634 4.88068 35.8668C4.97419 35.9357 5.112 36.0004 5.30185 36.0004C5.40802 36.0004 5.53036 35.98 5.66958 35.9287C5.6745 35.9273 5.68013 35.9252 5.68575 35.923L10.1605 34.111C10.1753 34.1054 10.1893 34.0991 10.2034 34.0913L10.2252 34.0808C10.2512 34.0674 10.2786 34.0527 10.299 34.0428H17.8592C21.1823 34.0428 24.3155 32.7399 26.6808 30.3738C28.4773 28.5766 29.6607 26.3364 30.1262 23.9064C30.8799 23.6743 31.4298 22.9705 31.4298 22.1415V21.3503H31.5846C32.1095 21.3503 32.5365 20.9232 32.5365 20.3982V18.7296C32.5365 18.3208 32.2772 17.9724 31.9147 17.8377C32.1484 16.7362 32.7865 15.9658 33.4576 15.1557C34.385 14.0371 35.4362 12.7686 35.4341 10.5305C35.43 6.35817 32.2096 4.39076 29.2191 4.32818ZM27.8883 12.4959C27.8883 11.901 28.3721 11.417 28.9667 11.417C29.5613 11.417 30.0452 11.901 30.0452 12.4959C30.0452 13.0908 29.5613 13.5748 28.9667 13.5748C28.3721 13.5748 27.8883 13.0909 27.8883 12.4959ZM30.3751 22.1415C30.3751 22.2463 30.3548 22.3468 30.3175 22.4382C30.2001 22.7279 29.916 22.9325 29.5848 22.9325H28.3487C27.9128 22.9325 27.5584 22.5774 27.5584 22.1415V21.3505L30.3492 21.3504V21.3505H30.3752V22.1415H30.3751ZM31.4819 20.2956H26.4516V18.8322H31.4819V20.2956Z" fill="#4B5563"/>
</g>
<defs>
<clipPath id="clip0_4800_8120">
<rect width="36" height="36" fill="white"/>
</clipPath>
</defs>
</svg>
