<svg width="30" height="30" viewBox="0 0 30 30" fill="none" xmlns="http://www.w3.org/2000/svg">
<g clip-path="url(#clip0_5734_8982)">
<path d="M25.1879 5.39822C25.0338 5.39822 24.8827 5.33554 24.7737 5.22658C24.6647 5.11761 24.6021 4.96647 24.6021 4.81239C24.6021 4.65832 24.6647 4.50718 24.7737 4.39821C24.8827 4.28931 25.0338 4.22656 25.1879 4.22656C25.342 4.22656 25.4931 4.28925 25.6021 4.39821C25.711 4.50718 25.7737 4.65832 25.7737 4.81239C25.7737 4.96705 25.711 5.11761 25.6021 5.22658C25.4931 5.33554 25.342 5.39822 25.1879 5.39822Z" fill="#111928"/>
<path d="M14.9996 29.9999C11.889 30 8.84922 29.0359 6.31643 27.2347L2.4455 28.272C2.24327 28.3261 2.02762 28.2683 1.87958 28.1203C1.7316 27.9724 1.67378 27.7566 1.72797 27.5545L2.76518 23.6835C0.761759 20.8663 -0.206034 17.4213 0.0366762 13.95C0.288642 10.3472 1.83547 6.95496 4.39227 4.3981C9.51033 -0.719892 17.5441 -1.45845 23.4948 2.64208C23.7611 2.82568 23.8283 3.19041 23.6447 3.45685C23.4612 3.7234 23.0963 3.79048 22.8299 3.60688C17.3448 -0.172901 9.93915 0.508303 5.22087 5.22659C0.416353 10.0311 -0.162624 17.7652 3.87416 23.2168C3.98043 23.3603 4.01547 23.5446 3.96924 23.7171L3.12237 26.8776L6.28287 26.0307C6.45533 25.9846 6.63958 26.0196 6.78311 26.1258C12.2349 30.1626 19.969 29.5836 24.7734 24.7791C29.4918 20.0608 30.1729 12.6549 26.3929 7.16973C26.2093 6.90329 26.2765 6.5385 26.5429 6.3549C26.8093 6.17136 27.1741 6.23849 27.3577 6.50487C31.4585 12.4556 30.7201 20.4895 25.6019 25.6077C23.0451 28.1645 19.6529 29.7113 16.0501 29.9633C15.6996 29.9877 15.3489 29.9999 14.9996 29.9999Z" fill="#111928"/>
<path d="M14.9005 19.5947C13.8799 19.5947 13.0535 18.7684 13.0535 17.7527C13.0535 15.8207 14.1354 14.076 15.8771 13.1995C16.6467 12.8122 17.1184 12.0044 17.0788 11.1417C17.031 10.1033 16.0419 9.11419 15.0035 9.06638C14.3993 9.03897 13.826 9.25203 13.3906 9.66791C13.1309 9.91596 12.9421 10.2103 12.8295 10.5428C12.5737 11.2979 11.8758 11.8105 11.0928 11.8182V11.8183C11.0867 11.8183 11.0805 11.8183 11.0744 11.8183C10.4862 11.8183 9.92883 11.536 9.5802 11.0604C9.22741 10.5792 9.13069 9.97975 9.31482 9.41571C9.6116 8.50656 10.14 7.67134 10.8427 7.00016C12.0138 5.88169 13.5511 5.30716 15.173 5.38139C16.5942 5.44671 17.9603 6.06611 19.0197 7.12547C20.0791 8.18482 20.6984 9.55092 20.7638 10.9723C20.8703 13.2864 19.6031 15.4541 17.5354 16.4948C17.0463 16.7409 16.7424 17.223 16.7424 17.7527C16.7425 18.7684 15.9162 19.5947 14.9005 19.5947ZM14.8964 7.89226C14.95 7.89226 15.0036 7.89349 15.0575 7.89601C16.7114 7.97205 18.1731 9.43376 18.2492 11.0879C18.3101 12.4116 17.5857 13.6513 16.4038 14.2461C15.0599 14.9224 14.2252 16.266 14.2252 17.7526C14.2252 18.1223 14.5259 18.423 14.8956 18.423C15.2701 18.423 15.5708 18.1222 15.5708 17.7526C15.5708 16.7774 16.1218 15.8944 17.0087 15.4481C18.6641 14.6149 19.6786 12.8791 19.5934 11.026C19.5415 9.89721 19.0435 8.80616 18.1912 7.95395C17.3389 7.10168 16.2479 6.60373 15.1192 6.55176C13.8208 6.49283 12.5893 6.95218 11.6519 7.84744C11.0806 8.39309 10.669 9.04307 10.4287 9.77934C10.3631 9.98016 10.3983 10.1946 10.5251 10.3676C10.6553 10.5452 10.855 10.6467 11.074 10.6467C11.0764 10.6467 11.0783 10.6454 11.0812 10.6466C11.3669 10.6438 11.6235 10.451 11.7197 10.1669C11.8911 9.66077 12.1891 9.19527 12.5812 8.82069C13.2117 8.21857 14.0286 7.89226 14.8964 7.89226Z" fill="#111928"/>
<path d="M14.898 24.6284C13.8809 24.6284 13.0535 23.8009 13.0535 22.7839C13.0535 21.7669 13.8809 20.9395 14.898 20.9395C15.915 20.9395 16.7424 21.7669 16.7424 22.7839C16.7424 23.8009 15.915 24.6284 14.898 24.6284ZM14.898 22.1111C14.5269 22.1111 14.2251 22.4129 14.2251 22.7839C14.2251 23.1549 14.5269 23.4567 14.898 23.4567C15.269 23.4567 15.5708 23.1549 15.5708 22.7839C15.5708 22.4129 15.269 22.1111 14.898 22.1111Z" fill="#111928"/>
</g>
<defs>
<clipPath id="clip0_5734_8982">
<rect width="30" height="30" fill="white"/>
</clipPath>
</defs>
</svg>
