<svg width="510" height="510" viewBox="0 0 510 510" fill="none" xmlns="http://www.w3.org/2000/svg">
<path fill-rule="evenodd" clip-rule="evenodd" d="M127.529 449.381L133.923 460.679C133.926 460.685 133.93 460.692 133.934 460.698C139.281 470.209 135.89 482.344 126.434 487.685L103.922 500.444C103.914 500.449 103.906 500.454 103.898 500.458C94.3869 505.805 82.2518 502.414 76.9078 492.954L10.7078 375.979C5.31285 366.46 8.70385 354.313 18.1708 348.966L40.7098 336.206L40.7168 336.202C50.1798 330.857 62.3198 334.217 67.7088 343.68L67.7198 343.699L72.9109 352.872L131.845 318.751C149.574 308.497 167.69 301.808 187.162 308.131C206.115 314.277 237.056 327.524 268.633 333.23C268.986 333.294 269.334 333.381 269.675 333.491C285.623 338.655 295.319 354.779 290.964 370.973C290.296 373.461 289.412 375.773 288.324 377.893C291.751 376.917 295.105 375.489 298.402 373.567L378.673 326.817C407.683 309.916 427.022 311.743 437.969 319.088C447.39 325.408 451.754 336.198 451.473 346.791C451.188 357.493 446.09 367.716 437.698 372.884L292.042 462.563C276.714 472.023 259.925 474.243 242.532 469.603L242.523 469.601L140.066 442.142L127.529 449.381ZM119.99 468.544L53.8028 351.594L53.7978 351.585C52.7508 349.763 50.4128 349.102 48.5858 350.133L26.0538 362.889L26.0468 362.893C24.2258 363.922 23.5908 366.26 24.6268 368.089L24.6298 368.094L90.8328 485.073L90.8368 485.079C91.8678 486.906 94.2139 487.543 96.0499 486.515L118.545 473.765L118.555 473.759C120.382 472.727 121.019 470.381 119.99 468.544ZM119.648 435.456L134.935 426.629C136.773 425.568 138.957 425.28 141.006 425.829L246.658 454.144C259.646 457.609 272.193 456.012 283.639 448.947L283.646 448.943L429.308 359.261C433.072 356.942 435.023 352.278 435.416 347.505C436.024 340.143 432.576 332.009 423.469 330.101C414.971 328.321 403.011 331.155 386.727 340.642L306.458 387.391C293.581 394.895 280.085 396.97 265.378 394.629C265.369 394.627 255.058 392.942 255.054 392.942C236.938 389.223 220.137 383.75 201.494 378.74C197.23 377.594 194.698 373.202 195.844 368.938C196.99 364.674 201.382 362.142 205.646 363.288C223.855 368.182 240.269 373.548 257.946 377.201C266.898 378.193 273.454 374.49 275.512 366.822L275.513 366.818C277.599 359.062 272.739 351.541 265.205 348.869C233.031 342.963 201.539 329.613 182.224 323.35L182.221 323.349C167.23 318.481 153.505 324.707 139.856 332.601L80.7918 366.797L119.648 435.456ZM45.3758 363.886C50.4858 363.126 55.2298 366.654 55.9898 371.763C56.7198 376.873 53.1918 381.648 48.0828 382.378C42.9738 383.138 38.2288 379.58 37.4688 374.47C36.7388 369.361 40.2668 364.616 45.3758 363.886ZM218.788 161.544C219.749 163.167 220.114 165.092 219.789 166.979C214.502 197.67 187.791 221.018 155.603 221.018C123.417 221.018 96.6618 197.668 91.3758 166.979C91.0508 165.092 91.4158 163.165 92.3778 161.542L148.721 66.502C150.162 64.071 152.778 62.581 155.604 62.581C156.335 62.581 157.052 62.681 157.738 62.871C186.897 70.946 198.125 66.644 210.205 62.068C218.332 58.988 226.79 55.897 239.572 55.368C244.08 27.947 267.915 7 296.604 7C325.293 7 349.129 27.948 353.636 55.37C366.402 55.907 374.853 58.998 382.977 62.075C395.053 66.649 406.285 70.942 435.429 62.871H435.431C436.273 62.637 436.867 62.547 437.288 62.586C437.38 62.583 437.472 62.581 437.565 62.581C440.391 62.582 443.007 64.073 444.447 66.504L500.749 161.544C501.719 163.182 502.069 165.105 501.752 166.968C496.511 197.662 469.755 221.018 437.564 221.018C405.378 221.018 378.623 197.668 373.337 166.979C373.015 165.113 373.365 163.184 374.339 161.542L421.286 82.351C404 85.004 393.548 82.735 384.199 79.559C375.256 76.522 367.522 72.213 354.026 71.419C351.038 97.577 330.557 118.455 304.586 122.049C304.593 151.198 304.6 189.009 304.603 235.485C342.177 238.356 374.11 261.287 389.735 293.576C390.935 296.055 390.775 298.977 389.312 301.311C387.849 303.644 385.288 305.061 382.534 305.061H210.715C207.96 305.061 205.4 303.644 203.937 301.311C202.474 298.977 202.314 296.055 203.514 293.576C219.138 261.289 251.068 238.36 288.603 235.485C288.6 189.007 288.593 151.194 288.586 122.044C262.631 118.436 242.167 97.564 239.181 71.416C225.667 72.201 217.93 76.512 208.985 79.553C199.631 82.733 189.175 85.007 171.873 82.35L218.788 161.544ZM109.736 173.621C116.861 191.995 134.72 205.018 155.603 205.018C176.484 205.018 194.313 191.994 201.431 173.621H109.736ZM197.867 157.621L155.6 86.273L113.303 157.621H197.867ZM338.383 63.533C338.14 55.369 335.551 47.79 331.268 41.448L273.253 99.463C279.922 103.966 287.958 106.597 296.604 106.597C319.673 106.597 338.402 87.868 338.402 64.798C338.402 64.403 338.397 64.01 338.386 63.617C338.385 63.589 338.384 63.561 338.383 63.533ZM319.954 30.134C313.285 25.631 305.249 23 296.604 23C273.959 23 255.496 41.046 254.824 63.529C254.823 63.561 254.822 63.593 254.821 63.624C254.811 64.014 254.805 64.406 254.805 64.798C254.805 73.444 257.436 81.48 261.94 88.149L319.954 30.134ZM479.828 157.621L437.561 86.273L395.264 157.621H479.828ZM483.405 173.621H391.697C398.822 191.995 416.681 205.018 437.564 205.018C458.446 205.018 476.305 191.996 483.405 173.621ZM296.604 251.18C266.729 251.18 240.353 266.182 224.598 289.061H368.65C352.894 266.182 326.512 251.18 296.604 251.18Z" fill="#111928"/>
</svg>
