<svg width="60" height="60" viewBox="0 0 60 60" fill="none" xmlns="http://www.w3.org/2000/svg">
<path d="M44.6621 13.9489L45.7494 12.3671C46.2763 11.5432 45.973 10.9884 45.7671 10.4936L44.7669 8.54688" stroke="#111928" stroke-width="1.75781" stroke-miterlimit="10" stroke-linecap="round" stroke-linejoin="round"/>
<path d="M22.4666 35.209L2.08789 56.6112" stroke="#111928" stroke-width="1.75781" stroke-miterlimit="10" stroke-linecap="round" stroke-linejoin="round"/>
<path d="M41.2137 9.25453C43.9748 9.30727 47.0957 7.69512 44.2074 2.88867L38.268 5.77055C36.9046 6.43195 36.3355 8.07352 36.9969 9.43699L39.3804 14.964L36.8413 15.0604C36.0467 15.0905 35.2958 15.4317 34.7504 16.0104L29.7971 21.2667C28.7498 22.3781 29.1816 24.1985 30.6164 24.7212L39.2891 28.3938C40.3159 28.7679 41.461 28.3252 41.9693 27.3577C42.5846 26.1863 42.0247 24.7411 40.7808 24.2899L35.1582 21.9846L37.0834 19.9637" stroke="#111928" stroke-width="1.75781" stroke-miterlimit="10" stroke-linecap="round" stroke-linejoin="round"/>
<path d="M26.6941 37.9648L12.5664 53.0187" stroke="#111928" stroke-width="1.75781" stroke-miterlimit="10" stroke-linecap="round" stroke-linejoin="round"/>
<path d="M33.5387 31.2864L40.0867 33.8778C42.0867 34.6693 42.447 37.3462 40.7272 38.6382L31.5087 45.5641C30.6126 46.2449 29.3427 46.1178 28.5993 45.2729C27.7765 44.3377 27.9202 42.9009 28.9117 42.1471L35.5865 37.0725L28.2407 34.6377C26.2696 33.7294 25.757 31.1631 27.2278 29.5673L31.1565 25.3047" stroke="#111928" stroke-width="1.75781" stroke-miterlimit="10" stroke-linecap="round" stroke-linejoin="round"/>
<path d="M49.0505 10.4393L54.3849 5.88536C55.2356 5.15915 56.5139 5.26005 57.2401 6.11071C57.9663 6.96138 57.8654 8.23966 57.0147 8.96587L42.2539 21.5672" stroke="#111928" stroke-width="1.75781" stroke-miterlimit="10" stroke-linecap="round" stroke-linejoin="round"/>
<path d="M35.7234 15.3184L7.54915 22.8542C7.54915 22.8542 2.09372 26.7954 7.54915 31.8595L25.4576 22.242" stroke="#111928" stroke-width="1.75781" stroke-miterlimit="10" stroke-linecap="round" stroke-linejoin="round"/>
<path d="M10.2656 30.6016C11.2071 31.5284 12.1549 32.0798 13.0997 32.4423" stroke="#111928" stroke-width="1.75781" stroke-miterlimit="10" stroke-linecap="round" stroke-linejoin="round"/>
<path d="M16.9978 33.2832L10.2656 40.0357" stroke="#111928" stroke-width="1.75781" stroke-miterlimit="10" stroke-linecap="round" stroke-linejoin="round"/>
</svg>
