<svg width="314" height="120" viewBox="0 0 314 120" fill="none" xmlns="http://www.w3.org/2000/svg">
<path d="M144.562 87.8645C144.562 90.9127 145.185 93.0183 146.44 94.1714C147.696 95.3245 149.925 95.906 153.149 95.906V98.2523C143.849 97.9515 137.854 97.8011 135.173 97.8011C132.13 97.8011 125.964 97.9515 116.654 98.2523V95.906C119.788 95.906 121.997 95.3345 123.292 94.1714C124.588 93.0183 125.241 90.9127 125.241 87.8645V24.2447C125.241 20.8255 124.588 18.3289 123.292 16.7647C121.997 15.2005 119.778 14.4184 116.654 14.4184V12.0722C119.516 12.2927 122.288 12.403 124.97 12.403C132.752 12.403 139.28 11.8817 144.552 10.8389V87.8645H144.562Z" fill="white"/>
<path d="M206.274 46.2841C212.089 51.1571 214.991 58.8778 214.991 69.446C214.991 80.0142 212.079 87.7148 206.274 92.5477C200.459 97.3906 192.405 99.8071 182.122 99.8071C171.838 99.8071 163.894 97.3906 158.04 92.5477C152.185 87.7148 149.252 80.0042 149.252 69.446C149.252 58.8878 152.185 51.1571 158.04 46.2841C163.894 41.4111 171.928 38.9746 182.122 38.9746C192.315 38.9746 200.459 41.4111 206.274 46.2841ZM172.933 48.1892C170.653 52.8416 169.508 59.9306 169.508 69.456C169.508 78.9814 170.643 86.0503 172.933 90.6626C175.212 95.2749 178.275 97.5811 182.122 97.5811C185.968 97.5811 189.141 95.295 191.381 90.7128C193.62 86.1406 194.735 79.0516 194.735 69.446C194.735 59.8403 193.59 52.7414 191.311 48.1291C189.031 43.5167 185.968 41.2106 182.122 41.2106C178.275 41.2106 175.212 43.5368 172.933 48.1892Z" fill="white"/>
<path d="M314 40.539V42.775C312.122 43.2262 310.425 44.1486 308.899 45.5624C307.372 46.9762 306.036 49.2422 304.872 52.3706L287.026 98.4737C286.042 98.3935 284.566 98.3634 282.597 98.3634C280.629 98.3634 279.283 98.4035 278.299 98.4737L260.052 57.0631L245.159 98.4737C244.265 98.3935 242.829 98.3634 240.87 98.3634C238.912 98.3634 237.426 98.4035 236.442 98.4737L215.242 49.132C214.167 46.525 212.962 44.8305 211.617 44.0484C210.271 43.2663 208.885 42.8752 207.459 42.8752V40.529C213.274 40.9802 219.62 41.2008 226.51 41.2008C230.979 41.2008 236.793 40.9802 243.954 40.529V42.8752C241.001 42.8752 238.872 43.0658 237.577 43.4367C236.281 43.8077 235.628 44.7001 235.628 46.1139C235.628 47.0765 235.849 48.0892 236.301 49.132L248.372 80.7263L262.994 40.4287L267.955 40.539L272.786 40.4287L290.23 83.0726L298.685 60.6327C299.941 57.1333 300.563 54.3058 300.563 52.15C300.563 46.3445 297.028 43.2162 289.968 42.775V40.539C294.176 40.7596 298.776 40.8699 303.787 40.8699C308.346 40.8699 311.751 40.7596 313.98 40.539H314Z" fill="white"/>
<path d="M57.8951 10.8594C54.2497 10.8594 51.488 12.7344 49.61 16.4744C47.722 20.2144 46.7881 26.5914 46.7881 35.5954C46.7881 44.5995 47.7321 50.9765 49.61 54.7165C51.498 58.4565 54.2597 60.3315 57.8951 60.3315C61.5305 60.3315 64.3023 58.4565 66.1802 54.7165C68.0682 50.9765 69.0122 44.5995 69.0122 35.5954C69.0122 26.5914 68.0682 20.2144 66.1802 16.4744C64.2922 12.7344 61.5305 10.8594 57.8951 10.8594Z" fill="white"/>
<path d="M96.7094 35.5852C96.7094 44.8299 93.1644 51.7885 86.0844 56.461C78.9944 61.1435 69.6046 63.4797 57.9051 63.4797H54.3902L49.2283 62.9182C46.0047 62.5372 43.0221 61.9456 40.2604 61.1435C37.9506 63.1288 36.9965 65.2545 37.3882 67.5205C37.9707 70.9096 40.6118 72.5941 45.3118 72.5941H64.5231C74.8669 72.5941 83.4131 74.3086 90.1718 77.7478C96.9304 81.187 100.917 86.441 102.132 93.5199C102.494 95.6456 102.544 97.6811 102.283 99.6463C109.423 90.161 113.661 78.3695 113.661 65.5854C113.661 48.0084 105.657 32.2965 93.0841 21.8887C95.4943 25.6888 96.7094 30.241 96.7094 35.5752V35.5852Z" fill="white"/>
<path d="M57.3328 120C65.1861 120 71.3924 118.646 75.9416 115.949C80.3704 113.322 82.9312 108.228 82.0977 103.145C81.5152 99.6054 79.5971 96.8179 76.3433 94.7925C73.1197 92.7871 67.9177 91.7845 60.7573 91.7845H49.8311C42.3092 91.7845 36.2435 90.6514 31.6239 88.3754C27.0044 86.0993 24.2929 82.6401 23.4895 77.9876C22.8166 74.0772 23.7405 70.5879 26.2713 67.5297C28.4505 64.8927 31.8248 62.3258 36.3941 59.8392C32.9194 58.4655 29.8665 56.7008 27.2755 54.535C21.8124 49.9728 19.0808 43.656 19.0808 35.5944C19.0808 28.5055 21.1697 22.7702 25.3474 18.3584C10.0727 28.5255 0 45.8819 0 65.5945C0 96.6174 22.3246 120 57.3328 120Z" fill="white"/>
<path d="M313.779 31.2736H166.184V4.12109H313.779V31.2836V31.2736ZM167.409 30.0503H312.554V5.34436H167.409V30.0503Z" fill="white"/>
<path d="M185.928 11.7715C185.245 11.3904 184.391 11.21 183.387 11.21H178.456V24.335H180.836V19.9032H183.347C184.361 19.9032 185.215 19.7127 185.908 19.3417C186.601 18.9707 187.123 18.4493 187.484 17.7976C187.836 17.1458 188.017 16.3938 188.017 15.5516C188.017 14.7093 187.836 13.9773 187.484 13.3156C187.133 12.6538 186.611 12.1425 185.928 11.7715ZM185.315 16.7949C185.134 17.1558 184.853 17.4366 184.482 17.6371C184.11 17.8377 183.618 17.948 183.035 17.948H180.836V13.1953H183.015C183.608 13.1953 184.1 13.2955 184.472 13.4961C184.843 13.6966 185.134 13.9673 185.315 14.3283C185.496 14.6792 185.586 15.0903 185.586 15.5616C185.586 16.0328 185.496 16.4439 185.315 16.7949Z" fill="white"/>
<path d="M204.768 19.0308C205.461 18.7 205.983 18.2187 206.345 17.597C206.706 16.9754 206.877 16.2534 206.877 15.4112C206.877 14.5689 206.696 13.837 206.345 13.2053C205.993 12.5736 205.471 12.0823 204.788 11.7314C204.105 11.3804 203.252 11.21 202.247 11.21H197.316V24.335H199.696V19.5322H202.117L204.698 24.335H207.359L204.507 19.1311C204.587 19.101 204.678 19.071 204.758 19.0308H204.768ZM199.696 13.1953H201.876C202.468 13.1953 202.96 13.2855 203.332 13.456C203.703 13.6264 203.985 13.8771 204.175 14.208C204.356 14.5388 204.457 14.9399 204.457 15.4012C204.457 15.8624 204.366 16.2635 204.186 16.5743C204.005 16.8951 203.724 17.1358 203.352 17.2962C202.98 17.4566 202.488 17.5469 201.906 17.5469H199.707V13.1852L199.696 13.1953Z" fill="white"/>
<path d="M225.103 11.8314C224.189 11.3 223.165 11.0293 222.01 11.0293C220.855 11.0293 219.831 11.3 218.917 11.8314C218.003 12.3629 217.29 13.1349 216.758 14.1376C216.225 15.1403 215.964 16.3535 215.964 17.7673C215.964 19.1811 216.225 20.3843 216.758 21.397C217.29 22.4097 218.003 23.1717 218.917 23.7132C219.831 24.2446 220.855 24.5153 222.01 24.5153C223.165 24.5153 224.189 24.2446 225.103 23.7132C226.017 23.1817 226.73 22.4097 227.262 21.407C227.794 20.4043 228.056 19.1911 228.056 17.7773C228.056 16.3635 227.794 15.1503 227.262 14.1476C226.73 13.1449 226.017 12.3729 225.103 11.8415V11.8314ZM225.183 20.294C224.872 20.9759 224.44 21.4972 223.898 21.8482C223.356 22.1991 222.723 22.3796 222 22.3796C221.277 22.3796 220.654 22.1991 220.102 21.8482C219.56 21.4972 219.128 20.9759 218.816 20.294C218.505 19.6122 218.354 18.77 218.354 17.7673C218.354 16.7646 218.505 15.9324 218.816 15.2506C219.128 14.5687 219.56 14.0474 220.102 13.6964C220.654 13.3455 221.277 13.165 222 13.165C222.723 13.165 223.346 13.3455 223.898 13.6964C224.45 14.0474 224.872 14.5687 225.183 15.2506C225.495 15.9324 225.645 16.7746 225.645 17.7673C225.645 18.7599 225.495 19.6022 225.183 20.294Z" fill="white"/>
<path d="M242.728 20.4449C242.728 20.9061 242.648 21.2972 242.517 21.608C242.377 21.9288 242.176 22.1595 241.915 22.3199C241.654 22.4803 241.322 22.5605 240.951 22.5605C240.599 22.5605 240.288 22.4903 240.017 22.35C239.746 22.2096 239.535 22.0191 239.384 21.7584C239.234 21.4977 239.153 21.1969 239.153 20.846H236.783C236.783 21.6581 236.964 22.3299 237.326 22.8714C237.687 23.4128 238.169 23.8239 238.782 24.0946C239.394 24.3754 240.087 24.5057 240.86 24.5057C241.704 24.5057 242.447 24.3453 243.08 24.0144C243.713 23.6835 244.215 23.2223 244.566 22.6107C244.918 21.999 245.098 21.2771 245.108 20.4248V11.2002H242.748V20.4248L242.728 20.4449Z" fill="white"/>
<path d="M257.29 18.7601H263.014V16.7648H257.29V13.2053H263.456V11.21H254.91V24.335H263.506V22.3397H257.29V18.7601Z" fill="white"/>
<path d="M276.943 13.6969C277.495 13.336 278.128 13.1655 278.841 13.1655C279.243 13.1655 279.614 13.2157 279.966 13.326C280.317 13.4362 280.628 13.5967 280.9 13.8072C281.171 14.0178 281.402 14.2785 281.582 14.5893C281.763 14.8901 281.894 15.2411 281.964 15.6321H284.364C284.264 14.9002 284.053 14.2484 283.742 13.6769C283.42 13.1054 283.018 12.6241 282.526 12.223C282.034 11.832 281.472 11.5312 280.849 11.3206C280.217 11.11 279.544 11.0098 278.811 11.0098C277.666 11.0098 276.641 11.2805 275.728 11.8119C274.824 12.3433 274.101 13.1154 273.579 14.1181C273.056 15.1207 272.785 16.334 272.785 17.7478C272.785 19.1615 273.046 20.3647 273.568 21.3774C274.091 22.3902 274.804 23.1622 275.718 23.6936C276.621 24.2251 277.656 24.4958 278.811 24.4958C279.594 24.4958 280.307 24.3755 280.95 24.1448C281.592 23.9142 282.155 23.5833 282.627 23.1722C283.109 22.7511 283.49 22.2698 283.792 21.7284C284.093 21.1769 284.284 20.5954 284.374 19.9737H281.974C281.904 20.3447 281.773 20.6856 281.582 20.9864C281.392 21.2872 281.161 21.5379 280.879 21.7384C280.608 21.9389 280.297 22.0994 279.945 22.1996C279.594 22.2999 279.232 22.3601 278.841 22.3601C278.128 22.3601 277.505 22.1896 276.953 21.8387C276.4 21.4877 275.969 20.9764 275.657 20.2845C275.346 19.6027 275.185 18.7504 275.185 17.7478C275.185 16.7451 275.346 15.9229 275.657 15.2411C275.969 14.5592 276.4 14.0379 276.953 13.6769L276.943 13.6969Z" fill="white"/>
<path d="M293.211 11.21V13.2053H297.279V24.335H299.639V13.2053H303.706V11.21H293.211Z" fill="white"/>
<path d="M107.826 2.36632C105.607 0.792115 102.775 0 99.3104 0C95.434 0 91.6379 0.96257 87.892 2.87768C84.5177 4.61232 80.9426 7.26941 78.2612 10.7688C78.8839 10.9893 79.4864 11.23 80.0789 11.4807L80.1091 11.4405C85.5923 5.34427 92.9434 4.20122 94.0079 4.06084C94.0079 4.06084 94.0381 4.06084 94.0079 4.09092C92.2204 6.01606 91.1056 8.59294 91.1056 11.4305C91.1056 17.3965 95.9461 22.2294 101.921 22.2294C107.897 22.2294 112.737 17.3965 112.737 11.4305C112.737 7.63037 110.769 4.30149 107.806 2.37635L107.826 2.36632Z" fill="white"/>
</svg>
