<svg width="120" height="127" viewBox="0 0 120 127" fill="none" xmlns="http://www.w3.org/2000/svg">
<path d="M61.1235 11.4932C57.2747 11.4932 54.359 13.4775 52.3763 17.4357C50.383 21.3938 49.397 28.1428 49.397 37.672C49.397 47.2012 50.3936 53.9502 52.3763 57.9083C54.3696 61.8664 57.2853 63.8508 61.1235 63.8508C64.9616 63.8508 67.8879 61.8664 69.8706 57.9083C71.8639 53.9502 72.8605 47.2012 72.8605 37.672C72.8605 28.1428 71.8639 21.3938 69.8706 17.4357C67.8773 13.4775 64.9616 11.4932 61.1235 11.4932Z" fill="#303030"/>
<path d="M102.103 37.6634C102.103 47.4473 98.3599 54.8118 90.8851 59.7568C83.3996 64.7124 73.4862 67.1849 61.1342 67.1849H57.4232L51.9735 66.5906C48.5701 66.1874 45.4211 65.5613 42.5054 64.7124C40.0668 66.8135 39.0595 69.0631 39.473 71.4614C40.088 75.0481 42.8765 76.8308 47.8385 76.8308H68.1213C79.042 76.8308 88.0648 78.6454 95.2003 82.2852C102.336 85.925 106.545 91.4854 107.828 98.9772C108.21 101.227 108.263 103.381 107.987 105.461C115.526 95.4224 120 82.9431 120 69.4133C120 50.8112 111.55 34.1828 98.2751 23.168C100.82 27.1898 102.103 32.0074 102.103 37.6528V37.6634Z" fill="#303030"/>
<path d="M60.5303 127C68.8215 127 75.3739 125.568 80.1769 122.713C84.8526 119.933 87.5563 114.542 86.6763 109.162C86.0613 105.416 84.0362 102.466 80.601 100.323C77.1976 98.2006 71.7054 97.1394 64.1458 97.1394H52.6101C44.6688 97.1394 38.2648 95.9403 33.3876 93.5315C28.5104 91.1226 25.6477 87.4616 24.7995 82.5378C24.0891 78.3993 25.0646 74.7065 27.7364 71.4699C30.0372 68.6791 33.5997 65.9625 38.4238 63.3309C34.7553 61.8771 31.5321 60.0094 28.7967 57.7173C23.0289 52.889 20.1449 46.2037 20.1449 37.672C20.1449 30.1696 22.3503 24.0998 26.761 19.4307C10.6344 30.1908 0 48.5595 0 69.4219C0 102.254 23.5696 127 60.5303 127Z" fill="#303030"/>
<path d="M113.84 2.50434C111.496 0.838316 108.506 0 104.849 0C100.756 0 96.7482 1.01871 92.7934 3.04553C89.2309 4.88134 85.4564 7.69341 82.6255 11.3969C83.2828 11.6303 83.919 11.885 84.5446 12.1503L84.5764 12.1078C90.3654 5.65598 98.1265 4.44626 99.2504 4.2977C99.2504 4.2977 99.2822 4.2977 99.2504 4.32953C97.3631 6.36696 96.1862 9.09414 96.1862 12.0972C96.1862 18.4111 101.297 23.5259 107.605 23.5259C113.914 23.5259 119.024 18.4111 119.024 12.0972C119.024 8.07543 116.946 4.55238 113.818 2.51495L113.84 2.50434Z" fill="#303030"/>
</svg>
