<svg width="120" height="127" viewBox="0 0 120 127" fill="none" xmlns="http://www.w3.org/2000/svg">
<path d="M61.124 11.4922C57.2752 11.4922 54.3595 13.4766 52.3768 17.4347C50.3835 21.3929 49.3975 28.1419 49.3975 37.6712C49.3975 47.2005 50.3941 53.9495 52.3768 57.9076C54.3701 61.8658 57.2858 63.8502 61.124 63.8502C64.9621 63.8502 67.8884 61.8658 69.8711 57.9076C71.8644 53.9495 72.861 47.2005 72.861 37.6712C72.861 28.1419 71.8644 21.3929 69.8711 17.4347C67.8778 13.4766 64.9621 11.4922 61.124 11.4922Z" fill="white"/>
<path d="M102.103 37.6606C102.103 47.4445 98.36 54.809 90.8851 59.7541C83.3997 64.7097 73.4862 67.1822 61.1342 67.1822H57.4233L51.9735 66.588C48.5701 66.1847 45.4211 65.5587 42.5054 64.7097C40.0668 66.8108 39.0595 69.0605 39.473 71.4587C40.088 75.0455 42.8765 76.8282 47.8385 76.8282H68.1213C79.042 76.8282 88.0648 78.6428 95.2004 82.2826C102.336 85.9224 106.545 91.483 107.828 98.9748C108.21 101.224 108.263 103.379 107.987 105.459C115.526 95.4199 120 82.9406 120 69.4107C120 50.8084 111.55 34.18 98.2751 23.165C100.82 27.1869 102.103 32.0046 102.103 37.65V37.6606Z" fill="white"/>
<path d="M60.5303 127C68.8216 127 75.374 125.568 80.177 122.713C84.8527 119.933 87.5564 114.542 86.6764 109.162C86.0614 105.416 84.0363 102.466 80.6011 100.322C77.1976 98.2001 71.7055 97.1389 64.1458 97.1389H52.6102C44.6688 97.1389 38.2648 95.9398 33.3876 93.531C28.5104 91.1221 25.6477 87.4611 24.7995 82.5373C24.0891 78.3987 25.0646 74.7059 27.7364 71.4693C30.0372 68.6784 33.5997 65.9619 38.4239 63.3302C34.7554 61.8764 31.5322 60.0087 28.7967 57.7166C23.0289 52.8883 20.145 46.2029 20.145 37.6711C20.145 30.1687 22.3503 24.0988 26.761 19.4297C10.6344 30.1899 0 48.5587 0 69.4213C0 102.254 23.5696 127 60.5303 127Z" fill="white"/>
<path d="M113.84 2.50435C111.497 0.838322 108.507 0 104.849 0C100.756 0 96.7487 1.01872 92.7939 3.04555C89.2314 4.88137 85.4569 7.69346 82.626 11.3969C83.2833 11.6304 83.9195 11.8851 84.545 12.1504L84.5769 12.1079C90.3659 5.65602 98.127 4.44629 99.2509 4.29773C99.2509 4.29773 99.2827 4.29773 99.2509 4.32956C97.3636 6.367 96.1867 9.0942 96.1867 12.0973C96.1867 18.4112 101.297 23.5261 107.606 23.5261C113.914 23.5261 119.025 18.4112 119.025 12.0973C119.025 8.07548 116.947 4.55241 113.819 2.51497L113.84 2.50435Z" fill="white"/>
</svg>
