<svg id="Layer_1" height="512" viewBox="0 0 64 64" width="512" xmlns="http://www.w3.org/2000/svg"><g fill="rgb(0,0,0)"><path d="m38.942 11.505c-3.664-3.665-8.535-5.683-13.718-5.683-5.182 0-10.054 2.018-13.717 5.683-5.227 5.228-6.836 12.72-4.838 19.347.01.056.036.106.056.16.902 2.902 2.489 5.635 4.783 7.929 3.663 3.664 8.535 5.682 13.717 5.682 5.183 0 10.054-2.018 13.718-5.682 3.665-3.664 5.683-8.536 5.683-13.717-.001-5.183-2.019-10.055-5.684-13.719zm-26.063 1.371c3.297-3.298 7.682-5.114 12.346-5.114 4.665 0 9.049 1.816 12.347 5.114.044.044.081.093.124.137l-4.297 1.354c-.522-.68-1.334-1.125-2.256-1.125-1.572 0-2.852 1.279-2.852 2.852 0 .899.426 1.692 1.077 2.215l-3.23 8.788c-.17-.032-.345-.053-.524-.053-.465 0-.897.123-1.285.32l-6.429-5.358c.003-.051.016-.1.016-.151 0-1.572-1.279-2.852-2.853-2.852s-2.853 1.279-2.853 2.852c0 .079.018.153.023.23l-4.18 6.217c-.964-5.432.636-11.237 4.826-15.426zm18.264 4.13c-.503 0-.912-.41-.912-.913s.409-.913.912-.913c.504 0 .913.409.913.913s-.41.913-.913.913zm-5.53 11.976c.149 0 .283.044.407.107.037.035.085.056.127.086.225.167.379.42.379.72 0 .503-.409.912-.913.912s-.913-.409-.913-.911c0-.504.409-.914.913-.914zm-11.463-7.128c0-.503.409-.912.913-.912s.913.409.913.912-.409.913-.913.913-.913-.409-.913-.913zm23.421 15.715c-3.298 3.298-7.682 5.114-12.347 5.114-4.664 0-9.049-1.816-12.346-5.114-1.964-1.964-3.343-4.288-4.173-6.757l4.55-6.77c.493.409 1.118.665 1.808.665.793 0 1.51-.326 2.027-.85l5.901 4.918c-.147.344-.23.723-.23 1.121 0 1.572 1.279 2.852 2.852 2.852s2.853-1.279 2.853-2.852c0-.675-.245-1.287-.639-1.776l3.375-9.18c1.503-.031 2.716-1.229 2.78-2.723l5.09-1.603c2.334 3.033 3.613 6.719 3.613 10.609.001 4.663-1.816 9.048-5.114 12.346z"/><path d="m60.893 51.342-14.264-12.784c5.008-8.039 5.067-18.301.175-26.39l7.979-2.515-.611 1.077c-.264.466-.1 1.058.366 1.322.15.085.315.126.478.126.338 0 .665-.177.844-.492l1.832-3.229c.012-.021.012-.046.021-.068.024-.051.036-.104.051-.158.02-.072.039-.142.041-.216.002-.043-.008-.083-.013-.125-.006-.068.001-.136-.021-.202-.006-.021-.022-.035-.03-.055-.008-.019-.021-.034-.03-.053-.047-.103-.104-.197-.185-.276-.001-.001-.001-.002-.002-.003-.035-.036-.077-.058-.116-.087-.05-.036-.089-.083-.145-.11l-3.354-1.591c-.485-.23-1.063-.023-1.292.46-.229.484-.023 1.062.461 1.292l1.131.537-8.517 2.684c-.782-1.084-1.656-2.122-2.631-3.097-4.765-4.765-11.098-7.389-17.835-7.389-6.739 0-13.072 2.624-17.836 7.388s-7.387 11.098-7.387 17.835c0 3.979.922 7.814 2.652 11.271l-2.141 2.814c-.324.426-.242 1.035.185 1.359.175.134.381.198.586.198.292 0 .582-.132.772-.383l1.623-2.133c1.034 1.69 2.272 3.272 3.709 4.708 4.918 4.917 11.377 7.375 17.836 7.375 4.637 0 9.271-1.274 13.337-3.808l12.791 14.263c1.735 1.945 3.852 3.049 5.959 3.108.06.004.119.005.177.005 1.679 0 3.243-.679 4.534-1.971 1.34-1.339 2.021-2.975 1.972-4.727-.06-2.113-1.163-4.23-3.102-5.96zm-52.131-9.655c-1.658-1.658-3.034-3.521-4.106-5.533-.011-.021-.019-.042-.031-.063-1.751-3.31-2.682-7.017-2.682-10.867 0-6.219 2.421-12.066 6.819-16.464 4.397-4.397 10.245-6.819 16.464-6.819s12.066 2.422 16.464 6.819c9.077 9.078 9.077 23.849 0 32.928-9.081 9.076-23.851 9.076-32.928-.001zm51.89 18.971c-.963.963-2.049 1.444-3.285 1.4-1.545-.044-3.21-.941-4.569-2.463l-12.612-14.064c1.004-.741 1.966-1.564 2.875-2.474s1.733-1.872 2.475-2.877l14.065 12.607c1.517 1.353 2.412 3.019 2.455 4.57.035 1.224-.438 2.334-1.404 3.301z"/></g></svg>