<svg id="Capa_1" enable-background="new 0 0 512 512" height="512" viewBox="0 0 512 512" width="512" xmlns="http://www.w3.org/2000/svg"><g><path d="m495.484 429.419h-221.48v-323.474h191.566l29.914 9.668v33.032l-74.323 107.355 74.323 107.355z" fill="#ff7e92"/><path d="m388.129 256c0 59.29 48.065 107.355 107.355 107.355v-33.032l-74.323-74.323 74.323-74.323v-33.032c-59.29 0-107.355 48.065-107.355 107.355z" fill="#fcdbb2"/><path d="m346.839 115.613h148.645v-33.032h-264.258v346.839h74.323v-272.517c-.001-22.804 18.486-41.29 41.29-41.29z" fill="#ff5f7a"/><path d="m363.355 429.419h-305.024v-148.199h276.922l28.102 7.812z" fill="#98db7c"/><path d="m140.387 289.032h222.968v-33.032h-346.839v173.419h90.839v-107.354c0-18.244 14.789-33.033 33.032-33.033z" fill="#77cc7d"/><path d="m495.484 412.903h-99.097l-10.962 26.652h110.059s16.516-10.136 16.516-10.135c0-9.122-7.395-16.517-16.516-16.517z" fill="#f8ebcc"/><path d="m412.903 429.419c-9.122 0-16.516-7.395-16.516-16.516h-33.032v33.032h132.129c9.122 0 16.516-7.395 16.516-16.516z" fill="#fcdbb2"/><path d="m495.484 91.827h-189.936c-9.122 0-16.516-.125-16.516-9.246 0-9.122 7.395-16.516 16.516-16.516h189.935c9.122 0 16.516 7.395 16.516 16.516.001 0-16.515 9.246-16.515 9.246z" fill="#f8ebcc"/><path d="m305.548 66.065h-74.323c-9.121 0-16.516 7.394-16.516 16.516 0 9.121 7.395 16.516 16.516 16.516h264.258c9.121 0 16.516-7.395 16.516-16.516h-189.934c-9.122 0-16.517-7.395-16.517-16.516z" fill="#fcdbb2"/><path d="m242.082 316.716c-8.835-1.867-17.981-2.909-27.372-2.909-23.737 0-45.987 6.287-65.294 17.244-5.272 2.992-11.753 2.747-16.847-.539-9.956-6.423-20.765-11.245-32.249-14.028-6.469-1.567-11.767 5.535-8.281 11.205 2.892 4.702 5.696 9.712 8.401 15.021-2.706 5.31-5.51 10.319-8.401 15.022-3.486 5.67 1.813 12.772 8.281 11.204 11.483-2.783 22.292-7.605 32.247-14.028 5.094-3.286 11.575-3.531 16.847-.539 19.307 10.957 41.556 17.245 65.294 17.245 9.391 0 18.536-1.042 27.372-2.91v-51.988z" fill="#eceaec"/><path d="m363.355 263.845h-256c-9.122 0-16.516 1.277-16.516-7.845 0-9.122 7.395-16.516 16.516-16.516h256c9.122 0 16.516 7.395 16.516 16.516s-7.395 7.845-16.516 7.845z" fill="#eceaec"/><path d="m107.355 239.484h-90.839c-9.121 0-16.516 7.394-16.516 16.516 0 9.121 7.395 16.516 16.516 16.516h346.839c9.121 0 16.516-7.395 16.516-16.516h-256c-9.122 0-16.516-7.395-16.516-16.516z" fill="#dbd8db"/><path d="m421.161 256c0 41.047 33.275 74.323 74.323 74.323v-148.646c-41.047 0-74.323 33.276-74.323 74.323z" fill="#f8ebcc"/><path d="m287.641 335.723c-13.661-9.004-29.057-15.518-45.559-19.007-4.275 7.704-6.727 16.559-6.727 25.994s2.452 18.289 6.727 25.993c16.502-3.489 31.898-10.004 45.559-19.007 5.002-3.297 5.002-10.677 0-13.973z" fill="#fff"/><path d="m363.355 437.264h-256c-9.122 0-16.516 1.277-16.516-7.845 0-9.122 7.395-16.516 16.516-16.516h256c9.122 0 16.516 7.395 16.516 16.516s-7.395 7.845-16.516 7.845z" fill="#eceaec"/><path d="m107.355 412.903h-90.839c-9.121 0-16.516 7.394-16.516 16.516 0 9.121 7.395 16.516 16.516 16.516h346.839c9.121 0 16.516-7.395 16.516-16.516h-256c-9.122 0-16.516-7.394-16.516-16.516z" fill="#dbd8db"/></g></svg>