<?xml version="1.0"?>
<svg xmlns="http://www.w3.org/2000/svg" id="line" viewBox="0 0 64 64"><path d="M14.01563,49.457a3.5,3.5,0,1,0-3.5,3.5A3.50425,3.50425,0,0,0,14.01563,49.457Zm-3.5,1.5a1.5,1.5,0,1,1,1.5-1.5A1.50164,1.50164,0,0,1,10.51563,50.957Z"/><path d="M53.48389,45.957a3.5,3.5,0,1,0,3.5,3.5A3.50424,3.50424,0,0,0,53.48389,45.957Zm0,5a1.5,1.5,0,1,1,1.5-1.5A1.50164,1.50164,0,0,1,53.48389,50.957Z"/><path d="M42,52a3.5,3.5,0,1,0,3.5,3.5A3.50424,3.50424,0,0,0,42,52Zm0,5a1.5,1.5,0,1,1,1.5-1.5A1.50164,1.50164,0,0,1,42,57Z"/><path d="M22,52a3.5,3.5,0,1,0,3.5,3.5A3.50424,3.50424,0,0,0,22,52Zm0,5a1.5,1.5,0,1,1,1.5-1.5A1.50164,1.50164,0,0,1,22,57Z"/><path d="M26,42.875a3.5,3.5,0,1,0,3.5,3.5A3.50424,3.50424,0,0,0,26,42.875Zm0,5a1.5,1.5,0,1,1,1.5-1.5A1.50164,1.50164,0,0,1,26,47.875Z"/><path d="M41.5,46.375a3.5,3.5,0,1,0-3.5,3.5A3.50424,3.50424,0,0,0,41.5,46.375Zm-3.5,1.5a1.5,1.5,0,1,1,1.5-1.5A1.50164,1.50164,0,0,1,38,47.875Z"/><circle cx="17.89001" cy="45.44" r="1.5"/><circle cx="8" cy="43.5" r="1.5"/><circle cx="14" cy="56.48999" r="1.5"/><circle cx="45.97998" cy="45.44" r="1.5"/><circle cx="55.97998" cy="43.5" r="1.5"/><circle cx="50" cy="56.5" r="1.5"/><circle cx="32" cy="55.98999" r="1.5"/><path d="M5,31.75H59a1,1,0,0,0,0-2H5a1,1,0,0,0,0,2Z"/><path d="M59,34.75a10.60137,10.60137,0,0,0-4.90771,1.08594,9.63631,9.63631,0,0,1-8.19288,0A10.603,10.603,0,0,0,40.9917,34.75a10.5929,10.5929,0,0,0-4.90527,1.08594,8.55077,8.55077,0,0,1-4.09278.91412c-4.33642-.03693-4.35913-2.02978-9.00049-2-4.63812-.02991-4.665,1.96326-8.998,2C9.66022,36.71313,9.64,34.72028,5.00006,34.75A1.00013,1.00013,0,0,0,5,36.75a8.54354,8.54354,0,0,1,4.09131.91406A10.5875,10.5875,0,0,0,13.99512,38.75a10.59293,10.59293,0,0,0,4.90527-1.08594A8.5501,8.5501,0,0,1,22.99316,36.75a8.55366,8.55366,0,0,1,4.09424.91406A10.59767,10.59767,0,0,0,31.99365,38.75a10.593,10.593,0,0,0,4.90528-1.08594A8.55007,8.55007,0,0,1,40.9917,36.75a8.564,8.564,0,0,1,4.09619.91406A10.60377,10.60377,0,0,0,49.99609,38.75c4.64069.02966,4.66834-1.96356,9.00391-2a1,1,0,0,0,0-2Z"/><path d="M7,12a4.00427,4.00427,0,0,1,4,4,1,1,0,0,0,2,0,4.00427,4.00427,0,0,1,4-4,1,1,0,0,0,0-2,4.00427,4.00427,0,0,1-4-4,1,1,0,0,0-2,0,4.00427,4.00427,0,0,1-4,4,1,1,0,0,0,0,2Zm5-2.68652A6.05509,6.05509,0,0,0,13.68652,11,6.05509,6.05509,0,0,0,12,12.68652,6.05509,6.05509,0,0,0,10.31348,11,6.05509,6.05509,0,0,0,12,9.31348Z"/><path d="M47,21a1,1,0,0,0,0,2,4.00427,4.00427,0,0,1,4,4,1,1,0,0,0,2,0,4.00427,4.00427,0,0,1,4-4,1,1,0,0,0,0-2,4.00427,4.00427,0,0,1-4-4,1,1,0,0,0-2,0A4.00427,4.00427,0,0,1,47,21Zm5-.68652A6.05509,6.05509,0,0,0,53.68652,22,6.05509,6.05509,0,0,0,52,23.68652,6.05509,6.05509,0,0,0,50.31348,22,6.05509,6.05509,0,0,0,52,20.31348Z"/><path d="M39,12a4.00427,4.00427,0,0,1,4,4,1,1,0,0,0,2,0,4.00427,4.00427,0,0,1,4-4,1,1,0,0,0,0-2,4.00427,4.00427,0,0,1-4-4,1,1,0,0,0-2,0,4.00427,4.00427,0,0,1-4,4,1,1,0,0,0,0,2Zm5-2.68652A6.05509,6.05509,0,0,0,45.68652,11,6.05509,6.05509,0,0,0,44,12.68652,6.05509,6.05509,0,0,0,42.31348,11,6.05509,6.05509,0,0,0,44,9.31348Z"/><path d="M25,20a6.00657,6.00657,0,0,1,6,6,1,1,0,0,0,2,0,6.00657,6.00657,0,0,1,6-6,1,1,0,0,0,0-2,6.00657,6.00657,0,0,1-6-6,1,1,0,0,0-2,0,6.00657,6.00657,0,0,1-6,6,1,1,0,0,0,0,2Zm7-4.12988A8.05607,8.05607,0,0,0,35.12988,19,8.05607,8.05607,0,0,0,32,22.12988,8.05607,8.05607,0,0,0,28.87012,19,8.05607,8.05607,0,0,0,32,15.87012Z"/><path d="M17,19a1,1,0,0,0-2,0v2a1,1,0,0,0,2,0Z"/><path d="M14,22H12a1,1,0,0,0,0,2h2a1,1,0,0,0,0-2Z"/><path d="M16,28a.99974.99974,0,0,0,1-1V25a1,1,0,0,0-2,0v2A.99974.99974,0,0,0,16,28Z"/><path d="M17,23a.99974.99974,0,0,0,1,1h2a1,1,0,0,0,0-2H18A.99974.99974,0,0,0,17,23Z"/></svg>
