<?xml version="1.0" encoding="UTF-8"?>
<svg xmlns="http://www.w3.org/2000/svg" width="512" height="512" viewBox="0 0 24 24" fill="none"><path fill-rule="evenodd" clip-rule="evenodd" d="M13.4374 4.27252C12.7641 3.2425 11.2359 3.24249 10.5626 4.27252L7.16316 9.47274L4.56478 8.00058C3.26302 7.26303 1.69785 8.41888 2.05047 9.85733L3.81575 17.0584C3.89523 17.3827 4.18964 17.6111 4.52808 17.6111H19.4719C19.8104 17.6111 20.1048 17.3827 20.1843 17.0584L21.9495 9.85733C22.3022 8.41887 20.737 7.26304 19.4352 8.00058L16.8368 9.47274L13.4374 4.27252ZM12.2053 5.05483C12.1092 4.90768 11.8908 4.90768 11.7947 5.05482L8.01794 10.8322C7.80654 11.1556 7.37505 11.2589 7.03666 11.0672L3.83432 9.25286C3.64835 9.1475 3.42475 9.31262 3.47513 9.51811L5.10494 16.1666H18.8951L20.5249 9.51811C20.5752 9.31262 20.3517 9.1475 20.1657 9.25286L16.9633 11.0672C16.6249 11.2589 16.1935 11.1556 15.9821 10.8322L12.2053 5.05483Z" fill="black"/><path d="M5.16032 19.0555C4.75559 19.0555 4.42749 19.3789 4.42749 19.7778C4.42749 20.1766 4.75559 20.5 5.16032 20.5H18.8397C19.2444 20.5 19.5725 20.1766 19.5725 19.7778C19.5725 19.3789 19.2444 19.0555 18.8397 19.0555H5.16032Z" fill="black"/></svg>
