<svg enable-background="new 0 0 492 492" viewBox="0 0 492 492" xmlns="http://www.w3.org/2000/svg"><g id="Master_Layer_1"/><g id="Layer_1"><g><g><g><path clip-rule="evenodd" d="m143.374 431.028c-4.017 0-7.819-1.809-10.424-5.098-4.691-5.921-9.132-12.383-13.2-19.206-11.284-18.929-14.085-40.819-17.05-63.996-.788-6.157-1.602-12.524-2.59-18.955-.769-5.001-3.015-10.366-5.392-16.046-3.405-8.133-6.926-16.542-6.926-25.634v-.276c.012-12.757 3.838-25.047 11.062-35.549 7.254-10.545 17.384-18.481 29.298-22.948 6.607-2.478 13.414-3.734 20.229-3.734 9.39 0 18.957 3.107 29.248 9.501 3.989 2.478 9.145 2.478 13.135 0 10.291-6.393 19.858-9.501 29.248-9.501 7.832 0 15.624 1.654 23.158 4.918 22.703 9.833 37.395 32.287 37.428 57.206v.383c0 9.092-3.521 17.502-6.926 25.635-2.378 5.68-4.624 11.044-5.392 16.046-.988 6.43-1.803 12.797-2.59 18.954-2.965 23.176-5.767 45.067-17.05 63.995-4.068 6.823-8.508 13.284-13.197 19.204-3.343 4.221-8.657 6.005-13.868 4.656-5.213-1.35-8.995-5.49-9.869-10.805-4.091-24.853-8.998-45.919-14.192-60.92-2.776-8.018-5.577-14.149-8.325-18.224-2.525-3.745-4.369-4.735-4.991-4.735s-2.466.989-4.992 4.735c-2.748 4.075-5.549 10.206-8.325 18.224-5.194 15-10.101 36.065-14.191 60.92-.874 5.315-4.656 9.455-9.869 10.805-1.153.3-2.309.445-3.447.445zm5.006-199.764c-5.41 0-10.837 1.006-16.129 2.991-19.587 7.345-32.761 26.461-32.783 47.569v.271c0 6.746 2.924 13.73 6.02 21.125 2.545 6.079 5.177 12.365 6.163 18.782 1.01 6.575 1.835 13.016 2.631 19.246 2.929 22.889 5.458 42.657 15.498 59.498 3.805 6.381 7.951 12.415 12.323 17.935.578.73 1.291.73 1.788.601s1.122-.476 1.274-1.398c4.196-25.497 9.273-47.229 14.679-62.844 7.279-21.023 15.017-30.815 24.351-30.815 9.333 0 17.07 9.792 24.35 30.815 5.407 15.616 10.483 37.348 14.68 62.844.151.922.777 1.268 1.275 1.397.497.129 1.21.128 1.788-.602 4.371-5.519 8.517-11.553 12.321-17.934 10.039-16.841 12.568-36.609 15.497-59.498.797-6.229 1.621-12.67 2.631-19.245.986-6.417 3.618-12.703 6.163-18.782 3.096-7.394 6.02-14.379 6.02-21.125v-.375c-.027-20.26-11.957-38.515-30.392-46.499-6.061-2.625-12.291-3.956-18.518-3.956-7.148 0-14.7 2.533-23.086 7.743-3.823 2.375-8.225 3.631-12.729 3.631-4.505 0-8.906-1.255-12.73-3.631-8.386-5.212-15.937-7.744-23.085-7.744z" fill="#212121" fill-rule="evenodd"/></g><g><path clip-rule="evenodd" d="m378.788 395.203c-3.225 0-5.838-2.614-5.838-5.838v-198.877h-37.505v198.877c0 3.224-2.614 5.838-5.838 5.838-3.225 0-5.839-2.614-5.839-5.838v-204.717c0-3.225 2.614-5.838 5.839-5.838h49.182c3.225 0 5.839 2.613 5.839 5.838v204.716c-.001 3.224-2.615 5.839-5.84 5.839z" fill="#212121" fill-rule="evenodd"/></g><g><path clip-rule="evenodd" d="m398.892 431.059h-89.389c-3.225 0-5.838-2.614-5.838-5.838v-16.11c0-14.107 11.478-25.585 25.585-25.585h49.895c14.108 0 25.585 11.478 25.585 25.585v16.11c0 3.224-2.614 5.838-5.838 5.838zm-83.551-11.676h77.712v-10.272c0-7.669-6.239-13.908-13.908-13.908h-49.895c-7.669 0-13.908 6.239-13.908 13.908v10.272z" fill="#212121" fill-rule="evenodd"/></g><g><path clip-rule="evenodd" d="m365.984 190.486c-3.225 0-5.839-2.614-5.839-5.839v-41.439l-5.948-19.199-5.947 19.199v41.439c0 3.225-2.614 5.839-5.838 5.839-3.225 0-5.839-2.614-5.839-5.839v-42.322c0-.586.088-1.168.261-1.728l11.785-38.045c.758-2.444 3.018-4.111 5.577-4.111s4.819 1.667 5.577 4.111l11.787 38.045c.173.559.261 1.142.261 1.728v42.323c.001 3.225-2.613 5.838-5.837 5.838z" fill="#212121" fill-rule="evenodd"/></g><g><path clip-rule="evenodd" d="m354.197 110.119c-3.225 0-5.839-2.614-5.839-5.839v-23.919c-.048-.444-.281-2.14-1.156-3.679-1.031-1.813-2.487-2.586-4.868-2.586-3.225 0-5.839-2.614-5.839-5.839s2.614-5.838 5.839-5.838c6.818 0 12.261 3.216 15.327 9.056 2.094 3.989 2.345 7.919 2.367 8.354.005.097.007.194.007.291v24.16c0 3.225-2.613 5.839-5.838 5.839z" fill="#212121" fill-rule="evenodd"/></g><g><path clip-rule="evenodd" d="m354.197 257.748c-8.191 0-14.855-6.664-14.855-14.855s6.664-14.855 14.855-14.855 14.855 6.664 14.855 14.855c0 8.192-6.664 14.855-14.855 14.855zm0-18.032c-1.752 0-3.178 1.425-3.178 3.178 0 1.752 1.426 3.178 3.178 3.178s3.178-1.426 3.178-3.178c0-1.753-1.426-3.178-3.178-3.178z" fill="#212121" fill-rule="evenodd"/></g><g><path clip-rule="evenodd" d="m359.954 407.292c0-3.171-2.586-5.758-5.757-5.758s-5.758 2.586-5.758 5.758c0 3.171 2.586 5.757 5.758 5.757 3.171.001 5.757-2.586 5.757-5.757z" fill="#212121" fill-rule="evenodd"/></g><g><path clip-rule="evenodd" d="m316.536 104.461c-.283 0-.569-.02-.858-.063-8.939-1.316-17.049-5.397-23.453-11.8-6.406-6.406-10.487-14.516-11.803-23.453-.47-3.19 1.736-6.157 4.926-6.626 3.188-.47 6.157 1.736 6.626 4.926.948 6.436 3.889 12.279 8.507 16.897 4.616 4.616 10.459 7.557 16.897 8.504 3.19.47 5.396 3.436 4.926 6.627-.426 2.901-2.92 4.988-5.768 4.988z" fill="#212121" fill-rule="evenodd"/></g><g><path clip-rule="evenodd" d="m316.535 128.603c-.171 0-.342-.007-.515-.023-15.364-1.344-29.839-8.099-40.758-19.021-10.919-10.921-17.673-25.395-19.02-40.756-.282-3.212 2.094-6.044 5.306-6.326 3.213-.283 6.044 2.094 6.326 5.306 1.107 12.632 6.663 24.536 15.645 33.52 8.981 8.983 20.885 14.539 33.518 15.644 3.212.281 5.589 3.113 5.308 6.325-.266 3.04-2.815 5.331-5.81 5.331z" fill="#212121" fill-rule="evenodd"/></g><g><path clip-rule="evenodd" d="m316.534 152.659c-.122 0-.246-.004-.369-.012-21.832-1.364-42.383-10.642-57.866-26.125-15.485-15.485-24.763-36.035-26.127-57.866-.201-3.218 2.245-5.99 5.463-6.191 3.217-.203 5.99 2.245 6.191 5.463 1.186 18.988 9.258 36.865 22.73 50.336 13.469 13.47 31.346 21.541 50.336 22.728 3.219.201 5.664 2.973 5.463 6.191-.192 3.096-2.763 5.476-5.821 5.476z" fill="#212121" fill-rule="evenodd"/></g><g><path clip-rule="evenodd" d="m322.286 68.997c0-3.171-2.586-5.758-5.757-5.758s-5.758 2.586-5.758 5.758c0 3.171 2.586 5.757 5.758 5.757 3.171 0 5.757-2.586 5.757-5.757z" fill="#212121" fill-rule="evenodd"/></g></g></g></g></svg>