<?xml version="1.0"?>
<svg xmlns="http://www.w3.org/2000/svg" viewBox="0 0 64 64"><g data-name="Layer 3" id="Layer_3"><path d="M52.417,49.179A1,1,0,0,0,51.583,51,11.038,11.038,0,0,1,58,61v1H53.667L50,53.2a7.021,7.021,0,0,1-.27-4.615l.924-3.232A8.989,8.989,0,0,0,51,42.879V39a8.941,8.941,0,0,0-1.774-5.342,4.95,4.95,0,0,0-.824-6.3A4.981,4.981,0,0,0,47,18.1V13A13.015,13.015,0,0,0,34,0H30A13.015,13.015,0,0,0,17,13v5.1a4.981,4.981,0,0,0-1.4,9.257,4.95,4.95,0,0,0-.824,6.3A8.941,8.941,0,0,0,13,39v3.879a8.989,8.989,0,0,0,.346,2.473l.924,3.232A7.021,7.021,0,0,1,14,53.2L10.333,62H6V61a11.036,11.036,0,0,1,6.417-10,1,1,0,1,0-.834-1.817A13.041,13.041,0,0,0,4,61v2a1,1,0,0,0,1,1H59a1,1,0,0,0,1-1V61A13.044,13.044,0,0,0,52.417,49.179Zm-36.2-17.067a2.986,2.986,0,0,1,5.1-2.984,1,1,0,0,0,1.257.251A2.948,2.948,0,0,1,24,29a3,3,0,0,1,3,3,2.952,2.952,0,0,1-.378,1.421,1,1,0,0,0,.249,1.257A2.984,2.984,0,0,1,25,40V33a3,3,0,0,0-3-3A8.959,8.959,0,0,0,16.218,32.112Zm9.39,20.58A8.955,8.955,0,0,0,25.855,50H26a3,3,0,0,0,3-3V43.7a15.114,15.114,0,0,0,6-.026V47a3,3,0,0,0,3,3h.145a8.955,8.955,0,0,0,.247,2.692L40.719,62H23.281ZM37,43.137a14.674,14.674,0,0,0,2-.886V42.5a7,7,0,0,1-.054.868L38.367,48H38a1,1,0,0,1-1-1ZM39,33v7a2.984,2.984,0,0,1-1.871-5.322,1,1,0,0,0,.249-1.257A2.952,2.952,0,0,1,37,32a3,3,0,0,1,3-3,2.948,2.948,0,0,1,1.422.379,1,1,0,0,0,1.257-.251,2.987,2.987,0,0,1,5.1,2.984A8.959,8.959,0,0,0,42,30,3,3,0,0,0,39,33ZM49,23a3.006,3.006,0,0,1-2,2.829V20.171A3.006,3.006,0,0,1,49,23ZM19,13A11.013,11.013,0,0,1,30,2h4A11.013,11.013,0,0,1,45,13v7H43.313A6.985,6.985,0,0,1,39.539,18.9a1,1,0,0,0-1.078,1.685A8.983,8.983,0,0,0,43.313,22H45v4a4.939,4.939,0,0,0-3.336,1.3A4.817,4.817,0,0,0,40,27a5.006,5.006,0,0,0-5,5,4.807,4.807,0,0,0,.3,1.663,4.956,4.956,0,0,0,1.065,7.567,13.188,13.188,0,0,1-8.078.232A1,1,0,0,0,27,42.42V47a1,1,0,0,1-1,1h-.367l-.579-4.631A6.971,6.971,0,0,1,25,42.5V42a5.006,5.006,0,0,0,5-5,4.943,4.943,0,0,0-1.3-3.337A4.807,4.807,0,0,0,29,32a5.006,5.006,0,0,0-5-5,4.817,4.817,0,0,0-1.664.3A4.939,4.939,0,0,0,19,26V22h9.687a8.939,8.939,0,0,0,6.363-2.636l1.657-1.657a1,1,0,0,0-1.414-1.414L33.636,17.95A6.954,6.954,0,0,1,28.687,20H19Zm-2,7.171v5.658a3,3,0,0,1,0-5.658ZM12.5,62l3.346-8.032a9.032,9.032,0,0,0,.346-5.934L15.269,44.8A6.982,6.982,0,0,1,15,42.879V39a7.008,7.008,0,0,1,7-7,1,1,0,0,1,1,1v9.5a8.823,8.823,0,0,0,.07,1.116l.752,6.023a6.953,6.953,0,0,1-.155,2.566L21.219,62Zm30.281,0-2.448-9.792a6.96,6.96,0,0,1-.155-2.567l.752-6.022A8.851,8.851,0,0,0,41,42.5V33a1,1,0,0,1,1-1,7.008,7.008,0,0,1,7,7v3.879a6.982,6.982,0,0,1-.269,1.923l-.923,3.232a9.032,9.032,0,0,0,.346,5.934L51.5,62Z"/><path d="M27,24H23a1,1,0,0,0,0,2h4a1,1,0,0,0,0-2Z"/><path d="M36,25a1,1,0,0,0,1,1h4a1,1,0,0,0,0-2H37A1,1,0,0,0,36,25Z"/><path d="M9,36a3,3,0,1,0-3-3A3,3,0,0,0,9,36Zm0-4a1,1,0,1,1-1,1A1,1,0,0,1,9,32Z"/><path d="M55,48a3,3,0,1,0-3-3A3,3,0,0,0,55,48Zm0-4a1,1,0,1,1-1,1A1,1,0,0,1,55,44Z"/><path d="M7,46a3,3,0,1,0-3-3A3,3,0,0,0,7,46Zm0-4a1,1,0,1,1-1,1A1,1,0,0,1,7,42Z"/><path d="M57,38a3,3,0,1,0-3-3A3,3,0,0,0,57,38Zm0-4a1,1,0,1,1-1,1A1,1,0,0,1,57,34Z"/></g></svg>
