<svg id="Layer_1" viewBox="0 0 128 128" xmlns="http://www.w3.org/2000/svg" data-name="Layer 1"><path d="m73.28219 34.0215a2.00018 2.00018 0 0 0 -.5605 3.9609c7.4375 1.0498 20.4971 5.3662 24.3271 22.46a2.02434 2.02434 0 0 0 2.3926 1.5097 1.99415 1.99415 0 0 0 1.5127-2.3876c-4.5215-20.168-20.8613-24.5821-27.6719-25.543z"/><path d="m55.77829 62.5928a2.00711 2.00711 0 0 0 -.86329-2.6963 21.2098 21.2098 0 0 0 -8.46291-2.793c-7.207-.8877-11.791 4.3799-11.9814 4.6016a2.006 2.006 0 0 0 .2256 2.8232 2.03947 2.03947 0 0 0 2.8262-.2246 10.25477 10.25477 0 0 1 8.4482-3.2305 17.60742 17.60742 0 0 1 7.1094 2.375 2.00558 2.00558 0 0 0 2.6982-.8554z"/><path d="m48 69.0068h-6.00491a2.00051 2.00051 0 0 0 0 4.001h6.00491a2.00051 2.00051 0 0 0 0-4.001z"/><path d="m81.54589 57.1035a21.201 21.201 0 0 0 -8.46289 2.793 1.9993 1.9993 0 1 0 1.83689 3.5517 17.58518 17.58518 0 0 1 7.1045-2.375 10.20966 10.20966 0 0 1 8.459 3.2373 2.02594 2.02594 0 0 0 2.8154.2178 2.0056 2.0056 0 0 0 .2305-2.8232 14.32068 14.32068 0 0 0 -11.9834-4.6016z"/><path d="m86.001 69.0068h-6.001a2.0005 2.0005 0 0 0 0 4.001h6.001a2.0005 2.0005 0 0 0 0-4.001z"/><path d="m71.998 98.0059h-16a2.00145 2.00145 0 1 0 0 4.0029h16a2.00145 2.00145 0 1 0 0-4.0029z"/><path d="m62 94.0078h3.998a2.0005 2.0005 0 1 0 0-4.001h-3.998a2.0005 2.0005 0 1 0 0 4.001z"/><path d="m65.998 106.0068h-3.998a2 2 0 1 0 0 4h3.998a2 2 0 1 0 0-4z"/><path d="m108.76949 67.5576a95.913 95.913 0 0 0 1.0381-20.916c-1.7099-22.458-15.4355-45.5781-42.2305-46.5977-1.5625-.0566-5.416-.0566-6.8935-.0097-26.96.8701-40.7725 24.0381-42.4912 46.6074a95.93168 95.93168 0 0 0 1.0361 20.917 9.91131 9.91131 0 0 0 -6.22749 9.3711 16.97616 16.97616 0 0 0 12.61029 15.4609c6.9434 18.4639 18.7578 34.5391 35.5254 35.5908.4082.0245 5.3281.0245 5.8037-.0039 16.72761-1.0986 28.5108-17.1523 35.4444-35.5869 9.4004-2.4551 12.4033-10.9131 12.61421-15.5361a9.86593 9.86593 0 0 0 -6.22951-9.2969zm-86.5879-20.6103c1.5889-20.791 14.15041-42.126 38.6329-42.9151 2.1982-.0683 4.4179-.0722 6.6162.0088a36.55689 36.55689 0 0 1 17.2666 4.8828 26.20288 26.20288 0 0 1 -4.8575 9.6377 36.28831 36.28831 0 0 1 -16.2177 11.1123 79.3134 79.3134 0 0 1 -7.7569 2.0977 73.54634 73.54634 0 0 0 -9.249 2.6035c-8.7305 3.3018-17.7256 8.1309-24.2881 20.9863-.083.166-.2578.044-.2656-.1699a74.82306 74.82306 0 0 1 .1191-8.2441zm-5.1904 29.8691a5.67147 5.67147 0 0 1 2.9219-5.1348c.29691 1.6192.5937 3.0684.8652 4.2813.836 3.8398 1.8848 7.7256 3.125 11.5557-6.3916-3.25-6.8916-10.3995-6.9121-10.7022zm49.6817 47.168c-.1641.0088-5.1377.0107-5.2833.0039-19.4345-1.2188-31.7089-26.0488-36.708-48.8799-.7734-3.5156-1.3691-7.0107-1.80759-10.415l.00689-.0127s1.915-5.3575 3.0087-7.501c5.6192-10.999 12.9161-15.5733 22.1465-19.0606a69.24959 69.24959 0 0 1 8.7403-2.4541 82.69636 82.69636 0 0 0 8.1494-2.2089 40.33678 40.33678 0 0 0 18.0224-12.3741 29.96876 29.96876 0 0 0 5.2295-9.8447c10.8057 8.1514 16.6016 22.0606 17.6387 35.71.6065 8.0117-.2822 18.0107-2.5 28.1611-4.9951 22.7949-17.2383 47.6064-36.6435 48.876zm37.4238-36.4658c1.23831-3.8301 2.2861-7.7159 3.123-11.5557.2715-1.2129.5684-2.665.8672-4.2852a5.5864 5.5864 0 0 1 2.9219 5.0537c-.0205.3721-.5234 7.5352-6.9121 10.7872z"/><circle cx="31.993" cy="80.019" r="2"/><circle cx="38.437" cy="84.017" r="2.001"/><circle cx="43.25" cy="89.897" r="2"/><circle cx="46.236" cy="96.897" r="2"/><circle cx="47.681" cy="104.367" r="2"/><circle cx="47.977" cy="112.021" r="2"/><circle cx="96.978" cy="80.019" r="2"/><circle cx="90.534" cy="84.017" r="2.001"/><circle cx="85.721" cy="89.897" r="2"/><circle cx="82.735" cy="96.897" r="2"/><circle cx="81.29" cy="104.367" r="2"/><circle cx="80.994" cy="112.021" r="2"/></svg>