<svg id="Layer_1" enable-background="new 0 0 500 500" height="512" viewBox="0 0 500 500" width="512" xmlns="http://www.w3.org/2000/svg"><g display="none"><path d="m90.8 388.8c1.74 2.39 4.45 3.66 7.2 3.66 1.81 0 3.64-.55 5.22-1.7l33.24-24.15-4.58 28.92c-.77 4.85 2.54 9.4 7.39 10.17.47.07.94.11 1.4.11 4.29 0 8.08-3.12 8.77-7.5l7.36-46.49 60.93-44.27c3.97-2.89 4.85-8.45 1.97-12.42-2.89-3.96-8.44-4.85-12.42-1.97l-60.93 44.27-46.48-7.36c-4.85-.77-9.4 2.54-10.17 7.39s2.54 9.4 7.39 10.17l28.91 4.58-33.24 24.15c-3.97 2.91-4.85 8.47-1.96 12.44z" display="inline"/><path d="m237.4 309.7c-4.67-1.52-9.69 1.05-11.21 5.71l-22.83 70.26-41.94 21.37c-4.38 2.23-6.11 7.58-3.89 11.96 2.23 4.37 7.57 6.1 11.96 3.89l26.09-13.29-12.7 39.08c-1.52 4.67 1.04 9.69 5.71 11.21.91.3 1.84.44 2.75.44 3.75 0 7.24-2.39 8.46-6.15l12.7-39.08 13.29 26.09c1.57 3.08 4.69 4.85 7.93 4.85 1.35 0 2.74-.31 4.03-.97 4.38-2.23 6.11-7.58 3.89-11.96l-21.37-41.94 22.83-70.25c1.52-4.69-1.03-9.7-5.7-11.22z" display="inline"/><path d="m260.71 309.69c-4.67 1.52-7.22 6.53-5.71 11.21l22.83 70.26-21.37 41.93c-2.23 4.38-.49 9.73 3.89 11.96 1.29.66 2.67.97 4.03.97 3.24 0 6.36-1.77 7.93-4.85l13.29-26.09 12.7 39.08c1.22 3.76 4.71 6.15 8.46 6.15.91 0 1.84-.14 2.75-.44 4.67-1.52 7.22-6.53 5.71-11.21l-12.7-39.08 26.09 13.3c4.38 2.24 9.73.49 11.96-3.89s.49-9.73-3.89-11.96l-41.94-21.37-22.83-70.26c-1.51-4.66-6.53-7.22-11.2-5.71z" display="inline"/><path d="m408.41 337.47c-.77-4.85-5.31-8.17-10.17-7.39l-46.49 7.37-60.95-44.28c-3.98-2.89-9.53-1.99-12.42 1.97-2.89 3.97-2.01 9.53 1.97 12.42l60.96 44.29 7.36 46.48c.69 4.38 4.48 7.5 8.77 7.5.46 0 .93-.03 1.4-.11 4.85-.77 8.16-5.32 7.39-10.17l-4.58-28.92 33.24 24.15c1.58 1.15 3.41 1.7 5.22 1.7 2.75 0 5.46-1.27 7.2-3.66 2.89-3.97 2.01-9.53-1.97-12.42l-33.25-24.16 28.92-4.58c4.86-.78 8.17-5.34 7.4-10.19z" display="inline"/><path d="m62.33 282.72h41.09l-20.71 20.71c-3.47 3.47-3.47 9.1 0 12.57 1.74 1.74 4.01 2.6 6.29 2.6 2.27 0 4.55-.87 6.29-2.6l33.28-33.28h120.48 120.49l33.27 33.28c1.74 1.74 4.01 2.6 6.29 2.6 2.27 0 4.55-.87 6.29-2.6 3.47-3.47 3.47-9.1 0-12.57l-20.7-20.7h41.09c4.91 0 8.89-3.98 8.89-8.89s-3.98-8.89-8.89-8.89h-62.54c-.02 0-.03 0-.04 0h-124.15-186.72c-4.91 0-8.89 3.98-8.89 8.89s3.98 8.88 8.89 8.88z" display="inline"/><path d="m71.35 238.14h45.74c0 4.91 3.98 8.89 8.89 8.89s8.89-3.98 8.89-8.89c0-63.74 51.56-115.59 114.95-115.59s114.95 51.85 114.95 115.59c0 4.91 3.98 8.89 8.89 8.89s8.89-3.98 8.89-8.89h44.46c4.91 0 8.89-3.98 8.89-8.89s-3.98-8.89-8.89-8.89h-45.78c-1.48-11.1-4.27-21.77-8.31-31.84l44.59-18.47c4.54-1.88 6.69-7.08 4.81-11.62s-7.09-6.69-11.62-4.81l-45.5 18.85c-5.37-9.49-11.87-18.23-19.31-26.09l35.95-35.95c3.47-3.47 3.47-9.1 0-12.57s-9.1-3.47-12.57 0l-36.41 36.41c-9.2-7.44-19.38-13.68-30.35-18.47l23.29-46.2c2.21-4.38.45-9.73-3.94-11.94-4.38-2.21-9.73-.44-11.94 3.94l-24.23 48.07c-.03.06-.02.13-.05.19-8.86-2.5-18.08-4.06-27.57-4.65v-53.8c0-4.91-3.98-8.89-8.89-8.89s-8.89 3.98-8.89 8.89v53.83c-9.46.68-18.65 2.31-27.46 4.89-.05-.1-.03-.22-.08-.32l-22.96-48.07c-2.11-4.44-7.44-6.31-11.86-4.19-4.43 2.11-6.31 7.42-4.19 11.86l22.38 46.85c-10.58 4.73-20.44 10.78-29.35 17.99l-35.14-35.14c-3.47-3.47-9.1-3.47-12.57 0s-3.47 9.1 0 12.57l34.69 34.69c-7.44 7.86-13.94 16.6-19.31 26.09l-45.51-18.85c-4.55-1.88-9.74.27-11.62 4.81s.27 9.74 4.81 11.62l44.59 18.47c-4.03 10.07-6.82 20.74-8.31 31.84h-47.05c-4.91 0-8.89 3.98-8.89 8.89s3.98 8.9 8.89 8.9z" display="inline"/></g><g display="none"><path d="m166.46 362.59c1.92 0 3.85-.62 5.48-1.89 3.87-3.03 4.55-8.62 1.52-12.48-48.39-61.74-37.52-151.34 24.22-199.73 19.79-15.51 43.18-25.36 67.88-28.83l-15.69 30.37c-2.25 4.36-.54 9.73 3.82 11.98 1.31.67 2.7.99 4.07.99 3.22 0 6.33-1.75 7.91-4.81l28.56-55.3-55.29-28.56c-4.38-2.26-9.73-.54-11.98 3.82s-.54 9.73 3.82 11.98l25.22 13.03c-25.18 4.7-48.93 15.37-69.29 31.33-69.46 54.44-81.69 155.24-27.25 224.69 1.75 2.24 4.37 3.41 7 3.41z" display="inline"/><path d="m230.84 180.76c-4.86.69-8.24 5.19-7.55 10.06.69 4.86 5.18 8.24 10.06 7.55 37.63-5.36 75.07 4.28 105.46 27.1 30.38 22.82 50.06 56.11 55.4 93.73 3.54 24.89.38 50.07-8.97 73.2l-18.46-28.78c-2.65-4.14-8.16-5.33-12.29-2.68s-5.34 8.15-2.68 12.29l33.61 52.39 52.39-33.61c4.13-2.65 5.34-8.15 2.68-12.29-2.65-4.14-8.16-5.34-12.29-2.68l-23.9 15.33c8.52-24.16 11.15-50.07 7.51-75.67-6.01-42.33-28.15-79.78-62.33-105.45s-76.32-36.5-118.64-30.49z" display="inline"/><path d="m68 411.17c.14 0 .28 0 .43-.01 4.91-.23 8.7-4.39 8.47-9.3l-1.33-28.37c16.66 19.46 37.78 34.69 61.78 44.34 19.32 7.77 39.54 11.65 59.75 11.65 21.29 0 42.56-4.31 62.73-12.9 39.33-16.76 69.77-47.84 85.73-87.5 1.83-4.55-.37-9.73-4.93-11.57-4.56-1.85-9.73.38-11.57 4.93-14.18 35.25-41.24 62.87-76.2 77.77s-73.62 15.3-108.88 1.11c-23.31-9.38-43.54-24.71-58.9-44.37l34.15-1.6c4.91-.23 8.7-4.39 8.47-9.3s-4.32-8.54-9.3-8.47l-62.18 2.91 2.91 62.18c.23 4.79 4.15 8.5 8.87 8.5z" display="inline"/></g><g display="none"><path d="m133.46 180.28c2.27 0 4.55-.87 6.29-2.6l53.35-53.35c3.47-3.47 3.47-9.1 0-12.57s-9.1-3.47-12.57 0l-53.35 53.35c-3.47 3.47-3.47 9.1 0 12.57 1.73 1.73 4.01 2.6 6.28 2.6z" display="inline"/><path d="m224.98 124.33c1.74 1.74 4.01 2.6 6.29 2.6 2.27 0 4.55-.87 6.29-2.6 3.47-3.47 3.47-9.1 0-12.57l-53.35-53.35c-3.47-3.47-9.1-3.47-12.57 0s-3.47 9.1 0 12.57z" display="inline"/><path d="m269.44 111.75-53.35 53.35c-3.47 3.47-3.47 9.1 0 12.57 1.74 1.74 4.01 2.6 6.29 2.6s4.55-.87 6.29-2.6l53.35-53.35c3.47-3.47 3.47-9.1 0-12.57-3.48-3.47-9.11-3.47-12.58 0z" display="inline"/><path d="m313.9 124.33c1.74 1.74 4.01 2.6 6.29 2.6 2.27 0 4.55-.87 6.29-2.6 3.47-3.47 3.47-9.1 0-12.57l-53.35-53.35c-3.47-3.47-9.1-3.47-12.57 0s-3.47 9.1 0 12.57z" display="inline"/><path d="m305.01 177.68c1.74 1.74 4.01 2.6 6.29 2.6s4.55-.87 6.29-2.6l53.35-53.35c3.47-3.47 3.47-9.1 0-12.57s-9.1-3.47-12.57 0l-53.35 53.35c-3.49 3.47-3.49 9.09-.01 12.57z" display="inline"/><path d="m136.07 231.03c1.74 1.74 4.01 2.6 6.29 2.6 2.27 0 4.55-.87 6.29-2.6 3.47-3.47 3.47-9.1 0-12.57l-53.36-53.36c-3.47-3.47-9.1-3.47-12.57 0s-3.47 9.1 0 12.57z" display="inline"/><path d="m127.18 284.38c1.74 1.74 4.01 2.6 6.29 2.6s4.55-.87 6.29-2.6l53.35-53.35c3.47-3.47 3.47-9.1 0-12.57s-9.1-3.47-12.57 0l-53.35 53.35c-3.49 3.47-3.49 9.09-.01 12.57z" display="inline"/><path d="m171.63 165.1c-3.47 3.47-3.47 9.1 0 12.57l53.35 53.35c1.74 1.74 4.01 2.6 6.29 2.6 2.27 0 4.55-.87 6.29-2.6 3.47-3.47 3.47-9.1 0-12.57l-53.35-53.35c-3.48-3.47-9.1-3.47-12.58 0z" display="inline"/><path d="m282.01 218.45c-3.47-3.47-9.1-3.47-12.57 0l-53.35 53.35c-3.47 3.47-3.47 9.1 0 12.57 1.74 1.74 4.01 2.6 6.29 2.6s4.55-.87 6.29-2.6l53.35-53.35c3.47-3.47 3.47-9.09-.01-12.57z" display="inline"/><path d="m273.12 165.1c-3.47-3.47-9.1-3.47-12.57 0s-3.47 9.1 0 12.57l53.35 53.35c1.74 1.74 4.01 2.6 6.29 2.6 2.27 0 4.55-.87 6.29-2.6 3.47-3.47 3.47-9.1 0-12.57z" display="inline"/><path d="m358.36 218.45-53.35 53.35c-3.47 3.47-3.47 9.1 0 12.57 1.74 1.74 4.01 2.6 6.29 2.6s4.55-.87 6.29-2.6l53.35-53.35c3.47-3.47 3.47-9.1 0-12.57-3.48-3.47-9.11-3.47-12.58 0z" display="inline"/><path d="m349.46 165.1c-3.47 3.47-3.47 9.1 0 12.57l53.35 53.35c1.74 1.74 4.01 2.6 6.29 2.6 2.27 0 4.55-.87 6.29-2.6 3.47-3.47 3.47-9.1 0-12.57l-53.35-53.35c-3.48-3.47-9.1-3.47-12.58 0z" display="inline"/><path d="m136.07 337.72c1.74 1.74 4.01 2.6 6.29 2.6 2.27 0 4.55-.87 6.29-2.6 3.47-3.47 3.47-9.1 0-12.57l-53.36-53.35c-3.47-3.47-9.1-3.47-12.57 0s-3.47 9.1 0 12.57z" display="inline"/><path d="m127.18 391.07c1.74 1.74 4.01 2.6 6.29 2.6s4.55-.87 6.29-2.6l53.35-53.35c3.47-3.47 3.47-9.1 0-12.57s-9.1-3.47-12.57 0l-53.35 53.35c-3.49 3.47-3.49 9.1-.01 12.57z" display="inline"/><path d="m224.98 337.72c1.74 1.74 4.01 2.6 6.29 2.6 2.27 0 4.55-.87 6.29-2.6 3.47-3.47 3.47-9.1 0-12.57l-53.35-53.35c-3.47-3.47-9.1-3.47-12.57 0s-3.47 9.1 0 12.57z" display="inline"/><path d="m282.01 325.15c-3.47-3.47-9.1-3.47-12.57 0l-53.35 53.35c-3.47 3.47-3.47 9.1 0 12.57 1.74 1.74 4.01 2.6 6.29 2.6s4.55-.87 6.29-2.6l53.35-53.35c3.47-3.47 3.47-9.1-.01-12.57z" display="inline"/><path d="m313.9 337.72c1.74 1.74 4.01 2.6 6.29 2.6 2.27 0 4.55-.87 6.29-2.6 3.47-3.47 3.47-9.1 0-12.57l-53.35-53.35c-3.47-3.47-9.1-3.47-12.57 0s-3.47 9.1 0 12.57z" display="inline"/><path d="m370.93 325.15c-3.47-3.47-9.1-3.47-12.57 0l-53.35 53.35c-3.47 3.47-3.47 9.1 0 12.57 1.74 1.74 4.01 2.6 6.29 2.6s4.55-.87 6.29-2.6l53.35-53.35c3.46-3.47 3.46-9.1-.01-12.57z" display="inline"/><path d="m409.1 340.33c2.27 0 4.55-.87 6.29-2.6 3.47-3.47 3.47-9.1 0-12.57l-53.35-53.35c-3.47-3.47-9.1-3.47-12.57 0s-3.47 9.1 0 12.57l53.35 53.35c1.73 1.73 4.01 2.6 6.28 2.6z" display="inline"/><path d="m171.63 378.5c-3.47 3.47-3.47 9.1 0 12.57l53.35 53.35c1.74 1.74 4.01 2.6 6.29 2.6 2.27 0 4.55-.87 6.29-2.6 3.47-3.47 3.47-9.1 0-12.57l-53.35-53.35c-3.48-3.47-9.1-3.47-12.58 0z" display="inline"/><path d="m313.9 444.42c1.74 1.74 4.01 2.6 6.29 2.6 2.27 0 4.55-.87 6.29-2.6 3.47-3.47 3.47-9.1 0-12.57l-53.35-53.35c-3.47-3.47-9.1-3.47-12.57 0s-3.47 9.1 0 12.57z" display="inline"/></g><g display="none"><path d="m73.58 408.73c18.12 24.84 42.75 32.66 67.22 21.9 7.51 12.75 19.88 23.85 40.19 23.85 6.8 0 14.5-1.25 23.19-4.09 29.77-9.74 44.28-29.06 41.64-54.95 24.89-5.78 38.41-25.48 38.34-56.39l-17.78.03c.07 33.52-18.02 38.95-31.62 40.12-2.59.22-4.95 1.56-6.46 3.67s-2.03 4.78-1.42 7.3c3.33 13.54 4.01 32.76-28.23 43.31-23.4 7.62-37.09 2.16-45.79-18.4-1.01-2.39-3.02-4.22-5.5-5.01-2.47-.78-5.18-.45-7.37.92-25.64 15.89-43.62-1.17-52.06-12.74-13.59-18.64-11.79-34.98 5.5-49.96 1.96-1.7 3.08-4.18 3.07-6.77-.02-2.6-1.16-5.06-3.15-6.74-23.88-20.21-14.08-41.7-6.1-52.72 7.88-10.9 25.01-26.82 51.34-10.94 2.24 1.34 4.93 1.65 7.39.82 2.47-.82 4.45-2.67 5.44-5.08 2.81-6.89 6.35-12.36 10.49-16.27l-12.19-12.94c-4 3.76-7.54 8.37-10.57 13.76-28.84-12.5-52.8 1.54-66.31 20.22-13.67 18.89-19.45 46.37 2.03 70-17.65 19.81-18.26 43.82-1.29 67.1z" display="inline"/><path d="m130.71 314.52c-7.38 10.21-10.35 22.68-8.35 35.12s8.71 23.35 18.92 30.74c8.13 5.88 17.7 8.97 27.54 8.97 2.51 0 5.04-.2 7.57-.61 12.44-2 23.36-8.72 30.75-18.92 7.38-10.21 10.35-22.68 8.35-35.12s-8.72-23.35-18.92-30.74c-10.21-7.38-22.67-10.35-35.11-8.36-12.45 1.99-23.36 8.71-30.75 18.92zm14.41 10.43c4.59-6.36 11.4-10.55 19.15-11.79 1.58-.25 3.15-.38 4.72-.38 6.13 0 12.09 1.92 17.14 5.58h.01c6.36 4.6 10.55 11.41 11.79 19.15 1.24 7.75-.61 15.52-5.21 21.87-4.59 6.36-11.4 10.55-19.15 11.79-7.75 1.22-15.53-.6-21.88-5.21-6.36-4.6-10.54-11.4-11.78-19.15s.61-15.51 5.21-21.86z" display="inline"/><path d="m163.8 219.07c9.83 36.72 35.09 56.34 68.25 54.03 3.41 24.1 17.97 49.31 63.22 51.68 2.17.11 4.3.17 6.37.17 35.04 0 57.77-16.02 65.14-45.77 31.39 5.27 55.95-11.09 69.65-46.77 16.46-42.88-1.15-66.58-22.25-79.49 15.07-29.09 7.22-59.67-21.99-83.31h.01c-27.94-22.63-57.9-22.77-83.43-.8-23.46-24.27-54.65-27.2-85.08-7.44-24.06 15.63-42.78 44.84-27.52 81.71-30.23 14.48-41.71 41.14-32.37 75.99zm69.59-142.79c14.74-9.56 43.14-20.87 67.75 10.85 1.59 2.05 4 3.31 6.6 3.43 2.58.06 5.11-.89 6.89-2.78 20.62-21.86 42.96-23.32 66.37-4.36h.01c14.35 11.62 35.19 35.89 13.43 67.9-1.46 2.15-1.91 4.83-1.22 7.33.69 2.51 2.42 4.59 4.78 5.7 26.28 12.44 33.21 32.04 21.84 61.66-11.92 31.07-30.25 41.85-57.6 33.88-2.49-.72-5.18-.33-7.35 1.1-2.17 1.42-3.61 3.73-3.95 6.3-3.66 28.45-21.47 41.35-54.72 39.7-31.73-1.66-46.28-15.3-47.2-44.21-.08-2.6-1.29-5.02-3.32-6.65-1.59-1.28-3.56-1.96-5.57-1.96-.55 0-1.1.05-1.65.15-38.73 7.36-52.66-21.85-57.49-39.89-7.81-29.17 2.08-48.28 30.28-58.43 2.44-.88 4.38-2.78 5.3-5.21.93-2.43.74-5.14-.51-7.42-20.36-37.16 5.34-59.3 17.33-67.09z" display="inline"/><path d="m66.67 249.38 14.34-10.51c-11.37-15.55-9.96-28.63 4.46-41.16 1.96-1.7 3.08-4.18 3.07-6.78-.02-2.6-1.17-5.05-3.16-6.73-19.73-16.65-11.65-34.41-5.08-43.52 6.5-9.01 20.65-22.16 42.37-9.1 2.23 1.34 4.95 1.64 7.39.82 2.47-.82 4.45-2.67 5.43-5.08 7.23-17.77 19.66-23.54 37.99-17.66l5.44-16.93c-24.09-7.73-43.93-.71-55.68 19.27-24.94-10.24-45.65 2.04-57.35 18.27-11.86 16.43-16.94 40.21 1.15 60.8-14.85 17.32-15.13 38.14-.37 58.31z" display="inline"/><path d="m302.83 241.66c10.58 0 21.29-2.95 30.81-9.13 12.7-8.25 21.43-20.96 24.58-35.77s.34-29.97-7.91-42.68c-17.04-26.23-52.24-33.7-78.46-16.67-26.21 17.03-33.7 52.22-16.67 78.45 10.86 16.71 29.08 25.8 47.65 25.8zm-21.29-89.34c6.53-4.24 13.88-6.27 21.14-6.27 12.76 0 25.26 6.25 32.71 17.72 5.67 8.72 7.6 19.12 5.44 29.3-2.16 10.17-8.15 18.89-16.88 24.55-18 11.69-42.16 6.55-53.85-11.44-11.69-18.01-6.56-42.17 11.44-53.86z" display="inline"/></g><g display="none"><path d="m213.49 198.06v-46.81c0-4.91-3.98-8.89-8.89-8.89-2.33 0-4.44.89-6.03 2.35h-34.75l85.23-85.23 85.23 85.23h-34.75c-1.59-1.46-3.7-2.35-6.03-2.35-4.91 0-8.89 3.98-8.89 8.89v46.81c0 64.1 40.04 240.07 168.94 240.07v-17.78c-113.94 0-151.16-165.31-151.16-222.29v-35.56h53.35c3.59 0 6.84-2.17 8.21-5.49 1.38-3.33.62-7.15-1.93-9.69l-106.7-106.7c-3.47-3.47-9.1-3.47-12.57 0l-106.7 106.7c-2.54 2.54-3.31 6.36-1.93 9.69 1.37 3.32 4.62 5.49 8.21 5.49h53.35v35.57c0 56.97-37.22 222.29-151.16 222.29v17.78c128.93 0 168.97-175.98 168.97-240.08z" display="inline"/><path d="m196.82 409.99c0 30.23 23.68 54.82 52.79 54.82s52.78-24.59 52.78-54.82c0-23.69-12.58-42.36-24.75-60.42-8.67-12.87-16.87-25.03-19.31-37.62-.81-4.18-4.47-7.2-8.73-7.2-4.25 0-7.92 3.02-8.73 7.2-2.45 12.59-10.64 24.74-19.31 37.61-12.15 18.07-24.74 36.74-24.74 60.43zm52.8-71.62c3.94 7.29 8.66 14.28 13.29 21.15 11.17 16.57 21.72 32.22 21.72 50.48 0 20.42-15.7 37.03-35 37.03s-35.01-16.62-35.01-37.03c0-18.26 10.55-33.91 21.72-50.48 4.62-6.88 9.33-13.87 13.28-21.15z" display="inline"/><path d="m320.18 242.52h133.37v17.78h-133.37z" display="inline"/><path d="m222.38 242.52h53.35v17.78h-53.35z" display="inline"/><path d="m44.55 242.52h133.38v17.78h-133.38z" display="inline"/></g><g display="none"><path d="m151.25 153.59c0 13.61 2.74 26.78 8.16 39.17l16.29-7.13c-4.43-10.12-6.67-20.9-6.67-32.04 0-44.12 35.9-80.02 80.02-80.02s80.02 35.9 80.02 80.02c0 11.13-2.24 21.9-6.65 32.01l16.29 7.12c5.41-12.37 8.14-25.53 8.14-39.13 0-53.93-43.88-97.81-97.81-97.81s-97.79 43.88-97.79 97.81z" display="inline"/><path d="m435.77 251.43c0-26.13-10.17-50.69-28.65-69.17-9.62-9.61-20.87-16.98-33.43-21.91l-6.49 16.56c10.27 4.02 19.48 10.06 27.35 17.93 31.2 31.2 31.2 81.97 0 113.17-15.12 15.11-35.22 23.44-56.59 23.44v17.78c26.12 0 50.68-10.17 69.16-28.65 18.49-18.46 28.65-43.02 28.65-69.15z" display="inline"/><path d="m130.9 176.92-6.49-16.56c-12.56 4.92-23.81 12.3-33.43 21.91-18.48 18.47-28.65 43.03-28.65 69.16 0 26.12 10.17 50.68 28.65 69.16s43.04 28.65 69.16 28.65v-17.78c-21.37 0-41.47-8.33-56.59-23.44-31.2-31.2-31.2-81.97 0-113.17 7.88-7.88 17.08-13.91 27.35-17.93z" display="inline"/><path d="m257.94 447.05v-71.68c58.38-5.54 88.92-65.02 88.92-123.93h-17.78c0 48.52-22.36 100.48-71.13 106.13v-79.46h-17.78v79.46c-48.77-5.65-71.13-57.61-71.13-106.13h-17.78c0 58.92 30.54 118.4 88.92 123.93v71.68z" display="inline"/></g><g display="none"><path d="m44.55 313.65h124.48c41.51 0 56.25 22.87 56.25 42.46 0 11.54-7.18 23.21-20.9 23.21-8.33 0-16.19-6.74-16.19-13.88 0-4 3.26-7.26 7.26-7.26 4.91 0 8.89-3.98 8.89-8.89s-3.98-8.89-8.89-8.89c-13.81 0-25.04 11.24-25.04 25.04 0 16.87 15.88 31.66 33.98 31.66 22.06 0 38.68-17.62 38.68-40.99 0-29.99-22.89-60.24-74.03-60.24h-124.49c-4.91 0-8.89 3.98-8.89 8.89s3.97 8.89 8.89 8.89z" display="inline"/><path d="m133.46 269.2h133.37c44.47 0 64.72-29.23 64.72-56.39 0-22.6-18.39-40.99-41-40.99-17.45 0-31.66 14.2-31.66 31.66 0 13.81 11.24 25.04 25.04 25.04 4.91 0 8.89-3.98 8.89-8.89s-3.98-8.89-8.89-8.89c-4 0-7.26-3.26-7.26-7.26 0-7.65 6.23-13.88 13.88-13.88 12.8 0 23.22 10.41 23.22 23.21 0 17.81-12.3 38.61-46.94 38.61h-133.37c-4.91 0-8.89 3.98-8.89 8.89s3.98 8.89 8.89 8.89z" display="inline"/><path d="m80.11 224.74h88.92c28.04 0 44.03-10.45 52.51-19.22 10.02-10.36 15.26-24.2 14.76-38.97-.76-22.59-19.46-40.12-42.36-39.6-17.44.59-31.16 15.26-30.56 32.71.22 6.69 3.03 12.89 7.92 17.45 4.88 4.57 11.26 6.98 17.94 6.74 4.91-.16 8.75-4.28 8.59-9.19-.16-4.81-4.11-8.59-8.87-8.59-.1 0-.21 0-.3 0-2.21.05-3.79-.63-5.2-1.95-1.42-1.32-2.23-3.12-2.3-5.06-.25-7.65 5.76-14.08 13.4-14.34 13.02-.55 23.56 9.63 23.99 22.42.33 9.91-3.14 19.14-9.78 26.01-8.73 9.03-22.46 13.8-39.73 13.8h-88.93c-4.91 0-8.89 3.98-8.89 8.89s3.98 8.9 8.89 8.9z" display="inline"/><path d="m355.75 46.91h17.78v409.01h-17.78z" display="inline"/><path d="m444.67 46.91h17.78v409.01h-17.78z" display="inline"/><path d="m391.32 402.57h17.78v26.67h-17.78z" display="inline"/><path d="m409.1 349.22h17.78v26.67h-17.78z" display="inline"/><path d="m391.32 295.87h17.78v26.67h-17.78z" display="inline"/><path d="m409.1 242.52h17.78v26.67h-17.78z" display="inline"/><path d="m391.32 189.17h17.78v26.67h-17.78z" display="inline"/><path d="m409.1 135.82h17.78v26.67h-17.78z" display="inline"/><path d="m391.32 82.47h17.78v26.67h-17.78z" display="inline"/></g><g display="none"><path d="m313.9 53.96-71.13 71.13 12.57 12.57 64.85-64.85 85.23 85.23h-40.78c-4.91 0-8.89 3.98-8.89 8.89v88.92h-71.13v-26.67h-17.78v35.57c0 4.91 3.98 8.89 8.89 8.89h88.92c4.91 0 8.89-3.98 8.89-8.89v-88.92h53.35c3.59 0 6.84-2.17 8.21-5.49 1.38-3.33.62-7.15-1.93-9.69l-106.7-106.7c-3.47-3.46-9.1-3.46-12.57.01z" display="inline"/><path d="m231.27 264.75v-53.35h44.46c3.59 0 6.84-2.17 8.21-5.49 1.38-3.33.62-7.15-1.93-9.69l-89.65-89.65c-3.47-3.47-9.1-3.47-12.57 0l-89.65 89.65c-2.54 2.54-3.3 6.36-1.93 9.69 1.38 3.32 4.62 5.49 8.21 5.49h45.93v53.35c0 4.91 3.98 8.89 8.89 8.89h71.13c4.92 0 8.9-3.98 8.9-8.89zm-17.78-62.24v53.35h-53.35v-53.35c0-4.91-3.98-8.89-8.89-8.89h-33.36l68.19-68.19 68.19 68.19h-31.88c-4.92 0-8.9 3.98-8.9 8.89z" display="inline"/><path d="m151.25 300.32h71.13v17.78h-71.13z" display="inline"/><path d="m151.25 389.23h71.13v17.78h-71.13z" display="inline"/><path d="m151.25 433.69h71.13v17.78h-71.13z" display="inline"/><path d="m275.73 300.32h88.92v17.78h-88.92z" display="inline"/><path d="m35.66 344.77h426.79v17.78h-426.79z" display="inline"/><path d="m275.73 389.23h88.92v17.78h-88.92z" display="inline"/><path d="m275.73 433.69h88.92v17.78h-88.92z" display="inline"/></g><g display="none"><path d="m249.05 447.03c107.86 0 195.61-87.75 195.61-195.61s-87.75-195.62-195.61-195.62-195.61 87.75-195.61 195.61 87.75 195.62 195.61 195.62zm0-17.79c-45.83 0-87.53-17.58-119.1-46.16l250.77-250.77c28.58 31.57 46.16 73.27 46.16 119.1 0 98.06-79.77 177.83-177.83 177.83zm0-355.66c45.83 0 87.53 17.58 119.1 46.16l-250.77 250.77c-28.58-31.57-46.16-73.27-46.16-119.1 0-98.05 79.78-177.83 177.83-177.83z" display="inline"/><path d="m124.57 220.29c0 17.78 3.58 35.34 10.51 51.96l-24.33 16.22 9.86 14.8 22.46-14.98c2.47 4.33 5.1 8.6 8.05 12.74l14.47-10.32c-15.21-21.33-23.25-45.68-23.25-70.42 0-33.19 17.87-66.69 57.79-66.69 9.65 0 57.79 2.14 57.79 44.46h17.78c0-15.27-4.85-27.48-12.71-36.96l18.99-18.99-12.57-12.57-19.76 19.76c-13.38-8.76-30.4-13.1-47.55-13.41l-6.89-20.66-16.87 5.63 5.54 16.61c-26.42 5.5-46.21 24.55-54.72 51.7h-22.41v17.78h18.65c-.48 4.33-.83 8.75-.83 13.34z" display="inline"/><path d="m266.84 278.09h17.78v17.78h-17.78z" display="inline"/><path d="m284.62 313.65h17.78v17.78h-17.78z" display="inline"/><path d="m302.4 278.09h17.78v17.78h-17.78z" display="inline"/><path d="m372.45 292.79c-3.05-17.62-12.69-30.82-25.21-39.26l15.91-23.86-14.8-9.86-17.27 25.9c-6.45-2.07-13.16-3.19-19.79-3.19-1.98 0-6.38-1.66-12.24-6.34l-11.09 13.9c5.84 4.66 14.64 10.22 23.33 10.22 22.09 0 44.46 15.27 44.46 44.46 0 29.42-23.93 53.35-53.35 53.35-36.28 0-72.33-11.51-101.51-32.41l-10.35 14.46c6.14 4.39 12.62 8.28 19.25 11.91l-12.59 18.89 14.8 9.86 13.91-20.87c15.04 6.47 30.89 11.13 47.14 13.65l-5.75 17.26 16.87 5.63 7.01-21.04c3.74.22 7.48.44 11.23.44 37.02 0 67.49-28.44 70.8-64.61l20.93-6.98-5.63-16.87z" display="inline"/><path d="m204.6 180.28c-19.61 0-35.57 15.96-35.57 35.57s15.96 35.57 35.57 35.57v-17.78c-9.81 0-17.78-7.98-17.78-17.78s7.98-17.78 17.78-17.78 17.78 7.98 17.78 17.78h17.78c0-19.62-15.95-35.58-35.56-35.58z" display="inline"/></g><g display="none"><path d="m233.07 81.58-48.41 129.11c-1.04 2.78-.63 5.89 1.1 8.3s4.49 3.8 7.51 3.71l26.54-.84-35.15 93.73c-1.12 2.98-.56 6.33 1.47 8.78 2.02 2.45 5.2 3.67 8.34 3.11l32.52-5.49-34.14 81.86c-1.15 2.74-.84 5.88.81 8.35s4.42 3.96 7.4 3.96h16.14c2.54 0 4.96-1.09 6.64-2.98l129.11-145.14c2.46-2.76 2.95-6.76 1.24-10.03-1.71-3.28-5.29-5.14-8.94-4.71l-44.91 5.4 84.89-95.46c2.46-2.76 2.95-6.75 1.24-10.02-1.71-3.28-5.25-5.11-8.93-4.71l-54.44 6.49 54.99-89.86c1.83-3 1.73-6.79-.26-9.69-1.99-2.89-5.5-4.35-8.96-3.69l-129.11 24.2c-3.06.57-5.6 2.71-6.69 5.62zm119.4-8.66-54.12 88.44c-1.78 2.9-1.74 6.57.1 9.44 1.84 2.86 5.16 4.42 8.54 4.03l49.35-5.9-84.9 95.48c-2.46 2.76-2.95 6.76-1.24 10.03 1.71 3.28 5.29 5.14 8.94 4.71l44.9-5.4-108.6 122.1 34.16-81.89c1.25-2.99.77-6.42-1.25-8.95-1.7-2.14-4.28-3.36-6.96-3.36-.49 0-.99.04-1.48.13l-33.18 5.6 34.39-91.69c1.04-2.78.63-5.89-1.1-8.3s-4.36-3.85-7.51-3.71l-26.54.84 41.99-111.99z" display="inline"/><path d="m135.81 451.23 40.35-96.83c1.25-2.99.77-6.41-1.24-8.95s-5.25-3.8-8.43-3.24l-33.22 5.54 34.4-91.73c1.04-2.78.63-5.89-1.1-8.3s-4.44-3.84-7.51-3.71l-26.54.84 43.76-116.68-16.65-6.24-48.42 129.11c-1.04 2.78-.63 5.89 1.1 8.3s4.42 3.8 7.51 3.71l26.54-.84-35.15 93.73c-1.12 2.97-.56 6.32 1.46 8.77s5.18 3.65 8.33 3.12l32.57-5.43-34.16 81.99z" display="inline"/></g><g display="none"><path d="m249.05 358.11c34.32 0 62.24-27.92 62.24-62.24 0-21.99-9.65-40.38-26.67-51.27v-171.02c0-19.62-15.96-35.57-35.57-35.57s-35.57 15.95-35.57 35.57v171.02c-17.03 10.9-26.67 29.29-26.67 51.27 0 34.32 27.92 62.24 62.24 62.24zm-22.58-100.5c2.95-1.53 4.8-4.58 4.8-7.89v-176.14c0-9.8 7.98-17.78 17.78-17.78 9.81 0 17.78 7.98 17.78 17.78v176.14c0 3.32 1.85 6.36 4.8 7.89 14.11 7.32 21.88 20.9 21.88 38.26 0 24.51-19.95 44.46-44.46 44.46s-44.46-19.95-44.46-44.46c.01-17.36 7.77-30.94 21.88-38.26z" display="inline"/><path d="m169.03 91.37h35.57v17.78h-35.57z" display="inline"/><path d="m169.03 135.82h35.57v17.78h-35.57z" display="inline"/><path d="m169.03 180.28h35.57v17.78h-35.57z" display="inline"/><path d="m352.7 162.5h29.73v-17.78h-62.24v62.24h17.78v-33.24c38.71 28.27 62.24 73.71 62.24 122.15 0 83.35-67.81 151.16-151.16 151.16-17.31 0-34.28-2.9-50.45-8.62l-5.93 16.76c18.08 6.4 37.05 9.65 56.38 9.65 93.15 0 168.94-75.79 168.94-168.94 0-52.37-24.55-101.63-65.29-133.38z" display="inline"/><path d="m125.91 411.46h-28.01v17.78h62.24v-62.24h-17.78v35.86c-28.39-28.27-44.46-66.44-44.46-106.99 0-41.61 16.55-80.38 46.61-109.17l-12.3-12.83c-33.59 32.17-52.09 75.5-52.09 122.01-.01 43.43 16.49 84.43 45.79 115.58z" display="inline"/></g><g display="none"><path d="m125.93 346.05c2.09 13.91 15.33 25.4 30.27 25.4h36.1c11.31 0 25.39 0 38.54-3.08l-4.06-17.31c-10.34 2.42-21.27 2.61-34.49 2.61h-36.1c-6.88 0-12.77-6.29-12.77-11.44 0-2.24-.84-4.39-2.36-6.03l-4.85-5.18c-21.1-22.44-64.99-69.13-64.99-110.19v-109.15c0-8.67 5.4-16.29 13.44-18.97l67.38-22.53c8.44-2.85 17.47.35 22.32 7.61l12.22 19.77c.39.58.33 2.8.28 4.59l-.04 10.38c0 8.38-3.15 9.97-8.96 9.97h-35.5-26.67v17.78h17.78v22.79c0 13.07 16.44 29.6 27.14 38.98-3.86 10.37-6.08 21.53-6.08 33.22h17.78c0-40.19 30.66-73.36 69.82-77.35 1.35 9.77 4.17 19.21 8.63 28.14l15.91-7.94c-5.11-10.25-7.71-21.31-7.71-32.86 0-40.74 33.26-73.89 74.14-73.89s74.15 33.15 74.15 73.89-33.26 73.89-74.15 73.89c-8.49 0-16.82-1.42-24.76-4.22l-5.91 16.78c9.84 3.46 20.16 5.23 30.67 5.23 2.06 0 4.08-.17 6.11-.31-4.61 22.45-14.38 43.67-28.56 61.85l14.02 10.94c17.27-22.15 28.61-48.33 33.11-75.94 38.73-10.79 67.25-46.21 67.25-88.22 0-50.55-41.24-91.68-91.93-91.68-48.96 0-88.99 38.4-91.67 86.58-30.75 2.77-57.27 20.19-72.67 45.18-9.7-9.16-17.38-18.68-17.51-22.29v-22.79h26.61c16.49 0 26.74-10.64 26.74-27.75l.03-9.9c.11-4.08.26-9.66-3.1-14.67l-12.22-19.77c-9.52-14.28-26.75-20.25-42.91-14.87l-67.37 22.54c-15.3 5.1-25.59 19.5-25.59 35.84v109.15c0 48.11 47.16 98.27 69.82 122.37z" display="inline"/><path d="m337.97 396.66c0-23.69-12.58-42.36-24.75-60.42-8.67-12.87-16.87-25.02-19.31-37.62-.81-4.18-4.47-7.2-8.73-7.2s-7.92 3.02-8.73 7.2c-2.44 12.59-10.63 24.75-19.31 37.62-12.17 18.06-24.75 36.73-24.75 60.42 0 30.23 23.68 54.82 52.79 54.82 29.1 0 52.79-24.59 52.79-54.82zm-87.8 0c0-18.26 10.55-33.91 21.72-50.48 4.63-6.88 9.34-13.87 13.29-21.15 3.95 7.29 8.66 14.28 13.29 21.15 11.17 16.57 21.72 32.21 21.72 50.48 0 20.42-15.7 37.03-35.01 37.03-19.3 0-35.01-16.61-35.01-37.03z" display="inline"/><path d="m444.67 334.14c0-19.75-10.8-35.84-20.34-50.01-6.93-10.32-13.48-20.05-15.39-29.96-.81-4.18-4.47-7.2-8.73-7.2s-7.92 3.02-8.73 7.2c-1.91 9.91-8.46 19.64-15.39 29.96-9.53 14.18-20.34 30.26-20.34 50.01 0 25.48 19.95 46.2 44.46 46.2s44.46-20.72 44.46-46.2zm-71.14 0c0-14.34 8.41-26.85 17.31-40.1 3.21-4.78 6.47-9.63 9.36-14.65 2.89 5.02 6.15 9.87 9.36 14.65 8.9 13.25 17.31 25.76 17.31 40.1 0 15.67-11.97 28.42-26.67 28.42s-26.67-12.75-26.67-28.42z" display="inline"/></g><g display="none"><path d="m249.05 295.87c-86.52 0-167.8 45.95-212.13 119.91l15.26 9.13c41.13-68.63 116.57-111.27 196.88-111.27 80.3 0 155.74 42.63 196.88 111.27l15.25-9.13c-44.34-73.96-125.63-119.91-212.14-119.91z" display="inline"/><path d="m52.18 77.91-15.26 9.13c44.33 73.96 125.61 119.91 212.13 119.91 86.51 0 167.8-45.95 212.13-119.91l-15.25-9.13c-41.14 68.63-116.58 111.27-196.88 111.27-80.3-.01-155.74-42.64-196.87-111.27z" display="inline"/><path d="m415.39 200.67-12.57 12.57 29.28 29.28h-366.09l29.28-29.28-12.57-12.57-44.46 44.46c-3.47 3.47-3.47 9.1 0 12.57l44.46 44.46 12.57-12.57-29.28-29.28h366.08l-29.28 29.28 12.57 12.57 44.46-44.46c3.47-3.47 3.47-9.1 0-12.57z" display="inline"/></g><g display="none"><path d="m118.15 264.75c1.65 2.86 4.64 4.45 7.71 4.45 1.51 0 3.04-.38 4.44-1.19l43.02-24.83-7.47 27.85c-1.28 4.74 1.55 9.62 6.29 10.89.77.21 1.55.3 2.31.3 3.92 0 7.51-2.61 8.58-6.59l12.07-45.02 45.07-26.02v52.05l-32.96 32.96c-3.47 3.47-3.47 9.1 0 12.57s9.1 3.47 12.57 0l20.39-20.39v49.67c0 4.91 3.98 8.89 8.89 8.89s8.89-3.98 8.89-8.89v-49.67l20.39 20.39c1.74 1.74 4.01 2.6 6.29 2.6 2.27 0 4.55-.87 6.29-2.6 3.47-3.47 3.47-9.1 0-12.57l-32.96-32.96v-52.05l45.07 26.02 12.07 45.02c1.07 3.98 4.65 6.59 8.58 6.59.76 0 1.54-.1 2.31-.3 4.74-1.27 7.56-6.15 6.29-10.89l-7.47-27.85 43.02 24.83c1.4.81 2.93 1.19 4.44 1.19 3.07 0 6.06-1.6 7.71-4.45 2.46-4.25 1-9.69-3.26-12.15l-43.01-24.83 27.85-7.46c4.74-1.27 7.55-6.15 6.29-10.89-1.26-4.75-6.13-7.56-10.89-6.29l-45.03 12.06-45.08-26.02 45.08-26.02 45.03 12.06c.77.21 1.55.3 2.31.3 3.92 0 7.52-2.62 8.58-6.59 1.27-4.74-1.55-9.62-6.29-10.89l-27.85-7.46 43.01-24.83c4.25-2.46 5.71-7.89 3.26-12.15-2.47-4.26-7.92-5.71-12.15-3.26l-43.02 24.83 7.47-27.85c1.28-4.74-1.55-9.62-6.29-10.89s-9.61 1.54-10.89 6.29l-12.07 45.02-45.07 26.02v-52.05l32.96-32.96c3.47-3.47 3.47-9.1 0-12.57s-9.1-3.47-12.57 0l-20.39 20.39v-49.65c0-4.91-3.98-8.89-8.89-8.89s-8.89 3.98-8.89 8.89v49.67l-20.39-20.39c-3.47-3.47-9.1-3.47-12.57 0s-3.47 9.1 0 12.57l32.96 32.96v52.05l-45.07-26.02-12.07-45.02c-1.28-4.75-6.13-7.56-10.89-6.29-4.74 1.27-7.56 6.15-6.29 10.89l7.47 27.85-43.02-24.83c-4.25-2.46-9.69-1-12.15 3.26-2.46 4.25-1 9.69 3.26 12.15l43.01 24.83-27.85 7.46c-4.74 1.27-7.55 6.15-6.29 10.89 1.06 3.98 4.65 6.59 8.58 6.59.76 0 1.54-.1 2.31-.3l45.03-12.06 45.08 26.02-45.08 26.02-45.03-12.06c-4.74-1.27-9.62 1.55-10.89 6.29s1.55 9.62 6.29 10.89l27.85 7.46-43.03 24.81c-4.25 2.46-5.71 7.9-3.25 12.15z" display="inline"/><path d="m44.55 358.11h409.01v17.78h-409.01z" display="inline"/><path d="m44.55 447.03h409.01v17.78h-409.01z" display="inline"/><path d="m71.22 393.68h26.67v17.78h-26.67z" display="inline"/><path d="m124.57 411.46h26.67v17.78h-26.67z" display="inline"/><path d="m177.92 393.68h26.67v17.78h-26.67z" display="inline"/><path d="m231.27 411.46h26.67v17.78h-26.67z" display="inline"/><path d="m284.62 393.68h26.67v17.78h-26.67z" display="inline"/><path d="m337.97 411.46h26.67v17.78h-26.67z" display="inline"/><path d="m391.32 393.68h26.67v17.78h-26.67z" display="inline"/></g><g display="none"><path d="m456.44 272.51c-2.14-2.19-5.24-3.08-8.23-2.47-13.43 2.89-29.17 2.34-46.78-1.39 14.31-17.36 25.46-37.03 30.65-59.01.69-2.97-.17-6.09-2.31-8.27-2.14-2.19-5.29-3.1-8.22-2.47-13.44 2.9-29.19 2.32-46.78-1.4 14.31-17.36 25.45-37.02 30.64-59 .69-2.97-.17-6.09-2.31-8.27-2.14-2.19-5.24-3.1-8.22-2.47-68.14 14.71-167.55-59.92-168.55-60.68-2.92-2.21-6.91-2.41-10.02-.49l-172.95 106.11c-2.64 1.62-4.25 4.49-4.25 7.58s1.61 5.97 4.25 7.58l58.96 36.17-32.29 19.8c-2.64 1.62-4.25 4.49-4.25 7.58s1.61 5.97 4.25 7.58l58.97 36.17-32.29 19.8c-2.64 1.62-4.25 4.49-4.25 7.58s1.61 5.97 4.25 7.58l172.94 106.09c1.42.87 3.02 1.31 4.65 1.31.96 0 1.93-.16 2.86-.47 6.43-2.18 157.56-54.52 181.6-156.28.69-2.96-.18-6.08-2.32-8.26zm-235.92-187.62c20.41 14.6 98.62 66.7 163.69 62.3-28.37 75.99-140.02 121.05-162.26 129.36l-156.94-96.27zm-101.2 149.57 96.98 59.49c1.42.87 3.02 1.31 4.65 1.31.96 0 1.93-.16 2.86-.47 4.62-1.57 84.09-29.08 137.3-82.26 18.09 4.8 34.83 6.84 49.78 5.78-28.37 76-140.02 121.06-162.26 129.37l-156.95-96.27zm155.98 184.36-156.94-96.27 27.64-16.96 96.98 59.49c1.42.87 3.02 1.31 4.65 1.31.96 0 1.93-.16 2.86-.47 4.62-1.57 84.09-29.08 137.3-82.26 18.09 4.79 34.84 6.86 49.78 5.78-28.38 76.01-140.03 121.07-162.27 129.38z" display="inline"/></g><g display="none"><path d="m140.9 181.36c-19.27 17.75-29.22 36.92-29.57 57-.64 36.76 30.21 67.23 52.74 89.49l4.19-4.18 8.3-8.47c-20.24-20-47.97-47.38-47.46-76.52.26-14.55 7.38-28.4 21.76-42.27 1.26-.39 2.42-1.05 3.41-1.96 19.27-17.74 29.22-36.89 29.57-56.92.64-36.55-30.07-66.88-52.79-89.33l-12.19 12.96c20.14 19.89 47.71 47.13 47.21 76.06-.26 14.5-7.38 28.33-21.76 42.19-1.25.38-2.42 1.04-3.41 1.95z" display="inline"/><path d="m170.37 321.56-2.1 2.1-4.15 4.23z" display="inline"/><path d="m273.24 321.56-2.21 2.2-4.05 4.13z" display="inline"/><path d="m243.77 181.36c-19.27 17.74-29.22 36.92-29.57 57-.65 36.76 30.2 67.22 52.72 89.48l4.1-4.08 8.4-8.58c-20.24-20-47.96-47.38-47.44-76.52.26-14.55 7.38-28.4 21.76-42.27 1.26-.39 2.42-1.05 3.41-1.96 19.27-17.74 29.22-36.89 29.57-56.93.63-36.56-30.09-66.89-52.81-89.32l-12.2 12.94c20.14 19.89 47.73 47.13 47.23 76.07-.25 14.51-7.37 28.33-21.75 42.2-1.26.4-2.43 1.06-3.42 1.97z" display="inline"/><path d="m385 321.56-2.1 2.1-4.16 4.23z" display="inline"/><path d="m355.53 181.36c-19.27 17.75-29.22 36.92-29.57 57-.64 36.76 30.21 67.23 52.74 89.49l4.19-4.18 8.3-8.47c-20.24-20-47.97-47.38-47.46-76.52.26-14.55 7.38-28.4 21.76-42.27 1.26-.39 2.42-1.05 3.41-1.96 19.27-17.74 29.22-36.89 29.57-56.92.64-36.55-30.07-66.88-52.79-89.33l-12.19 12.96c20.14 19.89 47.71 47.13 47.21 76.06-.26 14.5-7.38 28.33-21.76 42.19-1.26.38-2.42 1.04-3.41 1.95z" display="inline"/><path d="m44.55 347.94h409.01v17.78h-409.01z" display="inline"/><path d="m44.55 436.86h409.01v17.78h-409.01z" display="inline"/><path d="m71.22 383.51h26.67v17.78h-26.67z" display="inline"/><path d="m124.57 401.29h26.67v17.78h-26.67z" display="inline"/><path d="m177.92 383.51h26.67v17.78h-26.67z" display="inline"/><path d="m231.27 401.29h26.67v17.78h-26.67z" display="inline"/><path d="m284.62 383.51h26.67v17.78h-26.67z" display="inline"/><path d="m337.97 401.29h26.67v17.78h-26.67z" display="inline"/><path d="m391.32 383.51h26.67v17.78h-26.67z" display="inline"/></g><g><path d="m462.67 92.7c-2.62-1.63-5.9-1.76-8.65-.39-56.54 28.27-92.94 33.67-122.18 38.01-42.21 6.27-69.01 10.38-110.77 73.01-1.2-3.32-2.56-6.6-4.31-9.68-1.27-2.22-3.45-3.79-5.96-4.31-2.5-.49-5.12.1-7.16 1.66-54.19 41.43-92.21 95.27-109.95 155.71l17.07 5c15.66-53.38 48.29-101.38 94.65-139.44 3.62 11.97 3.62 25.16 3.62 30.25h17.78c0-2.92 0-8.09-.55-14.35 43.32-70.57 65.09-73.87 108.18-80.26 26.72-3.97 62.57-9.29 114.55-33.44-.8 47.59-6.99 89.03-44.19 132.3-13.77-.71-28.9 2-38.45 5.07l5.44 16.93c12.44-4 28.08-5.23 38.03-3.6l.78.73c-11.78 18.02-58.36 62.88-125.64 89.66-6.01-3.63-12.26-6.76-19.22-9.61l-6.74 16.46c8.49 3.48 15.81 7.41 23.04 12.43-29.85 15.05-84.48 27.44-141.6 10.31l-5.11 17.04c21.87 6.56 42.95 9.18 62.45 9.18 48.67 0 87.62-16.28 105.13-28.12 2.31-1.55 3.76-4.11 3.91-6.89s-1.02-5.47-3.15-7.27c-.6-.5-1.18-.91-1.77-1.39 70.31-31.1 129.03-86.15 129.42-107.23.05-3.01-1.42-5.85-3.92-7.54-.99-.67-2.21-1.12-3.32-1.67 39.22-49.57 42.8-97.98 42.8-151.01.01-3.07-1.58-5.93-4.21-7.55z"/><path d="m348.71 200.68c-3.47-3.49-9.1-3.47-12.57-.02-55.44 55.32-189.09 166.92-298.13 193.27-4.77 1.15-7.7 5.96-6.55 10.73.98 4.06 4.62 6.8 8.63 6.8.69 0 1.4-.08 2.1-.25 112.87-27.27 249.85-141.41 306.5-197.96 3.48-3.47 3.48-9.1.02-12.57z"/></g><g display="none"><path d="m177.92 147.69c0-23.69-12.58-42.37-24.75-60.42-8.67-12.87-16.87-25.02-19.31-37.62-.81-4.18-4.47-7.2-8.73-7.2s-7.92 3.02-8.73 7.2c-2.44 12.59-10.63 24.75-19.31 37.62-12.17 18.06-24.75 36.73-24.75 60.42 0 30.23 23.68 54.82 52.79 54.82s52.79-24.59 52.79-54.82zm-87.79 0c0-18.26 10.55-33.91 21.72-50.48 4.63-6.88 9.34-13.87 13.29-21.15 3.95 7.29 8.66 14.28 13.29 21.15 11.17 16.57 21.72 32.21 21.72 50.48 0 20.42-15.7 37.03-35.01 37.03s-35.01-16.6-35.01-37.03z" display="inline"/><path d="m417.99 165.2c0-19.75-10.8-35.83-20.34-50.01-6.93-10.31-13.48-20.05-15.4-29.95-.81-4.19-4.46-7.21-8.73-7.21-4.26 0-7.92 3.02-8.73 7.21-1.92 9.9-8.47 19.64-15.4 29.95-9.53 14.19-20.34 30.26-20.34 50.01 0 25.48 19.95 46.2 44.46 46.2s44.48-20.72 44.48-46.2zm-71.13 0c0-14.34 8.41-26.85 17.31-40.09 3.21-4.78 6.47-9.63 9.36-14.65 2.89 5.02 6.15 9.86 9.36 14.65 8.91 13.24 17.31 25.75 17.31 40.09 0 15.67-11.97 28.42-26.67 28.42s-26.67-12.75-26.67-28.42z" display="inline"/><path d="m321.31 255.86c0-33-17.55-60.5-34.52-87.1-12.45-19.5-24.21-37.93-27.88-56.86-.81-4.18-4.47-7.2-8.73-7.2s-7.92 3.02-8.73 7.2c-3.67 18.93-15.67 37.39-28.37 56.93-17.27 26.57-35.12 54.04-35.12 87.03 0 40.3 31.72 71.87 72.22 71.87 40.54 0 71.13-30.89 71.13-71.87zm-125.57 0c0-27.73 16.39-52.95 32.24-77.33 7.94-12.22 16.04-24.68 22.15-37.59 6 12.84 13.91 25.24 21.66 37.39 15.59 24.44 31.73 49.71 31.73 77.53 0 30.83-22.93 54.09-53.35 54.09-31.03 0-54.43-23.26-54.43-54.09z" display="inline"/><path d="m44.55 353.67h409.01v17.78h-409.01z" display="inline"/><path d="m44.55 442.58h409.01v17.78h-409.01z" display="inline"/><path d="m71.22 389.23h26.67v17.78h-26.67z" display="inline"/><path d="m124.57 407.02h26.67v17.78h-26.67z" display="inline"/><path d="m177.92 389.23h26.67v17.78h-26.67z" display="inline"/><path d="m231.27 407.02h26.67v17.78h-26.67z" display="inline"/><path d="m284.62 389.23h26.67v17.78h-26.67z" display="inline"/><path d="m337.97 407.02h26.67v17.78h-26.67z" display="inline"/><path d="m391.32 389.23h26.67v17.78h-26.67z" display="inline"/></g><g display="none"><path d="m35.66 438.14h426.79v17.78h-426.79z" display="inline"/><path d="m171 192.41 12.57 12.57 19.38-19.38c8.14 6.1 17.79 10.23 28.31 11.75v27.38h17.78v-27.38c10.52-1.52 20.17-5.65 28.31-11.75l19.39 19.38 12.57-12.57-19.39-19.38c6.1-8.14 10.24-17.8 11.75-28.31h27.38v-17.78h-27.38c-1.52-10.52-5.65-20.17-11.75-28.31l19.38-19.38-12.57-12.57-19.38 19.38c-8.14-6.1-17.8-10.24-28.32-11.76v-27.39h-17.78v27.38c-10.52 1.52-20.17 5.65-28.31 11.75l-19.38-19.37-12.56 12.57 19.38 19.38c-6.1 8.14-10.24 17.79-11.75 28.31h-27.38v17.78h27.38c1.52 10.52 5.65 20.18 11.76 28.32zm69.16-101.04c24.51 0 44.46 19.95 44.46 44.46s-19.95 44.46-44.46 44.46-44.46-19.95-44.46-44.46 19.95-44.46 44.46-44.46z" display="inline"/><path d="m453.56 233.63h-44.46v17.78h22.99l-147.47 147.48-11.5-11.5-12.57 12.57 17.78 17.78c1.74 1.74 4.01 2.6 6.29 2.6 2.27 0 4.55-.87 6.29-2.6l153.76-153.76v22.99h17.78v-44.46c0-4.9-3.98-8.88-8.89-8.88z" display="inline"/><path d="m182.37 299.24h17.78v37.72h-17.78z" display="inline" transform="matrix(.707 -.707 .707 .707 -168.913 228.409)"/><path d="m137.91 254.78h17.78v37.72h-17.78z" display="inline" transform="matrix(.707 -.707 .707 .707 -150.498 183.952)"/><path d="m373.53 286.98v-44.46c0-4.91-3.98-8.89-8.89-8.89h-44.46v17.78h22.99l-103.01 103.02-11.5-11.5-12.57 12.57 11.5 11.5-31.88 31.88-11.5-11.5-12.57 12.57 17.78 17.78c1.74 1.74 4.01 2.6 6.29 2.6 2.27 0 4.55-.87 6.29-2.6l38.17-38.17 2.6 2.6 12.57-12.57-2.6-2.6 103.02-103.02v22.99h17.77z" display="inline"/><path d="m137.91 343.7h17.78v37.72h-17.78z" display="inline" transform="matrix(.707 -.707 .707 .707 -213.37 209.994)"/><path d="m93.45 299.24h17.78v37.72h-17.78z" display="inline" transform="matrix(.707 -.707 .707 .707 -194.956 165.537)"/><path d="m48.99 254.78h17.78v37.72h-17.78z" display="inline" transform="matrix(.707 -.707 .707 .707 -176.541 121.079)"/></g><g display="none"><path d="m448.77 200.74c-44.03 31.84-117.34 84.84-191.97 37.45-3.14-1.61-96.41-73.76-217.88 32.68-3.98 2.88-4.87 8.44-2 12.42 1.74 2.41 4.46 3.68 7.22 3.68 1.81 0 3.63-.55 5.2-1.68 46.82-33.87 110.55-81.95 194.61-34.08 85.92 57.55 170.06-3.39 215.24-36.05 3.98-2.88 4.87-8.44 2-12.42-2.88-3.99-8.44-4.87-12.42-2z" display="inline"/><path d="m150.96 267.5c-.81-4.18-4.47-7.2-8.73-7.2s-7.92 3.02-8.73 7.2c-1.91 9.91-8.46 19.64-15.39 29.96-9.53 14.18-20.34 30.26-20.34 50.01 0 25.48 19.95 46.2 44.46 46.2s44.46-20.73 44.46-46.2c0-19.75-10.8-35.84-20.34-50.01-6.93-10.32-13.47-20.05-15.39-29.96zm-8.73 108.39c-14.71 0-26.67-12.75-26.67-28.42 0-14.34 8.41-26.85 17.31-40.1 3.21-4.78 6.47-9.63 9.36-14.65 2.89 5.02 6.15 9.87 9.36 14.65 8.9 13.25 17.31 25.76 17.31 40.1.01 15.67-11.96 28.42-26.67 28.42z" display="inline"/><path d="m257.66 303.06c-.81-4.18-4.47-7.2-8.73-7.2s-7.92 3.02-8.73 7.2c-1.91 9.91-8.46 19.64-15.39 29.96-9.53 14.18-20.34 30.26-20.34 50.01 0 25.48 19.95 46.2 44.46 46.2s44.46-20.73 44.46-46.2c0-19.75-10.8-35.84-20.34-50.01-6.93-10.31-13.48-20.05-15.39-29.96zm-8.73 108.4c-14.71 0-26.67-12.75-26.67-28.42 0-14.34 8.41-26.85 17.31-40.1 3.21-4.78 6.47-9.63 9.36-14.65 2.89 5.02 6.15 9.87 9.36 14.65 8.9 13.25 17.31 25.76 17.31 40.1 0 15.67-11.96 28.42-26.67 28.42z" display="inline"/><path d="m364.36 329.74c-.81-4.18-4.47-7.2-8.73-7.2s-7.92 3.02-8.73 7.2c-1.91 9.91-8.46 19.64-15.39 29.96-9.53 14.18-20.34 30.26-20.34 50.01 0 25.48 19.95 46.2 44.46 46.2s44.46-20.73 44.46-46.2c0-19.75-10.8-35.84-20.34-50.01-6.93-10.32-13.48-20.05-15.39-29.96zm-8.73 108.39c-14.71 0-26.67-12.75-26.67-28.42 0-14.34 8.41-26.85 17.31-40.1 3.21-4.78 6.47-9.63 9.36-14.65 2.89 5.02 6.15 9.87 9.36 14.65 8.9 13.25 17.31 25.76 17.31 40.1 0 15.67-11.96 28.42-26.67 28.42z" display="inline"/><path d="m142.23 171.38c4.91 0 8.89-3.98 8.89-8.89v-85.23l20.39 20.39c1.74 1.74 4.01 2.6 6.29 2.6s4.55-.87 6.29-2.6c3.47-3.47 3.47-9.1 0-12.57l-35.56-35.56c-.82-.82-1.81-1.47-2.9-1.93-2.17-.9-4.62-.9-6.79 0-1.09.45-2.08 1.1-2.9 1.93l-35.56 35.56c-3.47 3.47-3.47 9.1 0 12.57s9.1 3.47 12.57 0l20.39-20.39v85.23c0 4.92 3.98 8.89 8.89 8.89z" display="inline"/><path d="m248.93 198.06c4.91 0 8.89-3.98 8.89-8.89v-85.23l20.39 20.39c1.74 1.74 4.01 2.6 6.29 2.6 2.27 0 4.55-.87 6.29-2.6 3.47-3.47 3.47-9.1 0-12.57l-35.56-35.56c-.82-.82-1.81-1.47-2.9-1.93-2.17-.9-4.62-.9-6.79 0-1.09.45-2.08 1.1-2.9 1.93l-35.56 35.56c-3.47 3.47-3.47 9.1 0 12.57s9.1 3.47 12.57 0l20.39-20.39v85.23c0 4.91 3.98 8.89 8.89 8.89z" display="inline"/><path d="m355.63 224.73c4.91 0 8.89-3.98 8.89-8.89v-85.23l20.39 20.39c1.74 1.74 4.01 2.6 6.29 2.6 2.27 0 4.55-.87 6.29-2.6 3.47-3.47 3.47-9.1 0-12.57l-35.56-35.56c-.82-.82-1.81-1.47-2.9-1.93-2.17-.9-4.62-.9-6.79 0-1.09.45-2.08 1.1-2.9 1.93l-35.56 35.56c-3.47 3.47-3.47 9.1 0 12.57s9.1 3.47 12.57 0l20.39-20.39v85.23c0 4.92 3.98 8.89 8.89 8.89z" display="inline"/></g></svg>