<svg id="Capa_1" enable-background="new 0 0 510.003 510.003" height="512" viewBox="0 0 510.003 510.003" width="512" xmlns="http://www.w3.org/2000/svg"><g><circle cx="215.003" cy="310.002" r="10"/><circle cx="215.003" cy="450.002" r="10"/><path d="m215.003 350.002c-16.542 0-30 13.458-30 30s13.458 30 30 30 30-13.458 30-30-13.458-30-30-30zm0 40c-5.514 0-10-4.486-10-10s4.486-10 10-10 10 4.486 10 10-4.486 10-10 10z"/><path d="m435.359 364.646c-3.905-3.904-10.237-3.904-14.143 0l-21.213 21.213-21.213-21.213c-3.905-3.904-10.237-3.904-14.143 0-3.905 3.905-3.905 10.237 0 14.143l21.213 21.213-21.213 21.213c-3.905 3.905-3.905 10.237 0 14.143 3.906 3.905 10.237 3.904 14.143 0l21.213-21.213 21.213 21.213c3.906 3.905 10.237 3.904 14.143 0 3.905-3.905 3.905-10.237 0-14.143l-21.213-21.213 21.213-21.213c3.905-3.906 3.905-10.238 0-14.143z"/><path d="m110.003 410.002c-16.542 0-30 13.458-30 30s13.458 30 30 30 30-13.458 30-30-13.458-30-30-30zm0 40c-5.514 0-10-4.486-10-10s4.486-10 10-10 10 4.486 10 10-4.486 10-10 10z"/><circle cx="140.003" cy="360.002" r="10"/><circle cx="280.003" cy="310.002" r="10"/><path d="m400.003 290.002c-20.919 0-40.491 5.871-57.16 16.05-.966-1.821-62.372-117.653-62.84-118.536v-127.514h10c16.542 0 30-13.458 30-30s-13.458-30-30-30h-150c-16.542 0-30 13.458-30 30s13.458 30 30 30h10v127.325c-8.175 14.19-134.874 234.129-143.043 248.31-11.273 18.89-8.891 43.655 7.437 59.961 9.276 9.288 21.619 14.403 34.756 14.403h350.85c60.654 0 110-49.346 110-110s-49.345-109.999-110-109.999zm-260-250c-5.514 0-10-4.486-10-10s4.486-10 10-10h150c5.514 0 10 4.486 10 10s-4.486 10-10 10c-15.815 0-130.584 0-150 0zm28.665 154.991c.875-1.518 1.335-3.239 1.335-4.991v-130h90v130c0 1.633.4 3.241 1.165 4.684l27.514 51.9c-4.829-1.504-10.732-2.584-18.688-2.584-14.775 0-22.506 3.711-29.327 6.984-5.837 2.803-10.448 5.016-20.671 5.016-10.224 0-14.835-2.213-20.672-5.016-6.821-3.273-14.552-6.984-29.328-6.984-19.157 0-26.484 6.252-35.06 9.546zm-119.515 295.009c-7.79 0-15.107-3.031-20.614-8.546-9.677-9.663-11.116-24.374-4.378-35.613.139-.235-2.612 4.535 97.854-169.864 13.476-.32 20.807-3.84 27.31-6.962 5.837-2.802 10.448-5.015 20.671-5.015 10.224 0 14.835 2.213 20.673 5.016 6.82 3.273 14.551 6.984 29.327 6.984 14.775 0 22.506-3.711 29.327-6.984 5.837-2.803 10.448-5.016 20.671-5.016 16.669 0 19.232 6.182 33.201 9.96l23.391 44.123c-52.688 47.082-47.731 131.087 10.236 171.917zm350.85 0c-51.696 0-93.408-43.861-89.777-96.279 3.206-46.935 42.512-83.721 89.777-83.721 49.626 0 90 40.374 90 90s-40.374 90-90 90z"/></g></svg>