<?xml version="1.0"?>
<svg xmlns="http://www.w3.org/2000/svg" viewBox="0 0 48 48" width="512" height="512"><g id="_24-mini_heart" data-name="24-mini heart"><path d="M25.1,48a11.028,11.028,0,0,1-7.816-3.225l-7.109-7.094a4.008,4.008,0,0,1,1.833-6.718,4.009,4.009,0,0,1,2.362-6.437,4.011,4.011,0,0,1,2.586-5.616l-4.07-4.059a4,4,0,0,1,0-5.672,4.023,4.023,0,0,1,5.677,0l8.664,8.64h0l8.532,8.514a11.019,11.019,0,0,1,0,15.6L32.918,44.77A11.033,11.033,0,0,1,25.1,48ZM13.017,32.83a2.008,2.008,0,0,0-1.427,3.43L18.7,43.354a9.081,9.081,0,0,0,12.807,0l2.844-2.838a9.02,9.02,0,0,0,0-12.772L17.154,10.59a2.023,2.023,0,0,0-2.853,0,2,2,0,0,0,0,2.84l6.49,6.473.041.04,2.844,2.837A1,1,0,1,1,22.264,24.2l-2.873-2.865a2.024,2.024,0,0,0-2.825.028,2.006,2.006,0,0,0,0,2.84l3.555,3.547a1,1,0,1,1-1.412,1.416l-2.133-2.128a2.023,2.023,0,0,0-2.853,0,2.005,2.005,0,0,0,0,2.841l2.843,2.837a1,1,0,1,1-1.412,1.416l-.711-.709A2.011,2.011,0,0,0,13.017,32.83Z"/><path d="M24,10c-.941,0-6-2.378-6-6.6a3.493,3.493,0,0,1,6-2.338A3.493,3.493,0,0,1,30,3.4C30,7.6,25.284,10,24,10ZM21.5,2A1.4,1.4,0,0,0,20,3.4c0,2.671,3.344,4.33,4.053,4.584C24.808,7.8,28,6.163,28,3.4A1.4,1.4,0,0,0,26.5,2c-.271,0-1.094,0-1.556,1.328a1,1,0,0,1-1.888,0C22.594,2,21.771,2,21.5,2Z"/><path d="M32,23H30c0-3.058.8-7.009,2.286-8.309A2.033,2.033,0,0,0,33,13.169v-.728a2,2,0,0,0-1.281-1.878A1.871,1.871,0,0,0,29.605,11,10.124,10.124,0,0,0,27,18H25a12.136,12.136,0,0,1,3.164-8.386,3.872,3.872,0,0,1,4.3-.906A4.013,4.013,0,0,1,35,12.441v.728A4.035,4.035,0,0,1,33.6,16.2C32.847,16.858,32,19.909,32,23Z"/></g></svg>
