<?xml version="1.0" encoding="UTF-8" standalone="no"?>
<!-- Created with Inkscape (http://www.inkscape.org/) -->

<svg
   version="1.1"
   id="svg960"
   xml:space="preserve"
   width="682.66669"
   height="682.66669"
   viewBox="0 0 682.66669 682.66669"
   xmlns="http://www.w3.org/2000/svg"
   xmlns:svg="http://www.w3.org/2000/svg"><defs
     id="defs964"><clipPath
       clipPathUnits="userSpaceOnUse"
       id="clipPath974"><path
         d="M 0,512 H 512 V 0 H 0 Z"
         id="path972" /></clipPath></defs><g
     id="g966"
     transform="matrix(1.3333333,0,0,-1.3333333,0,682.66667)"><g
       id="g968"><g
         id="g970"
         clip-path="url(#clipPath974)"><g
           id="g976"
           transform="translate(153.165,53.3398)"><path
             d="m 0,0 52.795,-0.43 15.564,-15.906 c 16.897,-17.27 30.039,-27.004 54.2,-27.004 h 148.212 c 11.825,0 21.411,9.702 21.411,21.67 0,11.968 -9.586,21.67 -21.411,21.67 h 33.992 c 11.825,0 21.411,9.702 21.411,21.67 0,11.968 -9.586,21.67 -21.411,21.67 h 22.661 c 11.825,0 21.411,9.702 21.411,21.67 0,11.968 -9.586,21.67 -21.411,21.67 h -11.33 c 11.824,0 21.41,9.702 21.41,21.67 0,11.967 -9.586,21.67 -21.41,21.67 h -75.268 c 13.424,0 24.307,11.014 24.307,24.6 0,13.587 -10.883,24.601 -24.307,24.601 H 122.253 c -23.857,0 -36.733,-9.492 -53.584,-26.38 L 52.587,136.783 H -143.165 V -0.636 L -90.412,0"
             style="fill:#ffd0c7;fill-opacity:1;fill-rule:nonzero;stroke:none"
             id="path978" /></g><g
           id="g980"
           transform="translate(89.1699,190.1226)"><path
             d="m 0,0 h -79.17 v -137.418 l 52.753,0.635"
             style="fill:none;stroke:#000000;stroke-width:20;stroke-linecap:round;stroke-linejoin:round;stroke-miterlimit:10;stroke-dasharray:none;stroke-opacity:1"
             id="path982" /></g><g
           id="g984"
           transform="translate(153.165,53.3398)"><path
             d="m 0,0 52.795,-0.43 15.564,-15.906 c 16.897,-17.27 30.039,-27.004 54.2,-27.004 h 148.212 c 11.825,0 21.411,9.702 21.411,21.67 0,11.968 -9.586,21.67 -21.411,21.67 h 33.992 c 11.825,0 21.411,9.702 21.411,21.67 0,11.968 -9.586,21.67 -21.411,21.67 h 22.661 c 11.825,0 21.411,9.702 21.411,21.67 0,11.968 -9.586,21.67 -21.411,21.67 h -11.33 c 11.824,0 21.41,9.702 21.41,21.67 0,11.967 -9.586,21.67 -21.41,21.67 h -75.268 c 13.424,0 24.307,11.014 24.307,24.6 0,13.587 -10.883,24.601 -24.307,24.601 H 122.253 c -23.857,0 -36.733,-9.492 -53.584,-26.38 L 52.587,136.783 h -63.646"
             style="fill:none;stroke:#000000;stroke-width:20;stroke-linecap:round;stroke-linejoin:round;stroke-miterlimit:10;stroke-dasharray:none;stroke-opacity:1"
             id="path986" /></g><g
           id="g988"
           transform="translate(107.7754,53.3398)"><path
             d="M 0,0 V 0"
             style="fill:none;stroke:#000000;stroke-width:20;stroke-linecap:round;stroke-linejoin:round;stroke-miterlimit:10;stroke-dasharray:none;stroke-opacity:1"
             id="path990" /></g><g
           id="g992"
           transform="translate(393.9912,183.3594)"><path
             d="M 0,0 H -100.38"
             style="fill:none;stroke:#000000;stroke-width:20;stroke-linecap:round;stroke-linejoin:round;stroke-miterlimit:10;stroke-dasharray:none;stroke-opacity:1"
             id="path994" /></g><g
           id="g996"
           transform="translate(469.3164,140.0269)"><path
             d="M 0,0 H -100.38"
             style="fill:none;stroke:#000000;stroke-width:20;stroke-linecap:round;stroke-linejoin:round;stroke-miterlimit:10;stroke-dasharray:none;stroke-opacity:1"
             id="path998" /></g><g
           id="g1000"
           transform="translate(469.3164,96.6797)"><path
             d="M 0,0 H -100.38"
             style="fill:none;stroke:#000000;stroke-width:20;stroke-linecap:round;stroke-linejoin:round;stroke-miterlimit:10;stroke-dasharray:none;stroke-opacity:1"
             id="path1002" /></g><g
           id="g1004"
           transform="translate(436.2334,53.3398)"><path
             d="M 0,0 H -67.297"
             style="fill:none;stroke:#000000;stroke-width:20;stroke-linecap:round;stroke-linejoin:round;stroke-miterlimit:10;stroke-dasharray:none;stroke-opacity:1"
             id="path1006" /></g><g
           id="g1008"
           transform="translate(196.8564,138.0415)"><path
             d="M 0,0 H -14.285"
             style="fill:none;stroke:#000000;stroke-width:20;stroke-linecap:round;stroke-linejoin:round;stroke-miterlimit:10;stroke-dasharray:none;stroke-opacity:1"
             id="path1010" /></g><g
           id="g1012"
           transform="translate(196.8564,96.6797)"><path
             d="M 0,0 H -14.285"
             style="fill:none;stroke:#000000;stroke-width:20;stroke-linecap:round;stroke-linejoin:round;stroke-miterlimit:10;stroke-dasharray:none;stroke-opacity:1"
             id="path1014" /></g><g
           id="g1016"
           transform="translate(267.6953,106.103)"><path
             d="M 0,0 H -14.284"
             style="fill:none;stroke:#000000;stroke-width:20;stroke-linecap:round;stroke-linejoin:round;stroke-miterlimit:10;stroke-dasharray:none;stroke-opacity:1"
             id="path1018" /></g><g
           id="g1020"
           transform="translate(267.6953,64.7417)"><path
             d="M 0,0 H -14.284"
             style="fill:none;stroke:#000000;stroke-width:20;stroke-linecap:round;stroke-linejoin:round;stroke-miterlimit:10;stroke-dasharray:none;stroke-opacity:1"
             id="path1022" /></g><g
           id="g1024"
           transform="translate(110.2285,96.6797)"><path
             d="M 0,0 H -14.284"
             style="fill:none;stroke:#000000;stroke-width:20;stroke-linecap:round;stroke-linejoin:round;stroke-miterlimit:10;stroke-dasharray:none;stroke-opacity:1"
             id="path1026" /></g><g
           id="g1028"
           transform="translate(153.542,117.3604)"><path
             d="M 0,0 H -14.284"
             style="fill:none;stroke:#000000;stroke-width:20;stroke-linecap:round;stroke-linejoin:round;stroke-miterlimit:10;stroke-dasharray:none;stroke-opacity:1"
             id="path1030" /></g><g
           id="g1032"
           transform="translate(141.5537,283.0581)"><path
             d="M 0,0 V 0 C -14.779,14.78 -14.779,38.742 0,53.522 L 92.239,145.761 145.761,92.239 53.522,0 C 38.742,-14.78 14.78,-14.78 0,0"
             style="fill:#faf7f5;fill-opacity:1;fill-rule:nonzero;stroke:none"
             id="path1034" /></g><g
           id="g1036"
           transform="translate(141.5537,283.0581)"><path
             d="M 0,0 V 0 C -14.779,14.78 -14.779,38.742 0,53.522 L 92.239,145.761 145.761,92.239 53.522,0 C 38.742,-14.78 14.78,-14.78 0,0 Z"
             style="fill:none;stroke:#000000;stroke-width:20;stroke-linecap:round;stroke-linejoin:round;stroke-miterlimit:10;stroke-dasharray:none;stroke-opacity:1"
             id="path1038" /></g><g
           id="g1040"
           transform="translate(349.4111,490.9155)"><path
             d="m 0,0 v 0 c 14.779,-14.78 14.779,-38.743 0,-53.522 l -62.097,-62.097 -53.521,53.522 L -53.522,0 C -38.742,14.779 -14.78,14.779 0,0"
             style="fill:#ff9c9b;fill-opacity:1;fill-rule:nonzero;stroke:none"
             id="path1042" /></g><g
           id="g1044"
           transform="translate(349.4111,490.9155)"><path
             d="m 0,0 v 0 c 14.779,-14.78 14.779,-38.743 0,-53.522 l -62.097,-62.097 -53.521,53.522 L -53.522,0 C -38.742,14.779 -14.78,14.779 0,0 Z"
             style="fill:none;stroke:#000000;stroke-width:20;stroke-linecap:round;stroke-linejoin:round;stroke-miterlimit:10;stroke-dasharray:none;stroke-opacity:1"
             id="path1046" /></g><g
           id="g1048"
           transform="translate(138.207,279.7109)"><path
             d="M 0,0 -11.958,-11.958"
             style="fill:none;stroke:#000000;stroke-width:20;stroke-linecap:round;stroke-linejoin:round;stroke-miterlimit:10;stroke-dasharray:none;stroke-opacity:1"
             id="path1050" /></g><g
           id="g1052"
           transform="translate(222.8984,439.7129)"><path
             d="M 0,0 75.311,-75.31"
             style="fill:none;stroke:#000000;stroke-width:20;stroke-linecap:round;stroke-linejoin:round;stroke-miterlimit:10;stroke-dasharray:none;stroke-opacity:1"
             id="path1054" /></g><g
           id="g1056"
           transform="translate(142.9512,178.6523)"><path
             d="m 0,0 c 0,-15.128 -12.264,-27.392 -27.392,-27.392 -15.127,0 -27.39,12.264 -27.39,27.392 0,15.127 27.39,47.753 27.39,47.753 C -27.392,47.753 0,15.127 0,0"
             style="fill:#99ebfa;fill-opacity:1;fill-rule:nonzero;stroke:none"
             id="path1058" /></g><g
           id="g1060"
           transform="translate(142.9512,178.6523)"><path
             d="m 0,0 c 0,-15.128 -12.264,-27.392 -27.392,-27.392 -15.127,0 -27.39,12.264 -27.39,27.392 0,15.127 27.39,47.753 27.39,47.753 C -27.392,47.753 0,15.127 0,0 Z"
             style="fill:none;stroke:#000000;stroke-width:20;stroke-linecap:round;stroke-linejoin:round;stroke-miterlimit:10;stroke-dasharray:none;stroke-opacity:1"
             id="path1062" /></g></g></g></g></svg>
