<?xml version="1.0"?>
<svg xmlns="http://www.w3.org/2000/svg" viewBox="0 0 512 512" width="512" height="512"><g id="_20_Love" data-name="20 Love"><path d="M178.14,109.69a7.5,7.5,0,1,0,13.49-6.55l-18.9-38.92a7.5,7.5,0,1,0-13.49,6.56ZM256,98.92a7.5,7.5,0,0,0,7.5-7.5V52.5a7.5,7.5,0,0,0-15,0V91.42A7.5,7.5,0,0,0,256,98.92Zm67.84,14.24a7.48,7.48,0,0,0,10-3.47l18.9-38.91a7.5,7.5,0,1,0-13.49-6.56l-18.9,38.92A7.49,7.49,0,0,0,323.84,113.16ZM405,138.68a7.35,7.35,0,0,0,3.27.76,7.48,7.48,0,0,0,6.75-4.23l10.47-21.54A7.5,7.5,0,1,0,412,107.11l-10.47,21.55A7.49,7.49,0,0,0,405,138.68Zm25.2,288.38-.15-.18-21.13-24a77.22,77.22,0,0,0-67.75-25.66l-63.07,8c-6.77.89-13.88-4.24-14.53-11.12a12.31,12.31,0,0,1,6.6-12.15l58.37-29.41a61.56,61.56,0,0,0,29.38-76.74L354,245.55a52,52,0,0,0-72.7-27.46,12.13,12.13,0,0,1-15.71-3.94,12,12,0,0,1-1.79-9.46c1.33-5.89,7.36-8.76,12.24-11.62a74.8,74.8,0,0,1,99.11,21.59,7.5,7.5,0,0,0,12.29-8.61,90.26,90.26,0,0,0-32.24-28.2,89.28,89.28,0,0,0-76.19-3,12.13,12.13,0,0,1,5.71-13.05c24.25-14.12,54-18.57,78.82-5.73a75.1,75.1,0,0,1,26.84,23.48l41.7,59.53a7.5,7.5,0,0,0,12.29-8.6l-41.71-59.53a90,90,0,0,0-32.23-28.2c-30.3-15.7-64.14-11-93.29,6.11a27.1,27.1,0,0,0-11.64,33,39.74,39.74,0,0,0-9.5,6.81,38,38,0,0,0-9.5-6.81,27.1,27.1,0,0,0-11.64-33L228.31,145a89.77,89.77,0,0,0-119,25.93L1.36,325.05a7.5,7.5,0,0,0,12.28,8.6l108-154.12a74.83,74.83,0,0,1,99.11-21.59c5.67,3.32,14.08,8.77,12.26,16.89a89.28,89.28,0,0,0-76.19,3,90.26,90.26,0,0,0-32.24,28.2,7.5,7.5,0,1,0,12.29,8.61A74.8,74.8,0,0,1,236,193.07l6.54,3.83a12.13,12.13,0,0,1-11.8,21.19A52,52,0,0,0,158,245.55l-3.91,10.24a61.57,61.57,0,0,0,29.44,76.77l58.25,29.36a12.31,12.31,0,0,1,6.66,12.17c-.64,6.85-7.8,12-14.53,11.12L198,380.65a7.49,7.49,0,1,0-1.89,14.87L232,400.09a28.65,28.65,0,0,0,24-8.59,28.61,28.61,0,0,0,24,8.59l63.07-8a62.27,62.27,0,0,1,54.59,20.68l21.06,24,59.85,72.57a7.5,7.5,0,1,0,11.57-9.54ZM256,354.1a27.72,27.72,0,0,0-7.4-5.55l-58.25-29.36a46.58,46.58,0,0,1-22.24-58.06L172,250.9a37,37,0,0,1,51.72-19.53,27.13,27.13,0,0,0,32.27-5.3,27.13,27.13,0,0,0,32.27,5.3A37,37,0,0,1,340,250.9l3.91,10.23a46.57,46.57,0,0,1-22.18,58l-58.37,29.42A27.53,27.53,0,0,0,256,354.1Zm254.65-29.05-50.07-71.48a7.5,7.5,0,0,0-12.29,8.61l50.08,71.47a7.5,7.5,0,1,0,12.28-8.6ZM170.83,377.18a77.22,77.22,0,0,0-67.74,25.66L82,426.88l-.15.18L21.88,499.73a7.5,7.5,0,1,0,11.57,9.54L93.3,436.7l21.06-24A62.27,62.27,0,0,1,169,392.06a7.5,7.5,0,1,0,1.88-14.88ZM97,135.21a7.48,7.48,0,0,0,6.75,4.23,7.35,7.35,0,0,0,3.27-.76,7.49,7.49,0,0,0,3.47-10L100,107.11a7.5,7.5,0,1,0-13.49,6.56Z"/></g></svg>
