<svg id="a" height="64" viewBox="0 0 64 64" width="64" xmlns="http://www.w3.org/2000/svg" data-name="LINE EXPAND"><path d="m50.058 23c-.13 0-.262-.025-.389-.079-.509-.214-.747-.801-.532-1.31 1.401-3.321-.105-6.532-2.318-7.987-2.539-1.669-5.619-1.033-8.241 1.703-.186.193-.442.305-.711.308-.306-.028-.527-.103-.718-.293-2.696-2.696-5.764-.506-5.893-.412-.219.159-.494.228-.762.181-.267-.046-.506-.196-.658-.42-1.383-2.022-3.034-3.208-4.908-3.523-3.155-.535-5.997 1.543-6.026 1.563-.443.329-1.069.235-1.397-.205-.329-.442-.239-1.067.202-1.397.142-.106 3.533-2.604 7.534-1.937 2.177.361 4.085 1.571 5.683 3.602 1.676-.863 4.411-1.424 6.896.481 3.734-3.39 7.618-2.952 10.098-1.321 2.904 1.91 4.889 6.107 3.062 10.436-.161.382-.531.611-.921.611z"/><g><path d="m51.83 28.8h-45.66c-1.196 0-2.17-.969-2.17-2.16v-3.47c0-1.196.974-2.17 2.17-2.17h9.309c.553 0 1 .447 1 1s-.447 1-1 1h-9.309c-.097 0-.17.073-.17.17v3.47c0 .09.074.16.17.16h45.66c.096 0 .17-.07.17-.16v-3.47c0-.099-.071-.17-.17-.17h-25.025c-.553 0-1-.447-1-1s.447-1 1-1h25.025c1.196 0 2.17.974 2.17 2.17v3.47c0 1.191-.974 2.16-2.17 2.16z"/><path d="m49.689 33.904c-.057 0-.114-.005-.173-.015-.544-.095-.908-.613-.813-1.157.197-1.13.297-2.293.297-3.454v-1.474c0-.553.447-1 1-1s1 .447 1 1v1.474c0 1.276-.109 2.554-.326 3.798-.085.485-.507.828-.984.828z"/><path d="m17.31 47.728c-.191 0-.386-.055-.557-.17-6.106-4.1-9.753-10.933-9.753-18.279v-1.474c0-.553.447-1 1-1s1 .447 1 1v1.474c0 6.679 3.315 12.892 8.868 16.619.458.308.58.929.272 1.388-.192.287-.509.442-.831.442z"/><path d="m26.805 23h-11.396c-.361 0-.694-.195-.872-.51l-7.014-12.47c-.711-1.265-.698-2.768.034-4.021.733-1.252 2.036-2 3.487-2 1.193 0 2.319.522 3.088 1.435l13.438 15.921c.251.297.307.713.143 1.065-.164.354-.519.579-.907.579zm-10.812-2h8.659l-12.049-14.276c-.388-.46-.956-.724-1.559-.724-.732 0-1.391.378-1.761 1.01-.37.633-.376 1.392-.017 2.03z"/><g><g><path d="m31.729 55.956c-1.437 0-2.872-.365-4.272-1.097-4.697-2.454-8.154-8.73-8.405-15.262-.011-.271.09-.536.279-.732s.47-.321.723-.306c7.591.02 13.925 2.388 16.8 6.155 4.239-6.184 14.247-10.001 21.965-11.438.299-.053.606.028.836.227.23.198.357.491.346.795-.309 8.167-5.155 16.36-11.786 19.923-4.029 2.167-8.167 2.296-11.724.383-1.561.901-3.162 1.353-4.761 1.353zm-10.606-15.377c.53 5.385 3.479 10.532 7.261 12.508 2.396 1.251 4.941 1.123 7.367-.371.325-.32.829-.378 1.221-.141 3.047 1.856 6.705 1.814 10.295-.116 5.695-3.06 9.946-9.906 10.647-16.963-9.636 2.045-17.645 6.623-20.15 11.594-.172.339-.491.547-.902.55-.382-.004-.728-.225-.893-.568-1.769-3.693-7.661-6.243-14.846-6.492z"/><path d="m36.432 54.42c-.287 0-.572-.123-.77-.36-.354-.425-.296-1.055.129-1.408l13.627-11.341c.425-.354 1.057-.295 1.408.129.354.425.296 1.055-.129 1.408l-13.627 11.341c-.187.155-.414.231-.639.231z"/><path d="m36.431 54.42c-.237 0-.475-.084-.666-.254l-6.173-5.508c-.412-.367-.448-1-.08-1.412.368-.411.999-.446 1.412-.08l6.173 5.508c.412.367.448 1 .08 1.412-.197.221-.472.334-.746.334z"/></g><path d="m36.425 60c-.553 0-1-.447-1-1v-5.534c0-.553.447-1 1-1s1 .447 1 1v5.534c0 .553-.447 1-1 1z"/></g></g></svg>