<svg id="Layer_1" enable-background="new 0 0 96 96" viewBox="0 0 96 96" xmlns="http://www.w3.org/2000/svg"><path d="m94 48c0-11.1640625-4.0493164-21.9301758-11.4018555-30.3154297-.7285156-.8310547-1.9926758-.9140625-2.8222656-.1855469-.8305664.7285156-.9135742 1.9921875-.1855469 2.8222656 6.7128907 7.6557618 10.409668 17.4853516 10.409668 27.678711 0 4.161377-.6313477 8.1720581-1.7723999 11.9657593-3.6288452-3.6784668-8.6643677-5.9657593-14.2276001-5.9657593-3.1359253 0-6.0940552.7457886-8.7384033 2.0377197-2.2372437-.614563-4.5599365-1.1251221-6.9711304-1.4950562 6.3834229-3.6067504 10.7095337-10.4458617 10.7095337-18.2861327 0-11.5795898-9.4204102-21-21-21s-21 9.4204102-21 21c0 7.8405151 4.326416 14.6797485 10.710083 18.286438-11.3953247 1.74823-21.046936 6.3448486-27.0621948 12.6242065-2.9633179-5.7511597-4.6478882-12.2642212-4.6478882-19.1671753 0-23.1586914 18.8413086-42 42-42 9.7084961 0 19.1767578 3.3896484 26.6601563 9.5444336.8535156.7021484 2.1142578.5791016 2.8149414-.2739258.7016602-.8530273.5791016-2.1132813-.2739258-2.8149414-8.1972656-6.7426758-18.5678711-10.4555664-29.2011719-10.4555664-25.3642578 0-46 20.6357422-46 46s20.6357422 46 46 46c5.553772 0 10.8668823-1.0130005 15.7941895-2.8312378 2.9923095 1.7857056 6.4750976 2.8312378 10.2058105 2.8312378 11.0283203 0 20-8.972168 20-20 0-3.727356-1.0437012-7.2073975-2.8265381-10.197998 1.8170166-4.9309082 2.8265381-10.2478028 2.8265381-15.802002zm-63-11.7434692c0-9.3740234 7.6259766-17 17-17s17 7.6259766 17 17-7.6259766 17-17 17-17-7.6259766-17-17zm17 53.7434692c-14.8234863 0-27.8681641-7.7263794-35.3450928-19.3563232 6.7062378-7.7986451 20.0123902-12.887146 35.3450928-12.887146 4.4798584 0 8.7745972.4504395 12.7930908 1.2637939-4.1547241 3.6675415-6.7930908 9.0152588-6.7930908 14.9796753 0 5.5644531 2.2885132 10.6010132 5.9686279 14.2301636-3.7942505 1.1400757-7.8063354 1.7698364-11.9686279 1.7698364zm26 0c-8.8222656 0-16-7.1777344-16-16s7.1777344-16 16-16 16 7.1777344 16 16-7.1777344 16-16 16zm-1.4101562-24.590332c-.3798829-.3696289-.5898438-.8798828-.5898438-1.409668 0-.5302734.2099609-1.0400391.5898438-1.4101563.7402344-.75 2.0800781-.75 2.8300781 0 .3701172.3701172.5800781.8901368.5800781 1.4101563s-.2099609 1.0400391-.5800781 1.409668c-.3798828.3803711-.8896485.590332-1.4199219.590332s-1.0400391-.2099609-1.4101562-.590332zm8.4101562 17.590332c0 1.1044922-.8955078 2-2 2h-8c-1.1044922 0-2-.8955078-2-2s.8955078-2 2-2h2v-9.2250977l-.3671875.1225586c-1.0527344.3500977-2.1816406-.2177734-2.5302734-1.2651367-.3496094-1.0478516.2167969-2.1801758 1.2646484-2.5297852l3-1c.609375-.203125 1.2792969-.1020508 1.8017578.2749023.522461.3759767.8310547.9794923.8310547 1.6225587v12h2c1.1044922 0 2 .8955078 2 2z"/></svg>