<svg id="Layer_1" enable-background="new 0 0 512 512" viewBox="0 0 512 512" xmlns="http://www.w3.org/2000/svg"><path d="m378.52 448.81-50.43-90.18c-9.66-17.28-15.73-39.42-18.05-65.83l-1.02-11.66c6.13-3.48 10.29-10.07 10.29-17.61 0-11.17-9.09-20.25-20.25-20.25h-18.88c1.87-27.19 7.7-52.01 17.6-74.79 1.16.05 2.32.08 3.47.08 36.18 0 64.31-23.41 74.36-62.63 6.63-25.88 3.86-55.17-8.23-87.06-.9-2.36-3.17-3.93-5.7-3.87-2.53.04-4.76 1.65-5.58 4.04-3.46 10.02-16.83 17.86-30.99 26.16-11.78 6.91-23.97 14.06-32.34 23.58-15.6 17.75-22.83 36.24-21.49 54.94.96 13.34 6.26 26.54 15.76 39.3-6.29 14.33-11.05 29.42-14.29 45.34-3.69-10.64-8.66-20.33-14.91-29.05 3.44-17.8.97-33.98-7.23-46.94-8.42-13.29-22.9-23.25-41.89-28.79-24.01-7.01-54.74-3.27-76.45 9.3-1.87 1.09-3.02 3.1-2.99 5.26.02 2.17 1.21 4.15 3.11 5.19 13.49 7.4 18.45 16.48 24.19 26.98 3.5 6.41 7.12 13.03 12.86 19.7 12.2 14.17 27.16 22.77 43.28 24.88 2.59.34 5.2.51 7.82.51 9.9 0 19.92-2.4 29.16-6.97 10.17 15.05 16.19 33.24 18.21 54.83h-19.34c-11.17 0-20.25 9.09-20.25 20.25 0 7.55 4.16 14.13 10.29 17.61l-1.02 11.66c-2.32 26.41-8.39 48.56-18.05 65.83l-50.43 90.18c-5.75 10.29-5.63 22.02.33 32.19s16.15 16 27.93 16h152.9c11.79 0 21.97-5.83 27.93-16 5.95-10.16 6.07-21.89.32-32.18zm-79.47-193.53c4.55 0 8.25 3.7 8.25 8.25s-3.7 8.25-8.25 8.25h-19.56c0-7 .02-12.46.07-14.79.01-.58.04-1.14.05-1.72h19.44zm2.72-178.57c7.1-8.07 18.44-14.72 29.4-21.15 11.13-6.53 21.83-12.8 29.01-20.74 7.72 24.96 9 47.83 3.79 68.14-8.51 33.2-30.82 52.69-60.54 53.58 8.1-15.74 18.29-30.47 30.61-44.29 2.21-2.47 1.99-6.27-.49-8.47-2.47-2.21-6.27-1.99-8.47.49-12.89 14.46-23.58 29.85-32.1 46.28-15.61-24.61-12.69-49.4 8.79-73.84zm-123.24 85.49c-4.91-5.71-8.08-11.5-11.43-17.62-4.81-8.79-9.74-17.82-19.76-25.71 17.88-7.25 40.4-8.89 58-3.76 28.52 8.32 43.06 26.43 41.95 51.63-7.65-7.85-16.61-14.71-26.86-20.53-2.88-1.64-6.54-.63-8.18 2.25s-.63 6.54 2.25 8.18c10.89 6.18 20.08 13.53 27.64 22.08-18.28 8.11-42.96 7.47-63.61-16.52zm70.03 93.08h19.04c-.01.49-.03.98-.04 1.48-.04 2.05-.06 7.68-.06 15.03h-18.94c-4.55 0-8.25-3.7-8.25-8.25-.01-4.56 3.7-8.26 8.25-8.26zm-18.56 109.21c10.5-18.77 17.07-42.53 19.53-70.64l.88-10.06h17.11c.06 20.16.26 44.8.6 50.43.19 3.18 2.84 5.64 5.98 5.64.12 0 .25 0 .37-.01 3.31-.2 5.83-3.05 5.62-6.35-.32-5.26-.52-29.63-.59-49.7h17.69l.88 10.06c2.46 28.11 9.04 51.88 19.53 70.64l17.43 31.16h-53.83c-2.77-11.96-13.51-20.91-26.28-20.91s-23.52 8.95-26.28 20.91h-16.07zm38.61 31.16h-27.37c2.34-5.24 7.59-8.91 13.68-8.91s11.35 3.67 13.69 8.91zm99.23 79.28c-3.81 6.49-10.05 10.07-17.58 10.07h-152.9c-7.53 0-13.77-3.58-17.58-10.07s-3.88-13.69-.21-20.26l26.3-47.02h135.89l26.3 47.02c3.66 6.57 3.59 13.76-.22 20.26zm-134.63-53.61c-9.25 0-16.77 7.52-16.77 16.77s7.52 16.77 16.77 16.77 16.77-7.52 16.77-16.77-7.52-16.77-16.77-16.77zm0 21.53c-2.63 0-4.77-2.14-4.77-4.77s2.14-4.77 4.77-4.77 4.77 2.14 4.77 4.77-2.14 4.77-4.77 4.77zm73.93-14.6c-13.42 0-24.33 10.92-24.33 24.33s10.92 24.33 24.33 24.33 24.33-10.92 24.33-24.33-10.92-24.33-24.33-24.33zm0 36.67c-6.8 0-12.33-5.53-12.33-12.33s5.53-12.33 12.33-12.33 12.33 5.53 12.33 12.33-5.53 12.33-12.33 12.33z"/></svg>