<svg id="Layer_1" enable-background="new 0 0 512 512" viewBox="0 0 512 512" xmlns="http://www.w3.org/2000/svg"><path d="m331.483 306.822c-18.388 0-35.54 5.392-49.959 14.677v-179.605c0-13.512-11.325-24.504-25.245-24.504h-17.036v-32.931c0-8.471-6.891-15.361-15.36-15.361h-38.104v-45.097h16.581l63.968 49.619c1.459 1.131 3.185 1.679 4.897 1.679 2.388 0 4.75-1.064 6.327-3.097 2.708-3.491 2.073-8.517-1.418-11.225l-66.132-51.297c-1.403-1.088-3.128-1.679-4.903-1.679h-97.478c-4.418 0-8 3.582-8 8s3.582 8 8 8h19.319v45.097h-38.102c-8.471 0-15.361 6.891-15.361 15.361v32.931h-17.036c-13.92 0-25.244 10.992-25.244 24.504v310.095c0 28.679 24.218 52.01 53.985 52.01h142.355c21.406 0 40.346-12.16 49.008-30.217 15.375 11.381 34.383 18.12 54.938 18.12 51.027 0 92.541-41.514 92.541-92.54s-41.514-92.54-92.541-92.54zm-188.542-282.821h26.838v45.097h-26.838zm80.302 61.097v32.292h-133.766v-32.292zm4.295 402.901h-142.356c-18.681 0-34.244-12.854-37.393-29.719h144.423c4.418 0 8-3.582 8-8s-3.582-8-8-8h-145.015v-300.386c0-4.689 4.146-8.504 9.244-8.504h199.838c5.098 0 9.245 3.814 9.245 8.504v192.631c-16.428 16.71-26.58 39.609-26.58 64.837 0 24.371 9.474 46.567 24.927 63.112-4.812 15.001-19.475 25.525-36.333 25.525zm103.945-12.097c-42.204 0-76.539-34.336-76.539-76.54s34.335-76.54 76.539-76.54c42.205 0 76.541 34.336 76.541 76.54s-34.336 76.54-76.541 76.54zm40.119-85.94c4.753-7.561 7.269-16.46 7.007-25.636-.119-4.166-3.417-7.543-7.579-7.761-7.678-.402-15.158 1.108-21.913 4.33-2.365-7.083-6.434-13.568-11.949-18.777-3.031-2.862-7.752-2.917-10.847-.128-5.643 5.083-9.862 11.483-12.379 18.521-6.658-3.338-14.089-5-21.781-4.792-4.166.12-7.542 3.417-7.76 7.579-.5 9.551 2 18.824 6.95 26.668-13.422 5.09-22.991 18.075-22.991 33.259 0 19.608 15.953 35.562 35.562 35.562 11.105 0 21.035-5.12 27.561-13.12 6.526 8 16.456 13.12 27.561 13.12 19.608 0 35.562-15.953 35.562-35.562 0-15.188-9.576-28.177-23.004-33.263zm-19.596-1.594c-.891.18-1.767.4-2.633.645 1.112-3.528 1.806-7.197 2.031-10.933 3.099-2.237 6.552-3.841 10.205-4.735-1.567 5.83-4.904 11.086-9.603 15.023zm-20.494-27.856c2.636 4.578 4.04 9.832 3.977 15.201-.064 5.395-1.536 10.508-4.244 14.956-2.635-4.579-4.039-9.832-3.976-15.201.064-5.395 1.536-10.508 4.243-14.956zm-20.208 17.133c.155 3.838.802 7.617 1.89 11.254-.72-.195-1.447-.373-2.185-.523-4.922-4.104-8.342-9.597-9.828-15.677 3.652.972 7.077 2.647 10.123 4.946zm-7.382 65.143c-10.786 0-19.562-8.775-19.562-19.562s8.775-19.561 19.562-19.561c10.782 0 19.554 8.768 19.561 19.548v.013s0 .009 0 .013c-.007 10.78-8.779 19.549-19.561 19.549zm55.122 0c-10.782 0-19.554-8.769-19.561-19.549 0-.004 0-.008 0-.013s0-.009 0-.013c.007-10.78 8.779-19.548 19.561-19.548 10.786 0 19.562 8.774 19.562 19.561s-8.775 19.562-19.562 19.562zm-202.684-257.708c-56.445 0-102.366 45.92-102.366 102.366 0 56.444 45.921 102.365 102.366 102.365s102.366-45.921 102.366-102.365c0-56.446-45.921-102.366-102.366-102.366zm0 188.731c-47.622 0-86.366-38.743-86.366-86.365s38.744-86.366 86.366-86.366 86.366 38.744 86.366 86.366-38.744 86.365-86.366 86.365zm231.903-261.099c-51.026 0-92.54 41.513-92.54 92.539s41.514 92.54 92.54 92.54 92.54-41.514 92.54-92.54-41.513-92.539-92.54-92.539zm0 169.08c-42.204 0-76.54-34.336-76.54-76.54s34.336-76.539 76.54-76.539 76.54 34.335 76.54 76.539-34.336 76.54-76.54 76.54zm23.925-115.105c-6.93-11.892-12.497-21.144-17.145-27.647-1.475-2.063-3.84-3.305-6.375-3.348-2.528-.04-4.94 1.119-6.483 3.133-5.313 6.933-11.948 17.666-18.365 28.047l-.851 1.376c-1.109 1.796-2.292 3.648-3.506 5.553-8.258 12.951-18.535 29.068-18.595 46.314-.101 29.079 20.944 53.601 46.913 54.661.584.024 1.165.036 1.747.036 11.111 0 21.737-4.34 30.088-12.328 10.143-9.703 15.989-23.953 16.042-39.096.06-17.457-10.926-35.751-19.753-50.451-1.301-2.169-2.557-4.258-3.717-6.25zm-3.632 84.235c-5.617 5.374-12.765 8.175-20.122 7.867-17.477-.714-31.637-18.039-31.565-38.62.044-12.608 8.566-25.975 16.085-37.767 1.256-1.969 2.478-3.885 3.625-5.741l.851-1.377c3.689-5.968 7.452-12.056 10.911-17.334 3.188 5.13 6.639 10.983 10.023 16.791 1.193 2.05 2.485 4.2 3.825 6.433 7.804 12.994 17.515 29.166 17.47 42.159-.037 10.819-4.084 20.875-11.103 27.589zm-4.54-2.941c0 4.418-3.582 8-8 8-21.001 0-38.086-17.085-38.086-38.086 0-4.418 3.582-8 8-8s8 3.582 8 8c0 12.179 9.907 22.086 22.086 22.086 4.418 0 8 3.582 8 8zm-183.866 16.717c-1.287-3.965-5.396-6.277-9.457-5.312-17.149 4.072-31.941 13.693-42.399 27.22-1.07-2.306-2.235-4.584-3.496-6.83-13.151-23.414-35.667-40.398-61.772-46.599-4.057-.969-8.171 1.348-9.457 5.312-8.371 25.773-5.669 52.987 7.61 76.626 13.151 23.414 35.667 40.398 61.772 46.599.62.147 1.241.218 1.854.218 1.413 0 2.768-.395 3.959-1.077 19.165-5.464 35.584-18.369 45.391-35.826 10.456-18.615 12.585-40.041 5.995-60.331zm-105.023 42.582c-9.791-17.431-12.682-37.191-8.385-56.391 18.589 6.369 34.401 19.447 44.105 36.723 6.072 10.809 9.484 22.515 10.18 34.426-7.502-15.35-17.116-29.646-28.508-42.25-2.963-3.276-8.021-3.533-11.3-.571-3.277 2.963-3.533 8.021-.571 11.3 13.311 14.729 23.961 31.995 31.306 50.577-15.415-7.033-28.417-18.843-36.827-33.814zm85.078 9.913c-5.442 9.688-13.468 17.594-23.007 22.939 5.433-12.306 12.802-23.744 21.764-33.66 2.963-3.278 2.707-8.337-.57-11.299-3.276-2.964-8.336-2.706-11.299.57-4.094 4.53-7.883 9.348-11.363 14.39-.246-1.386-.53-2.766-.838-4.142 6.773-13.352 18.103-23.486 31.985-28.739 2.558 13.646.272 27.579-6.672 39.941z"/></svg>