<svg id="Layer_1" enable-background="new 0 0 512 512" viewBox="0 0 512 512" xmlns="http://www.w3.org/2000/svg"><path d="m511.498 390.497c0-13.116-10.36-23.858-23.327-24.472 1.532-3.197 2.391-6.777 2.391-10.553 0-13.525-10.991-24.529-24.5-24.529h-2.745c1.524-3.19 2.377-6.758 2.377-10.523 0-13.51-10.991-24.501-24.5-24.501h-125.685l58.213-33.59c10.969-1.907 30.207-8.66 48.353-19.575 15.506-9.327 35.19-24.701 42.72-45.691l43.399-26.93c3.28-2.035 4.288-6.343 2.253-9.622-2.034-3.28-6.344-4.288-9.622-2.253l-45.549 28.263c-1.441.894-2.508 2.282-3.001 3.904-9.739 32.021-61.848 55.373-81.937 58.293-.876.128-1.72.42-2.487.863l-99.002 57.126c-3.903 2.26-8.479 2.859-12.883 1.681-4.423-1.18-8.11-3.997-10.379-7.925-2.256-3.911-2.846-8.495-1.663-12.907 1.184-4.411 3.989-8.082 7.905-10.34l26.922-15.556c.04-.022.082-.037.122-.06l49.057-28.319c3.342-1.929 4.488-6.203 2.559-9.545-1.929-3.344-6.202-4.489-9.546-2.558l-40.94 23.633-86.423-16.273c-1.804-.34-3.671.045-5.194 1.07l-43.852 29.508c-1.93 1.298-3.087 3.472-3.087 5.797v55.031.075 5.183c0 9.391-7.653 17.031-17.06 17.031-9.391 0-17.031-7.64-17.031-17.031v-5.572c0-.01 0-.019 0-.029v-60.855c0-17.186 7.162-31.864 20.706-42.443 8.534-6.656 16.441-12.324 24.179-17.332 31.692-20.582 56.255-27.549 87.352-36.369 24.728-7.014 52.756-14.963 90.77-31.492 29.415-12.796 51.89-27.038 73.625-40.812 3.48-2.205 6.944-4.401 10.422-6.58l93.057-43.471c3.497-1.634 5.007-5.792 3.374-9.29-1.634-3.498-5.794-5.006-9.289-3.373l-93.446 43.653c-.259.121-.509.257-.751.409-3.62 2.267-7.226 4.552-10.847 6.846-21.286 13.489-43.297 27.437-71.718 39.801-37.155 16.155-64.704 23.969-89.01 30.863-30.955 8.78-57.689 16.363-91.142 38.087-8.077 5.228-16.31 11.129-25.174 18.042-17.064 13.328-26.083 31.814-26.083 53.46v53.094l-85.162-8.949c-3.844-.402-7.277 2.382-7.68 6.219-.403 3.838 2.381 7.277 6.219 7.679l86.641 9.105c.371 16.778 14.124 30.316 30.989 30.316 17.103 0 31.018-13.894 31.035-30.978 9.549-2.802 18.789-5.212 27.573-7.2 3.794 2.259 7.977 3.52 12.375 3.52 7.37 0 14.144-3.521 19.473-9.383 6.695-.927 13.38-1.664 20.238-2.232 4.17 5.866 10.208 10.067 17.278 11.954 8.015 2.141 16.357 1.043 23.483-3.085l16.973-9.794c6.118.253 11.889.537 17.542.871.137.008.274.013.412.013h130.423c5.803 0 10.524 4.721 10.524 10.524 0 5.436-4.142 9.921-9.436 10.467h-90.234c-3.859 0-6.988 3.129-6.988 6.988 0 3.86 3.129 6.988 6.988 6.988h88.298c.279.034.561.057.849.057h24.868c5.803 0 10.524 4.734 10.524 10.553 0 5.803-4.721 10.524-10.524 10.524h-114.014c-3.859 0-6.988 3.129-6.988 6.988 0 3.86 3.129 6.988 6.988 6.988h114.014 2.065 18.87c5.803 0 10.524 4.72 10.524 10.523s-4.721 10.524-10.524 10.524h-18.87-2.065-114.014c-3.859 0-6.988 3.129-6.988 6.988 0 3.86 3.129 6.988 6.988 6.988h114.014c5.803 0 10.524 4.72 10.524 10.523s-4.721 10.524-10.524 10.524h-50.132-15.447-103.376c-3.859 0-6.988 3.129-6.988 6.988s3.129 6.988 6.988 6.988h96.389v10.552c0 5.803-4.721 10.524-10.524 10.524h-129.22c-28.27-10.123-49.435-24.811-66.534-46.155-1.294-1.615-3.238-2.573-5.307-2.617-53.572-1.126-110.863 1.561-175.141 8.212-3.839.398-6.629 3.831-6.232 7.671.397 3.838 3.824 6.623 7.67 6.232 62.409-6.458 118.123-9.147 170.192-8.204 18.464 22.09 41.996 37.953 71.831 48.443.745.261 1.528.396 2.318.396h130.423c13.509 0 24.5-10.991 24.5-24.501v-10.552h8.459 50.132c13.509 0 24.5-10.991 24.5-24.501 0-3.776-.858-7.355-2.39-10.552 12.966-.61 23.325-11.353 23.325-24.469zm-347.134-127.88v16.696c0 10.289 2.718 19.727 7.223 27.062-5.268 1.305-10.661 2.74-16.163 4.308v-42.05zm31.007 44.958c-9.073 0-17.032-13.207-17.032-28.262v-26.1l15.471-10.411 18.62 3.506v33.005c.001 15.055-7.971 28.262-17.059 28.262zm31.036-28.262v-30.373l35.013 6.593-16.578 9.579c-7.145 4.121-12.264 10.806-14.415 18.824-1.108 4.131-1.351 8.349-.768 12.447-2.047.192-4.087.394-6.114.616 1.832-5.385 2.862-11.373 2.862-17.686zm58.478 81.62c0-12.729-10.356-23.086-23.086-23.086s-23.085 10.357-23.085 23.086 10.356 23.086 23.085 23.086 23.086-10.357 23.086-23.086zm-32.196 0c0-5.023 4.087-9.109 9.11-9.109s9.11 4.086 9.11 9.109-4.087 9.109-9.11 9.109-9.11-4.086-9.11-9.109zm-44.69-24.012c1.433 3.584-.31 7.65-3.893 9.084l-.141.057c-.851.34-1.729.502-2.593.502-2.773 0-5.397-1.663-6.49-4.395-1.433-3.584.31-7.65 3.893-9.084l.141-.057c3.581-1.432 7.649.309 9.083 3.893zm-40.432 26.32c.757 3.785-1.697 7.466-5.482 8.222l-.141.028c-.462.093-.923.137-1.378.137-3.263 0-6.18-2.297-6.845-5.619-.757-3.785 1.697-7.466 5.482-8.222l.141-.028c3.784-.755 7.465 1.697 8.223 5.482zm-50.346 25.749c-1.433-3.584.31-7.65 3.893-9.084l.141-.057c3.581-1.431 7.65.309 9.083 3.893s-.31 7.65-3.893 9.084l-.141.057c-.851.34-1.729.502-2.593.502-2.773 0-5.397-1.663-6.49-4.395zm94.801 3.681.141-.028c3.785-.762 7.465 1.697 8.223 5.482.757 3.785-1.697 7.466-5.482 8.222l-.141.028c-.462.093-.923.137-1.378.137-3.263 0-6.18-2.297-6.845-5.619-.756-3.785 1.698-7.466 5.482-8.222zm-125.148-15.329c0-12.73-10.356-23.087-23.085-23.087s-23.086 10.357-23.086 23.087c0 12.729 10.356 23.086 23.086 23.086s23.085-10.357 23.085-23.086zm-32.196 0c0-5.023 4.087-9.11 9.11-9.11s9.11 4.087 9.11 9.11-4.087 9.109-9.11 9.109-9.11-4.085-9.11-9.109zm111.63 8.142.142-.028c3.789-.756 7.465 1.703 8.219 5.487.754 3.785-1.703 7.464-5.487 8.218l-.142.028c-.461.093-.921.136-1.373.136-3.265 0-6.183-2.299-6.846-5.624-.755-3.784 1.702-7.463 5.487-8.217zm31.731-21.336.141-.057c3.581-1.433 7.65.31 9.083 3.893 1.433 3.584-.31 7.65-3.893 9.084l-.141.057c-.851.34-1.729.502-2.593.502-2.773 0-5.397-1.663-6.49-4.395-1.434-3.584.309-7.65 3.893-9.084z"/></svg>