<svg id="Line" viewBox="0 0 64 64" xmlns="http://www.w3.org/2000/svg"><path d="m7.48242 40.65541c.18506.52051-.08691 1.0918-.60693 1.27734-.11084.03906-.22412.05762-.33545.05762-.41113 0-.79639-.25488-.94189-.66504-1.06055-2.97949-1.59814-6.11719-1.59814-9.3252 0-15.43945 12.56055-28 28-28 7.32611 0 14.30676 2.87262 19.50586 7.93951v-3.27448c0-.55273.44775-1 1-1s1 .44727 1 1v5.65723c0 .55273-.44775 1-1 1h-5.65674c-.55225 0-1-.44727-1-1s.44775-1 1-1h3.21118c-4.82178-4.67389-11.28186-7.32227-18.0603-7.32227-14.33643 0-26 11.66309-26 26 0 2.97852.49854 5.89062 1.48242 8.65527zm50.91944-17.98047c-.18457-.52148-.75732-.79004-1.27734-.60742-.52002.18555-.79199.75684-.60693 1.27734.98389 2.76465 1.48242 5.67676 1.48242 8.65527 0 14.33691-11.66357 26-26 26-6.77844 0-13.23853-2.64838-18.0603-7.32227h3.21118c.55225 0 1-.44727 1-1s-.44775-1-1-1h-5.65674c-.55225 0-1 .44727-1 1v5.65723c0 .55273.44775 1 1 1s1-.44727 1-1v-3.27448c5.1991 5.06689 12.17975 7.93951 19.50586 7.93951 15.43945 0 28-12.56055 28-28 0-3.20801-.5376-6.3457-1.59814-9.3252zm-15.71436 20.72559c1.5127-2.18652 2.3125-4.74512 2.3125-7.40039 0-6.26465-10.18262-17.54883-13-20.55078-2.02307 2.15558-7.83923 8.58746-10.96893 14.41479 1.01831 1.37146 1.96893 2.99335 1.96893 4.27856 0 2.28925-1.55566 4.20355-3.65887 4.79413 1.35071 5.79913 6.62384 10.06329 12.65887 10.06329 2.65479 0 5.21436-.7998 7.40131-2.3125 1.08087-.73639 2.20764.88867 1.13782 1.64429-8.57281 6.16498-21.19244 1.01514-23.2077-9.25677-2.43872-.33069-4.33142-2.40454-4.33142-4.93243 0-2.49121 3.57031-6.25586 4.28607-6.98541 1.02686-.78815 1.5636.15094 2.38214 1.02954 4.04132-7.12689 11.29254-14.55505 11.61792-14.8869.37335-.3974 1.05438-.39471 1.42773 0 .5835.59473 14.28613 14.65332 14.28613 22.7002 0 3.06348-.92236 6.0166-2.66797 8.53906-.31567.45679-.94287.56494-1.39111.25293-.4541-.31445-.56787-.9375-.25342-1.3916zm-21.6875-9.25781c0-.78845-.87646-2.19391-1.91052-3.51721-.35217-.45227-.72699-.89752-1.08899-1.3031-1.42139 1.5918-3.00049 3.76367-3.00049 4.82031-.00049 1.65625 1.35242 3.00775 3.0094 2.99902 1.64984-.00525 2.9906-1.34796 2.9906-2.99902zm12 3.75634v2.10107h1c.55225 0 1 .44727 1 1s-.44775 1-1 1h-1v1c0 .55273-.44775 1-1 1s-1-.44727-1-1v-1s-1 0-.99994 0c-1.31537-.02155-1.31305-1.97913-.00006-2h1s0-2.10107.00012-2.10107c-5.8175-1.297-5.01984-9.76721.99988-9.89893 2.75684 0 5 2.24316 5 5 0 2.41443-1.7207 4.43427-4 4.89893zm2-4.89886c-.10309-3.95514-5.8963-3.95593-6-.00006.10309 3.95508 5.8963 3.95587 6 .00006z"/></svg>