<svg height="479pt" viewBox="-55 0 479 479.99609" width="479pt" xmlns="http://www.w3.org/2000/svg"><path d="m208.496094 0c-88.222656 0-160 78.953125-160 176 0 83.15625 52.714844 152.972656 123.304687 171.273438l-7.648437 84.167968c-1.523438 16.804688 6.578125 33.027344 20.929687 41.898438 14.347657 8.875 32.484375 8.875 46.832031 0 14.351563-8.871094 22.453126-25.09375 20.929688-41.898438l-7.652344-84.167968c70.59375-18.296876 123.304688-88.117188 123.304688-171.273438 0-97.046875-71.773438-176-160-176zm28.410156 432.886719c.980469 10.765625-4.210938 21.160156-13.40625 26.847656-9.191406 5.6875-20.8125 5.6875-30.007812 0-9.191407-5.6875-14.382813-16.082031-13.402344-26.847656l7.492187-82.441407c13.867188 2.070313 27.964844 2.074219 41.832031.003907zm-28.410156-96.886719c-79.398438 0-144-71.777344-144-160s64.601562-160 144-160c79.402344 0 144 71.777344 144 160s-64.601563 160-144 160zm0 0"/><path d="m208.496094 32c-70.578125 0-128 64.597656-128 144s57.421875 144 128 144c70.582031 0 128-64.597656 128-144s-57.417969-144-128-144zm0 272c-61.753906 0-112-57.421875-112-128s50.246094-128 112-128c18.597656.054688 36.8125 5.273438 52.617187 15.070312l-41.738281 34.785157c-3.394531 2.832031-3.851562 7.875-1.023438 11.269531 2.832032 3.394531 7.878907 3.851562 11.269532 1.019531l44.835937-37.363281c4.605469 3.8125 8.914063 7.964844 12.890625 12.429688l-43.972656 36.644531c-3.394531 2.832031-3.851562 7.875-1.023438 11.269531 2.832032 3.394531 7.878907 3.851562 11.269532 1.019531l43.441406-36.199219c15.421875 23.097657 23.585938 50.28125 23.433594 78.054688 0 70.578125-50.242188 128-112 128zm0 0"/><path d="m208.496094 160c-22.078125-.027344-39.972656-17.917969-40-40 0-4.417969-3.578125-8-8-8-4.417969 0-8 3.582031-8 8-.023438 22.082031-17.917969 39.972656-40 40-4.417969 0-8 3.582031-8 8s3.582031 8 8 8c22.082031.027344 39.976562 17.917969 40 40 0 4.417969 3.582031 8 8 8 4.421875 0 8-3.582031 8-8 .027344-22.082031 17.921875-39.972656 40-40 4.421875 0 8-3.582031 8-8s-3.578125-8-8-8zm-48 27.179688c-4.738282-7.855469-11.320313-14.441407-19.179688-19.179688 7.859375-4.738281 14.441406-11.324219 19.179688-19.179688 4.742187 7.855469 11.324218 14.441407 19.183594 19.179688-7.859376 4.738281-14.441407 11.324219-19.183594 19.179688zm0 0"/><path d="m72.496094 32c-13.246094-.015625-23.984375-10.75-24-24 0-4.417969-3.578125-8-8-8-4.417969 0-8 3.582031-8 8-.011719 13.25-10.75 23.984375-24 24-4.417969 0-8 3.582031-8 8s3.582031 8 8 8c13.25.015625 23.988281 10.75 24 24 0 4.417969 3.582031 8 8 8 4.421875 0 8-3.582031 8-8 .015625-13.25 10.753906-23.984375 24-24 4.421875 0 8-3.582031 8-8s-3.578125-8-8-8zm-32 16.023438c-2.28125-3.039063-4.984375-5.738282-8.019532-8.023438 3.035157-2.285156 5.738282-4.984375 8.019532-8.023438 2.285156 3.039063 4.984375 5.738282 8.023437 8.023438-3.039062 2.285156-5.738281 4.984375-8.023437 8.023438zm0 0"/></svg>