<svg id="Capa_1" enable-background="new 0 0 512 512" viewBox="0 0 512 512" xmlns="http://www.w3.org/2000/svg"><g><g><path d="m465.358 122.59h-13.41v-13.41c0-4.143-3.357-7.5-7.5-7.5s-7.5 3.357-7.5 7.5v13.41h-13.41c-4.143 0-7.5 3.357-7.5 7.5s3.357 7.5 7.5 7.5h13.41v13.41c0 4.143 3.357 7.5 7.5 7.5s7.5-3.357 7.5-7.5v-13.41h13.41c4.143 0 7.5-3.357 7.5-7.5s-3.357-7.5-7.5-7.5z"/><path d="m300.69 75.152 28.55 15.614 15.614 28.549c2.391 4.371 6.97 7.086 11.951 7.086s9.561-2.715 11.951-7.086l15.614-28.549 28.55-15.614c4.371-2.391 7.086-6.97 7.086-11.952 0-4.981-2.715-9.561-7.086-11.951l-28.55-15.614-15.613-28.549c-2.391-4.371-6.97-7.086-11.951-7.086s-9.561 2.715-11.951 7.086l-15.615 28.549-28.551 15.614c-4.37 2.391-7.084 6.971-7.084 11.951 0 4.982 2.714 9.562 7.085 11.952zm36.103-26.55c2.288-1.252 4.159-3.123 5.414-5.415l14.599-26.692 14.601 26.695c1.253 2.289 3.124 4.16 5.413 5.412l26.694 14.6-26.696 14.598c-2.288 1.252-4.159 3.123-5.414 5.415l-14.599 26.692-14.601-26.695c-1.253-2.289-3.124-4.16-5.413-5.412l-26.694-14.6z"/><path d="m118.878 154.568c7.193 26.851 27.519 47.177 54.369 54.371l100.699 26.981c1.464.393 2.939.585 4.397.584 4.35 0 8.536-1.709 11.734-4.906 4.27-4.27 5.885-10.3 4.322-16.133l-26.982-100.698c-3.465-12.93-9.831-24.242-18.923-33.624-2.882-2.974-7.63-3.05-10.605-.166-2.975 2.883-3.049 7.631-.166 10.605 7.293 7.525 12.409 16.633 15.206 27.067l26.982 100.697c.21.785-.124 1.327-.44 1.645-.317.316-.865.646-1.644.44l-100.697-26.98c-21.612-5.792-37.973-22.152-43.764-43.765-5.134-19.164-1-38.903 11.032-54.16l23.985 23.985v33.169c0 4.143 3.357 7.5 7.5 7.5s7.5-3.357 7.5-7.5v-18.169l17.612 17.612v25.528c0 4.143 3.357 7.5 7.5 7.5s7.5-3.357 7.5-7.5v-10.528l19.014 19.013c1.465 1.464 3.385 2.196 5.304 2.196s3.839-.732 5.304-2.196c2.929-2.93 2.929-7.678 0-10.607l-19.013-19.013h10.528c4.143 0 7.5-3.357 7.5-7.5s-3.357-7.5-7.5-7.5h-25.528l-17.613-17.612h18.169c4.143 0 7.5-3.357 7.5-7.5s-3.357-7.5-7.5-7.5h-33.17l-23.989-23.989c15.802-12.499 36.231-16.448 56.004-10.504 3.975 1.196 8.15-1.057 9.342-5.023 1.192-3.967-1.057-8.149-5.023-9.342-25.156-7.559-51.172-2.231-70.991 14.201l-7.587-7.587c-2.93-2.928-7.678-2.928-10.607 0-2.929 2.93-2.929 7.678 0 10.607l7.588 7.588c-15.832 19.141-21.39 44.304-14.849 68.713z"/><path d="m405.945 425.783h-79.063c2.872-7.781 1.176-16.898-5.074-23.149l-101.16-101.159c-11.304-11.303-26.331-17.527-42.315-17.527h-44.333c-4.143 0-7.5 3.357-7.5 7.5s3.357 7.5 7.5 7.5h44.333c11.978 0 23.238 4.664 31.708 13.135 0 0 101.018 101.018 101.159 101.159 2.584 2.584 2.658 7.146.062 9.763-.02.02-.042.036-.062.056-14.183 14.185-37.265 14.187-51.451 0l-43.803-43.803c-2.93-2.928-7.678-2.928-10.607 0-2.929 2.93-2.929 7.678 0 10.607l43.804 43.803c10.017 10.017 23.175 15.024 36.332 15.024 9.539 0 19.071-2.646 27.412-7.909h93.058c23.593 0 42.877 19.191 42.988 42.78.018 3.596-1.37 6.979-3.905 9.525-2.511 2.522-5.843 3.911-9.385 3.911h-176.411c-12.854 0-24.94-5.006-34.03-14.097l-90.692-90.69c-7.595-7.596-17.693-11.779-28.436-11.779h-51.932v-81.486h44.858c4.143 0 7.5-3.357 7.5-7.5s-3.357-7.5-7.5-7.5h-45.055c-8.163 0-14.804 6.641-14.804 14.803v81.88c0 8.163 6.641 14.804 14.804 14.804h52.129c6.735 0 13.066 2.623 17.828 7.386l90.692 90.691c11.925 11.923 27.777 18.489 44.638 18.489h176.411c7.562 0 14.67-2.958 20.016-8.329 5.372-5.397 8.311-12.563 8.274-20.178-.15-31.821-26.162-57.71-57.988-57.71z"/><path d="m337.788 259.873c2.071-3.587.842-8.174-2.746-10.244-3.586-2.073-8.174-.843-10.244 2.746l-4.959 8.59c-12.683 21.967-12.683 48.195-.001 70.162 12.683 21.967 35.398 35.081 60.764 35.081 25.364 0 48.079-13.114 60.761-35.08 12.683-21.967 12.684-48.196.001-70.163l-47.328-81.975c-2.804-4.856-7.826-7.756-13.434-7.756s-10.631 2.899-13.435 7.756l-24.869 43.072c-2.071 3.587-.842 8.174 2.745 10.245 3.584 2.07 8.173.842 10.245-2.745l24.869-43.072c.059-.103.148-.256.444-.256.295 0 .385.153.443.256l47.328 81.975c9.971 17.271 9.971 37.893-.001 55.162-9.971 17.271-27.829 27.581-47.771 27.581s-37.801-10.311-47.771-27.581c-9.972-17.271-9.971-37.892 0-55.163z"/></g></g><g/><g/><g/><g/><g/><g/><g/><g/><g/><g/><g/><g/><g/><g/><g/></svg>