<svg id="Layer_1" enable-background="new 0 0 512 512" viewBox="0 0 512 512" xmlns="http://www.w3.org/2000/svg"><path d="m255.83 387.56h.18c18.34 0 35.58-7.56 48.55-21.31 12.92-13.69 20.05-31.89 20.1-51.24.06-24.94-14.9-46.4-29.37-67.15-4.33-6.21-8.41-12.07-12.04-17.94l-21.87-35.4c-1.09-1.76-3.02-2.84-5.09-2.85h-.01c-2.07 0-3.99 1.07-5.09 2.82l-22.04 35.28c-3.66 5.85-7.77 11.69-12.12 17.87-14.56 20.67-29.62 42.05-29.68 66.99-.1 40.12 30.62 72.83 68.48 72.93zm-29-132.99c4.26-6.04 8.66-12.29 12.49-18.43l16.92-27.09 16.79 27.18c3.8 6.15 8.18 12.43 12.41 18.49 13.4 19.23 27.26 39.1 27.21 60.26-.04 16.29-6.01 31.58-16.83 43.04-10.68 11.32-24.82 17.55-39.83 17.55-.05 0-.1 0-.14 0-31.24-.08-56.6-27.4-56.52-60.89.06-21.16 14.01-40.96 27.5-60.11zm156.82 26.9c-3.29 2-7.38 4.48-12.52 7.29-7.01 3.83-12.79 4.97-18.2 4.35 3.21 8.37 5.5 16.63 6.11 24.89 2.07 28.3-6.3 53.44-24.2 72.7-19.13 20.58-47.86 32.38-78.83 32.38-30.97 0-59.7-11.8-78.83-32.38-17.9-19.26-26.27-44.39-24.2-72.7.6-8.26 2.89-16.52 6.11-24.89-5.41.62-11.19-.53-18.2-4.35-5.14-2.81-9.23-5.29-12.52-7.29-6.16-3.74-9.56-5.8-13.08-6.14-11-1.05-17.71 3.79-24.83 8.92-2.32 1.67-4.72 3.4-7.23 4.87-3.81 2.23-8.48 4.3-14.31 4.3-4.98 0-10.81-1.51-17.69-5.71-4.78-2.92-7.86-5.19-10.34-7.02-5.6-4.13-6.77-4.99-20.17-5.65-3.31-.16-5.86-2.98-5.7-6.29s3-5.87 6.29-5.7c16.24.8 19.34 2.55 26.7 7.97 2.29 1.69 5.15 3.79 9.48 6.44 9.9 6.05 14.95 4.06 19.67 1.29 2.02-1.19 4.09-2.68 6.28-4.25 7.79-5.62 17.49-12.61 32.98-11.13 6.25.6 10.99 3.47 18.16 7.83 3.35 2.03 7.15 4.34 12.05 7.01 7.89 4.31 12.25 3.71 18.81.23 2.12-4.47 4.38-9 6.67-13.58 8.06-16.13 16.39-32.81 19.58-49.72.57-3.01-.11-5.62-2.06-7.97-1.95-2.36-4.39-3.5-7.45-3.5h-161.18c-3.31 0-6-2.69-6-6s2.69-6 6-6h161.17c6.57 0 12.5 2.79 16.69 7.84 4.19 5.06 5.83 11.4 4.61 17.86-3.5 18.55-12.21 35.99-20.64 52.86-8.64 17.3-16.81 33.64-17.91 48.64-1.82 24.89 5.45 46.9 21.02 63.65 16.87 18.14 42.4 28.55 70.04 28.55 27.65 0 53.17-10.41 70.04-28.55 15.57-16.75 22.84-38.76 21.02-63.65-1.1-15-9.26-31.34-17.91-48.64-8.43-16.87-17.14-34.31-20.64-52.86-1.22-6.46.42-12.8 4.62-17.85 4.19-5.06 10.12-7.84 16.69-7.84h161.2c3.31 0 6 2.69 6 6s-2.69 6-6 6h-161.17c-3.06 0-5.5 1.15-7.45 3.5-1.96 2.36-2.63 4.96-2.06 7.97 3.19 16.91 11.52 33.59 19.58 49.72 2.29 4.59 4.55 9.11 6.67 13.58 6.56 3.48 10.93 4.08 18.81-.23 4.9-2.67 8.7-4.98 12.05-7.01 7.17-4.35 11.91-7.23 18.16-7.83 15.49-1.48 25.19 5.51 32.98 11.13 2.19 1.58 4.26 3.07 6.28 4.25 4.72 2.77 9.78 4.75 19.67-1.29 4.34-2.65 7.19-4.75 9.48-6.44 7.36-5.42 10.46-7.17 26.7-7.97 3.28-.18 6.12 2.39 6.29 5.7.16 3.31-2.39 6.12-5.7 6.29-13.4.66-14.57 1.52-20.17 5.65-2.48 1.83-5.56 4.1-10.34 7.02-6.87 4.2-12.71 5.71-17.69 5.71-5.84 0-10.51-2.07-14.31-4.3-2.51-1.47-4.91-3.2-7.23-4.87-7.11-5.13-13.83-9.97-24.83-8.92-3.51.33-6.9 2.39-13.07 6.13zm-326.74 77.37c0 3.31-2.69 6-6 6h-29.91c-3.31 0-6-2.69-6-6s2.69-6 6-6h29.91c3.31 0 6 2.68 6 6zm73.06 0c0 3.31-2.69 6-6 6h-14.96c-3.31 0-6-2.69-6-6s2.69-6 6-6h14.96c3.32 0 6 2.68 6 6zm279.01 0c0 3.31-2.69 6-6 6h-14.96c-3.31 0-6-2.69-6-6s2.69-6 6-6h14.96c3.32 0 6 2.68 6 6zm88.02 0c0 3.31-2.69 6-6 6h-29.91c-3.31 0-6-2.69-6-6s2.69-6 6-6h29.91c3.31 0 6 2.68 6 6zm-396.08 53.58c0 3.31-2.69 6-6 6h-29.91c-3.31 0-6-2.69-6-6s2.69-6 6-6h29.91c3.31 0 6 2.68 6 6zm73.06 0c0 3.31-2.69 6-6 6h-14.96c-3.31 0-6-2.69-6-6s2.69-6 6-6h14.96c3.32 0 6 2.68 6 6zm190.99 0c0 3.31-2.69 6-6 6h-14.96c-3.31 0-6-2.69-6-6s2.69-6 6-6h14.96c3.32 0 6 2.68 6 6zm88.02 0c0 3.31-2.69 6-6 6h-29.91c-3.31 0-6-2.69-6-6s2.69-6 6-6h29.91c3.31 0 6 2.68 6 6zm-399.38-283.08c0-3.31 2.69-6 6-6h120.15l-24.18-24.18c-2.34-2.34-2.34-6.14 0-8.49 2.34-2.34 6.14-2.34 8.48 0l34.42 34.42c1.13 1.12 1.76 2.65 1.76 4.24s-.63 3.12-1.76 4.24l-34.42 34.42c-1.17 1.17-2.71 1.76-4.24 1.76-1.54 0-3.07-.59-4.24-1.76-2.34-2.34-2.34-6.14 0-8.49l24.18-24.18h-120.15c-3.31.02-6-2.66-6-5.98zm259.9 4.25c-1.13-1.13-1.76-2.65-1.76-4.24s.63-3.12 1.76-4.24l34.42-34.42c2.34-2.34 6.14-2.34 8.48 0s2.34 6.14 0 8.49l-24.18 24.18h120.15c3.31 0 6 2.69 6 6s-2.69 6-6 6h-120.14l24.18 24.18c2.34 2.34 2.34 6.14 0 8.49-1.17 1.17-2.71 1.76-4.24 1.76s-3.07-.59-4.24-1.76z"/></svg>