<svg enable-background="new 0 0 64 64" viewBox="0 0 64 64" xmlns="http://www.w3.org/2000/svg"><g id="_x32_0"><g fill="#212121"><path d="m63.91 23.416c-.166-2.137-.532-3.519-.786-5.547-.043-.322-.329-.487-.653-.446-.455.065-.571.602-.462.991.688 4.591 1.294 6.761.337 12.527-1.814.085-3.571-.509-5.039-1.604-.258-.196-.629-.143-.823.12-.196.261-.141.629.12.823 1.592 1.19 3.494 1.858 5.463 1.859-.198.856-.501 1.68-.844 2.495-1.915-.016-3.663-.676-5.139-1.909-.251-.21-.623-.174-.83.075-.208.251-.175.621.075.83 1.525 1.276 3.37 2.048 5.332 2.143-.762 1.493-1.716 2.928-2.908 4.273-.342.36-.048.998.441.98 2.403-1.718 4.059-5.514 4.887-8.094 1.122-3.87.954-7.945.829-9.516z"/><path d="m51.986 45.788-1.414-2.867 2.568 1.571c1.298.724 2.204-.666 3.223-1.406.579-.497-.208-1.398-.777-.887-.583.396-1.282 1.322-1.832 1.287 0 0-4.302-2.632-4.302-2.632-.478-.316-1.108.256-.836.763 0 0 2.312 4.691 2.312 4.691-.527 1.309-2.552 2.766-4.657 3.649l-.27-1.523c-.108-.702-.843-1.216-1.538-1.075-1.933.341-4.004-.042-5.676-1.056-.277-.167-.639-.082-.809.198-.169.279-.081.64.198.809 1.912 1.159 4.275 1.6 6.491 1.209.001 0 .173.119.173.119l.296 1.672c-4.283 1.105-8.935-.514-11.391-4.104 11.666-2.543 21.26-12.124 22.283-25.404.773.239 2.726 1.317 3.625 1.622.588.022.817-.846.275-1.11-.837-.461-2.916-1.417-3.669-1.696.787-3.515 2.738-6.735 5.391-9.427-.066 1.583-.064 3.182.026 4.76.018.325.265.598.621.555.326-.019.574-.297.555-.621-.097-1.703-.102-3.428-.014-5.13.032-.579-.376-1.09-.949-1.19-2.59-.704-7.937.488-10.215 3.912-.835-.372-1.914-.664-2.54-1.197-1.174-1.048-1.665-3.118-3.147-3.94-.878-.508-1.921-.52-2.929-.533-1.582.071-2.576-.277-3.742-1.355-.789-.647-1.603-1.315-2.624-1.494-1.657-.315-3.367.959-4.944.995-2.125-.173-4.43-1.988-6.485-.331-.001 0-.001.001-.001.001-.372.248-.732.543-1.09.837l.291.523.456.387c.591-.492 1.382-1.141 2.089-1.251 1.476-.194 3.171 1.061 4.74 1.012 1.563.05 3.276-1.208 4.74-1.012 1.461.299 2.638 2.074 4.111 2.566 1.449.578 3.492-.018 4.798.676 1.261.786 1.762 2.857 2.981 3.822.745.629 1.727.917 2.623 1.292-1.779 3.371-.931 2.933-3.064 8.121-.163.377.138.82.546.812.85-.135.893-1.612 1.263-2.234 3.122 1.453 3.294-1.263 3.887-3.028.18-.648.77-2.286 2.343-3.495.258-.198.306-.568.107-.826-.198-.258-.566-.308-.826-.107-1.855 1.425-2.548 3.35-2.773 4.158-.05.166-.29.984-.674 2.125-.052.157-.164.283-.312.355-.324.207-1.044-.218-1.359-.293.523-1.52.846-2.63.853-2.651.815-3.669 5.14-7.3 9.608-6.824-2.076 2.16-3.675 4.562-4.702 7.184-1.517 3.873-.979 5.929-2.067 9.746-1.568 5.517-4.914 9.149-6.013 10.343-.602.654-1.455 1.489-2.494 2.372-1.219-.618-4.547-3.841-5.214-5.067.967-.831 1.857-1.77 2.652-2.782.061-.079.167-.106.256-.077l4.837 1.638c.245.084.514-.001.666-.211.151-.208.15-.491-.004-.698l-2.907-3.914c-.074-.1-.056-.236.042-.321.66-.559 1.329-1.497 2.049-2.866.151-.288.041-.644-.248-.795-.281-.148-.642-.041-.795.248-.639 1.216-1.234 2.062-1.768 2.516-.569.483-.669 1.327-.226 1.921l1.783 2.401-3.053-1.034c-.562-.19-1.195-.005-1.561.467-1.69 2.4-5.327 4.879-7.444 5.608-3.214 1.062-4.635 3.623-3.474 7.032.098.313.438.481.74.382.309-.098.481-.43.382-.74-1.209-3.887.815-4.819 4.228-6.239.682 1.487 1.692 2.802 2.944 3.852.248.209.619.18.83-.07.21-.249.179-.62-.07-.83-1.134-.953-2.05-2.148-2.662-3.5.591-.336 1.22-.745 1.882-1.246.757 1.287 3.803 4.3 5.18 5.108-4.736 3.699-10.826 5.827-16.843 5.473-.308-.032-.601.235-.616.56-.017.325.234.601.56.616 1.663.072 3.343.025 4.979-.26 2.674 4.351 8.222 6.379 13.125 5.018 2.697-.694 7.305-3.713 6.412-5.635z"/><path d="m1.73 9.274c1.431.353 2.904 2 3.184 3.183.189.657 1.2.654 1.376-.012.161-.529.5-1.306 1.203-2.004.689-.683 1.45-1.012 1.972-1.172.3-.095.504-.371.504-.688 0-.316-.202-.591-.504-.686-1.161-.184-2.981-2.001-3.17-3.17-.183-.661-1.192-.663-1.375.001-.165.532-.51 1.313-1.219 2.009-.686.675-1.445 1.006-1.958 1.165-.662.174-.671 1.186-.013 1.374zm2.797-1.699c.486-.477.834-.985 1.083-1.455.442.914 1.546 2.02 2.454 2.457-.926.44-2.04 1.561-2.474 2.481-.478-.935-1.453-1.943-2.465-2.462.454-.237.941-.566 1.402-1.021z"/><path d="m62.015 51.029c-1.522-.28-3.718-2.472-4-4-.187-.691-1.243-.69-1.433.001-.208.67-.643 1.654-1.538 2.535-.867.853-1.824 1.269-2.472 1.469-.689.185-.697 1.239-.009 1.433 1.52.284 3.742 2.539 4.014 4.018.202.683 1.249.671 1.432-.017.267-1.536 2.456-3.735 3.999-4.006.69-.186.697-1.241.007-1.433zm-3.316 2.073c-.666.658-1.116 1.365-1.418 1.998-.586-1.273-1.946-2.696-3.343-3.34 1.26-.519 2.846-2.106 3.362-3.354.524 1.247 2.095 2.813 3.331 3.334-.611.295-1.292.728-1.932 1.362z"/><path d="m14.487 37.295h-3.91c-.511 0-.928.417-.928.928v3.515h-3.66c-.511 0-.927.417-.927.928v3.912c0 .511.415.927.927.927h3.66v3.66c0 .511.417.927.928.927h3.91c.511 0 .928-.415.928-.927v-3.66h3.66c.511 0 .927-.415.927-.927v-3.912c0-.511-.415-.928-.927-.928h-3.66v-3.515c0-.512-.417-.928-.928-.928zm4.336 5.622v3.409c-5.451.065-4.517-.846-4.587 4.587h-3.409c-.065-5.451.846-4.517-4.587-4.587v-3.409c5.281-.113 4.561.982 4.587-4.443h3.409c.021 5.441-.676 4.325 4.587 4.443z"/><path d="m25.405 44.77c.147-10.156-11.887-16.34-20.015-10.378-2.157-3.07.166-4.034.882-6.887.316-1.527-.626-3.438-.173-4.842.247-.679.896-1.235 1.583-1.823 1.379-.999 2.2-2.436 2.381-4.125.227-1.677.751-2.723 2.388-3.232 1.164 11.535 6.544 19.984 16.682 20.017 2.235-.143 3.873-.025 5.448-1.173.423-.361.762-.825.978-1.361 2.186-5.426 2.119-10.246-.194-14.322-4.865-8.57-18.02-11.238-21.935-11.85-.687-.126-1.374.457-1.361 1.159-.01 2.238.074 4.345.251 6.319-.881.335-1.769.702-2.378 1.429-1.109 1.275-.867 3.392-1.618 4.774-.829 1.336-2.782 2.181-3.331 3.785-.603 1.578.354 3.483.119 5.043-.327 1.535-1.868 2.996-1.831 4.697-.001 1.151.628 2.144 1.167 3.125-4.311 3.493-5.802 10.372-3.073 15.419.338.686 1.406.14 1.048-.537-.832-1.63-1.254-3.391-1.254-5.236.602-15.28 22.454-15.28 23.057 0 .049 10.466-13.142 15.518-20.095 7.714-.501-.575-1.397.23-.874.79 7.661 8.6 22.205 3.028 22.148-8.505zm8.935-27.546c2.166 3.776 2.215 8.757-.111 13.732l-4.319-5.341.716-6.768c.089-.754-1.076-.885-1.171-.125 0 0-.593 5.599-.593 5.599l-10.092-12.483c-.205-.252-.573-.289-.828-.087-.253.205-.291.575-.087.828l6.001 7.421-5.553-.587c-.746-.077-.901 1.086-.123 1.171 0 0 6.723.71 6.723.71l8.442 10.44c-13.935 3.576-20.499-9.172-20.098-25.778 2.693.421 16.368 2.947 21.093 11.268z"/><path d="m48.38 51.817c-1.217.963-1.721 3.037-2.98 3.822-1.308.695-3.35.098-4.8.676-1.471.492-2.651 2.267-4.108 2.566-1.474.199-3.172-1.063-4.741-1.012-1.563-.05-3.275 1.21-4.739 1.012-1.46-.299-2.641-2.077-4.114-2.566-.384-.14-.816-.223-1.359-.264-.786-.089-.838 1.134-.089 1.173.432.033.765.096 1.046.198 1.464.587 2.629 2.36 4.313 2.62 1.66.315 3.362-.959 4.942-.995 1.578.035 3.287 1.311 4.945.995 1.021-.179 1.837-.847 2.624-1.494 1.91-2.145 4.42-.753 6.67-1.888 1.482-.822 1.974-2.893 3.147-3.94.588-.481-.179-1.405-.757-.903z"/><path d="m42.076 13.441c.325 0 .589-.265.589-.589-.076-.771.306-2.099-.589-2.116-.325 0-.589.265-.589.589.076.772-.306 2.1.589 2.116z"/><path d="m41.487 16.999c-.01.764 1.189.765 1.179 0-.076-.758.305-2.08-.589-2.098-.894.017-.514 1.34-.59 2.098z"/><path d="m43.403 14.752h1.623c.764.01.765-1.189 0-1.179h-1.623c-.764-.01-.764 1.189 0 1.179z"/><path d="m40.763 14.752c.764.01.765-1.189 0-1.179-.717.076-2.054-.306-2.07.589.016.895 1.353.514 2.07.59z"/></g></g><g id="_x31_9"/><g id="_x31_8"/><g id="_x31_7"/><g id="_x31_6"/><g id="_x31_5"/><g id="_x31_4"/><g id="_x31_3"/><g id="_x31_2"/><g id="_x31_1"/><g id="_x31_0"/><g id="_x39_"/><g id="_x38_"/><g id="_x37_"/><g id="_x36_"/><g id="_x35_"/><g id="_x34_"/><g id="_x33_"/><g id="_x32_"/><g id="_x31_"/></svg>