<svg id="Layer_1" height="512" viewBox="0 0 128 128" width="512" xmlns="http://www.w3.org/2000/svg" data-name="Layer 1"><path d="m64 125a61 61 0 1 0 -61-61 61.06 61.06 0 0 0 61 61zm0-120a59 59 0 1 1 -59 59 59.07 59.07 0 0 1 59-59z"/><path d="m75.35 74.38a9.57 9.57 0 0 1 2.47 1.23 24.86 24.86 0 0 1 -1.53 3.91 4.1 4.1 0 0 0 2.19 5.48 1.22 1.22 0 0 0 .26.06l2.06.25a4.08 4.08 0 0 0 -1.65 3.73 3.94 3.94 0 0 0 2.72 3.43c.28.68 0 1.45-.52 2.64a7.28 7.28 0 0 0 -.82 3.59 4.75 4.75 0 0 0 1.79 3.44c1.26 1 3.18 1.44 6.17 1.44a69.4 69.4 0 0 0 10.14-1 1 1 0 0 0 -.3-2c-8.47 1.32-13 1.31-14.79 0a2.78 2.78 0 0 1 -1-2.08 5.67 5.67 0 0 1 .67-2.59c.59-1.39 1.33-3.13.18-4.84a1.1 1.1 0 0 0 -.75-.44 1.94 1.94 0 0 1 -1.47-1.76 2.09 2.09 0 0 1 1.25-2.16.92.92 0 0 0 .21-.13l1.46-1.15a1 1 0 0 0 -.5-1.78l-4.45-.54a2 2 0 0 1 -1.08-1.11 2 2 0 0 1 0-1.64 26.4 26.4 0 0 0 1.66-4.27c.47-1.89-1.72-2.78-3.65-3.57-1.07-.46-2.85-1.16-3.07-1.81a.89.89 0 0 1 .21-.68c.43-.64 1.07-1.41 1.82-2.31 3.3-4 8.82-10.58 7.15-20.28-1.39-8.28 2.92-16.24 6.82-21.44a1 1 0 1 0 -1.61-1.19c-5.87 7.94-8.33 15.89-7.11 23 1.51 8.79-3.44 14.73-6.72 18.66a30.72 30.72 0 0 0 -1.94 2.48 2.72 2.72 0 0 0 -.47 2.38c.44 1.52 2.35 2.3 4.2 3.05z"/><path d="m53.83 74.38a9.46 9.46 0 0 1 2.46 1.23 24.6 24.6 0 0 1 -1.52 3.91 4.08 4.08 0 0 0 2.23 5.48 1 1 0 0 0 .25.06l2.07.25a4.08 4.08 0 0 0 -1.65 3.73 3.93 3.93 0 0 0 2.72 3.43c.27.68 0 1.45-.52 2.64a7.28 7.28 0 0 0 -.87 3.63 4.72 4.72 0 0 0 1.79 3.44c1.26 1 3.18 1.44 6.17 1.44a69.4 69.4 0 0 0 10.14-1 1 1 0 1 0 -.31-2c-8.46 1.33-13 1.31-14.78 0a2.78 2.78 0 0 1 -1-2.08 5.55 5.55 0 0 1 .67-2.59c.59-1.39 1.33-3.13.18-4.84a1.1 1.1 0 0 0 -.75-.44 1.94 1.94 0 0 1 -1.48-1.76 2.11 2.11 0 0 1 1.25-2.16 1 1 0 0 0 .22-.13l1.46-1.15a1 1 0 0 0 .35-1.06 1 1 0 0 0 -.85-.72l-4.46-.54a2 2 0 0 1 -1.07-1.15 2.08 2.08 0 0 1 0-1.64 26.4 26.4 0 0 0 1.65-4.27c.48-1.89-1.71-2.78-3.65-3.57-1.15-.47-2.88-1.17-3.08-1.82a.9.9 0 0 1 .22-.68c.43-.64 1.07-1.42 1.82-2.31 3.29-4 8.82-10.58 7.15-20.28-1.38-8.27 2.93-16.23 6.8-21.43a1 1 0 0 0 -.21-1.4 1 1 0 0 0 -1.4.21c-5.88 7.94-8.34 15.89-7.12 23 1.52 8.79-3.43 14.73-6.71 18.66a30.72 30.72 0 0 0 -1.94 2.48 2.72 2.72 0 0 0 -.47 2.38c.48 1.52 2.41 2.3 4.24 3.05z"/><path d="m32.3 74.38a9.4 9.4 0 0 1 2.47 1.23 24.86 24.86 0 0 1 -1.53 3.91 4.09 4.09 0 0 0 2.2 5.48 1 1 0 0 0 .25.06l2.06.25a4.05 4.05 0 0 0 -1.64 3.73 3.92 3.92 0 0 0 2.71 3.43c.28.68 0 1.45-.52 2.64a7.17 7.17 0 0 0 -.81 3.59 4.69 4.69 0 0 0 1.79 3.44c1.25 1 3.17 1.44 6.16 1.44a69.64 69.64 0 0 0 10.15-1 1 1 0 0 0 -.31-2c-8.47 1.32-13 1.31-14.79 0a2.78 2.78 0 0 1 -1-2.08 5.53 5.53 0 0 1 .66-2.59c.6-1.39 1.33-3.13.18-4.84a1.1 1.1 0 0 0 -.75-.44 1.94 1.94 0 0 1 -1.47-1.76 2.09 2.09 0 0 1 1.25-2.16 1.27 1.27 0 0 0 .22-.13l1.42-1.13a1 1 0 0 0 .34-1.06 1 1 0 0 0 -.84-.72l-4.46-.54a2 2 0 0 1 -1.04-1.13 2.06 2.06 0 0 1 .05-1.65 26.76 26.76 0 0 0 1.65-4.27c.47-1.89-1.72-2.78-3.65-3.57-1.15-.47-2.88-1.17-3.08-1.82a.86.86 0 0 1 .23-.69c.42-.64 1.07-1.41 1.81-2.31 3.3-4 8.82-10.58 7.15-20.28-1.42-8.25 2.89-16.21 6.75-21.41a1 1 0 1 0 -1.61-1.19c-5.87 7.94-8.33 15.89-7.11 23 1.51 8.79-3.44 14.73-6.71 18.66a31.09 31.09 0 0 0 -1.95 2.48 2.72 2.72 0 0 0 -.46 2.38c.47 1.52 2.38 2.3 4.23 3.05z"/></svg>