<?xml version="1.0" encoding="UTF-8"?>
<svg xmlns="http://www.w3.org/2000/svg" id="Layer_1" data-name="Layer 1" viewBox="0 0 64 64" width="512" height="512"><path d="M8,62a1,1,0,0,1-.965-.738c-.014-.051-1.424-5.09-5.332-6.306a1,1,0,0,1,0-1.91c3.928-1.223,5.318-6.253,5.331-6.3A1,1,0,0,1,8,46H8a1,1,0,0,1,.965.738c.014.051,1.424,5.09,5.332,6.306a1,1,0,0,1,0,1.91c-3.928,1.223-5.318,6.253-5.331,6.3A1,1,0,0,1,8,62ZM4.313,54A11.23,11.23,0,0,1,8,58.329,11.225,11.225,0,0,1,11.688,54,11.225,11.225,0,0,1,8,49.671,11.23,11.23,0,0,1,4.313,54Z"/><path d="M58,54h0a1,1,0,0,1-.968-.757c-.009-.032-.913-3.482-3.346-4.294a1,1,0,0,1,0-1.9c2.433-.812,3.337-4.262,3.346-4.3A1.024,1.024,0,0,1,58,42a1,1,0,0,1,.968.754h0c.009.035.913,3.485,3.346,4.3a1,1,0,0,1,0,1.9c-2.433.812-3.337,4.262-3.346,4.3A1,1,0,0,1,58,54Zm-1.957-6A8.061,8.061,0,0,1,58,50.392,8.061,8.061,0,0,1,59.957,48,8.061,8.061,0,0,1,58,45.608,8.061,8.061,0,0,1,56.043,48Z"/><path d="M12,16h0a1,1,0,0,1-.968-.757c-.009-.032-.913-3.482-3.346-4.294a1,1,0,0,1,0-1.9c2.433-.812,3.337-4.262,3.346-4.3A.982.982,0,0,1,12,4a1,1,0,0,1,.968.754h0c.009.035.913,3.485,3.346,4.3a1,1,0,0,1,0,1.9c-2.433.812-3.337,4.262-3.346,4.3A1,1,0,0,1,12,16Zm-1.957-6A8.061,8.061,0,0,1,12,12.392,8.061,8.061,0,0,1,13.957,10,8.061,8.061,0,0,1,12,7.608,8.061,8.061,0,0,1,10.043,10Z"/><path d="M58,13h0a1,1,0,0,1-.972-.77c-.177-.743-.949-2.785-2.361-3.287a1,1,0,0,1,0-1.884c1.412-.5,2.184-2.544,2.362-3.288A1,1,0,0,1,58,3h0a1,1,0,0,1,.971.769h0c.178.744.95,2.786,2.362,3.288a1,1,0,0,1,0,1.884c-1.412.5-2.184,2.544-2.362,3.288A1,1,0,0,1,58,13ZM56.863,8A6.446,6.446,0,0,1,58,9.431,6.446,6.446,0,0,1,59.137,8,6.446,6.446,0,0,1,58,6.569,6.446,6.446,0,0,1,56.863,8Z"/><path d="M32,63c-9.161,0-17.143-8.557-19.145-20.431a8.353,8.353,0,0,1-2.44-1.654A7.534,7.534,0,0,1,8,35.611a5.19,5.19,0,0,1,1.531-3.776,3.871,3.871,0,0,1,.5-.412A5.136,5.136,0,0,1,12.692,30.4C14.075,17.081,20.4,10.6,32,10.6s17.941,6.5,19.313,19.853a6.278,6.278,0,0,1,2.714,1.011,3.492,3.492,0,0,1,.438.367A5.193,5.193,0,0,1,56,35.611a7.534,7.534,0,0,1-2.415,5.3h0a8.353,8.353,0,0,1-2.44,1.654C49.143,54.443,41.161,63,32,63ZM13.356,32.371a3.449,3.449,0,0,0-2.153.67,2.2,2.2,0,0,0-.282.231A3.167,3.167,0,0,0,10,35.608a5.539,5.539,0,0,0,1.8,3.87,6.349,6.349,0,0,0,2.285,1.431,1,1,0,0,1,.653.793C16.433,52.884,23.69,61,32,61s15.567-8.116,17.258-19.3a1,1,0,0,1,.653-.793A6.343,6.343,0,0,0,52.2,39.478h0a5.539,5.539,0,0,0,1.8-3.87,3.166,3.166,0,0,0-.925-2.339,1.822,1.822,0,0,0-.222-.188,4.909,4.909,0,0,0-2.47-.705,1,1,0,0,1-.984-.915C48.3,18.593,42.77,12.6,32,12.6S15.7,18.593,14.6,31.461a1,1,0,0,1-1.039.914C13.492,32.372,13.424,32.371,13.356,32.371Z"/><path d="M53.412,33.252a1.023,1.023,0,0,1-.287-.042,1,1,0,0,1-.671-1.245A20.84,20.84,0,0,0,53.343,26C53.343,12.458,44.566,3,32,3A20.713,20.713,0,0,0,18.636,7.572a1,1,0,0,1-1.272-1.545A22.691,22.691,0,0,1,32,1C45.526,1,55.343,11.514,55.343,26a22.834,22.834,0,0,1-.973,6.539A1,1,0,0,1,53.412,33.252Z"/><path d="M10.588,33.252a1,1,0,0,1-.958-.713A22.834,22.834,0,0,1,8.657,26a29.221,29.221,0,0,1,1.166-8.283,1,1,0,1,1,1.918.566A27.251,27.251,0,0,0,10.657,26a20.84,20.84,0,0,0,.889,5.965,1,1,0,0,1-.671,1.245A1.023,1.023,0,0,1,10.588,33.252Z"/><path d="M24.552,37.8a6.544,6.544,0,0,1-4.419-1.482,1,1,0,0,1,1.383-1.445,4.624,4.624,0,0,0,3.036.927,4.616,4.616,0,0,0,3.038-.928,1.008,1.008,0,0,1,1.41.047.994.994,0,0,1-.028,1.4A6.545,6.545,0,0,1,24.552,37.8Z"/><path d="M39.448,37.8a6.545,6.545,0,0,1-4.42-1.482,1,1,0,1,1,1.391-1.437,4.631,4.631,0,0,0,3.029.919,4.614,4.614,0,0,0,3.037-.928,1.008,1.008,0,0,1,1.41.047.994.994,0,0,1-.028,1.4A6.544,6.544,0,0,1,39.448,37.8Z"/><path d="M28.277,30.8a1,1,0,0,1-.872-.509A3.534,3.534,0,0,0,24.552,28.6,3.537,3.537,0,0,0,21.7,30.3a1,1,0,0,1-1.738-.988A5.561,5.561,0,0,1,24.552,26.6a5.562,5.562,0,0,1,4.595,2.709,1,1,0,0,1-.87,1.491Z"/><path d="M43.172,30.8a1,1,0,0,1-.868-.5h0a3.252,3.252,0,0,0-5.709-.006,1,1,0,1,1-1.742-.982,5.251,5.251,0,0,1,9.189,0,1,1,0,0,1-.87,1.491Z"/><path d="M32,51.4a8.937,8.937,0,0,1-7.011-3.207A1,1,0,1,1,26.6,47.006a7.292,7.292,0,0,0,10.8,0,1,1,0,1,1,1.609,1.187A8.937,8.937,0,0,1,32,51.4Z"/><path d="M27.9,12.447l-1.79-.894C30.38,3.005,44.541,4.924,45.142,5.01l-.283,1.98C44.727,6.971,31.523,5.189,27.9,12.447Z"/><path d="M48,22a1,1,0,0,1-.554-.168C47.389,21.8,41.523,18,31,18c-9.478,0-14.33,3.745-14.378,3.783a1,1,0,0,1-1.247-1.564C15.591,20.047,20.767,16,31,16c11.174,0,17.3,4,17.555,4.168A1,1,0,0,1,48,22Z"/></svg>
