<?xml version="1.0" encoding="UTF-8"?>
<svg xmlns="http://www.w3.org/2000/svg" id="Layer_1" data-name="Layer 1" viewBox="0 0 64 64" width="512" height="512"><path d="M62,34.5H2a1,1,0,0,1,0-2H62a1,1,0,0,1,0,2Z"/><path d="M54.5,43.5a5.765,5.765,0,0,1-4.482-2.316c-.883-.941-1.58-1.684-3.023-1.684s-2.138.743-3.02,1.684a5.49,5.49,0,0,1-8.959,0c-.883-.941-1.579-1.684-3.022-1.684s-2.138.743-3.02,1.684A5.76,5.76,0,0,1,24.491,43.5a5.76,5.76,0,0,1-4.478-2.316c-.882-.941-1.578-1.684-3.019-1.684s-2.137.743-3.019,1.684A5.758,5.758,0,0,1,9.5,43.5a5.758,5.758,0,0,1-4.478-2.316C4.137,40.243,3.441,39.5,2,39.5a1,1,0,0,1,0-2,5.758,5.758,0,0,1,4.478,2.316C7.36,40.757,8.056,41.5,9.5,41.5s2.137-.743,3.019-1.684A5.76,5.76,0,0,1,16.994,37.5a5.758,5.758,0,0,1,4.478,2.316c.882.941,1.578,1.684,3.019,1.684s2.138-.743,3.02-1.684a5.491,5.491,0,0,1,8.96,0c.882.941,1.579,1.684,3.021,1.684s2.138-.743,3.02-1.684a5.492,5.492,0,0,1,8.961,0c.882.941,1.579,1.684,3.023,1.684s2.14-.743,3.022-1.684A5.765,5.765,0,0,1,62,37.5a1,1,0,0,1,0,2c-1.443,0-2.141.743-3.023,1.684A5.765,5.765,0,0,1,54.5,43.5Z"/><path d="M62,49.5H60a1,1,0,0,1,0-2h2a1,1,0,0,1,0,2Z"/><path d="M53,49.5H51a1,1,0,0,1,0-2h2a1,1,0,0,1,0,2Z"/><path d="M43,49.5H41a1,1,0,0,1,0-2h2a1,1,0,0,1,0,2Z"/><path d="M33,49.5H31a1,1,0,0,1,0-2h2a1,1,0,0,1,0,2Z"/><path d="M23,49.5H21a1,1,0,0,1,0-2h2a1,1,0,0,1,0,2Z"/><path d="M13,49.5H11a1,1,0,0,1,0-2h2a1,1,0,0,1,0,2Z"/><path d="M4,49.5H2a1,1,0,0,1,0-2H4a1,1,0,0,1,0,2Z"/><path d="M8,55.5H6a1,1,0,0,1,0-2H8a1,1,0,0,1,0,2Z"/><path d="M18,55.5H16a1,1,0,0,1,0-2h2a1,1,0,0,1,0,2Z"/><path d="M28,55.5H26a1,1,0,0,1,0-2h2a1,1,0,0,1,0,2Z"/><path d="M38,55.5H36a1,1,0,0,1,0-2h2a1,1,0,0,1,0,2Z"/><path d="M48,55.5H46a1,1,0,0,1,0-2h2a1,1,0,0,1,0,2Z"/><path d="M58,55.5H56a1,1,0,0,1,0-2h2a1,1,0,0,1,0,2Z"/><path d="M53,60.5H51a1,1,0,0,1,0-2h2a1,1,0,0,1,0,2Z"/><path d="M43,60.5H41a1,1,0,0,1,0-2h2a1,1,0,0,1,0,2Z"/><path d="M33,60.5H31a1,1,0,0,1,0-2h2a1,1,0,0,1,0,2Z"/><path d="M23,60.5H21a1,1,0,0,1,0-2h2a1,1,0,0,1,0,2Z"/><path d="M13,60.5H11a1,1,0,0,1,0-2h2a1,1,0,0,1,0,2Z"/><path d="M49,29.5a1,1,0,0,1-.97-.755c-.012-.051-1.327-5.089-4.947-6.295a1,1,0,0,1,0-1.9c3.638-1.212,4.934-6.243,4.947-6.294A1,1,0,0,1,49,13.5h0a1,1,0,0,1,.97.755c.012.051,1.327,5.089,4.947,6.295a1,1,0,0,1,0,1.9c-3.638,1.212-4.934,6.243-4.947,6.294A1,1,0,0,1,49,29.5Zm-3.406-8A10.977,10.977,0,0,1,49,25.707,10.977,10.977,0,0,1,52.406,21.5,10.977,10.977,0,0,1,49,17.293,10.977,10.977,0,0,1,45.594,21.5Z"/><path d="M32,15.5h0a1,1,0,0,1-.968-.756c-.009-.033-.913-3.483-3.346-4.294a1,1,0,0,1,0-1.9c2.433-.811,3.337-4.261,3.346-4.3A1,1,0,0,1,32,3.5h0a1,1,0,0,1,.968.754h0c.009.035.913,3.485,3.346,4.3a1,1,0,0,1,0,1.9c-2.433.811-3.337,4.261-3.346,4.3A1,1,0,0,1,32,15.5Zm-1.957-6A8.061,8.061,0,0,1,32,11.892,8.061,8.061,0,0,1,33.957,9.5,8.061,8.061,0,0,1,32,7.108,8.061,8.061,0,0,1,30.043,9.5Z"/><path d="M12,31a.977.977,0,0,1-.97-.756c-.009-.033-.913-3.483-3.346-4.294a1,1,0,0,1,0-1.9c2.433-.811,3.337-4.261,3.346-4.3A1,1,0,0,1,12,19a.96.96,0,0,1,.97.754h0c.009.035.913,3.485,3.346,4.3a1,1,0,0,1,0,1.9c-2.433.811-3.337,4.261-3.346,4.3A1,1,0,0,1,12,31Zm-1.957-6A8.061,8.061,0,0,1,12,27.392,8.061,8.061,0,0,1,13.957,25,8.061,8.061,0,0,1,12,22.608,8.061,8.061,0,0,1,10.043,25Z"/></svg>
