<svg clip-rule="evenodd" fill-rule="evenodd" stroke-linejoin="round" stroke-miterlimit="2" viewBox="0 0 510 510" xmlns="http://www.w3.org/2000/svg"><path d="m132.53 256.601h-117.53c-3.863 0-7-3.137-7-7 0-3.864 3.137-7 7-7h117.53v-67.153c0-3.249 2.236-6.072 5.399-6.815l21.386-5.023c18.321-4.332 35.637-12.453 51.322-22.783l6.93-4.574c1.144-.755 2.485-1.158 3.856-1.158h67.154c1.371 0 2.712.403 3.856 1.158l6.928 4.572c15.713 10.331 33.03 18.453 51.353 22.785l21.359 5.024c3.162.744 5.397 3.565 5.397 6.814v67.153h117.53c3.863 0 7 3.136 7 7 0 3.863-3.137 7-7 7h-117.53v18.062c0 6.296-.61 12.554-1.764 18.736h119.294c3.863 0 7 3.137 7 7 0 3.864-3.137 7-7 7h-122.857c-4.539 14.09-11.764 27.603-20.844 40.047 4.729 5.303 9.454 11.625 14.186 16.203 2.308 2.234 4.305 4.305 6.613 4.305 1.931 0 3.628-1.586 5.558-3.324 3.189-2.87 6.357-6.717 9.547-10.544 4.45-5.341 8.952-10.631 13.403-14.05 4.114-3.16 8.341-4.857 12.456-4.857s8.342 1.697 12.457 4.857c4.451 3.418 8.956 8.708 13.407 14.049 3.191 3.827 6.36 7.674 9.55 10.545 1.932 1.738 3.629 3.324 5.56 3.324s3.627-1.586 5.558-3.324c3.189-2.87 6.357-6.717 9.546-10.544 4.45-5.341 8.953-10.631 13.403-14.05 4.115-3.16 8.342-4.857 12.457-4.857 3.863 0 7 3.137 7 7 0 3.864-3.137 7-7 7-1.931 0-3.627 1.586-5.558 3.324-3.189 2.871-6.357 6.717-9.546 10.545-4.45 5.341-8.953 10.631-13.403 14.049-4.115 3.161-8.342 4.857-12.457 4.857-4.114 0-8.342-1.696-12.457-4.856-4.451-3.418-8.955-8.709-13.407-14.049-3.19-3.828-6.359-7.675-9.55-10.545-1.931-1.738-3.629-3.325-5.56-3.325-1.93 0-3.627 1.586-5.558 3.324-3.189 2.871-6.357 6.717-9.546 10.545-4.45 5.341-8.953 10.631-13.403 14.049-4.115 3.161-8.342 4.857-12.457 4.857-5.356 0-10.994-3.062-16.349-8.244-4.426-4.284-8.856-10.069-13.283-15.155-20.964 24.283-48.773 43.345-76.075 52.818l-.008.003-9.096 3.145c-1.482.512-3.092.512-4.574 0l-9.096-3.145-.008-.003c-27.3-9.473-55.106-28.532-76.07-52.812-4.574 5.259-9.155 11.24-13.725 15.571-5.214 4.941-10.688 7.822-15.902 7.822-4.115 0-8.342-1.696-12.458-4.856-4.451-3.418-8.955-8.709-13.406-14.049-3.191-3.828-6.36-7.675-9.55-10.545-1.932-1.738-3.629-3.325-5.56-3.325s-3.627 1.586-5.558 3.324c-3.189 2.871-6.357 6.717-9.546 10.545-4.45 5.341-8.953 10.631-13.403 14.049-4.115 3.161-8.342 4.857-12.457 4.857-4.117 0-8.345-1.696-12.461-4.856-4.452-3.418-8.956-8.709-13.407-14.05-3.19-3.827-6.358-7.674-9.548-10.545-1.931-1.738-3.627-3.324-5.558-3.324-3.863 0-7-3.136-7-7 0-3.863 3.137-7 7-7 4.115 0 8.342 1.697 12.457 4.857 4.45 3.418 8.953 8.709 13.404 14.049 3.189 3.828 6.358 7.674 9.548 10.545 1.933 1.738 3.632 3.324 5.565 3.324 1.931 0 3.627-1.586 5.558-3.324 3.189-2.87 6.357-6.717 9.546-10.544 4.45-5.341 8.953-10.631 13.403-14.05 4.115-3.16 8.342-4.857 12.457-4.857 4.114 0 8.342 1.697 12.457 4.857 4.451 3.418 8.955 8.708 13.407 14.049 3.19 3.827 6.359 7.674 9.549 10.545 1.932 1.738 3.629 3.324 5.561 3.324 2.186 0 4.086-1.912 6.272-3.984 4.843-4.59 9.673-11.11 14.513-16.529-9.078-12.442-16.302-25.954-20.84-40.042h-122.857c-3.863 0-7-3.136-7-7 0-3.863 3.137-7 7-7h119.294c-1.154-6.182-1.764-12.44-1.764-18.736zm29.993-79.364-15.993 3.757v93.669c0 55.046 52.151 106.3 101.666 123.483l6.804 2.352 6.804-2.352c49.515-17.183 101.666-68.437 101.666-123.483v-93.671l-15.967-3.755-.008-.002c-19.912-4.708-38.753-13.486-55.829-24.715l-.01-.006-5.18-3.419h-62.952l-5.18 3.419-.005.003c-17.049 11.23-35.891 20.01-55.806 24.718zm3.146 13.35c21.463-5.034 41.754-14.419 60.241-26.599 1.143-.754 2.482-1.155 3.851-1.155h50.506c1.369 0 2.708.401 3.851 1.155 18.487 12.18 38.778 21.565 60.241 26.599 3.165.742 5.402 3.565 5.402 6.815v77.261c0 19.42-7.868 38.808-20.339 56.006-18.196 25.092-46.157 45.483-72.124 54.51-1.488.517-3.108.517-4.596 0-25.968-9.027-53.918-29.419-72.106-54.512-12.465-17.197-20.329-36.585-20.329-56.004v-77.261c0-3.25 2.237-6.073 5.402-6.815zm8.598 12.273v71.803c0 16.606 7.005 33.082 17.664 47.788 15.963 22.024 40.178 40.107 63.069 48.674 22.892-8.568 47.117-26.651 63.088-48.675 10.664-14.706 17.673-31.181 17.673-47.787v-71.803c-20.394-5.464-39.755-14.516-57.575-26.027h-46.343c-17.821 11.511-37.182 20.563-57.576 26.027zm129.185 34.196c2.999-2.436 7.411-1.978 9.846 1.021 2.436 2.999 1.978 7.411-1.021 9.847l-78.103 63.42c-1.527 1.24-3.504 1.78-5.449 1.489-1.944-.291-3.677-1.386-4.774-3.018l-27.625-41.101c-2.155-3.207-1.302-7.56 1.905-9.715 3.206-2.155 7.559-1.301 9.714 1.905l23.352 34.742zm-3.053-183.657c3.864 0 7 3.137 7 7 0 3.864-3.136 7-7 7h-24.47c-3.863 0-7-3.136-7-7 0-3.863 3.137-7 7-7zm-52.399 27.93c0-3.864 3.137-7 7-7s7 3.136 7 7v24.47c0 3.863-3.137 7-7 7s-7-3.137-7-7zm-13.929-27.93c3.863 0 7 3.137 7 7 0 3.864-3.137 7-7 7h-24.47c-3.864 0-7-3.136-7-7 0-3.863 3.136-7 7-7zm13.929-38.399c0-3.863 3.137-7 7-7s7 3.137 7 7v24.47c0 3.864-3.137 7-7 7s-7-3.136-7-7zm247 88.399c3.863 0 7 3.137 7 7 0 3.864-3.137 7-7 7h-24.47c-3.864 0-7-3.136-7-7 0-3.863 3.136-7 7-7zm-52.399 27.93c0-3.864 3.136-7 7-7 3.863 0 7 3.136 7 7v24.47c0 3.863-3.137 7-7 7-3.864 0-7-3.137-7-7zm-13.93-27.93c3.864 0 7 3.137 7 7 0 3.864-3.136 7-7 7h-24.47c-3.863 0-7-3.136-7-7 0-3.863 3.137-7 7-7zm13.93-38.399c0-3.863 3.136-7 7-7 3.863 0 7 3.137 7 7v24.47c0 3.864-3.137 7-7 7-3.864 0-7-3.136-7-7zm-336.802 38.399c3.863 0 7 3.137 7 7 0 3.864-3.137 7-7 7h-24.47c-3.864 0-7-3.136-7-7 0-3.863 3.136-7 7-7zm-52.4 27.93c0-3.864 3.137-7 7-7 3.864 0 7 3.136 7 7v24.47c0 3.863-3.136 7-7 7-3.863 0-7-3.137-7-7zm-13.929-27.93c3.864 0 7 3.137 7 7 0 3.864-3.136 7-7 7h-24.47c-3.863 0-7-3.136-7-7 0-3.863 3.137-7 7-7zm13.929-38.399c0-3.863 3.137-7 7-7 3.864 0 7 3.137 7 7v24.47c0 3.864-3.136 7-7 7-3.863 0-7-3.136-7-7zm-38.399 386.201c-3.863 0-7-3.136-7-7 0-3.863 3.137-7 7-7h31.153c3.863 0 7 3.137 7 7 0 3.864-3.137 7-7 7zm74.808 0c-3.864 0-7-3.136-7-7 0-3.863 3.136-7 7-7h31.153c3.863 0 7 3.137 7 7 0 3.864-3.137 7-7 7zm74.808 0c-3.864 0-7-3.136-7-7 0-3.863 3.136-7 7-7h31.152c3.864 0 7 3.137 7 7 0 3.864-3.136 7-7 7zm74.808 0c-3.864 0-7-3.136-7-7 0-3.863 3.136-7 7-7h31.152c3.864 0 7 3.137 7 7 0 3.864-3.136 7-7 7zm74.808 0c-3.864 0-7-3.136-7-7 0-3.863 3.136-7 7-7h31.152c3.864 0 7 3.137 7 7 0 3.864-3.136 7-7 7zm74.807 0c-3.863 0-7-3.136-7-7 0-3.863 3.137-7 7-7h31.153c3.864 0 7 3.137 7 7 0 3.864-3.136 7-7 7zm74.808 0c-3.863 0-7-3.136-7-7 0-3.863 3.137-7 7-7h31.153c3.863 0 7 3.137 7 7 0 3.864-3.137 7-7 7zm-448.847 50.799c-3.863 0-7-3.137-7-7s3.137-7 7-7h31.153c3.863 0 7 3.137 7 7s-3.137 7-7 7zm74.808 0c-3.864 0-7-3.137-7-7s3.136-7 7-7h31.153c3.863 0 7 3.137 7 7s-3.137 7-7 7zm74.808 0c-3.864 0-7-3.137-7-7s3.136-7 7-7h31.152c3.864 0 7 3.137 7 7s-3.136 7-7 7zm74.808 0c-3.864 0-7-3.137-7-7s3.136-7 7-7h31.152c3.864 0 7 3.137 7 7s-3.136 7-7 7zm74.808 0c-3.864 0-7-3.137-7-7s3.136-7 7-7h31.152c3.864 0 7 3.137 7 7s-3.136 7-7 7zm74.807 0c-3.863 0-7-3.137-7-7s3.137-7 7-7h31.153c3.864 0 7 3.137 7 7s-3.136 7-7 7zm74.808 0c-3.863 0-7-3.137-7-7s3.137-7 7-7h31.153c3.863 0 7 3.137 7 7s-3.137 7-7 7z"/></svg>