<svg id="Layer_1" enable-background="new 0 0 512.068 512.068" viewBox="0 0 512.068 512.068" xmlns="http://www.w3.org/2000/svg"><g><path d="m512.05 204.994c0-16.846-12.573-30.974-29.246-32.863-14.703-1.661-29.74-2.721-44.688-3.127-19.216-.063-46.028.71-65.3 2.312.007-20.349-5.306-40.57-15.535-58.287l-47.396-82.094c-11.172-19.35-31.182-30.902-53.525-30.902s-42.353 11.553-53.523 30.902l-14.993 25.968c-2.071 3.587-.842 8.174 2.745 10.245 3.584 2.071 8.174.842 10.245-2.745l14.993-25.968c8.46-14.654 23.612-23.402 40.533-23.402s32.074 8.749 40.535 23.402c0 0 47.382 82.068 47.396 82.094 11.741 20.337 16.171 44.461 12.224 67.625-8.131 47.721-52.901 85.385-101.034 85.382-25.429-.001-50.849-9.578-70.528-28.689-33.311-32.349-40.36-83.028-17.144-123.241l16.564-28.691c2.071-3.587.842-8.174-2.745-10.245-3.589-2.071-8.176-.842-10.245 2.745l-16.564 28.691c-15.386 26.649-19.171 57.295-12.288 85.593-32.714-1.701-65.202-6.524-96.718-14.391-31.084-11-58.059 21.725-39.99 49.583-2.113 4.507-3.263 9.591-3.263 14.803l.004 231.588c0 16.957 11.833 30.752 26.378 30.752h366.208c4.143 0 7.5-3.358 7.5-7.5s-3.357-7.5-7.5-7.5h-366.209c-6.167 0-11.378-7.213-11.378-15.752v-112.724c85.355-16.477 174.869-14.374 259.279 6.14 67.485 16.399 136.76 21.405 205.902 14.88l11.791-1.113v92.816c0 8.539-5.211 15.752-11.378 15.752h-53.583c-4.143 0-7.5 3.358-7.5 7.5s3.357 7.5 7.5 7.5h53.583c14.545 0 26.378-13.795 26.378-30.752l.004-231.588c0-7.78-2.463-15.02-6.728-20.545 6.147-6.351 9.533-15.105 9.239-24.154zm-15 0c.876 10.903-9.098 20.63-20.021 19.239-39.181-3.992-78.697-3.554-117.701 1.245 6.167-11.66 10.377-24.352 12.301-37.502.074-.506.122-1.014.189-1.52 18.832-1.699 46.509-2.534 66.154-2.452 14.436.406 28.952 1.426 43.144 3.032 9.083 1.029 15.934 8.749 15.934 17.958zm-475.053-3.002c6.243-4.935 13.012-4.344 20.177-2.131 34.257 8.55 69.618 13.613 105.187 15.084 5.508 13.932 13.78 26.935 24.684 38.173-.926.005-1.864.025-2.785.025-41.742 0-83.278-5.083-123.452-15.106l-17.057-4.261c-3.231-.805-6.174-2.487-8.519-4.876-7.524-7.304-6.657-20.65 1.765-26.908zm459.338 172.653c-67.477 6.368-135.087 1.482-200.949-14.523-85.559-20.791-176.225-23.122-262.826-6.829v-103.599c0-1.394.147-2.759.409-4.078 4.573 2.713 18.991 5.476 24.207 6.974 41.362 10.32 84.119 15.553 127.085 15.553 6.575 0 13.285-.133 19.985-.381 19.876 13.845 43.047 20.786 66.234 20.785 34.718-.001 72.027-18.936 93.207-46.502 41.922-6.212 84.571-7.196 126.813-2.892 5.012.517 10.001-.099 14.667-1.783 2.721 2.961 4.374 7.457 4.374 12.323v123.704z"/><path d="m256.05 93.396c-14.915 0-27.049 12.134-27.049 27.048v10.049h-10.049c-14.915 0-27.049 12.134-27.049 27.049s12.134 27.048 27.049 27.048h10.049v10.049c0 14.915 12.134 27.048 27.049 27.048s27.049-12.134 27.049-27.048v-10.049h10.049c14.915 0 27.049-12.134 27.049-27.048s-12.134-27.049-27.049-27.049h-10.049v-10.049c0-14.914-12.134-27.048-27.049-27.048zm37.097 52.097c6.644 0 12.049 5.405 12.049 12.049s-5.405 12.048-12.049 12.048h-17.549c-4.143 0-7.5 3.358-7.5 7.5v17.549c0 6.644-5.405 12.048-12.049 12.048s-12.049-5.405-12.049-12.048v-17.549c0-4.142-3.357-7.5-7.5-7.5h-17.549c-6.644 0-12.049-5.405-12.049-12.048s5.405-12.049 12.049-12.049h17.549c4.143 0 7.5-3.358 7.5-7.5v-17.549c0-6.644 5.405-12.048 12.049-12.048s12.049 5.405 12.049 12.048v17.549c0 4.142 3.357 7.5 7.5 7.5z"/><path d="m58.544 276.218c-14.358 0-26.039 11.681-26.039 26.038 0 14.358 11.681 26.039 26.039 26.039 14.357 0 26.038-11.681 26.038-26.039s-11.681-26.038-26.038-26.038zm0 37.076c-6.087 0-11.039-4.952-11.039-11.039 0-6.086 4.952-11.038 11.039-11.038s11.038 4.952 11.038 11.038c0 6.088-4.951 11.039-11.038 11.039z"/><path d="m327.357 293.753c-14.358 0-26.039 11.681-26.039 26.039s11.681 26.039 26.039 26.039c14.357 0 26.038-11.681 26.038-26.039s-11.68-26.039-26.038-26.039zm0 37.077c-6.087 0-11.039-4.952-11.039-11.039s4.952-11.039 11.039-11.039 11.038 4.952 11.038 11.039-4.951 11.039-11.038 11.039z"/><path d="m177.298 283.82c-12.518 0-22.702 10.184-22.702 22.702s10.185 22.702 22.702 22.702 22.702-10.184 22.702-22.702-10.185-22.702-22.702-22.702zm0 30.404c-4.247 0-7.702-3.455-7.702-7.702s3.455-7.702 7.702-7.702 7.702 3.455 7.702 7.702-3.455 7.702-7.702 7.702z"/><path d="m440.013 252.431c-17.727 0-32.148 14.422-32.148 32.149s14.422 32.149 32.148 32.149c17.728 0 32.149-14.422 32.149-32.149s-14.422-32.149-32.149-32.149zm0 49.298c-9.456 0-17.148-7.693-17.148-17.149s7.692-17.149 17.148-17.149 17.149 7.693 17.149 17.149-7.693 17.149-17.149 17.149z"/><path d="m201.403 413.723c-1.811 2.078-4.425 3.27-7.171 3.27s-5.359-1.192-7.17-3.27c-2.721-3.123-7.459-3.447-10.581-.728-3.123 2.721-3.449 7.459-.728 10.582 4.66 5.348 11.396 8.416 18.479 8.416 7.084 0 13.819-3.067 18.479-8.416 2.722-3.123 2.396-7.861-.728-10.582-3.122-2.721-7.859-2.395-10.58.728z"/><path d="m325.037 413.723c-1.811 2.078-4.424 3.27-7.17 3.27s-5.36-1.192-7.171-3.27c-2.721-3.123-7.46-3.447-10.581-.728-3.123 2.721-3.449 7.459-.728 10.582 4.66 5.348 11.396 8.416 18.479 8.416s13.818-3.067 18.479-8.416c2.722-3.123 2.396-7.861-.728-10.582-3.122-2.721-7.859-2.395-10.58.728z"/><path d="m265.237 414.851c-3.072.704-6.248 1.431-9.188 1.431-2.939 0-6.115-.727-9.188-1.431-7.192-1.647-18.063-4.136-25.277 6.538-3.651 5.402-3.825 12.116-.477 18.421 5.628 10.595 19.996 17.995 34.941 17.995s29.313-7.4 34.941-17.995c3.349-6.305 3.175-13.02-.477-18.421-7.21-10.672-18.08-8.185-25.275-6.538zm12.506 17.923c-2.583 4.863-11.063 10.031-21.693 10.031s-19.11-5.168-21.693-10.031c-1.039-1.957-.534-2.704-.344-2.986.635-.939 1.107-1.475 2.685-1.475 1.295 0 3.334.362 6.817 1.16 3.703.848 7.901 1.809 12.535 1.809s8.832-.961 12.535-1.809c7.724-1.769 8.346-1.394 9.502.315.19.282.695 1.03-.344 2.986z"/><path d="m364.404 44.822h8v8c0 4.142 3.357 7.5 7.5 7.5s7.5-3.358 7.5-7.5v-8h8c4.143 0 7.5-3.358 7.5-7.5s-3.357-7.5-7.5-7.5h-8v-8c0-4.142-3.357-7.5-7.5-7.5s-7.5 3.358-7.5 7.5v8h-8c-4.143 0-7.5 3.358-7.5 7.5s3.358 7.5 7.5 7.5z"/><path d="m399.192 116.094c-4.143 0-7.5 3.358-7.5 7.5s3.357 7.5 7.5 7.5h8v8c0 4.142 3.357 7.5 7.5 7.5s7.5-3.358 7.5-7.5v-8h8c4.143 0 7.5-3.358 7.5-7.5s-3.357-7.5-7.5-7.5h-8v-8c0-4.142-3.357-7.5-7.5-7.5s-7.5 3.358-7.5 7.5v8z"/><path d="m81.907 121.822h8v8c0 4.142 3.357 7.5 7.5 7.5s7.5-3.358 7.5-7.5v-8h8c4.143 0 7.5-3.358 7.5-7.5s-3.357-7.5-7.5-7.5h-8v-8c0-4.142-3.357-7.5-7.5-7.5s-7.5 3.358-7.5 7.5v8h-8c-4.143 0-7.5 3.358-7.5 7.5s3.358 7.5 7.5 7.5z"/></g><g/><g/><g/><g/><g/><g/><g/><g/><g/><g/><g/><g/><g/><g/><g/></svg>