<svg clip-rule="evenodd" fill-rule="evenodd" stroke-linejoin="round" stroke-miterlimit="2" viewBox="0 0 510 510" xmlns="http://www.w3.org/2000/svg"><path d="m127.529 449.381 6.394 11.298c.003.006.007.013.011.019 5.347 9.511 1.956 21.646-7.5 26.987l-22.512 12.759c-.008.005-.016.01-.024.014-9.511 5.347-21.646 1.956-26.99-7.504l-66.2-116.975c-5.395-9.519-2.004-21.666 7.463-27.013l22.539-12.76.007-.004c9.463-5.345 21.603-1.985 26.992 7.478l.011.019 5.191 9.173 58.934-34.121c17.729-10.254 35.845-16.943 55.317-10.62 18.953 6.146 49.894 19.393 81.471 25.099.353.064.701.151 1.042.261 15.948 5.164 25.644 21.288 21.289 37.482-.668 2.488-1.552 4.8-2.64 6.92 3.427-.976 6.781-2.404 10.078-4.326l80.271-46.75c29.01-16.901 48.349-15.074 59.296-7.729 9.421 6.32 13.785 17.11 13.504 27.703-.285 10.702-5.383 20.925-13.775 26.093l-145.656 89.679c-15.328 9.46-32.117 11.68-49.51 7.04l-.009-.002-102.457-27.459zm-7.539 19.163-66.187-116.95-.005-.009c-1.047-1.822-3.385-2.483-5.212-1.452l-22.532 12.756-.007.004c-1.821 1.029-2.456 3.367-1.42 5.196l.003.005 66.203 116.979.004.006c1.031 1.827 3.377 2.464 5.213 1.436l22.495-12.75.01-.006c1.827-1.032 2.464-3.378 1.435-5.215zm-.342-33.088 15.287-8.827c1.838-1.061 4.022-1.349 6.071-.8l105.652 28.315c12.988 3.465 25.535 1.868 36.981-5.197l.007-.004 145.662-89.682c3.764-2.319 5.715-6.983 6.108-11.756.608-7.362-2.84-15.496-11.947-17.404-8.498-1.78-20.458 1.054-36.742 10.541l-80.269 46.749c-12.877 7.504-26.373 9.579-41.08 7.238-.009-.002-10.32-1.687-10.324-1.687-18.116-3.719-34.917-9.192-53.56-14.202-4.264-1.146-6.796-5.538-5.65-9.802s5.538-6.796 9.802-5.65c18.209 4.894 34.623 10.26 52.3 13.913 8.952.992 15.508-2.711 17.566-10.379l.001-.004c2.086-7.756-2.774-15.277-10.308-17.949-32.174-5.906-63.666-19.256-82.981-25.519l-.003-.001c-14.991-4.868-28.716 1.358-42.365 9.252l-59.064 34.196zm-74.272-71.57c5.11-.76 9.854 2.768 10.614 7.877.73 5.11-2.798 9.885-7.907 10.615-5.109.76-9.854-2.798-10.614-7.908-.73-5.109 2.798-9.854 7.907-10.584zm173.412-202.342c.961 1.623 1.326 3.548 1.001 5.435-5.287 30.691-31.998 54.039-64.186 54.039-32.186 0-58.941-23.35-64.227-54.039-.325-1.887.04-3.814 1.002-5.437l56.343-95.04c1.441-2.431 4.057-3.921 6.883-3.921.731 0 1.448.1 2.134.29 29.159 8.075 40.387 3.773 52.467-.803 8.127-3.08 16.585-6.171 29.367-6.7 4.508-27.421 28.343-48.368 57.032-48.368s52.525 20.948 57.032 48.37c12.766.537 21.217 3.628 29.341 6.705 12.076 4.574 23.308 8.867 52.452.796h.002c.842-.234 1.436-.324 1.857-.285.092-.003.184-.005.277-.005 2.826.001 5.442 1.492 6.882 3.923l56.302 95.04c.97 1.638 1.32 3.561 1.003 5.424-5.241 30.694-31.997 54.05-64.188 54.05-32.186 0-58.941-23.35-64.227-54.039-.322-1.866.028-3.795 1.002-5.437l46.947-79.191c-17.286 2.653-27.738.384-37.087-2.792-8.943-3.037-16.677-7.346-30.173-8.14-2.988 26.158-23.469 47.036-49.44 50.63.007 29.149.014 66.96.017 113.436 37.574 2.871 69.507 25.802 85.132 58.091 1.2 2.479 1.04 5.401-.423 7.735-1.463 2.333-4.024 3.75-6.778 3.75h-171.819c-2.755 0-5.315-1.417-6.778-3.75-1.463-2.334-1.623-5.256-.423-7.735 15.624-32.287 47.554-55.216 85.089-58.091-.003-46.478-.01-84.291-.017-113.441-25.955-3.608-46.419-24.48-49.405-50.628-13.514.785-21.251 5.096-30.196 8.137-9.354 3.18-19.81 5.454-37.112 2.797zm-109.052 12.077c7.125 18.374 24.984 31.397 45.867 31.397 20.881 0 38.71-13.024 45.828-31.397zm88.131-16-42.267-71.348-42.297 71.348zm140.516-94.088c-.243-8.164-2.832-15.743-7.115-22.085l-58.015 58.015c6.669 4.503 14.705 7.134 23.351 7.134 23.069 0 41.798-18.729 41.798-41.799 0-.395-.005-.788-.016-1.181-.001-.028-.002-.056-.003-.084zm-18.429-33.399c-6.669-4.503-14.705-7.134-23.35-7.134-22.645 0-41.108 18.046-41.78 40.529-.001.032-.002.064-.003.095-.01.39-.016.782-.016 1.174 0 8.646 2.631 16.682 7.135 23.351zm159.874 127.487-42.267-71.348-42.297 71.348zm3.577 16h-91.708c7.125 18.374 24.984 31.397 45.867 31.397 20.882 0 38.741-13.022 45.841-31.397zm-186.801 77.559c-29.875 0-56.251 15.002-72.006 37.881h144.052c-15.756-22.879-42.138-37.881-72.046-37.881z"/></svg>