<svg id="Image" height="512" viewBox="0 0 64 64" width="512" xmlns="http://www.w3.org/2000/svg"><g><path d="m59 49h-54c-1.322 0-1.324 2 0 2h54c1.323 0 1.324-2 0-2z"/><path d="m59 54h-54c-1.322 0-1.324 2 0 2h54c1.323 0 1.324-2 0-2z"/><path d="m15 24c2.757 0 5-2.243 5-5s-2.243-5-5-5-5 2.243-5 5 2.244 5 5 5zm0-8c1.654 0 3 1.346 3 3s-1.346 3-3 3-3-1.346-3-3 1.346-3 3-3z"/><path d="m16 12v-3c0-1.322-2-1.324-2 0v3c0 1.322 2 1.324 2 0z"/><path d="m14 26v3c0 1.322 2 1.324 2 0v-3c0-1.322-2-1.324-2 0z"/><path d="m20.657 14.758 2.121-2.121c.936-.936-.479-2.349-1.414-1.414l-2.121 2.121c-.937.937.488 2.34 1.414 1.414z"/><path d="m9.344 23.243-2.122 2.122c-.937.937.488 2.34 1.414 1.414l2.122-2.122c.936-.936-.478-2.349-1.414-1.414z"/><path d="m22 20h3c1.322 0 1.324-2 0-2h-3c-1.323 0-1.324 2 0 2z"/><path d="m5 20.002h3c1.322 0 1.324-2 0-2h-3c-1.323 0-1.324 2 0 2z"/><path d="m22.778 25.363-2.121-2.121c-.936-.936-2.349.479-1.414 1.414l2.121 2.121c.927.928 2.351-.477 1.414-1.414z"/><path d="m9.342 14.76c.934.936 2.35-.478 1.414-1.414l-2.122-2.123c-.934-.936-2.35.478-1.414 1.414z"/><path d="m36 25c-1.103 0-2-.897-2-2 0-1.322-2-1.324-2 0 0 2.206 1.794 4 4 4s4-1.794 4-4-1.794-4-4-4c-1.103 0-2-.897-2-2s.897-2 2-2 2 .897 2 2c0 1.322 2 1.324 2 0 0-2.206-1.794-4-4-4s-4 1.794-4 4 1.794 4 4 4c1.103 0 2 .897 2 2s-.896 2-2 2z"/><path d="m44 26v-4.999h2c2.206 0 4-1.794 4-4s-1.794-4-4-4h-3c-.552 0-1 .448-1 1v11.999c0 1.322 2 1.324 2 0zm0-10.999h2c2.647 0 2.644 4 0 4h-2z"/><path d="m54 26v-5h4c1.322 0 1.324-2 0-2h-4v-4h5c1.322 0 1.324-2 0-2h-6c-.552 0-1 .448-1 1v12c0 1.322 2 1.324 2 0z"/><path d="m41 35h2.586l-9.586 9.586-13.292-13.293c-.936-.936-2.349.479-1.414 1.414l14 14c.391.391 1.023.391 1.414 0l10.292-10.293v2.586c0 1.322 2 1.324 2 0v-5c0-.544-.447-1-1-1h-5c-1.322 0-1.323 2 0 2z"/><path d="m37.292 38.706c.935.935 2.351-.478 1.414-1.414l-5.998-5.999c-.935-.935-2.351.478-1.414 1.414z"/><path d="m53 35h2.586l-9.586 9.586-3.2-3.2c-.391-.391-1.023-.391-1.414 0s-.391 1.023 0 1.414l3.907 3.907c.391.391 1.023.391 1.414 0l10.293-10.293v2.586c0 1.322 2 1.324 2 0v-5c0-.55-.453-1-1-1h-5c-1.322 0-1.323 2 0 2z"/></g></svg>