<svg height="512" viewBox="0 0 128 128" width="512" xmlns="http://www.w3.org/2000/svg"><g><path d="m101 81.621-6.466 6.308v16.3l6.466 6.307c2.78 2.711 7.918 1.311 8.442-2.3l2.568 1.86c3.48 2.522 8.669-.111 7.89-4l-.473-2.361 3.929-2.584a5.887 5.887 0 0 0 0-10.137l-3.929-2.584.473-2.361c.779-3.892-4.41-6.525-7.89-4l-2.568 1.86c-.523-3.619-5.661-5.019-8.442-2.308z" fill="#a9db1f"/><path d="m111.492 97.829h-16.957a1.75 1.75 0 0 1 0-3.5h16.957a1.75 1.75 0 0 1 0 3.5z" fill="#00a400"/><path d="m94.53 87.81v16.53a8.21 8.21 0 0 1 -8.86 8.18l-12.22-.96-.41-.03-2.83-.22-.26-.02-5.37-.42s-8.2-.68-18.68-2.01c-1.13-.14-2.29-.29-3.47-.45-18.08-2.44-40.68-6.61-40.68-12.33 0-7.57 39.64-12.45 55.95-14.13 1.33-.14 2.5-.26 3.48-.35 2.15-.21 3.4-.31 3.4-.31l17.26-1.35 3.48-.27h.01l.34-.03a8.2 8.2 0 0 1 8.86 8.17z" fill="#ff9000"/><g fill="#ff641a"><path d="m85.34 79.8v13.5a1.75 1.75 0 0 1 -3.5 0v-13.36l3.48-.27h.01a.528.528 0 0 1 .01.13z"/><path d="m73.45 94.91v16.65l-.41-.03-2.83-.22-.26-.02v-16.38a1.75 1.75 0 0 1 3.5 0z"/><path d="m61.2 81.77v11.53a1.75 1.75 0 0 1 -3.5 0v-11.35c1.33-.14 2.5-.26 3.48-.35a.468.468 0 0 1 .02.17z"/><path d="m45.93 98.13v10.5a.852.852 0 0 1 -.03.23c-1.13-.14-2.29-.29-3.47-.45v-10.28a1.75 1.75 0 0 1 3.5 0z"/></g><path d="m34.729 39.851a19.566 19.566 0 0 1 7.222-6.941l.554-.321-5.01-8.654-.553.32c-5.751 3.326-8.355 9.012-9.1 15.42-8.993.956-16.783 6.475-21.453 13.709l9.237-.651 6.844 5.154 8.13-5.062 8.132 5.062 6.843-5.154 9.237.651a30.01 30.01 0 0 0 -20.083-13.533z" fill="#a9db1f"/><path d="m16.3 88.432c11.523-2.891 27.347-4.945 37.693-6.088a20.084 20.084 0 0 0 5.457-14.044 27.79 27.79 0 0 0 -4.638-14.912l-9.237-.651-6.843 5.154-8.132-5.066-8.131 5.062-6.844-5.154-9.237.651a27.79 27.79 0 0 0 -4.638 14.916c0 9.581 5.858 16.578 14.55 20.132z" fill="#ff641a"/><path d="m85.67 79.636a8.214 8.214 0 0 1 8.865 8.177v.116l1.824-1.78c.889-10.9 4.894-21.471 8.042-28.319a25.2 25.2 0 0 1 -12.722 4.988c-1.2 3.976-2.223 5.643-2.848 9.707a1.094 1.094 0 0 1 -1.082.922 1.094 1.094 0 0 1 -1.082-.922c-.625-4.064-1.649-5.731-2.848-9.707a25.2 25.2 0 0 1 -12.719-4.988 95.156 95.156 0 0 1 7.259 22.379z" fill="#a9db1f"/><path d="m118.084 39.409a13.1 13.1 0 0 0 -16.835-16.109 15.542 15.542 0 0 0 -27 0 13.108 13.108 0 0 0 -16.835 16.109 10.866 10.866 0 0 0 -5.914 9.67v.043a31.786 31.786 0 0 1 3.31 4.262 30.415 30.415 0 0 1 2.793 5.457 10.828 10.828 0 0 0 12.373-1.994c3.871 3.761 10.384 6.232 17.771 6.232s13.9-2.471 17.771-6.232a10.87 10.87 0 1 0 12.564-17.438z" fill="#00a400"/></g></svg>