<svg id="Capa_1" enable-background="new 0 0 512 512" height="512" viewBox="0 0 512 512" width="512" xmlns="http://www.w3.org/2000/svg"><g><path d="m271 332h-30c-33.091 0-60-26.909-60-60v-30h30c33.091 0 60 26.909 60 60z" fill="#a0e65c"/><path d="m301 242v30c-16.5 0-30 13.5-30 30v15h-30v-15c0-15 5.4-28.801 15-39.3 10.8-12.599 27.001-20.7 45-20.7z" fill="#4d5e80"/><path d="m301 242v30c-16.5 0-30 13.5-30 30v15h-15v-54.3c10.8-12.599 27.001-20.7 45-20.7z" fill="#3d4b66"/><path d="m256 452c-41.353 0-75-33.647-75-75s33.647-75 75-75 75 33.647 75 75-33.647 75-75 75z" fill="#ff7f40"/><path d="m331 377c0-41.353-33.647-75-75-75v150c41.353 0 75-33.647 75-75z" fill="#f25a3c"/><path d="m482 92h-452v-77h452z" fill="#ecf2ff"/><path d="m256 15h226v77h-226z" fill="#d9e5ff"/><path d="m90 332h-30c-33.091 0-60-26.909-60-60v-30h30c33.091 0 60 26.909 60 60z" fill="#a0e65c"/><path d="m452 332h-30c-33.091 0-60-26.909-60-60v-30h30c33.091 0 60 26.909 60 60z" fill="#79cc52"/><path d="m90 317h-30v-15c0-33.091 26.909-60 60-60v30c-16.538 0-30 13.462-30 30z" fill="#4d5e80"/><path d="m452 317h-30v-15c0-33.091 26.909-60 60-60v30c-16.538 0-30 13.462-30 30z" fill="#3d4b66"/><g fill="#b3f2ff"><path d="m60 122h30v60h-30z"/><path d="m120 122h30v90h-30z"/><path d="m181 122h30v60h-30z"/></g><path d="m301 122h30v60h-30z" fill="#9df"/><path d="m241 122h30v90h-30z" fill="#b3f2ff"/><path d="m362 122h30v90h-30z" fill="#9df"/><path d="m422 122h30v60h-30z" fill="#9df"/><path d="m75 452c-41.353 0-75-33.647-75-75s33.647-75 75-75 75 33.647 75 75-33.647 75-75 75z" fill="#ff7f40"/><path d="m437 452c-41.353 0-75-33.647-75-75s33.647-75 75-75 75 33.647 75 75-33.647 75-75 75z" fill="#f25a3c"/><path d="m0 0h512v30h-512z" fill="#9eb1d9"/><path d="m45 422h422v90h-422z" fill="#9eb1d9"/><path d="m256 422h211v90h-211z" fill="#8fa3cc"/><path d="m45 452c-8.276 0-15 6.724-15 15s6.724 15 15 15h422c8.276 0 15-6.724 15-15s-6.724-15-15-15z" fill="#d9e5ff"/><path d="m467 452h-211v30h211c8.276 0 15-6.724 15-15s-6.724-15-15-15z" fill="#bfd6ff"/><path d="m45 512c-24.814 0-45-20.186-45-45s20.186-45 45-45 45 20.186 45 45-20.186 45-45 45z" fill="#ecf2ff"/><circle cx="45" cy="467" fill="#9eb1d9" r="15"/><path d="m467 512c-24.814 0-45-20.186-45-45s20.186-45 45-45 45 20.186 45 45-20.186 45-45 45z" fill="#d9e5ff"/><circle cx="467" cy="467" fill="#8fa3cc" r="15"/><path d="m256 512c-24.814 0-45-20.186-45-45s20.186-45 45-45 45 20.186 45 45-20.186 45-45 45z" fill="#ecf2ff"/><path d="m301 467c0-24.814-20.186-45-45-45v90c24.814 0 45-20.186 45-45z" fill="#d9e5ff"/><circle cx="256" cy="467" fill="#9eb1d9" r="15"/><path d="m271 467c0-8.276-6.724-15-15-15v30c8.276 0 15-6.724 15-15z" fill="#8fa3cc"/><path d="m256 0h256v30h-256z" fill="#8fa3cc"/><path d="m256 122h15v90h-15z" fill="#9df"/></g></svg>