<svg clip-rule="evenodd" fill-rule="evenodd" stroke-linejoin="round" stroke-miterlimit="2" viewBox="0 0 510 510" xmlns="http://www.w3.org/2000/svg"><path d="m354.384 307.55c45.964 9.087 83.682 24.32 107.344 42.954 18.73 14.75 28.891 31.81 28.891 49.628 0 22.996-17.223 44.864-47.687 62.105-42.402 23.997-110.795 39.763-187.932 39.763s-145.53-15.766-187.932-39.763c-30.464-17.241-47.687-39.109-47.687-62.105 0-18.987 11.577-37.136 32.741-52.542 17.516-12.75 41.759-23.767 70.731-32.131-15.763-3.645-30.713-11.579-42.936-23.802-26.624-26.624-28.398-59.33-17.983-93.572 14.574-47.923 53.721-98.973 75.162-138.201 1.227-2.246 3.583-3.643 6.142-3.643 2.56.001 4.915 1.398 6.143 3.644 9.979 18.259 25.875 41.276 40.859 66.176 22.728-41.1 50.75-81.008 69.011-114.418 1.227-2.246 3.583-3.643 6.142-3.643 2.56 0 4.915 1.397 6.143 3.643 15.934 29.158 43.257 67.484 66.119 108.29 11.239-18.691 23.237-36.536 31.692-52.006 1.228-2.246 3.583-3.642 6.143-3.642 2.559 0 4.915 1.397 6.142 3.643 14.692 26.884 45.617 66.996 57.576 105.254 8.696 27.821 7.636 54.688-13.629 75.944-14.094 14.105-32.784 20.992-51.37 20.661-3.624 13.326-10.016 26.006-19.825 37.763zm-169.322 9.305c-53.083 7.182-97.487 22.245-124.701 42.054-16.842 12.26-26.98 26.113-26.98 41.223 0 18.894 15.552 35.755 40.582 49.92 40.83 23.108 106.76 37.948 181.037 37.948s140.207-14.84 181.037-37.948c25.03-14.165 40.582-31.026 40.582-49.92 0-14.038-8.796-27.008-23.553-38.629-23.854-18.785-62.941-33.57-110.352-41.89-6.796 6.083-14.153 11.223-21.896 15.418 28.186 5.313 51.692 13.927 67.444 24.449 15.487 10.345 23.752 22.819 23.752 35.682 0 15.068-11.587 29.7-32.652 40.997-28.061 15.049-73.314 24.991-124.362 24.991s-96.301-9.942-124.362-24.991c-21.065-11.297-32.652-25.929-32.652-40.997 0-13.805 9.604-27.201 27.383-37.994 18.738-11.374 46.839-20.249 80.016-24.745-7.203-4.338-14.027-9.528-20.323-15.568zm-2.54-176.363c-13.495-23.123-28.315-44.914-39.255-63.172-21.738 36.814-54.923 82.04-67.939 124.838-8.843 29.076-8.118 56.992 14.489 79.599 21.543 21.544 53.134 27.287 80.03 17.242-21.342-31.227-21.178-67.509-9.712-105.21 5.35-17.589 13.214-35.497 22.387-53.297zm146.932-6.439c-20.939-38.652-46.695-75.469-64.036-104.872-28.701 49.338-74.255 110.702-91.888 168.681-11.935 39.24-10.809 76.889 19.701 107.398 39.691 39.691 104.628 39.694 144.286.002l.003-.003c11.369-11.364 18.629-23.853 22.6-37.126-12.754-2.802-24.872-9.137-34.741-19.007-21.054-21.053-22.545-46.899-14.309-73.976 4.125-13.562 10.782-27.449 18.384-41.097zm-34.786 211.249c-20.809 5.37-42.849 4.912-63.452-1.377-41.252 2.638-76.737 11.95-98.582 25.211-12.612 7.656-20.648 16.233-20.648 26.026 0 10.984 9.912 20.424 25.269 28.659 26.553 14.241 69.439 23.329 117.745 23.329s91.192-9.088 117.745-23.329c15.357-8.235 25.269-17.675 25.269-28.659 0-8.928-6.779-16.86-17.529-24.041-18.758-12.531-49.427-21.82-85.817-25.819zm-190.494-174.991c1.901-3.364 6.175-4.552 9.538-2.651 3.364 1.9 4.552 6.174 2.651 9.538-8.827 15.622-16.309 31.635-18.448 46.81-1.943 13.784.756 26.801 11.746 37.79 2.731 2.732 2.731 7.168 0 9.9-2.732 2.732-7.168 2.732-9.9 0-14.459-14.459-18.265-31.508-15.709-49.644 2.36-16.745 10.382-34.505 20.122-51.743zm271.353-85.067c-16.771 27.968-41.292 61.854-51.063 93.979-6.664 21.911-6.222 42.968 10.814 60.004 22.117 22.117 58.302 22.119 80.4.002l.003-.003c17.28-17.273 17.23-39.26 10.164-61.867-10.2-32.634-34.706-66.549-50.318-92.115zm-17.779 54.212c2.057-3.27 6.383-4.254 9.653-2.196 3.269 2.058 4.253 6.383 2.195 9.653-6.976 11.085-14.432 23.075-18.868 34.825-3.853 10.207-5.546 20.17-1.256 28.887 1.706 3.466.276 7.665-3.19 9.371s-7.666.277-9.372-3.189c-4.83-9.815-4.889-20.753-1.85-32.096 4.027-15.029 13.647-30.889 22.688-45.255zm-132.527-8.373c2.024-3.291 6.339-4.32 9.63-2.296 3.29 2.024 4.319 6.339 2.295 9.629-14.413 23.438-28.409 48.204-35.421 72.114-6.556 22.356-6.99 43.915 5.424 62.517 2.145 3.213 1.277 7.563-1.937 9.708-3.213 2.144-7.563 1.277-9.708-1.937-14.753-22.107-15.004-47.659-7.213-74.228 7.336-25.015 21.851-50.987 36.93-75.507zm-11.292 169.319c-3.063-2.355-3.638-6.753-1.283-9.816 2.354-3.063 6.752-3.639 9.815-1.284 1.81 1.391 3.674 2.682 5.583 3.873 3.278 2.044 4.28 6.366 2.236 9.644-2.045 3.278-6.366 4.28-9.644 2.235-2.294-1.43-4.532-2.981-6.707-4.652zm41.071 61.287c30.818 0 57.503 6.51 70.785 15.518 7.741 5.25 11.477 11.636 11.477 17.955 0 6.318-3.736 12.704-11.477 17.954-13.282 9.008-39.967 15.518-70.785 15.518s-57.503-6.51-70.785-15.518c-7.741-5.25-11.477-11.636-11.477-17.954 0-6.319 3.736-12.705 11.477-17.955 13.282-9.008 39.967-15.518 70.785-15.518zm0 14c-23.67 0-44.693 3.912-57.705 10.154-3.669 1.76-6.634 3.656-8.635 5.769-1.092 1.153-1.922 2.268-1.922 3.55 0 1.281.83 2.396 1.922 3.549 2.001 2.113 4.966 4.009 8.635 5.769 13.012 6.242 34.035 10.154 57.705 10.154s44.693-3.912 57.705-10.154c3.669-1.76 6.634-3.656 8.635-5.769 1.092-1.153 1.922-2.268 1.922-3.549 0-1.282-.83-2.397-1.922-3.55-2.001-2.113-4.966-4.009-8.635-5.769-13.012-6.242-34.035-10.154-57.705-10.154z"/></svg>