<svg id="Line" viewBox="0 0 64 64" xmlns="http://www.w3.org/2000/svg"><path d="m56 7h-3v-1c0-1.65-1.35-3-3-3s-3 1.35-3 3v1h-6v-1c0-1.65-1.35-3-3-3s-3 1.35-3 3v1h-6v-1c0-1.65-1.35-3-3-3s-3 1.35-3 3v1h-6v-1c0-1.65-1.35-3-3-3s-3 1.35-3 3v1h-3c-2.76 0-5 2.24-5 5v44c0 2.76 2.24 5 5 5h48c2.76 0 5-2.24 5-5v-44c0-2.76-2.24-5-5-5zm-7-1c0-.55.45-1 1-1s1 .45 1 1v6c0 .55-.45 1-1 1s-1-.45-1-1zm-12 0c0-.55.45-1 1-1s1 .45 1 1v6c0 .55-.45 1-1 1s-1-.45-1-1zm-12 0c0-.55.45-1 1-1s1 .45 1 1v6c0 .55-.45 1-1 1s-1-.45-1-1zm-12 0c0-.55.45-1 1-1s1 .45 1 1v6c0 .55-.45 1-1 1s-1-.45-1-1zm-5 3h3v3c0 1.65 1.35 3 3 3s3-1.35 3-3v-3h6v3c0 1.65 1.35 3 3 3s3-1.35 3-3v-3h6v3c0 1.65 1.35 3 3 3s3-1.35 3-3v-3h6v3c0 1.65 1.35 3 3 3s3-1.35 3-3v-3h3c1.65 0 3 1.35 3 3v7h-54v-7c0-1.65 1.35-3 3-3zm48 50h-48c-1.65 0-3-1.35-3-3v-35h54v35c0 1.65-1.35 3-3 3z"/><path d="m32 27c-7.17 0-13 5.83-13 13s5.83 13 13 13 13-5.83 13-13-5.83-13-13-13zm0 24c-6.07 0-11-4.93-11-11s4.93-11 11-11 11 4.93 11 11-4.93 11-11 11z"/><path d="m31.29 33.29c-.18.17-4.29 4.34-4.29 8.71 0 2.76 2.24 5 5 5s5-2.24 5-5c0-4.36-4.12-8.53-4.29-8.71-.39-.39-1.02-.39-1.41 0zm.71 11.71c-1.65 0-3-1.35-3-3 0-2.56 1.92-5.21 3-6.5 1.08 1.29 3 3.94 3 6.5 0 1.65-1.35 3-3 3z"/></svg>