<svg width="30" height="30" viewBox="0 0 30 30" fill="none" xmlns="http://www.w3.org/2000/svg">
<g clip-path="url(#clip0_5668_8504)">
<path d="M18.2543 5.39242C16.5368 3.67445 14.2535 2.72852 11.8239 2.72852C9.39488 2.72852 7.11113 3.67445 5.3941 5.39242C2.94394 7.84305 2.18972 11.3549 3.12628 14.4613C3.13097 14.4876 3.14316 14.511 3.15253 14.5363C3.57535 15.8966 4.31925 17.1777 5.39456 18.253C7.1116 19.9705 9.39535 20.9165 11.8244 20.9165C14.2539 20.9165 16.5372 19.9705 18.2547 18.253C19.9727 16.5355 20.9186 14.2518 20.9186 11.8232C20.9182 9.39367 19.9722 7.10992 18.2543 5.39242ZM6.03722 6.03508C7.58269 4.48914 9.63816 3.63789 11.8244 3.63789C14.0111 3.63789 16.0661 4.48914 17.6121 6.03508C17.6327 6.0557 17.65 6.07867 17.6702 6.0993L15.656 6.73398C15.4113 6.41523 15.0307 6.20664 14.5985 6.20664C13.8616 6.20664 13.2616 6.80617 13.2616 7.54352C13.2616 7.96492 13.4613 8.33664 13.7664 8.5818L12.2524 12.7012C12.1727 12.6862 12.0907 12.6763 12.0068 12.6763C11.7888 12.6763 11.5863 12.734 11.4044 12.8263L8.39081 10.3148C8.39222 10.2909 8.39831 10.2679 8.39831 10.244C8.39831 9.50711 7.79878 8.90711 7.06097 8.90711C6.32316 8.90711 5.72363 9.50664 5.72363 10.244C5.72363 10.281 5.73206 10.3157 5.73441 10.3518L3.77503 13.266C3.32316 10.7198 4.07316 7.99867 6.03722 6.03508ZM14.5985 7.97102C14.3627 7.97102 14.171 7.77883 14.171 7.54305C14.171 7.30727 14.3627 7.11508 14.5985 7.11508C14.8347 7.11508 15.0264 7.3068 15.0264 7.54305C15.0264 7.7793 14.8343 7.97102 14.5985 7.97102ZM12.0063 13.5848C12.0761 13.5848 12.1389 13.6054 12.1971 13.6349C12.2144 13.6513 12.2369 13.6612 12.2566 13.6752C12.3621 13.7535 12.4343 13.8721 12.4343 14.0127C12.4343 14.2485 12.2425 14.4402 12.0063 14.4402C11.77 14.4402 11.5783 14.2485 11.5783 14.0132C11.5783 13.777 11.77 13.5848 12.0063 13.5848ZM6.633 10.2435C6.633 10.0077 6.82472 9.81602 7.06097 9.81602C7.29722 9.81602 7.48894 10.0077 7.48894 10.2435C7.48894 10.4793 7.29722 10.6715 7.06097 10.6715C6.82472 10.6715 6.633 10.4798 6.633 10.2435ZM17.6116 17.6099C16.0657 19.1559 14.0107 20.0071 11.8239 20.0071C9.63769 20.0071 7.58222 19.1559 6.03675 17.6099C5.11613 16.6893 4.46972 15.5999 4.08066 14.4426L6.21347 11.2691C6.44456 11.4609 6.73753 11.5809 7.06097 11.5809C7.43269 11.5809 7.76878 11.428 8.01113 11.1824L10.7772 13.4877C10.7083 13.649 10.6694 13.8266 10.6694 14.0132C10.6694 14.7501 11.2689 15.3501 12.0063 15.3501C12.7436 15.3501 13.3436 14.7505 13.3436 14.0132C13.3436 13.6968 13.2288 13.4099 13.0441 13.1807L14.6261 8.87758C15.3307 8.86305 15.8993 8.30148 15.9293 7.60117L18.3152 6.84977C19.4093 8.27148 20.0088 9.9993 20.0088 11.8227C20.0093 14.0085 19.1575 16.064 17.6116 17.6099Z" fill="#111928"/>
<path d="M28.5434 24.0666L21.8572 18.0741C24.2047 14.3058 24.2323 9.49547 21.9392 5.70375L25.6793 4.52484L25.3929 5.02969C25.2692 5.24812 25.3461 5.52563 25.5645 5.64937C25.6348 5.68922 25.7122 5.70844 25.7886 5.70844C25.947 5.70844 26.1003 5.62547 26.1842 5.47781L27.0429 3.96422C27.0486 3.95437 27.0486 3.94266 27.0528 3.93234C27.064 3.90844 27.0697 3.88359 27.0767 3.85828C27.0861 3.82453 27.095 3.79172 27.0959 3.75703C27.0968 3.73688 27.0922 3.71812 27.0898 3.69844C27.087 3.66656 27.0903 3.63469 27.08 3.60375C27.0772 3.59391 27.0697 3.58734 27.0659 3.57797C27.0622 3.56906 27.0561 3.56203 27.0518 3.55312C27.0298 3.50484 27.0031 3.46078 26.9651 3.42375C26.9647 3.42328 26.9647 3.42281 26.9642 3.42234C26.9478 3.40547 26.9281 3.39516 26.9098 3.38156C26.8864 3.36469 26.8681 3.34266 26.8418 3.33L25.2697 2.58422C25.0423 2.47641 24.7714 2.57344 24.664 2.79984C24.5567 3.02672 24.6533 3.29766 24.8801 3.40547L25.4103 3.65719L21.4179 4.91531C21.0514 4.40719 20.6417 3.92062 20.1847 3.46359C17.9511 1.23 14.9825 0 11.8245 0C8.6656 0 5.697 1.23 3.46388 3.46312C1.23075 5.69625 0.0012207 8.66531 0.0012207 11.8233C0.0012207 13.6884 0.433408 15.4861 1.24435 17.1066L0.240752 18.4256C0.0888769 18.6253 0.127314 18.9108 0.327471 19.0627C0.409502 19.1255 0.506064 19.1555 0.602158 19.1555C0.739033 19.1555 0.874971 19.0936 0.964033 18.9759L1.72481 17.9761C2.2095 18.7683 2.78981 19.5098 3.46341 20.183C5.76872 22.4878 8.79638 23.64 11.824 23.64C13.9976 23.64 16.1698 23.0428 18.0758 21.855L24.0715 28.5408C24.8848 29.4525 25.8772 29.97 26.8648 29.9977C26.8929 29.9995 26.9206 30 26.9478 30C27.7348 30 28.4679 29.6817 29.0731 29.0761C29.7012 28.4484 30.0204 27.6816 29.9975 26.8603C29.9693 25.8698 29.4523 24.8775 28.5434 24.0666ZM4.107 19.5408C3.32981 18.7636 2.68481 17.8903 2.18231 16.9472C2.17716 16.9373 2.17341 16.9275 2.16778 16.9177C1.347 15.3661 0.910596 13.6284 0.910596 11.8238C0.910596 8.90859 2.04544 6.16781 4.107 4.10625C6.1681 2.04516 8.90935 0.909844 11.8245 0.909844C14.7397 0.909844 17.4804 2.04516 19.542 4.10625C23.7968 8.36156 23.7968 15.2855 19.542 19.5413C15.2853 23.7956 8.36185 23.7956 4.107 19.5408ZM28.4304 28.4334C27.979 28.8848 27.47 29.1103 26.8906 29.0897C26.1664 29.0691 25.3859 28.6486 24.7489 27.9352L18.837 21.3427C19.3076 20.9953 19.7586 20.6095 20.1847 20.183C20.6108 19.7564 20.997 19.3055 21.3448 18.8344L27.9378 24.7439C28.6489 25.3781 29.0684 26.1591 29.0886 26.8861C29.105 27.4598 28.8833 27.9802 28.4304 28.4334Z" fill="#111928"/>
</g>
<defs>
<clipPath id="clip0_5668_8504">
<rect width="30" height="30" fill="white"/>
</clipPath>
</defs>
</svg>
