<svg id="Layer_1" viewBox="0 0 512 512" xmlns="http://www.w3.org/2000/svg" data-name="Layer 1"><path d="m363.449 250.916-85.983 85.983c-12.147 12.147-20.74 26.012-25.538 41.207-.942 2.985-3.7 4.895-6.673 4.895-.698 0-1.408-.105-2.11-.327-3.687-1.164-5.731-5.096-4.567-8.782 5.482-17.361 15.235-33.138 28.988-46.891l85.983-85.984c2.956-2.956 2.793-5.183 2.414-6.6-1.128-4.209-7.182-10.036-17.808-12.884-13.992-3.749-28.15-.184-37.871 9.535l-22.41 22.409c-10.588 10.589-20.083 14.247-28.229 10.873-11.061-4.582-16.438-20.866-16.438-49.784v-20.929c0-3.866 3.134-7 7-7s7 3.134 7 7v20.929c0 26.594 5.1 35.733 7.796 36.851 1.35.558 5.6-.465 12.973-7.838l22.41-22.41c13.299-13.299 32.511-18.221 51.394-13.158 14.356 3.847 24.973 12.576 27.708 22.783 1.919 7.163-.225 14.31-6.037 20.122zm-116.242 180.635v69.449c0 3.866-3.134 7-7 7h-170.2c-3.866 0-7-3.134-7-7v-82.857c0-27.572-9.431-43.905-19.416-61.197-10.71-18.547-21.784-37.726-21.784-70.492v-140.049c0-17.519 14.252-31.771 31.771-31.771 6.578 0 12.697 2.01 17.772 5.447v-45.229c0-18.612 15.143-33.755 33.755-33.755 7.371 0 14.198 2.375 19.755 6.399v-9.078c0-18.979 15.439-34.418 34.417-34.418s34.417 15.439 34.417 34.418v3.729c5.558-4.025 12.384-6.4 19.756-6.4 18.613 0 33.755 15.143 33.755 33.756v72.535c0 3.866-3.134 7-7 7s-7-3.134-7-7v-72.535c0-10.894-8.862-19.756-19.755-19.756s-19.756 8.862-19.756 19.756v92.948c0 3.866-3.134 7-7 7s-7-3.134-7-7v-124.033c0-11.259-9.159-20.418-20.417-20.418s-20.417 9.159-20.417 20.418v141.906c0 3.866-3.134 7-7 7s-7-3.134-7-7v-105.473c0-10.893-8.862-19.755-19.755-19.755s-19.755 8.862-19.755 19.755v139.024c0 3.866-3.134 7-7 7s-7-3.134-7-7v-67.472c0-9.799-7.972-17.771-17.772-17.771s-17.771 7.973-17.771 17.771v140.049c0 15.678 2.826 27.771 7.037 38.376 5.71.162 11.334 1.429 16.541 3.739 2.907-4.863 7.019-8.935 12.039-11.832 7.777-4.489 16.839-5.683 25.512-3.358 8.675 2.324 15.925 7.888 20.416 15.665 6.573 11.386 5.815 24.927-.924 35.205 7.898 3.187 14.604 8.94 19.042 16.628 3.422 5.928 5.197 12.6 5.214 19.347 7.212 1.639 13.603 6.21 17.402 12.791 7.42 12.852 3.001 29.344-9.851 36.765-7.56 4.363-16.551 4.753-24.283 1.344-3.225 3.121-6.83 5.839-10.769 8.113-8.448 4.878-17.931 7.363-27.472 7.363-2.906 0-5.816-.237-8.705-.7v28.102h156.2v-62.449c0-3.866 3.134-7 7-7s7 3.134 7 7zm-170.2-13.408v33.51c9.904 2.153 20.303.582 29.176-4.542 4.245-2.451 7.966-5.587 11.061-9.321 2.404-2.898 6.67-3.377 9.655-1.083 4.163 3.199 9.791 3.571 14.336.946 6.167-3.56 8.287-11.474 4.727-17.64-2.497-4.324-7.328-6.835-12.307-6.413-2.202.194-4.354-.667-5.822-2.312s-2.076-3.885-1.64-6.046c1.199-5.944.188-12.111-2.846-17.367-4.405-7.631-12.304-12.286-21.128-12.454-3.098-.06-5.788-2.148-6.614-5.135-.825-2.986.411-6.16 3.039-7.801 9.005-5.625 11.897-17.24 6.584-26.443-2.621-4.539-6.852-7.786-11.915-9.143-5.062-1.355-10.35-.66-14.889 1.96-4.405 2.543-7.611 6.632-9.03 11.516-.63 2.167-2.266 3.897-4.394 4.648-2.127.749-4.487.43-6.337-.863-2.629-1.837-5.524-3.218-8.558-4.121 1.811 3.325 3.701 6.598 5.61 9.905 10.468 18.128 21.292 36.873 21.292 68.197zm413.185 49.832c0 8.93-3.459 17.307-9.739 23.586-6.279 6.28-14.655 9.738-23.586 9.738s-17.307-3.458-23.586-9.738l-71.023-71.022c-5.715-5.715-7.172-14.093-4.389-21.176-4.592-4.222-11.18-4.929-16.599-1.709-19.939 11.862-42.807 18.133-66.129 18.133-71.427 0-129.538-58.11-129.538-129.538s58.111-129.538 129.538-129.538 129.538 58.11 129.538 129.538c0 23.319-6.27 46.187-18.132 66.129-3.222 5.417-2.513 12.005 1.708 16.598 2.274-.894 4.716-1.375 7.236-1.375 5.272 0 10.224 2.047 13.941 5.765l71.022 71.022c6.28 6.279 9.738 14.656 9.738 23.587zm-123.629-79.623 10.682-10.682c-7.842-9.144-8.999-21.91-2.73-32.449 10.575-17.778 16.165-38.171 16.165-58.973 0-63.708-51.83-115.538-115.538-115.538s-115.538 51.83-115.538 115.538 51.83 115.538 115.538 115.538c20.804 0 41.196-5.59 58.972-16.164 10.539-6.268 23.305-5.111 32.45 2.73zm109.629 79.622c0-5.19-2.002-10.052-5.637-13.688l-71.023-71.022c-1.073-1.072-2.508-1.663-4.042-1.663s-2.969.591-4.042 1.663l-19.292 19.292c-2.228 2.229-2.228 5.855 0 8.084l71.022 71.022c7.549 7.547 19.826 7.547 27.375 0 3.636-3.637 5.638-8.497 5.638-13.688zm-213.632-174.35c0-7.914-6.416-14.33-14.33-14.33s-14.329 6.416-14.329 14.33 6.416 14.329 14.329 14.329 14.33-6.416 14.33-14.329zm-51.604-64.841c4.973 0 9.004-4.031 9.004-9.004s-4.031-9.004-9.004-9.004-9.004 4.031-9.004 9.004 4.031 9.004 9.004 9.004zm93.037 38.511c0-4.973-4.031-9.004-9.004-9.004s-9.004 4.031-9.004 9.004 4.031 9.004 9.004 9.004 9.004-4.031 9.004-9.004zm-87.625 73.851c-7.186 0-13.011 5.825-13.011 13.011s5.826 13.011 13.011 13.011 13.011-5.825 13.011-13.011-5.826-13.011-13.011-13.011zm-21.407-83.93c6.026 0 10.912-4.885 10.912-10.912s-4.885-10.912-10.912-10.912-10.912 4.885-10.912 10.912 4.885 10.912 10.912 10.912zm14.956 45.035c0-7.186-5.825-13.011-13.011-13.011s-13.011 5.826-13.011 13.011 5.825 13.011 13.011 13.011 13.011-5.826 13.011-13.011z"/></svg>