<svg width="512" height="512" viewBox="0 0 512 512" fill="none" xmlns="http://www.w3.org/2000/svg">
<g clip-path="url(#clip0_6069_16881)">
<path d="M412.641 317.232C439.137 317.232 460.697 295.672 460.697 269.176V243.496C460.697 218.464 441.401 198.088 416.945 195.864C417.129 181.52 417.049 165.184 413.761 151.464C441.857 132.464 455.673 96.7445 447.617 63.7125C447.025 61.1765 444.465 59.6245 441.945 60.2085C439.409 60.8085 437.841 63.3445 438.441 65.8805C445.289 93.9685 434.265 124.504 411.241 141.664C396.721 92.0085 355.545 53.6325 304.249 43.3045C331.145 -2.20753 403.353 -1.79953 429.569 44.3765C432.665 49.6165 440.905 44.6245 437.609 39.4405C406.569 -14.2555 323.417 -12.7835 294.169 41.7525C282.609 39.5765 251.937 40.8405 239.777 40.5125C156.137 40.0725 92.4326 113.528 99.2966 195.888C75.0006 198.264 55.8806 218.568 55.8806 243.48V269.16C55.8806 284.232 62.8886 298.104 74.7526 307.2C55.2406 336.696 54.7046 379.288 74.1846 409.536L10.1206 472.016C1.87257 479.704 1.87257 493.84 10.1206 501.536C18.1846 509.4 30.8406 509.4 38.9046 501.536L102.609 439.416C165.329 483.176 255.065 435.616 254.033 358.904C255.465 285.728 171.065 237.048 108.737 274.616V242.024H115.953C125.113 242.024 132.569 234.568 132.569 225.408V205.232H185.417C237.393 205.232 282.417 170.504 296.737 121.928C308.753 162.696 342.441 193.632 383.689 202.544V275.576C383.689 305.968 372.649 335.312 352.593 358.2C349.881 361.08 352.241 366.152 356.137 366.024C381.209 346.296 392.641 307.024 393.121 275.576V204.168C397.849 204.784 402.641 205.184 407.521 205.208V275.576C407.905 361.912 332.929 431.36 246.913 424.552C240.881 424.104 240.001 433.48 246.217 433.96C322.889 440.112 392.321 388.44 411.249 317.136C411.713 317.168 412.169 317.232 412.641 317.232ZM416.953 275.592V205.296C436.209 207.472 451.273 223.664 451.273 243.488V269.168C451.273 290.112 434.497 307.12 413.689 307.688C415.825 297.32 416.953 286.584 416.953 275.592ZM32.3206 494.8C21.8006 505.024 6.27257 489.008 16.6966 478.792L79.5526 417.488C84.1286 423.52 89.2966 428.936 95.0086 433.664L32.3206 494.8ZM244.601 358.92C244.601 407.296 205.249 446.648 156.873 446.648C40.8246 442.648 40.7126 275.32 156.873 271.192C205.249 271.192 244.601 310.544 244.601 358.92ZM80.1606 299.504C70.8166 292.184 65.3206 281.144 65.3206 269.168V243.488C65.3206 223.776 80.2086 207.656 99.2966 205.328C99.3286 205.056 99.1926 284.12 99.4166 280.736C92.1686 286.088 85.6886 292.392 80.1606 299.504ZM123.137 225.424C122.833 233.6 114.617 232.72 108.737 232.6V205.248H123.137V225.424ZM407.521 195.792C402.641 195.768 397.849 195.32 393.121 194.648C393.897 173.088 391.745 150.952 382.081 131.48C379.553 125.912 370.857 129.992 373.545 135.488C382.297 153.184 384.393 173.256 383.681 192.864C341.337 182.856 308.065 147.512 302.321 102.808C301.977 99.9925 299.577 97.8645 296.737 97.8645C293.905 97.8645 291.505 99.9925 291.161 102.784C284.337 155.824 238.881 195.816 185.425 195.816H132.577C128.953 151.368 149.025 107.264 189.553 86.2965C194.977 83.5365 190.489 74.9845 185.121 77.9765C141.553 100.576 119.377 147.864 123.137 195.816H108.737C102.025 118.688 161.313 49.5205 239.785 49.9525H276.473C354.921 49.5205 414.233 118.672 407.521 195.792Z" fill="#111928"/>
<path d="M352.353 92.472C347.777 88.432 341.505 95.712 346.217 99.632C351.265 103.96 355.937 108.784 360.097 113.968C361.737 116.008 364.705 116.32 366.729 114.696C368.761 113.064 369.081 110.096 367.457 108.064C362.921 102.432 357.841 97.176 352.353 92.472Z" fill="#111928"/>
<path d="M492.648 409.321H463.672V381.481C463.672 377.401 460.352 374.089 456.272 374.089H425.264C421.184 374.089 417.864 377.401 417.864 381.481V409.321H388.888C384.808 409.321 381.496 412.641 381.496 416.721V447.729C381.496 451.809 384.808 455.121 388.888 455.121H417.864V484.097C417.864 488.177 421.184 491.497 425.264 491.497H456.272C460.352 491.497 463.672 488.177 463.672 484.097V455.121H492.648C496.728 455.121 500.04 451.809 500.04 447.729V416.721C500.04 412.641 496.72 409.321 492.648 409.321ZM490.608 445.689C447.424 446.193 454.784 439.025 454.24 482.065H427.304C426.8 438.881 433.984 446.233 390.936 445.689V418.753C432.768 417.865 427.112 426.505 427.304 383.521H454.24C454.392 426.633 448.92 417.833 490.608 418.753V445.689Z" fill="#111928"/>
<path d="M365.968 479.353H347.472V460.857C347.472 458.249 345.36 456.137 342.752 456.137C340.144 456.137 338.032 458.249 338.032 460.857V479.353H319.536C316.928 479.353 314.816 481.465 314.816 484.073C314.816 486.681 316.928 488.793 319.536 488.793H338.032V507.289C338.032 509.897 340.144 512.009 342.752 512.009C345.36 512.009 347.472 509.897 347.472 507.289V488.793H365.968C372.088 488.873 372.088 479.265 365.968 479.353Z" fill="#111928"/>
<path d="M156.872 428.121C199.152 428.521 232.464 389.041 225.12 347.449C224.056 341.353 214.84 342.921 215.816 349.009C222.152 384.929 193.4 419.033 156.872 418.689C123.92 418.689 97.1123 391.881 97.1123 358.929C96.3683 318.297 139.336 288.305 177.208 302.721C179.624 303.617 182.352 302.337 183.248 299.897C184.136 297.449 182.872 294.745 180.424 293.857C172.88 291.121 164.96 289.729 156.88 289.729C65.3043 292.969 65.3043 424.881 156.872 428.121Z" fill="#111928"/>
<path d="M148.44 345.433L137.728 334.721C133.536 330.529 126.704 330.537 122.512 334.721L111.8 345.433C107.608 349.625 107.608 356.449 111.8 360.657L141.776 390.633C145.976 394.825 152.792 394.817 156.992 390.633L215.848 331.769C220.032 327.769 220.024 320.553 215.856 316.545C208.984 310.297 200.216 296.249 189.928 305.833L150.328 345.433C149.808 345.969 148.952 345.961 148.44 345.433ZM196.592 312.505C197.016 312.505 198.456 312.513 198.472 312.505L209.184 323.217V325.097L150.32 383.961C149.808 384.497 148.952 384.481 148.44 383.961L118.464 353.993C117.944 353.473 117.944 352.625 118.464 352.113L129.176 341.401C129.688 340.881 130.544 340.881 131.056 341.401C137.856 347.649 146.816 361.673 156.984 352.113C156.992 352.105 196.592 312.505 196.592 312.505Z" fill="#111928"/>
<path d="M6.5922 119.832C18.7762 122.088 36.6642 140.248 38.8322 152.064C39.6402 154.56 41.9362 156.224 44.5602 156.224C47.2162 156.224 49.5362 154.504 50.3042 151.96C51.9282 146.592 55.3682 138.712 62.5042 131.648C69.4802 124.736 77.1842 121.384 82.4322 119.784C87.9522 118.288 88.0082 109.832 82.4722 108.296C70.2722 106.064 52.6002 88.4321 50.3602 76.1521C49.5682 73.6401 47.2642 71.9521 44.6242 71.9521C41.9762 71.9521 39.6642 73.6561 38.8802 76.1841C36.6882 88.4801 19.0402 106.152 6.6562 108.352C1.1442 109.84 1.0962 118.272 6.5922 119.832ZM33.1442 103.272C38.5282 97.9681 42.1762 92.2881 44.6402 87.2001C48.8402 97.2161 61.4962 109.824 71.4162 113.992C61.2882 118.16 48.5762 130.952 44.4802 141.008C39.7842 130.768 28.8402 119.336 17.6162 114.16C22.5122 111.808 27.9922 108.344 33.1442 103.272Z" fill="#111928"/>
<path d="M484.176 148.497C491.312 148.385 488.296 137.657 488.896 133.057C488.896 130.449 486.784 128.337 484.176 128.337C477.04 128.449 480.056 139.177 479.456 143.777C479.456 146.377 481.568 148.497 484.176 148.497Z" fill="#111928"/>
<path d="M479.457 162.32V172.92C479.369 179.04 488.985 179.04 488.889 172.92V162.328C488.977 156.208 479.369 156.2 479.457 162.32Z" fill="#111928"/>
<path d="M504.912 148.264H493.488C487.368 148.176 487.368 157.792 493.488 157.696H504.904C511.032 157.792 511.04 148.176 504.912 148.264Z" fill="#111928"/>
<path d="M464.544 157.705C468.936 157.121 479.568 160.089 479.672 152.985C479.568 145.889 468.928 148.849 464.544 148.265C458.424 148.177 458.416 157.793 464.544 157.705Z" fill="#111928"/>
<path d="M96.9044 30.5282C104.04 30.4162 101.024 19.6882 101.624 15.0882C101.624 12.4802 99.5124 10.3682 96.9044 10.3682C89.7684 10.4802 92.7844 21.2082 92.1844 25.8082C92.1844 28.4162 94.3044 30.5282 96.9044 30.5282Z" fill="#111928"/>
<path d="M96.9039 39.6328C89.7759 39.7448 92.7839 50.4568 92.1839 54.9528C92.1839 57.5608 94.2959 59.6728 96.9039 59.6728C104.032 59.5608 101.024 48.8488 101.624 44.3528C101.624 41.7448 99.5119 39.6328 96.9039 39.6328Z" fill="#111928"/>
<path d="M106.224 39.7364H117.64C123.76 39.8244 123.76 30.2084 117.64 30.3044H106.224C100.112 30.2084 100.104 39.8244 106.224 39.7364Z" fill="#111928"/>
<path d="M77.2726 39.7364H87.6806C93.8006 39.8244 93.8006 30.2084 87.6806 30.3044H77.2726C71.1526 30.2084 71.1526 39.8244 77.2726 39.7364Z" fill="#111928"/>
</g>
<defs>
<clipPath id="clip0_6069_16881">
<rect width="512" height="512" fill="white"/>
</clipPath>
</defs>
</svg>
