<svg width="36" height="36" viewBox="0 0 36 36" fill="none" xmlns="http://www.w3.org/2000/svg">
<g clip-path="url(#clip0_5205_12093)">
<path d="M15.3166 18.455C15.0848 18.455 14.8802 18.3034 14.8126 18.0815L13.2119 12.8234H8.41745C8.12631 12.8234 7.89038 12.5875 7.89038 12.2964C7.89038 12.0055 8.12631 11.7696 8.41745 11.7696H13.6022C13.8343 11.7696 14.0389 11.9212 14.1065 12.1431L15.3166 16.1188L17.0843 10.3125C17.1516 10.0906 17.3565 9.93896 17.5883 9.93896C17.8201 9.93896 18.0247 10.0906 18.0923 10.3125L18.8572 12.8254H23.4913C23.7821 12.8254 24.0181 13.0613 24.0181 13.3524C24.0181 13.6433 23.7821 13.8792 23.4913 13.8792H18.4669C18.2351 13.8792 18.0302 13.7276 17.9629 13.506L17.5883 12.2752L15.8206 18.0815C15.7533 18.3034 15.5487 18.455 15.3166 18.455Z" fill="#111928"/>
<path d="M34.8182 8.443C34.6751 8.18922 34.3537 8.09968 34.1002 8.24277C33.847 8.3856 33.7572 8.70695 33.9003 8.96046C34.5361 10.0882 34.8737 11.3689 34.8759 12.6642C34.8825 16.1175 32.8981 19.9592 28.9784 24.0823C25.7871 27.4392 22.2061 30.0029 20.8147 30.9491C20.5821 31.1076 20.2813 31.1076 20.0484 30.9491C18.8149 30.1103 15.8165 27.9696 12.9125 25.1249H17.8286V27.2601C17.8286 27.938 18.3802 28.4895 19.058 28.4895H20.2058C20.8839 28.4895 21.4355 27.938 21.4355 27.2601V27.2156C21.4929 27.2239 21.5514 27.2296 21.611 27.2296H22.7588C23.4366 27.2296 23.9881 26.6781 23.9881 26.0003V19.9869C23.9881 19.309 23.4366 18.7575 22.7588 18.7575H21.611C21.5514 18.7575 21.4929 18.7633 21.4355 18.7718V18.727C21.4355 18.0492 20.8839 17.4977 20.2058 17.4977H19.058C18.3802 17.4977 17.8286 18.0492 17.8286 18.727V20.8103H16.1675C15.8764 20.8103 15.6404 21.0463 15.6404 21.3371C15.6404 21.6283 15.8764 21.8642 16.1675 21.8642H17.8286V24.0713H6.08946V21.8642H13.7843C14.0754 21.8642 14.3114 21.6283 14.3114 21.3371C14.3114 21.0463 14.0754 20.8103 13.7843 20.8103H9.14229C7.04417 17.908 5.98261 15.1683 5.98728 12.6645C5.99497 8.46992 9.412 5.06168 13.6066 5.06168H13.6173C15.9349 5.0647 18.0975 6.10566 19.5507 7.9173C19.7661 8.18592 20.0872 8.33973 20.4316 8.33973C20.776 8.33973 21.0971 8.18564 21.3124 7.9173C22.7656 6.10566 24.9283 5.06497 27.2459 5.06168H27.2566C29.2042 5.06168 31.0603 5.80326 32.485 7.15073C32.6962 7.35068 33.0299 7.34134 33.2298 7.13013C33.4298 6.91864 33.4205 6.58521 33.209 6.38526C31.5879 4.85156 29.4747 4.00781 27.2566 4.00781C27.2527 4.00781 27.2483 4.00781 27.2442 4.00781C24.6061 4.01138 22.1444 5.19599 20.4904 7.25812C20.4604 7.2952 20.4025 7.2952 20.3728 7.25812C18.7188 5.19626 16.257 4.01166 13.6189 4.00781C13.6146 4.00781 13.611 4.00781 13.6066 4.00781C8.8322 4.00781 4.94221 7.88791 4.93342 12.6626C4.92875 15.2106 5.9112 17.9478 7.85524 20.8103H6.08946V18.7268C6.08946 18.0489 5.53794 17.4974 4.86008 17.4974H3.71201C3.03415 17.4974 2.48264 18.0489 2.48264 18.7268V18.7715C2.42524 18.7633 2.36673 18.7575 2.30713 18.7575H1.15906C0.481202 18.7575 -0.0703125 19.309 -0.0703125 19.9869V26C-0.0703125 26.6779 0.481202 27.2294 1.15906 27.2294H2.30713C2.36673 27.2294 2.42524 27.2236 2.48264 27.2154V27.2601C2.48264 27.938 3.03415 28.4895 3.71201 28.4895H4.86008C5.53794 28.4895 6.08946 27.938 6.08946 27.2601V25.1249H11.4258C14.6102 28.4027 18.0912 30.8925 19.4557 31.8206C19.7521 32.0222 20.0918 32.123 20.4313 32.123C20.7711 32.123 21.1108 32.0222 21.4072 31.8206C22.8269 30.8551 26.4807 28.239 29.742 24.8083C33.8547 20.4821 35.9366 16.3955 35.9297 12.6623C35.927 11.1866 35.5425 9.72758 34.8182 8.443ZM21.611 19.8114H22.759C22.8557 19.8114 22.9345 19.8902 22.9345 19.9869V26C22.9345 26.097 22.8557 26.1758 22.759 26.1758H21.611C21.5143 26.1758 21.4355 26.097 21.4355 26V19.9869C21.4355 19.8902 21.5143 19.8114 21.611 19.8114ZM18.8825 18.7268C18.8825 18.6301 18.9611 18.5513 19.058 18.5513H20.2058C20.3028 18.5513 20.3816 18.6301 20.3816 18.7268V27.2601C20.3816 27.3568 20.3028 27.4356 20.2058 27.4356H19.058C18.9611 27.4356 18.8825 27.3568 18.8825 27.2601V18.7268ZM5.03559 27.2601C5.03559 27.3571 4.95676 27.4359 4.86008 27.4359H3.71201C3.61533 27.4359 3.5365 27.3571 3.5365 27.2601V23.0938C3.5365 22.803 3.30057 22.567 3.00943 22.567C2.71857 22.567 2.48264 22.803 2.48264 23.0938V26C2.48264 26.097 2.40381 26.1758 2.30686 26.1758H1.15906C1.06238 26.1758 0.983553 26.097 0.983553 26V19.9869C0.983553 19.8902 1.06238 19.8114 1.15906 19.8114H2.30713C2.40381 19.8114 2.48264 19.8902 2.48264 19.9869V20.6343C2.48264 20.9254 2.71857 21.1611 3.00971 21.1611C3.30057 21.1611 3.5365 20.9254 3.5365 20.6343V18.7268C3.5365 18.6301 3.61533 18.5513 3.71229 18.5513H4.86008C4.95676 18.5513 5.03559 18.6301 5.03559 18.7268V27.2601Z" fill="#111928"/>
</g>
<defs>
<clipPath id="clip0_5205_12093">
<rect width="36" height="36" fill="white"/>
</clipPath>
</defs>
</svg>
