<svg width="40" height="40" viewBox="0 0 40 40" fill="none" xmlns="http://www.w3.org/2000/svg">
<path d="M26.9939 9.86267C27.7171 9.84689 29.6052 9.52484 29.1009 8.46623C29.0139 8.32516 28.8744 8.22439 28.7132 8.18605C28.5519 8.1477 28.3821 8.17492 28.2409 8.26172C27.7798 8.53722 27.2406 8.65233 26.7073 8.58908C26.1739 8.52583 25.6766 8.28777 25.2928 7.91207C24.909 7.53637 24.6604 7.04418 24.5859 6.51232C24.5113 5.98047 24.6149 5.43888 24.8805 4.97211C25.1462 4.50535 25.5589 4.13967 26.0542 3.93216C26.5496 3.72466 27.0997 3.687 27.6187 3.82508C28.1377 3.96315 28.5964 4.26919 28.9232 4.6954C29.2499 5.12162 29.4264 5.64404 29.4249 6.18109C29.3793 6.66489 29.2988 7.13326 29.884 7.28151C30.5329 7.40182 30.709 6.7056 30.6749 6.18103C30.6739 5.20507 30.2858 4.26936 29.5957 3.57925C28.9056 2.88913 27.9699 2.50099 26.9939 2.5C22.1213 2.67263 22.1224 9.69026 26.9939 9.86267Z" fill="#02AAA4"/>
<path d="M34.8808 16.493C34.5762 16.0221 34.1082 15.6806 33.5668 15.5341C33.0255 15.3876 32.4491 15.4465 31.9486 15.6995L29.6055 16.8866C29.4544 16.961 29.2801 16.9731 29.1202 16.9203C28.9602 16.8674 28.8274 16.7538 28.7504 16.604L26.7124 12.6105C26.3522 11.9102 25.8086 11.3208 25.1396 10.9052C24.1126 10.2853 22.8617 9.35874 21.602 9.41969L16.0493 9.28837C15.4576 9.27284 14.871 9.40081 14.3396 9.66132C13.8081 9.92183 13.3477 10.3072 12.9975 10.7843L10.8079 13.7299C10.6046 13.999 10.4592 14.3073 10.3808 14.6353C10.3024 14.9634 10.2927 15.3041 10.3523 15.636C10.6829 17.6938 13.5637 18.4563 14.7673 16.6601L15.8235 15.16C16.0896 14.7871 16.4519 14.4935 16.8717 14.3105C17.2916 14.1274 17.7533 14.0618 18.2075 14.1206L16.4457 17.6862C16.3749 17.8345 16.3652 18.0047 16.4189 18.1601C16.4726 18.3154 16.5853 18.4433 16.7326 18.5162C16.88 18.589 17.0501 18.601 17.2061 18.5493C17.3621 18.4977 17.4916 18.3867 17.5664 18.2404L19.4026 14.524C19.489 14.352 19.5302 14.1608 19.5222 13.9685C19.5143 13.7761 19.4575 13.589 19.3572 13.4247C19.1987 13.2062 18.9813 13.0373 18.7303 12.9379C18.4794 12.8385 18.2053 12.8126 17.9402 12.8632C17.3274 12.8468 16.7201 12.9822 16.1724 13.2575C15.6247 13.5328 15.1536 13.9394 14.8012 14.441L13.745 15.9412C12.8296 17.2078 10.851 15.76 11.8078 14.48L14.0016 11.529C14.2321 11.2115 14.5368 10.9552 14.8891 10.7825C15.2414 10.6098 15.6306 10.526 16.0228 10.5383L21.5758 10.6696C22.1116 10.68 22.6349 10.8336 23.0913 11.1145C23.8916 11.6456 25.2144 12.2377 25.5992 13.1782L27.6384 17.1741C27.8664 17.6176 28.2602 17.9532 28.7342 18.1082C29.2082 18.2631 29.7242 18.2249 30.1701 18.0018L32.5108 16.8158C32.6308 16.7547 32.7616 16.7179 32.8958 16.7076C33.03 16.6973 33.1649 16.7136 33.2928 16.7557C33.4206 16.7977 33.5389 16.8647 33.6407 16.9526C33.7426 17.0406 33.826 17.1479 33.8863 17.2683C33.9465 17.3886 33.9822 17.5198 33.9915 17.654C34.0009 17.7883 33.9835 17.9231 33.9404 18.0506C33.8974 18.1782 33.8296 18.2959 33.7408 18.3971C33.652 18.4983 33.5441 18.5809 33.4233 18.6402L28.6504 20.9955C28.3796 21.1279 28.0696 21.1559 27.7795 21.0743C27.4894 20.9927 27.2395 20.8071 27.0775 20.553L24.727 16.8531C24.6728 16.7675 24.5986 16.6965 24.5107 16.6461C24.4229 16.5957 24.3241 16.5674 24.2229 16.5638C24.1215 16.5586 24.0205 16.5789 23.9289 16.6227C23.8373 16.6665 23.7582 16.7325 23.6986 16.8146L15.355 28.0024C15.1804 28.2382 14.9257 28.4021 14.6387 28.4635C14.3518 28.5248 14.0523 28.4794 13.7965 28.3356L6.76554 24.4355C6.4432 24.2543 6.20022 23.9593 6.08429 23.6082C5.96837 23.2571 5.98789 22.8753 6.13901 22.5379C6.30847 22.1785 6.61356 21.9009 6.98737 21.7661C7.36118 21.6313 7.77319 21.6503 8.13303 21.8189L13.0717 24.2194C13.4002 24.3768 13.7774 24.3991 14.1222 24.2816C14.4671 24.1641 14.7521 23.916 14.9161 23.5907L16.3785 20.6409C16.4492 20.4928 16.4588 20.3227 16.4052 20.1676C16.3516 20.0124 16.2392 19.8845 16.0921 19.8116C15.945 19.7387 15.7751 19.7265 15.6192 19.7778C15.4632 19.829 15.3337 19.9396 15.2585 20.0855L13.7971 23.0335C13.7894 23.0495 13.7786 23.0638 13.7654 23.0756C13.7521 23.0874 13.7366 23.0964 13.7198 23.1021C13.703 23.1078 13.6852 23.11 13.6675 23.1087C13.6498 23.1074 13.6325 23.1026 13.6167 23.0945L8.67561 20.6928C8.03695 20.3827 7.30254 20.334 6.62851 20.5569C5.95448 20.7799 5.394 21.257 5.06624 21.8868C4.73849 22.5165 4.6693 23.2493 4.8734 23.9293C5.0775 24.6093 5.53878 25.1828 6.15917 25.528L13.1922 29.4294C13.7136 29.7148 14.3202 29.8032 14.9013 29.6783C15.4824 29.5535 15.9992 29.2238 16.3572 28.7494L21.3687 22.0292L25.2854 24.9384C25.9564 25.4371 26.4969 26.0908 26.8607 26.8435C27.2244 27.5963 27.4008 28.4259 27.3746 29.2615L27.1921 35.0208C27.178 35.3509 27.0358 35.6626 26.7958 35.8896C26.5557 36.1167 26.2367 36.2413 25.9063 36.2371C25.5759 36.2329 25.2601 36.1002 25.0259 35.867C24.7918 35.6339 24.6576 35.3188 24.6519 34.9884L24.6171 29.3073C24.6146 28.8509 24.5008 28.402 24.2854 27.9996C24.07 27.5972 23.7596 27.2535 23.3811 26.9983L21.0624 25.431C20.9251 25.3411 20.7579 25.3088 20.597 25.3411C20.4361 25.3735 20.2944 25.4678 20.2025 25.6038C20.1106 25.7397 20.0758 25.9064 20.1058 26.0678C20.1358 26.2291 20.228 26.3722 20.3626 26.4661L22.6817 28.0341C22.8915 28.1756 23.0636 28.3662 23.1831 28.5894C23.3025 28.8126 23.3657 29.0615 23.3671 29.3146L23.4019 34.9958C23.511 38.2514 28.2523 38.3405 28.4409 35.0598L28.6234 29.3006C28.656 28.2635 28.4373 27.2339 27.986 26.2996C27.5346 25.3653 26.864 24.554 26.0313 23.935L22.1161 21.0269L24.1581 18.2886L26.0227 21.2238C26.3495 21.7381 26.8546 22.1137 27.4412 22.2785C28.0278 22.4434 28.6546 22.386 29.2015 22.1173L33.9793 19.7595C34.2648 19.6163 34.5171 19.4148 34.7198 19.168C34.9225 18.9212 35.0711 18.6345 35.1561 18.3266C35.2411 18.0187 35.2605 17.6964 35.2131 17.3806C35.1656 17.0647 35.0524 16.7623 34.8808 16.493Z" fill="#02AAA4"/>
</svg>
