<svg width="40" height="40" viewBox="0 0 40 40" fill="none" xmlns="http://www.w3.org/2000/svg">
<path d="M6.23474 38.2401L6.23478 38.2402C6.77152 38.9299 7.57543 39.2902 8.38676 39.2902C8.97031 39.2902 9.55845 39.1042 10.0545 38.7189L10.0546 38.7188L16.0269 34.0791C16.71 33.5688 17.1194 32.757 17.1219 31.9032V31.9027V28.148V27.998H16.9719H16.1907H16.0407V28.148V31.9015C16.0392 32.4244 15.7977 32.9027 15.377 33.2151L15.376 33.2159L15.3759 33.2159L15.3682 33.2217L15.367 33.2229L9.39085 37.8655C8.67645 38.4203 7.64337 38.2913 7.08882 37.5771C6.53406 36.8627 6.66308 35.8297 7.3772 35.2751L7.37722 35.2751L12.5499 31.2563L12.55 31.2562C12.6819 31.1535 12.7586 30.9957 12.7586 30.8293V24.4824V24.3324H12.6086H11.8274H11.6774V24.4824V30.5645L6.71348 34.421L6.71344 34.421C5.52854 35.3422 5.31356 37.0551 6.23474 38.2401ZM15.3762 33.2162L15.3762 33.2162C15.3769 33.2157 15.377 33.2157 15.3762 33.2162Z" fill="#BDBDBD" stroke="#BDBDBD" stroke-width="0.3"/>
<path d="M26.5702 10.8078C26.5702 12.9492 28.3124 14.6914 30.4538 14.6914C32.5952 14.6914 34.3374 12.9492 34.3374 10.8078C34.3374 8.66638 32.5952 6.92422 30.4538 6.92422C28.3124 6.92422 26.5702 8.66638 26.5702 10.8078ZM27.6515 10.8086C27.6515 9.26331 28.9085 8.00625 30.4538 8.00625C31.9983 8.00625 33.2562 9.26334 33.2562 10.8086C33.2562 12.3539 31.9991 13.6109 30.4538 13.6109C28.9085 13.6109 27.6515 12.3539 27.6515 10.8086Z" fill="#BDBDBD" stroke="#BDBDBD" stroke-width="0.3"/>
<path d="M21.2196 6.61719V6.76719H21.3696H22.847C23.3804 6.76719 23.8157 6.33303 23.8157 5.79922V3.95937C23.8157 3.42497 23.3814 2.99062 22.847 2.99062H21.3696H21.2196V3.14062V3.92188V4.07187H21.3696H22.7345V5.68594H21.3696H21.2196V5.83594V6.61719Z" fill="#BDBDBD" stroke="#BDBDBD" stroke-width="0.3"/>
<path d="M10.1555 1.79141H10.3055V1.79062H20.0852C20.4953 1.79062 20.8289 2.12425 20.8289 2.53437V7.22344C20.8289 7.63356 20.4953 7.96719 20.0852 7.96719H10.1555C9.74534 7.96719 9.41172 7.63356 9.41172 7.22344V2.53516C9.41172 2.12503 9.74534 1.79141 10.1555 1.79141ZM10.1555 9.04766H20.0852C21.0914 9.04766 21.9102 8.22976 21.9102 7.22266V2.53437C21.9102 1.52809 21.0914 0.709375 20.0852 0.709375H10.1555C9.14919 0.709375 8.33047 1.52809 8.33047 2.53437V7.22266C8.33047 8.22894 9.14919 9.04766 10.1555 9.04766Z" fill="#BDBDBD" stroke="#BDBDBD" stroke-width="0.3"/>
<path d="M11.6055 1.1H11.4555V1.25V8.50703V8.65703H11.6055H12.3867H12.5367V8.50703V1.25V1.1H12.3867H11.6055Z" fill="#BDBDBD" stroke="#BDBDBD" stroke-width="0.3"/>
<path d="M18.7493 37.061L18.7493 37.0609L17.3296 29.4645L12.2858 25.3108L12.2841 25.3095C11.2069 24.3962 10.6538 22.9839 10.7517 21.4395C10.8625 19.6849 11.7998 18.0712 13.2603 17.1209L13.2603 17.1209L21.5861 11.706L21.5861 11.706C22.6228 11.0319 23.773 10.7748 24.7416 11.0272L18.7493 37.061ZM18.7493 37.061C18.9949 38.37 20.1416 39.2849 21.4272 39.2849C21.5932 39.2849 21.7611 39.27 21.929 39.2386C22.644 39.1047 23.2653 38.6993 23.676 38.0993C24.0867 37.4993 24.2398 36.7738 24.1059 36.0589C24.1059 36.0589 24.1059 36.0588 24.1059 36.0588L22.5051 27.4933L18.7493 37.061ZM28.0436 17.0191L28.0436 17.0194C28.0413 17.1595 28.0397 17.3023 28.0397 17.4489V27.0794C28.0397 28.4341 26.9374 29.5364 25.5827 29.5364C24.2287 29.5364 23.1265 28.4349 23.1249 27.0804L23.1249 27.0802L23.1241 21.2361L19.2608 24.0018L21.5561 25.8917C22.051 26.299 22.3884 26.8676 22.5051 27.4933L28.0436 17.0191ZM28.0436 17.0191L28.0437 17.0103C28.0562 16.1515 28.0685 15.3037 27.5646 14.347L26.674 12.6556C26.674 12.6556 26.674 12.6556 26.674 12.6556M28.0436 17.0191L26.674 12.6556M26.674 12.6556C26.2287 11.8097 25.5622 11.2411 24.7416 11.0272L26.674 12.6556ZM11.8324 21.5077L11.8324 21.5076C11.9216 20.0918 12.6774 18.7907 13.8512 18.027L22.1769 12.6122C22.1769 12.6122 22.1769 12.6122 22.177 12.6122C22.7874 12.2156 23.4172 12.0122 23.971 12.0122C24.1467 12.0122 24.3145 12.0327 24.4717 12.0731C24.9855 12.2071 25.4065 12.5641 25.7195 13.1586L25.7195 13.1587L26.6101 14.85C26.6101 14.8501 26.6101 14.8501 26.6101 14.8501C26.9831 15.5591 26.9765 16.1749 26.9647 17.0031L26.9647 17.0036C26.9644 17.0376 26.9639 17.0719 26.9635 17.1064C26.9622 17.2179 26.9608 17.3324 26.9608 17.4489V27.0802C26.9608 27.8388 26.3436 28.456 25.585 28.456C24.8272 28.456 24.2092 27.8387 24.2085 27.0801L24.2077 18.2521C24.2077 17.9536 23.9655 17.7114 23.6671 17.7114C23.3686 17.7114 23.1264 17.9536 23.1264 18.2521V19.9062L18.061 23.5317L18.0609 23.5317C17.924 23.6298 17.8405 23.7855 17.8351 23.9535C17.8297 24.1209 17.9021 24.2819 18.0318 24.3889L18.0319 24.389L20.8709 26.7265L20.8711 26.7266C21.1715 26.9732 21.3746 27.3163 21.4446 27.6913L21.4446 27.6913L23.0454 36.257L23.0454 36.257C23.1264 36.689 23.0341 37.1259 22.7862 37.4885C22.5384 37.8509 22.1644 38.0948 21.7324 38.1757C20.8412 38.3425 19.9805 37.7532 19.8137 36.8628C19.8137 36.8628 19.8137 36.8628 19.8137 36.8627L18.3583 29.073L18.3581 29.0723C18.3345 28.9485 18.2687 28.8362 18.1703 28.7551L18.1702 28.755L12.9805 24.4814C12.9802 24.4812 12.9799 24.481 12.9797 24.4807C12.1795 23.8018 11.7553 22.722 11.8324 21.5077Z" fill="#BDBDBD" stroke="#BDBDBD" stroke-width="0.3"/>
</svg>
