<svg id="Layer_1" enable-background="new 0 0 512 512" height="512" viewBox="0 0 512 512" width="512" xmlns="http://www.w3.org/2000/svg"><g><path d="m436.7 429.9-29.9-9.6c-2.5-.8-4.7-2.3-6.4-4.4 2.3-3.4 4.3-6.6 5.9-9.6 4.3-7.7 8.1-18.2 11.6-31.7 17.2-4.7 29.5-13.5 37.4-27 7.4-12.6 11.1-29.2 12.1-54 .9-24.5-9.9-44.2-30.7-56.1.6-8 1.2-15.7 1.7-22.8 2.8-37.4.8-107.2-43.5-154.9-30.3-32.6-74.9-49.2-132.7-49.2-40.3 0-74.4 8.1-101.5 24.1-16.8 9.9-31 22.9-42.4 38.8-1.5-3.7-5.2-6.1-9.2-6.1-4.3 0-8.2 2.8-9.5 7l-9.6 29.9c-1.3 4.2-4.6 7.5-8.8 8.8l-29.9 9.6c-4.1 1.3-7 5.2-7 9.5s2.8 8.2 7 9.5l29.9 9.6c2.6.8 4.8 2.4 6.4 4.4-2.6 18.8-3.1 38.7-1.6 59 .5 7.1 1.1 14.8 1.7 22.8-20.8 11.9-31.7 31.6-30.7 56.1 1 24.7 4.7 41.4 12.1 54 7.9 13.5 20.2 22.3 37.4 27 3.5 13.6 7.4 24.1 11.6 31.7 11.1 20 34.1 46 58.4 66.2 21.8 18 54.3 39.5 85.6 39.5 36.7 0 75.6-30.1 95.7-48.3.8 1.1 1.4 2.3 1.8 3.6l9.6 29.9c1.3 4.1 5.2 7 9.5 7s8.2-2.8 9.5-7l9.6-29.9c1.3-4.2 4.6-7.5 8.8-8.8l29.9-9.6c4.1-1.3 7-5.2 7-9.5s-2.7-8.2-6.8-9.5zm-349.4-297.7h.1c10.3-3.3 18.5-11.4 21.8-21.8v-.1.1c3.3 10.3 11.4 18.5 21.8 21.8h.1-.1c-10.3 3.3-18.5 11.4-21.8 21.8v.1-.1c-3.3-10.3-11.4-18.5-21.8-21.8zm102.1 324.9c-25.7-21.2-45.5-45.7-53.7-60.5-3.9-7.1-7.6-17.9-11.1-32.4-2-8.3-3.8-17.7-5.6-28.3-.9-5.4-6.1-9.1-11.5-8.2s-9.1 6.1-8.2 11.5c.7 4.3 1.4 8.3 2.2 12.3-16.6-8.4-23.2-25.4-24.4-58.6-.5-13.5 3.8-24.3 12.7-32.3.4 4.2.8 8.5 1.2 12.8.8 8.4 1.7 16.6 2.6 24.2.6 5.1 4.9 8.8 9.9 8.8.4 0 .8 0 1.2-.1 5.5-.6 9.4-5.6 8.8-11.1-.9-7.5-1.7-15.5-2.5-23.8-2.1-21.1-3.6-41.1-4.9-58.2-.4-4.8-.7-10.6-.7-17.1 1.2.5 2.5.8 3.9.8 4.3 0 8.2-2.8 9.5-7l9.6-29.9c1.3-4.2 4.6-7.5 8.8-8.8l29.9-9.6c4.1-1.3 7-5.2 7-9.5s-2.8-8.2-7-9.5l-29.9-9.6c-4.2-1.3-7.5-4.6-8.8-8.8l-1.9-5.9c24.7-44.9 70.4-67.7 135.9-67.7 52 0 91.7 14.4 118 42.8 39.1 42.2 40.8 105.7 38.2 139.8-1.2 15.8-2.6 34.2-4.4 53.9-.7 7.3-1.4 14.4-2.2 21-.6 5.5 3.4 10.4 8.8 11 .4 0 .7.1 1.1.1 5 0 9.4-3.8 9.9-8.9.7-6.8 1.5-13.9 2.2-21.3.3-2.8.5-5.6.8-8.4 8.9 8 13.2 18.8 12.7 32.3-1.3 33.2-7.8 50.2-24.4 58.6.9-4.9 1.8-10.1 2.7-15.6s-2.8-10.6-8.3-11.5c-5.4-.9-10.6 2.8-11.5 8.3-1.9 11.8-3.9 22.3-6.1 31.4 0 .1-.1.2-.1.3-2.6 11.2-5.5 20.2-8.4 27l-3.1-9.7c-1.3-4.1-5.2-7-9.5-7s-8.2 2.8-9.5 7l-9.6 29.9c-1.3 4.2-4.6 7.5-8.8 8.8l-29.9 9.6c-4.1 1.3-7 5.2-7 9.5s2.8 8.2 7 9.5l17.3 5.5c-27.8 23.7-55.5 37.6-76 37.6-19.8-.1-45.7-12.5-72.9-35zm211.3-17.7c-10.3 3.3-18.5 11.4-21.8 21.8v.1-.1c-2.7-8.4-8.6-15.4-16.3-19.5-.3-.2-.6-.3-.9-.5-1.4-.7-2.9-1.3-4.5-1.8h-.1.1c10.3-3.3 18.5-11.4 21.8-21.8v-.1.1c.1.3.2.5.3.7s.1.4.2.6c3.5 9.7 11.3 17.3 21.2 20.5h.1z"/><path d="m25.3 54.9 19.3 6.2c1.6.5 2.9 1.8 3.4 3.4l6.2 19.3c1.3 4.1 5.2 7 9.5 7s8.2-2.8 9.5-7l6.2-19.3c.5-1.6 1.8-2.9 3.4-3.4l19.3-6.2c4.1-1.3 7-5.2 7-9.5s-2.8-8.2-7-9.5l-19.3-6.2c-1.6-.5-2.9-1.8-3.4-3.4l-6.1-19.3c-1.3-4.1-5.2-7-9.5-7s-8.2 2.8-9.5 7l-6.2 19.3c-.5 1.6-1.8 2.9-3.4 3.4l-19.3 6.2c-4.1 1.3-7 5.2-7 9.5s2.8 8.2 6.9 9.5zm38.5-15.8c1.7 2.4 3.8 4.6 6.3 6.3-2.4 1.7-4.6 3.8-6.3 6.3-1.7-2.4-3.8-4.6-6.3-6.3 2.4-1.7 4.6-3.8 6.3-6.3z"/><path d="m502 377.5h-4.2v-4.2c0-5.5-4.5-10-10-10s-10 4.5-10 10v4.2h-4.2c-5.5 0-10 4.5-10 10s4.5 10 10 10h4.2v4.2c0 5.5 4.5 10 10 10s10-4.5 10-10v-4.2h4.2c5.5 0 10-4.5 10-10s-4.5-10-10-10z"/><path d="m34.2 196.8v-4.2h4.2c5.5 0 10-4.5 10-10s-4.5-10-10-10h-4.2v-4.2c0-5.5-4.5-10-10-10s-10 4.5-10 10v4.2h-4.2c-5.5 0-10 4.5-10 10s4.5 10 10 10h4.2v4.2c0 5.5 4.5 10 10 10s10-4.4 10-10z"/><path d="m272.6 371.7c5.5 0 10-4.5 10-10v-68.6c0-9.5 17.6-31.2 46.7-31.2 29.4 0 50.3 15.7 50.6 16 4.4 3.4 10.6 2.6 14-1.8s2.6-10.6-1.8-14c-1.1-.8-26.3-20.1-62.8-20.1-17.4 0-34.2 6-47.3 16.9-12.1 10.1-19.4 22.9-19.4 34.4v68.6c0 5.4 4.5 9.8 10 9.8z"/><path d="m229.4 273.3c4.7 2.9 10.9 1.4 13.7-3.3 2.9-4.7 1.4-10.9-3.3-13.7-.6-.4-14.3-8.6-34.4-12-26.9-4.6-52.7 1.5-74.7 17.7-4.5 3.3-5.4 9.5-2.1 14 2 2.7 5 4.1 8.1 4.1 2.1 0 4.1-.6 5.9-1.9 42-31.1 84.9-6 86.8-4.9z"/><path d="m211 310c4.8-2.7 6.6-8.7 4-13.6-2.7-4.8-8.7-6.6-13.6-4-6.1 3.3-11.6 4.5-16.2 4.6-4.6-.1-10.1-1.3-16.2-4.6-4.8-2.6-10.9-.9-13.6 4-2.7 4.8-.9 10.9 4 13.6.2.1.5.2.7.4 3.5 2.2 12.5 6.7 24.7 6.7h.5.5c12.2 0 21.1-4.6 24.7-6.7.1-.2.3-.3.5-.4z"/><path d="m352.8 292.5c-6.1 3.3-11.6 4.5-16.2 4.6-4.6-.1-10.1-1.3-16.2-4.6-4.8-2.6-10.9-.9-13.6 4-2.7 4.8-.9 10.9 4 13.6.1.1.2.1.3.2 3.3 2.1 12.4 6.9 25 6.9h.5.5c12.6 0 21.6-4.8 25-6.9.1-.1.2-.1.3-.2 4.8-2.7 6.6-8.7 4-13.6-2.7-4.9-8.7-6.7-13.6-4z"/><path d="m318.9 399.1c1.6-5.3-1.4-10.9-6.7-12.5-4.5-1.4-9.2.6-11.5 4.5-1.5 1.1-10.1 6.1-39.8 6.1-27.1 0-35.5-4.2-37.3-5.3-1.8-3.7-5.8-6-10.1-5.6-5.5.6-9.5 5.5-8.9 11 .3 2.5 2 8.9 12 13.5 9.2 4.2 24.1 6.4 44.3 6.4 43.4 0 55.5-9.8 58-18.1z"/><path d="m275.8 429.4h-27.1c-5.5 0-10 4.5-10 10s4.5 10 10 10h27.1c5.5 0 10-4.5 10-10s-4.4-10-10-10z"/></g></svg>