<svg height="512" viewBox="0 0 64 64" width="512" xmlns="http://www.w3.org/2000/svg"><g id="Flat"><g id="Color_copy" data-name="Color copy"><g fill="#f9e109"><path d="m32 7.392 2.472 5.009 5.528.803-4 3.899.944 5.505-4.944-2.599-4.944 2.599.944-5.505-4-3.899 5.528-.803z"/><path d="m50 24.196 1.854 3.757 4.146.602-3 2.924.708 4.13-3.708-1.95-3.708 1.95.708-4.13-3-2.924 4.146-.602z"/><path d="m52 3 1.236 2.505 2.764.401-2 1.95.472 2.752-2.472-1.299-2.472 1.299.472-2.752-2-1.95 2.764-.401z"/><path d="m13.469 3 1.236 2.505 2.764.401-2 1.95.472 2.752-2.472-1.299-2.472 1.299.472-2.752-2-1.95 2.764-.401z"/><path d="m14 24.196 1.854 3.757 4.146.602-3 2.924.708 4.13-3.708-1.95-3.708 1.95.708-4.13-3-2.924 4.146-.602z"/></g><circle cx="58" cy="19" fill="#f8664f" r="2"/><circle cx="59" cy="42" fill="#f8664f" r="2"/><circle cx="5" cy="40" fill="#f8664f" r="2"/><circle cx="6" cy="18.62" fill="#f8664f" r="2"/><path d="m60.82 42.82a2 2 0 1 1 -2.64-2.64 1.891 1.891 0 0 0 -.18.82 2.006 2.006 0 0 0 2 2 1.891 1.891 0 0 0 .82-.18z" fill="#cc5144"/><path d="m59.82 19.82a2 2 0 1 1 -2.64-2.64 1.891 1.891 0 0 0 -.18.82 2.006 2.006 0 0 0 2 2 1.891 1.891 0 0 0 .82-.18z" fill="#cc5144"/><path d="m7.82 19.44a2 2 0 1 1 -2.64-2.64 1.891 1.891 0 0 0 -.18.82 2.006 2.006 0 0 0 2 2 1.891 1.891 0 0 0 .82-.18z" fill="#cc5144"/><path d="m6.82 40.82a2 2 0 1 1 -2.64-2.64 1.891 1.891 0 0 0 -.18.82 2.006 2.006 0 0 0 2 2 1.891 1.891 0 0 0 .82-.18z" fill="#cc5144"/><path d="m32 7.392-.7 4.608a3 3 0 0 0 4.175 3.2l4.525-2-4 3.9.944 5.5-4.944-2.591-4.944 2.6.944-5.509-4-3.9 5.528-.8z" fill="#fcbc04"/><path d="m50 24.2-.324 2.195a3 3 0 0 0 4.256 3.147l2.068-.987-3 2.924.708 4.13-3.708-1.95-3.708 1.95.708-4.13-3-2.924 4.146-.6z" fill="#fcbc04"/><path d="m52 3-.218 1.573a2 2 0 0 0 2.938 2.027l1.28-.7-2 1.95.472 2.752-2.472-1.293-2.472 1.3.472-2.753-2-1.95 2.764-.4z" fill="#fcbc04"/><path d="m13.469 3-.218 1.573a2 2 0 0 0 2.939 2.027l1.279-.7-2 1.95.472 2.752-2.472-1.3-2.469 1.306.472-2.752-2-1.95 2.764-.4z" fill="#fcbc04"/><path d="m14 24.2-.324 2.195a3 3 0 0 0 4.256 3.147l2.068-.987-3 2.924.708 4.13-3.708-1.95-3.708 1.95.708-4.13-3-2.924 4.146-.6z" fill="#fcbc04"/><path d="m31.443 61a1 1 0 0 1 -.949-1.316 21.832 21.832 0 0 0 .6-11.641l-1.526-6.873a23.978 23.978 0 0 1 0-10.34l.9-4.047a1 1 0 1 1 1.952.434l-.9 4.047a21.992 21.992 0 0 0 0 9.472l1.528 6.873a23.843 23.843 0 0 1 -.656 12.707 1 1 0 0 1 -.949.684z" fill="#f9e109"/><path d="m38.488 33.329a1.016 1.016 0 0 1 -.237-.028 1 1 0 0 1 -.735-1.208 44.6 44.6 0 0 1 9.731-18.752 1 1 0 0 1 1.506 1.318 42.578 42.578 0 0 0 -9.294 17.906 1 1 0 0 1 -.971.764z" fill="#f9e109"/><path d="m26.511 33.329a1 1 0 0 1 -.97-.764 42.593 42.593 0 0 0 -9.293-17.906 1 1 0 0 1 1.5-1.318 44.6 44.6 0 0 1 9.732 18.752 1 1 0 0 1 -.735 1.208 1.024 1.024 0 0 1 -.234.028z" fill="#f9e109"/><path d="m37 59a.988.988 0 0 1 -.5-.132 1 1 0 0 1 -.372-1.364l12-21a1 1 0 1 1 1.736.992l-12 21a1 1 0 0 1 -.864.504z" fill="#f9e109"/><path d="m36 51a.884.884 0 0 1 -.125-.008 1 1 0 0 1 -.868-1.116l.123-.983a21.713 21.713 0 0 1 6.162-12.6 1 1 0 0 1 1.414 1.414 19.709 19.709 0 0 0 -5.592 11.434l-.123.983a1 1 0 0 1 -.991.876z" fill="#f8664f"/><path d="m42 58a1 1 0 0 1 -.707-1.707l11-11a1 1 0 0 1 1.414 1.414l-11 11a1 1 0 0 1 -.707.293z" fill="#f8664f"/><path d="m50 58a1 1 0 0 1 -.626-1.781l5-4a1 1 0 1 1 1.25 1.562l-5 4a1 1 0 0 1 -.624.219z" fill="#f9e109"/><circle cx="59" cy="50" fill="#f9e109" r="1"/><circle cx="24" cy="7" fill="#f9e109" r="1"/><circle cx="40" cy="7" fill="#f8664f" r="1"/><path d="m27 59a1 1 0 0 1 -.869-.5l-12-21a1 1 0 0 1 1.736-.992l12 21a1 1 0 0 1 -.372 1.364.988.988 0 0 1 -.495.128z" fill="#f9e109"/><path d="m28 51a1 1 0 0 1 -.991-.876l-.123-.983a19.7 19.7 0 0 0 -5.592-11.434 1 1 0 0 1 1.414-1.414 21.71 21.71 0 0 1 6.162 12.6l.123.983a1 1 0 0 1 -.868 1.116.884.884 0 0 1 -.125.008z" fill="#f8664f"/><path d="m22 58a1 1 0 0 1 -.707-.293l-11-11a1 1 0 0 1 1.414-1.414l11 11a1 1 0 0 1 -.707 1.707z" fill="#f8664f"/><path d="m14 58a1 1 0 0 1 -.625-.219l-5-4a1 1 0 0 1 1.25-1.562l5 4a1 1 0 0 1 -.625 1.781z" fill="#f9e109"/><circle cx="5" cy="50" fill="#f9e109" r="1"/></g></g></svg>