<svg width="36" height="36" viewBox="0 0 36 36" fill="none" xmlns="http://www.w3.org/2000/svg">
<g clip-path="url(#clip0_5205_12057)">
<path d="M35.4 21.6001H0.6C0.44087 21.6001 0.288258 21.6633 0.175736 21.7758C0.0632141 21.8884 0 22.041 0 22.2001C0 22.3592 0.0632141 22.5118 0.175736 22.6244C0.288258 22.7369 0.44087 22.8001 0.6 22.8001H35.4C35.5591 22.8001 35.7117 22.7369 35.8243 22.6244C35.9368 22.5118 36 22.3592 36 22.2001C36 22.041 35.9368 21.8884 35.8243 21.7758C35.7117 21.6633 35.5591 21.6001 35.4 21.6001Z" fill="#111928"/>
<path d="M35.4 24H0.6C0.44087 24 0.288258 24.0632 0.175736 24.1757C0.0632141 24.2883 0 24.4409 0 24.6C0 24.7591 0.0632141 24.9117 0.175736 25.0243C0.288258 25.1368 0.44087 25.2 0.6 25.2H35.4C35.5591 25.2 35.7117 25.1368 35.8243 25.0243C35.9368 24.9117 36 24.7591 36 24.6C36 24.4409 35.9368 24.2883 35.8243 24.1757C35.7117 24.0632 35.5591 24 35.4 24Z" fill="#111928"/>
<path d="M1.79995 27.5999C2.13132 27.5999 2.39995 27.3313 2.39995 26.9999C2.39995 26.6685 2.13132 26.3999 1.79995 26.3999C1.46858 26.3999 1.19995 26.6685 1.19995 26.9999C1.19995 27.3313 1.46858 27.5999 1.79995 27.5999Z" fill="#111928"/>
<path d="M5.40005 27.5999C5.73142 27.5999 6.00005 27.3313 6.00005 26.9999C6.00005 26.6685 5.73142 26.3999 5.40005 26.3999C5.06868 26.3999 4.80005 26.6685 4.80005 26.9999C4.80005 27.3313 5.06868 27.5999 5.40005 27.5999Z" fill="#111928"/>
<path d="M8.9999 27.5999C9.33127 27.5999 9.5999 27.3313 9.5999 26.9999C9.5999 26.6685 9.33127 26.3999 8.9999 26.3999C8.66853 26.3999 8.3999 26.6685 8.3999 26.9999C8.3999 27.3313 8.66853 27.5999 8.9999 27.5999Z" fill="#111928"/>
<path d="M12.6 27.5999C12.9314 27.5999 13.2 27.3313 13.2 26.9999C13.2 26.6685 12.9314 26.3999 12.6 26.3999C12.2686 26.3999 12 26.6685 12 26.9999C12 27.3313 12.2686 27.5999 12.6 27.5999Z" fill="#111928"/>
<path d="M16.2001 27.5999C16.5315 27.5999 16.8001 27.3313 16.8001 26.9999C16.8001 26.6685 16.5315 26.3999 16.2001 26.3999C15.8687 26.3999 15.6001 26.6685 15.6001 26.9999C15.6001 27.3313 15.8687 27.5999 16.2001 27.5999Z" fill="#111928"/>
<path d="M19.8 27.5999C20.1313 27.5999 20.4 27.3313 20.4 26.9999C20.4 26.6685 20.1313 26.3999 19.8 26.3999C19.4686 26.3999 19.2 26.6685 19.2 26.9999C19.2 27.3313 19.4686 27.5999 19.8 27.5999Z" fill="#111928"/>
<path d="M23.4 27.5999C23.7314 27.5999 24 27.3313 24 26.9999C24 26.6685 23.7314 26.3999 23.4 26.3999C23.0687 26.3999 22.8 26.6685 22.8 26.9999C22.8 27.3313 23.0687 27.5999 23.4 27.5999Z" fill="#111928"/>
<path d="M26.9999 27.5999C27.3313 27.5999 27.5999 27.3313 27.5999 26.9999C27.5999 26.6685 27.3313 26.3999 26.9999 26.3999C26.6685 26.3999 26.3999 26.6685 26.3999 26.9999C26.3999 27.3313 26.6685 27.5999 26.9999 27.5999Z" fill="#111928"/>
<path d="M30.6 27.5999C30.9314 27.5999 31.2 27.3313 31.2 26.9999C31.2 26.6685 30.9314 26.3999 30.6 26.3999C30.2686 26.3999 30 26.6685 30 26.9999C30 27.3313 30.2686 27.5999 30.6 27.5999Z" fill="#111928"/>
<path d="M34.2001 27.5999C34.5315 27.5999 34.8001 27.3313 34.8001 26.9999C34.8001 26.6685 34.5315 26.3999 34.2001 26.3999C33.8687 26.3999 33.6001 26.6685 33.6001 26.9999C33.6001 27.3313 33.8687 27.5999 34.2001 27.5999Z" fill="#111928"/>
<path d="M18 1.81321e-05C17.6931 -0.00136343 17.391 0.0762271 17.1228 0.225331C16.8545 0.374435 16.6291 0.590039 16.4682 0.851418C14.3508 4.27682 10.8 10.44 10.8 13.2492C10.8 15.1588 11.5586 16.9901 12.9089 18.3404C14.2591 19.6907 16.0905 20.4492 18 20.4492C19.9096 20.4492 21.741 19.6907 23.0912 18.3404C24.4415 16.9901 25.2 15.1588 25.2 13.2492C25.2 10.44 21.6493 4.27682 19.5319 0.851418C19.371 0.590039 19.1456 0.374435 18.8773 0.225331C18.6091 0.0762271 18.307 -0.00136343 18 1.81321e-05ZM24 13.2492C24 14.8405 23.3679 16.3666 22.2427 17.4919C21.1175 18.6171 19.5913 19.2492 18 19.2492C16.4088 19.2492 14.8826 18.6171 13.7574 17.4919C12.6322 16.3666 12 14.8405 12 13.2492C12 11.4156 14.0004 7.12922 17.4888 1.48262C17.5433 1.39662 17.6186 1.32578 17.7078 1.27669C17.7969 1.22761 17.8971 1.20187 17.9988 1.20187C18.1006 1.20187 18.2008 1.22761 18.2899 1.27669C18.3791 1.32578 18.4544 1.39662 18.5088 1.48262C21.9996 7.12682 24 11.4156 24 13.2492Z" fill="#111928"/>
<path d="M17.3999 17.4002C17.3999 17.5593 17.4631 17.712 17.5756 17.8245C17.6882 17.937 17.8408 18.0002 17.9999 18.0002C19.266 18.0053 20.4824 17.508 21.3823 16.6174C22.2821 15.7267 22.792 14.5155 22.7999 13.2494C22.7999 13.0903 22.7367 12.9377 22.6242 12.8251C22.5116 12.7126 22.359 12.6494 22.1999 12.6494C22.0408 12.6494 21.8882 12.7126 21.7756 12.8251C21.6631 12.9377 21.5999 13.0903 21.5999 13.2494C21.5923 14.1973 21.209 15.1035 20.5341 15.7692C19.8592 16.4349 18.9478 16.8056 17.9999 16.8002C17.8408 16.8002 17.6882 16.8634 17.5756 16.9759C17.4631 17.0885 17.3999 17.2411 17.3999 17.4002Z" fill="#111928"/>
<path d="M28.8001 2.3998C28.8001 2.24067 28.7369 2.08806 28.6244 1.97554C28.5118 1.86302 28.3592 1.7998 28.2001 1.7998C28.041 1.7998 27.8884 1.86302 27.7758 1.97554C27.6633 2.08806 27.6001 2.24067 27.6001 2.3998V3.5998C27.6001 3.75893 27.6633 3.91155 27.7758 4.02407C27.8884 4.13659 28.041 4.1998 28.2001 4.1998C28.3592 4.1998 28.5118 4.13659 28.6244 4.02407C28.7369 3.91155 28.8001 3.75893 28.8001 3.5998V2.3998Z" fill="#111928"/>
<path d="M28.2001 7.7999C28.3592 7.7999 28.5118 7.73669 28.6244 7.62417C28.7369 7.51164 28.8001 7.35903 28.8001 7.1999V5.9999C28.8001 5.84077 28.7369 5.68816 28.6244 5.57564C28.5118 5.46312 28.3592 5.3999 28.2001 5.3999C28.041 5.3999 27.8884 5.46312 27.7758 5.57564C27.6633 5.68816 27.6001 5.84077 27.6001 5.9999V7.1999C27.6001 7.35903 27.6633 7.51164 27.7758 7.62417C27.8884 7.73669 28.041 7.7999 28.2001 7.7999Z" fill="#111928"/>
<path d="M27 4.2002H25.8C25.6408 4.2002 25.4882 4.26341 25.3757 4.37593C25.2632 4.48845 25.2 4.64107 25.2 4.8002C25.2 4.95933 25.2632 5.11194 25.3757 5.22446C25.4882 5.33698 25.6408 5.4002 25.8 5.4002H27C27.1591 5.4002 27.3117 5.33698 27.4242 5.22446C27.5367 5.11194 27.6 4.95933 27.6 4.8002C27.6 4.64107 27.5367 4.48845 27.4242 4.37593C27.3117 4.26341 27.1591 4.2002 27 4.2002Z" fill="#111928"/>
<path d="M29.4 5.4002H30.6C30.7592 5.4002 30.9118 5.33698 31.0243 5.22446C31.1368 5.11194 31.2 4.95933 31.2 4.8002C31.2 4.64107 31.1368 4.48845 31.0243 4.37593C30.9118 4.26341 30.7592 4.2002 30.6 4.2002H29.4C29.2409 4.2002 29.0883 4.26341 28.9758 4.37593C28.8633 4.48845 28.8 4.64107 28.8 4.8002C28.8 4.95933 28.8633 5.11194 28.9758 5.22446C29.0883 5.33698 29.2409 5.4002 29.4 5.4002Z" fill="#111928"/>
<path d="M33 10.8002C33 10.6411 32.9368 10.4885 32.8243 10.3759C32.7118 10.2634 32.5592 10.2002 32.4 10.2002C32.2409 10.2002 32.0883 10.2634 31.9758 10.3759C31.8633 10.4885 31.8 10.6411 31.8 10.8002V12.0002C31.8 12.1593 31.8633 12.3119 31.9758 12.4245C32.0883 12.537 32.2409 12.6002 32.4 12.6002C32.5592 12.6002 32.7118 12.537 32.8243 12.4245C32.9368 12.3119 33 12.1593 33 12.0002V10.8002Z" fill="#111928"/>
<path d="M32.4 16.1998C32.5592 16.1998 32.7118 16.1366 32.8243 16.0241C32.9368 15.9115 33 15.7589 33 15.5998V14.3998C33 14.2407 32.9368 14.0881 32.8243 13.9755C32.7118 13.863 32.5592 13.7998 32.4 13.7998C32.2409 13.7998 32.0883 13.863 31.9758 13.9755C31.8633 14.0881 31.8 14.2407 31.8 14.3998V15.5998C31.8 15.7589 31.8633 15.9115 31.9758 16.0241C32.0883 16.1366 32.2409 16.1998 32.4 16.1998Z" fill="#111928"/>
<path d="M29.9999 13.8001H31.1999C31.359 13.8001 31.5116 13.7369 31.6242 13.6244C31.7367 13.5118 31.7999 13.3592 31.7999 13.2001C31.7999 13.041 31.7367 12.8884 31.6242 12.7758C31.5116 12.6633 31.359 12.6001 31.1999 12.6001H29.9999C29.8408 12.6001 29.6882 12.6633 29.5756 12.7758C29.4631 12.8884 29.3999 13.041 29.3999 13.2001C29.3999 13.3592 29.4631 13.5118 29.5756 13.6244C29.6882 13.7369 29.8408 13.8001 29.9999 13.8001Z" fill="#111928"/>
<path d="M33 13.2001C33 13.3592 33.0632 13.5118 33.1757 13.6244C33.2883 13.7369 33.4409 13.8001 33.6 13.8001H34.8C34.9591 13.8001 35.1117 13.7369 35.2243 13.6244C35.3368 13.5118 35.4 13.3592 35.4 13.2001C35.4 13.041 35.3368 12.8884 35.2243 12.7758C35.1117 12.6633 34.9591 12.6001 34.8 12.6001H33.6C33.4409 12.6001 33.2883 12.6633 33.1757 12.7758C33.0632 12.8884 33 13.041 33 13.2001Z" fill="#111928"/>
<path d="M6.5999 8.9999C6.5999 8.84077 6.53669 8.68816 6.42417 8.57564C6.31164 8.46312 6.15903 8.3999 5.9999 8.3999C5.84077 8.3999 5.68816 8.46312 5.57564 8.57564C5.46312 8.68816 5.3999 8.84077 5.3999 8.9999V10.1999C5.3999 10.359 5.46312 10.5116 5.57564 10.6242C5.68816 10.7367 5.84077 10.7999 5.9999 10.7999C6.15903 10.7999 6.31164 10.7367 6.42417 10.6242C6.53669 10.5116 6.5999 10.359 6.5999 10.1999V8.9999Z" fill="#111928"/>
<path d="M5.9999 14.4C6.15903 14.4 6.31164 14.3368 6.42417 14.2243C6.53669 14.1117 6.5999 13.9591 6.5999 13.8V12.6C6.5999 12.4409 6.53669 12.2883 6.42417 12.1757C6.31164 12.0632 6.15903 12 5.9999 12C5.84077 12 5.68816 12.0632 5.57564 12.1757C5.46312 12.2883 5.3999 12.4409 5.3999 12.6V13.8C5.3999 13.9591 5.46312 14.1117 5.57564 14.2243C5.68816 14.3368 5.84077 14.4 5.9999 14.4Z" fill="#111928"/>
<path d="M4.8 10.7998H3.6C3.44087 10.7998 3.28826 10.863 3.17574 10.9755C3.06321 11.0881 3 11.2407 3 11.3998C3 11.5589 3.06321 11.7115 3.17574 11.8241C3.28826 11.9366 3.44087 11.9998 3.6 11.9998H4.8C4.95913 11.9998 5.11174 11.9366 5.22426 11.8241C5.33679 11.7115 5.4 11.5589 5.4 11.3998C5.4 11.2407 5.33679 11.0881 5.22426 10.9755C5.11174 10.863 4.95913 10.7998 4.8 10.7998Z" fill="#111928"/>
<path d="M7.2001 11.9998H8.4001C8.55923 11.9998 8.71184 11.9366 8.82436 11.8241C8.93688 11.7115 9.0001 11.5589 9.0001 11.3998C9.0001 11.2407 8.93688 11.0881 8.82436 10.9755C8.71184 10.863 8.55923 10.7998 8.4001 10.7998H7.2001C7.04097 10.7998 6.88836 10.863 6.77583 10.9755C6.66331 11.0881 6.6001 11.2407 6.6001 11.3998C6.6001 11.5589 6.66331 11.7115 6.77583 11.8241C6.88836 11.9366 7.04097 11.9998 7.2001 11.9998Z" fill="#111928"/>
<path d="M5.99995 36C6.81365 35.9801 7.58627 35.6384 8.14858 35.0499C8.71088 34.4614 9.01702 33.674 8.99995 32.8602C8.99995 31.9716 8.31355 30.5712 6.95995 28.6974C6.84694 28.5502 6.70158 28.431 6.53512 28.3489C6.36865 28.2668 6.18554 28.2241 5.99995 28.2241C5.81435 28.2241 5.63124 28.2668 5.46477 28.3489C5.29831 28.431 5.15295 28.5502 5.03995 28.6974C3.68635 30.5712 2.99995 31.9716 2.99995 32.8602C2.98287 33.674 3.28901 34.4614 3.85131 35.0499C4.41362 35.6384 5.18624 35.9801 5.99995 36ZM5.98795 29.4C7.10575 30.948 7.79995 32.2734 7.79995 32.8602C7.81715 33.3558 7.63747 33.8381 7.30018 34.2015C6.96289 34.565 6.49542 34.7802 5.99995 34.8C5.50447 34.7802 5.037 34.565 4.69971 34.2015C4.36242 33.8381 4.18274 33.3558 4.19995 32.8602C4.19995 32.2734 4.89415 30.948 5.98795 29.4Z" fill="#111928"/>
<path d="M17.9999 36C18.8137 35.9801 19.5863 35.6384 20.1486 35.0499C20.7109 34.4614 21.017 33.674 20.9999 32.8602C20.9999 31.9716 20.3135 30.5712 18.9599 28.6974C18.8469 28.5502 18.7016 28.431 18.5351 28.3489C18.3687 28.2668 18.1855 28.2241 17.9999 28.2241C17.8143 28.2241 17.6312 28.2668 17.4648 28.3489C17.2983 28.431 17.153 28.5502 17.0399 28.6974C15.6869 30.5712 14.9999 31.9716 14.9999 32.8602C14.9829 33.674 15.289 34.4614 15.8513 35.0499C16.4136 35.6384 17.1862 35.9801 17.9999 36ZM17.9879 29.4C19.1057 30.948 19.7999 32.2734 19.7999 32.8602C19.818 33.1077 19.7849 33.3562 19.7026 33.5902C19.6204 33.8243 19.4907 34.0389 19.3218 34.2206C19.1529 34.4023 18.9483 34.5472 18.7209 34.6463C18.4935 34.7454 18.248 34.7966 17.9999 34.7966C17.7519 34.7966 17.5064 34.7454 17.279 34.6463C17.0515 34.5472 16.847 34.4023 16.6781 34.2206C16.5092 34.0389 16.3795 33.8243 16.2973 33.5902C16.215 33.3562 16.1819 33.1077 16.1999 32.8602C16.1999 32.2734 16.8941 30.948 17.9879 29.4Z" fill="#111928"/>
<path d="M29.0401 28.6974C27.6871 30.5712 27.0001 31.9716 27.0001 32.8602C26.9819 33.2655 27.0461 33.6702 27.1887 34.05C27.3313 34.4298 27.5493 34.7767 27.8297 35.0699C28.1101 35.3631 28.4469 35.5964 28.8199 35.7558C29.193 35.9153 29.5944 35.9974 30.0001 35.9974C30.4057 35.9974 30.8072 35.9153 31.1802 35.7558C31.5532 35.5964 31.8901 35.3631 32.1704 35.0699C32.4508 34.7767 32.6689 34.4298 32.8114 34.05C32.954 33.6702 33.0182 33.2655 33.0001 32.8602C33.0001 31.9716 32.3137 30.5712 30.9601 28.6974C30.8471 28.5502 30.7017 28.431 30.5352 28.3489C30.3688 28.2668 30.1857 28.2241 30.0001 28.2241C29.8145 28.2241 29.6314 28.2668 29.4649 28.3489C29.2984 28.431 29.1531 28.5502 29.0401 28.6974ZM31.8001 32.8602C31.8182 33.1077 31.785 33.3562 31.7028 33.5902C31.6205 33.8243 31.4909 34.0389 31.3219 34.2206C31.153 34.4023 30.9485 34.5472 30.721 34.6463C30.4936 34.7454 30.2482 34.7966 30.0001 34.7966C29.752 34.7966 29.5065 34.7454 29.2791 34.6463C29.0517 34.5472 28.8471 34.4023 28.6782 34.2206C28.5093 34.0389 28.3796 33.8243 28.2974 33.5902C28.2151 33.3562 28.182 33.1077 28.2001 32.8602C28.2001 32.2734 28.8943 30.948 29.9881 29.4C31.1059 30.948 31.8001 32.2734 31.8001 32.8602Z" fill="#111928"/>
</g>
<defs>
<clipPath id="clip0_5205_12057">
<rect width="36" height="36" fill="white"/>
</clipPath>
</defs>
</svg>
