<svg width="512" height="512" viewBox="0 0 512 512" fill="none" xmlns="http://www.w3.org/2000/svg">
<path d="M116.817 234H110.317C93.7484 234 80.3174 247.431 80.3174 264V266.606C80.3174 295.578 103.476 319.141 132.292 319.791" stroke="#111928" stroke-width="14" stroke-miterlimit="10" stroke-linecap="round" stroke-linejoin="round"/>
<path d="M372.983 234H379.317C395.886 234 409.317 247.431 409.317 264V266.606C409.317 269.134 409.141 271.622 408.799 274.056" stroke="#111928" stroke-width="14" stroke-miterlimit="10" stroke-linecap="round" stroke-linejoin="round"/>
<path d="M197.531 399.5V430.648C197.531 444.394 187.553 456.107 173.982 458.292L105.596 469.303C85.4864 472.541 68.4154 485.811 60.3164 504.5" stroke="#111928" stroke-width="14" stroke-miterlimit="10" stroke-linecap="round" stroke-linejoin="round"/>
<path d="M362.713 465.856L384.116 469.302C404.226 472.54 421.297 485.81 429.396 504.499" stroke="#111928" stroke-width="14" stroke-miterlimit="10" stroke-linecap="round" stroke-linejoin="round"/>
<path d="M225.817 309.5C236.703 313.55 247.589 313.821 258.476 310.313" stroke="#111928" stroke-width="14" stroke-miterlimit="10" stroke-linecap="round" stroke-linejoin="round"/>
<path d="M182.439 130.976C202.031 119.825 223.881 113.5 244.857 113.5C300.357 113.5 362.262 157.481 371.807 218.567C372.969 226.005 373.075 233.567 372.403 241.065C372.034 245.19 371.535 250.094 371.051 252.761L370.059 258.232" stroke="#111928" stroke-width="14" stroke-miterlimit="10" stroke-linecap="round" stroke-linejoin="round"/>
<path d="M259.782 415.114C254.582 416.798 249.565 417.745 244.858 417.745C221.765 417.745 191.211 394.953 168.121 374.137C146.832 354.944 132.531 329.221 127.416 301.018L118.664 252.762C118.171 250.045 117.687 245.003 117.338 240.829C116.718 233.406 116.844 225.924 118.021 218.569C122.179 192.572 135.827 169.594 154.43 151.808" stroke="#111928" stroke-width="14" stroke-miterlimit="10" stroke-linecap="round" stroke-linejoin="round"/>
<path d="M330.789 218.5C312.601 212.834 291.224 208.501 270.817 218.5" stroke="#111928" stroke-width="14" stroke-miterlimit="10" stroke-linecap="round" stroke-linejoin="round"/>
<path d="M158.925 218.5C177.113 212.834 198.49 208.501 218.897 218.5" stroke="#111928" stroke-width="14" stroke-miterlimit="10" stroke-linecap="round" stroke-linejoin="round"/>
<path d="M244.817 348.5C235.357 355.5 221.757 354.952 211.666 349.953" stroke="#111928" stroke-width="14" stroke-miterlimit="10" stroke-linecap="round" stroke-linejoin="round"/>
<path d="M167.34 260.826C181.002 265.992 194.664 265.992 208.326 260.826" stroke="#111928" stroke-width="14" stroke-miterlimit="10" stroke-linecap="round" stroke-linejoin="round"/>
<path d="M311.698 263.812C301.595 265.642 291.492 264.647 281.389 260.826" stroke="#111928" stroke-width="14" stroke-miterlimit="10" stroke-linecap="round" stroke-linejoin="round"/>
<path d="M434.698 424.628L488.964 478.894C494.822 484.752 494.822 494.249 488.964 500.107C486.035 503.036 482.196 504.501 478.358 504.501C474.52 504.501 470.68 503.037 467.752 500.107L413.422 445.777" stroke="#111928" stroke-width="14" stroke-miterlimit="10" stroke-linecap="round" stroke-linejoin="round"/>
<path d="M283.168 442.192C260.062 422.931 245.357 393.933 245.357 361.5C245.357 303.51 292.367 256.5 350.357 256.5C408.347 256.5 455.357 303.51 455.357 361.5C455.357 419.49 408.347 466.5 350.357 466.5C337.169 466.5 324.549 464.069 312.92 459.63" stroke="#111928" stroke-width="14" stroke-miterlimit="10" stroke-linecap="round" stroke-linejoin="round"/>
<path d="M350.356 436.5C391.778 436.5 425.356 402.921 425.356 361.5C425.356 320.079 391.778 286.5 350.356 286.5C308.935 286.5 275.356 320.079 275.356 361.5C275.356 402.921 308.935 436.5 350.356 436.5Z" stroke="#111928" stroke-width="14" stroke-miterlimit="10" stroke-linecap="round" stroke-linejoin="round"/>
<path d="M295.425 412.559L321.775 392.658C324.509 390.593 326.091 387.345 326.03 383.919L325.634 361.5" stroke="#111928" stroke-width="14" stroke-miterlimit="10" stroke-linecap="round" stroke-linejoin="round"/>
<path d="M368.833 359.688L382.892 342.652C385.359 339.663 389.247 338.239 393.061 338.928L423.399 344.41" stroke="#111928" stroke-width="14" stroke-miterlimit="10" stroke-linecap="round" stroke-linejoin="round"/>
<path d="M373.575 394.521L396.175 420.876" stroke="#111928" stroke-width="14" stroke-miterlimit="10" stroke-linecap="round" stroke-linejoin="round"/>
<path d="M344.723 286.71L348.75 337.393" stroke="#111928" stroke-width="14" stroke-miterlimit="10" stroke-linecap="round" stroke-linejoin="round"/>
<path d="M321.965 329.232L346.336 315" stroke="#111928" stroke-width="14" stroke-miterlimit="10" stroke-linecap="round" stroke-linejoin="round"/>
<path d="M436.952 469.096L457.952 448.096" stroke="#111928" stroke-width="14" stroke-miterlimit="10" stroke-linecap="round" stroke-linejoin="round"/>
<path d="M76.6621 370.687C81.6381 372.482 86.9291 373.669 92.4411 374.162C112.921 375.993 133.288 370.559 148.208 353.733" stroke="#111928" stroke-width="14" stroke-miterlimit="10" stroke-linecap="round" stroke-linejoin="round"/>
<path d="M470.729 215.509C469.036 198.532 461.192 183.369 449.459 172.274C444.827 167.894 442.84 161.342 444.402 155.162C445.587 150.475 446.219 145.569 446.219 140.514C446.219 119.582 435.466 101.168 419.186 90.477C415.294 87.921 412.627 83.932 411.6 79.391C405.569 52.726 381.736 32.815 353.247 32.815C352.796 32.815 352.346 32.82 351.897 32.83C346.954 32.94 342.239 30.9 338.768 27.38C326.669 15.111 309.862 7.5 291.27 7.5C277.738 7.5 265.154 11.534 254.64 18.459C248.732 22.35 240.984 22.35 235.076 18.459C224.561 11.534 211.977 7.5 198.445 7.5C179.853 7.5 163.046 15.111 150.947 27.379C147.476 30.899 142.76 32.939 137.818 32.829C137.369 32.819 136.919 32.814 136.468 32.814C107.979 32.814 84.1466 52.726 78.1146 79.39C77.0876 83.931 74.4206 87.92 70.5286 90.476C54.2486 101.167 43.4956 119.581 43.4956 140.513C43.4956 145.568 44.1276 150.474 45.3126 155.161C46.8746 161.342 44.8876 167.893 40.2556 172.273C26.9476 184.857 18.6426 202.676 18.6426 222.438C18.6426 241.29 26.2036 258.37 38.4546 270.827C43.6216 276.081 44.9196 283.934 41.9816 290.692C38.3996 298.934 36.6176 308.138 37.1426 317.813C37.8036 330.003 42.0266 341.09 48.8096 350.158" stroke="#111928" stroke-width="14" stroke-miterlimit="10" stroke-linecap="round" stroke-linejoin="round"/>
<path d="M428.356 291.5C449.159 280.783 460.708 265.505 466.404 249.768" stroke="#111928" stroke-width="14" stroke-miterlimit="10" stroke-linecap="round" stroke-linejoin="round"/>
<path d="M244.856 112.75V21.4785" stroke="#111928" stroke-width="14" stroke-miterlimit="10" stroke-linecap="round" stroke-linejoin="round"/>
<path d="M86.6728 244.5C71.8588 174.132 103.132 103.328 166.675 72.167C189.629 60.91 217.067 62.821 237.947 77.574C240.469 79.356 242.864 80.5 244.857 80.5C246.617 80.5 248.7 79.559 250.907 78.053C272.234 63.498 299.538 60.717 322.744 72.039C386.486 103.137 417.879 174.023 403.042 244.5" stroke="#111928" stroke-width="14" stroke-miterlimit="10" stroke-linecap="round" stroke-linejoin="round"/>
</svg>
