<svg width="26" height="26" viewBox="0 0 26 26" fill="none" xmlns="http://www.w3.org/2000/svg">
<path fill-rule="evenodd" clip-rule="evenodd" d="M0 1.72289C0 0.771365 0.771365 0 1.72289 0H6.73494C6.99445 0 7.20482 0.210372 7.20482 0.469879C7.20482 0.729387 6.99445 0.939759 6.73494 0.939759H1.72289C1.29038 0.939759 0.939759 1.29038 0.939759 1.72289V6.73494C0.939759 6.99445 0.729387 7.20482 0.469879 7.20482C0.210372 7.20482 0 6.99445 0 6.73494V1.72289Z" fill="white"/>
<path fill-rule="evenodd" clip-rule="evenodd" d="M24.2771 -7.531e-08C25.2286 -3.37174e-08 26 0.771365 26 1.72289L26 6.73494C26 6.99445 25.7896 7.20482 25.5301 7.20482C25.2706 7.20482 25.0602 6.99445 25.0602 6.73494L25.0602 1.72289C25.0602 1.29038 24.7096 0.939759 24.2771 0.939759L19.2651 0.939759C19.0056 0.939759 18.7952 0.729386 18.7952 0.469879C18.7952 0.210372 19.0056 -3.05737e-07 19.2651 -2.94394e-07L24.2771 -7.531e-08Z" fill="white"/>
<path fill-rule="evenodd" clip-rule="evenodd" d="M1.72289 26C0.771365 26 -3.37174e-08 25.2286 -7.531e-08 24.2771L-2.94394e-07 19.2651C-3.05737e-07 19.0056 0.210372 18.7952 0.469879 18.7952C0.729386 18.7952 0.939759 19.0056 0.939759 19.2651L0.939759 24.2771C0.939759 24.7096 1.29038 25.0602 1.72289 25.0602L6.73494 25.0602C6.99445 25.0602 7.20482 25.2706 7.20482 25.5301C7.20482 25.7896 6.99445 26 6.73494 26L1.72289 26Z" fill="white"/>
<path fill-rule="evenodd" clip-rule="evenodd" d="M26 24.2771C26 25.2286 25.2286 26 24.2771 26L19.2651 26C19.0056 26 18.7952 25.7896 18.7952 25.5301C18.7952 25.2706 19.0056 25.0602 19.2651 25.0602L24.2771 25.0602C24.7096 25.0602 25.0602 24.7096 25.0602 24.2771L25.0602 19.2651C25.0602 19.0056 25.2706 18.7952 25.5301 18.7952C25.7896 18.7952 26 19.0056 26 19.2651L26 24.2771Z" fill="white"/>
<path fill-rule="evenodd" clip-rule="evenodd" d="M0 12.3737C0 12.1142 0.210372 11.9038 0.46988 11.9038H25.5301C25.7896 11.9038 26 12.1142 26 12.3737C26 12.6332 25.7896 12.8436 25.5301 12.8436H0.46988C0.210372 12.8436 0 12.6332 0 12.3737Z" fill="white"/>
<path fill-rule="evenodd" clip-rule="evenodd" d="M7.63477 3.0049C7.58087 2.43501 8.02911 1.94238 8.60154 1.94238H17.3321C17.9072 1.94238 18.3564 2.43951 18.2982 3.01173L16.5436 20.2616C16.4932 20.7573 16.0758 21.1344 15.5775 21.1344H15.458V23.6508C15.458 24.1871 15.0232 24.6219 14.4869 24.6219H11.3529C10.8166 24.6219 10.3818 24.1871 10.3818 23.6508V21.1344H10.2329C9.73206 21.1344 9.31334 20.7534 9.26618 20.2548L7.63477 3.0049ZM11.3216 21.1344V23.6508C11.3216 23.6681 11.3356 23.6821 11.3529 23.6821H14.4869C14.5042 23.6821 14.5182 23.6681 14.5182 23.6508V21.1344H11.3216ZM8.60154 2.88214C8.58308 2.88214 8.56862 2.89803 8.57035 2.91642L10.2018 20.1663C10.2033 20.1824 10.2168 20.1947 10.2329 20.1947H15.5775C15.5936 20.1947 15.6071 20.1825 15.6087 20.1665L17.3632 2.91664C17.3651 2.89818 17.3506 2.88214 17.3321 2.88214H8.60154Z" fill="white"/>
<path fill-rule="evenodd" clip-rule="evenodd" d="M10.3999 21.8647L12.5613 21.8647C12.8209 21.8647 13.0312 22.0751 13.0312 22.3346C13.0312 22.5941 12.8209 22.8045 12.5613 22.8045L10.3999 22.8045L10.3999 21.8647Z" fill="white"/>
<path fill-rule="evenodd" clip-rule="evenodd" d="M9.86719 4.98088C9.86719 4.77328 10.0355 4.60498 10.2431 4.60498L15.6937 4.60498C15.9013 4.60498 16.0696 4.77328 16.0696 4.98088C16.0696 5.18849 15.9013 5.35679 15.6937 5.35679L10.2431 5.35679C10.0355 5.35679 9.86719 5.18849 9.86719 4.98088Z" fill="white"/>
<path fill-rule="evenodd" clip-rule="evenodd" d="M10.9636 15.38C10.9636 15.1205 11.174 14.9102 11.4335 14.9102H14.566C14.8255 14.9102 15.0359 15.1205 15.0359 15.38C15.0359 15.6395 14.8255 15.8499 14.566 15.8499H11.4335C11.174 15.8499 10.9636 15.6395 10.9636 15.38Z" fill="white"/>
<path fill-rule="evenodd" clip-rule="evenodd" d="M15.2866 22.8047H14.2529C13.9934 22.8047 13.783 22.5943 13.783 22.3348C13.783 22.0753 13.9934 21.8649 14.2529 21.8649H15.2866V22.8047Z" fill="white"/>
<path fill-rule="evenodd" clip-rule="evenodd" d="M14.3154 6.98569H11.6214C11.0678 6.98569 10.619 7.43449 10.619 7.9881C10.619 8.54172 11.0678 8.99051 11.6214 8.99051H14.3154C14.869 8.99051 15.3178 8.54172 15.3178 7.9881C15.3178 7.43449 14.869 6.98569 14.3154 6.98569ZM11.6214 6.23389C10.6526 6.23389 9.86719 7.01928 9.86719 7.9881C9.86719 8.95693 10.6526 9.74232 11.6214 9.74232H14.3154C15.2842 9.74232 16.0696 8.95693 16.0696 7.9881C16.0696 7.01928 15.2842 6.23389 14.3154 6.23389H11.6214Z" fill="white"/>
</svg>
