<svg width="80" height="80" viewBox="0 0 80 80" fill="none" xmlns="http://www.w3.org/2000/svg">
<mask id="mask0_6069_16101" style="mask-type:luminance" maskUnits="userSpaceOnUse" x="0" y="0" width="80" height="80">
<path d="M0 9.85463e-06H80V80H0V9.85463e-06Z" fill="white"/>
</mask>
<g mask="url(#mask0_6069_16101)">
<path fill-rule="evenodd" clip-rule="evenodd" d="M9.41699 77.0332C9.41699 77.6804 9.94166 78.2051 10.5889 78.2051H45.4803C46.1275 78.2051 46.6521 77.6804 46.6521 77.0332V4.45821C46.6521 4.08099 46.4706 3.72684 46.1643 3.50667C45.858 3.2865 45.4644 3.22722 45.1069 3.34741L12.8004 14.2068C10.7789 14.8862 9.41699 16.7805 9.41699 18.9132V77.0332ZM11.7607 75.8613V18.9132C11.7607 17.7872 12.4797 16.7871 13.5471 16.4284L44.3084 6.08842V75.8613H11.7607Z" fill="#111928"/>
<path fill-rule="evenodd" clip-rule="evenodd" d="M44.3076 77.0332C44.3076 77.6804 44.8323 78.2051 45.4795 78.2051H65.117C65.7642 78.2051 66.2889 77.6804 66.2889 77.0332V69.7426C66.2889 69.0954 65.7642 68.5707 65.117 68.5707C64.4698 68.5707 63.9451 69.0954 63.9451 69.7426V75.8613H46.6514V38.8285H67.1467C67.9354 38.8285 68.5732 39.4664 68.5732 40.2551V61.0988C68.5732 61.746 69.0979 62.2707 69.7451 62.2707C70.3923 62.2707 70.917 61.746 70.917 61.0988V40.2551C70.917 38.1719 69.2298 36.4848 67.1467 36.4848H45.4795C44.8323 36.4848 44.3076 37.0094 44.3076 37.6566V77.0332Z" fill="#111928"/>
<path fill-rule="evenodd" clip-rule="evenodd" d="M44.3076 77.0332C44.3076 77.6804 44.8323 78.2051 45.4795 78.2051H77.0657C78.6859 78.2051 79.9996 76.8918 79.9996 75.2713V69.7429C79.9996 69.0957 79.475 68.571 78.8278 68.571H45.4795C44.8323 68.571 44.3076 69.0957 44.3076 69.7429V77.0332ZM46.6514 75.8613V70.9148H77.6559V75.2713C77.6559 75.5971 77.3918 75.8613 77.0657 75.8613H46.6514Z" fill="#111928"/>
<path fill-rule="evenodd" clip-rule="evenodd" d="M63.9453 69.7432C63.9453 70.3904 64.47 70.915 65.1172 70.915H78.8281C79.4753 70.915 80 70.3904 80 69.7432V67.3419C80 63.0913 76.5541 59.6454 72.3034 59.6454H71.6419C67.3912 59.6454 63.9453 63.0913 63.9453 67.3419V69.7432ZM66.2891 68.5713V67.3419C66.2891 64.3857 68.6856 61.9891 71.6419 61.9891H72.3034C75.2597 61.9891 77.6563 64.3857 77.6563 67.3419V68.5713H66.2891Z" fill="#111928"/>
<path fill-rule="evenodd" clip-rule="evenodd" d="M2.93375 75.8613C2.60783 75.8613 2.34375 75.5972 2.34375 75.2713V70.9148H9.41656V75.8613H2.93375ZM0 75.2713C0 76.8917 1.31342 78.2051 2.93375 78.2051H10.5884C11.2356 78.2051 11.7603 77.6804 11.7603 77.0332V69.7429C11.7603 69.0957 11.2356 68.571 10.5884 68.571H1.17187C0.524666 68.571 0 69.0957 0 69.7429V75.2713Z" fill="#111928"/>
<path fill-rule="evenodd" clip-rule="evenodd" d="M0 69.7432C0 70.3904 0.524666 70.915 1.17187 70.915H10.5886C11.2358 70.915 11.7605 70.3904 11.7605 69.7432V60.8172C11.7605 60.17 11.2358 59.6454 10.5886 59.6454H9.66719C4.32827 59.6454 0 63.9734 0 69.3125V69.7432ZM2.3808 68.5713C2.74415 64.9564 5.73633 62.117 9.41672 61.9933V68.5713H2.3808Z" fill="#111928"/>
<path fill-rule="evenodd" clip-rule="evenodd" d="M44.3076 37.6563C44.3076 38.3035 44.8323 38.8281 45.4795 38.8281H57.6126C58.2598 38.8281 58.7845 38.3035 58.7845 37.6563C58.7845 37.009 58.2598 36.4844 57.6126 36.4844H46.6514V7.22105L55.6413 15.9109L56.4005 15.1255L55.6413 15.9109C56.1522 16.4047 56.4407 17.085 56.4407 17.7958V32.1322C56.4407 32.7794 56.9654 33.3041 57.6126 33.3041C58.2598 33.3041 58.7845 32.7794 58.7845 32.1322V17.7958C58.7845 16.4497 58.2381 15.1612 57.2702 14.2257L46.2939 3.61585C45.9558 3.28895 45.4549 3.19594 45.0219 3.37961C44.5888 3.56329 44.3076 3.98808 44.3076 4.45844V37.6563Z" fill="#111928"/>
<path fill-rule="evenodd" clip-rule="evenodd" d="M19.123 14.4893C19.7703 14.4893 20.2949 13.9646 20.2949 13.3174V5.40332C20.2949 4.70571 20.8604 4.13926 21.5605 4.13926H21.8074C22.5055 4.13926 23.0715 4.70522 23.0715 5.40332V11.5955C23.0715 12.2427 23.5961 12.7674 24.2434 12.7674C24.8906 12.7674 25.4152 12.2427 25.4152 11.5955V5.40332C25.4152 3.4108 23.7999 1.79551 21.8074 1.79551H21.5605C19.567 1.79551 17.9512 3.41031 17.9512 5.40332V13.3174C17.9512 13.9646 18.4758 14.4893 19.123 14.4893Z" fill="#111928"/>
<path fill-rule="evenodd" clip-rule="evenodd" d="M18.0126 22.5488C18.2188 23.1623 18.8833 23.4925 19.4967 23.2863L45.853 14.4269C46.4665 14.2207 46.7966 13.5562 46.5904 12.9427C46.3842 12.3292 45.7197 11.9991 45.1062 12.2053L18.75 21.0647C18.1365 21.2709 17.8064 21.9354 18.0126 22.5488Z" fill="#111928"/>
<path fill-rule="evenodd" clip-rule="evenodd" d="M18.0126 30.9834C18.2188 31.5969 18.8833 31.927 19.4967 31.7208L45.853 22.8615C46.4665 22.6552 46.7966 21.9908 46.5904 21.3773C46.3842 20.7638 45.7197 20.4336 45.1062 20.6399L18.75 29.4992C18.1365 29.7054 17.8064 30.3699 18.0126 30.9834Z" fill="#111928"/>
<path fill-rule="evenodd" clip-rule="evenodd" d="M18.0126 39.418C18.2188 40.0315 18.8833 40.3616 19.4967 40.1554L45.853 31.296C46.4665 31.0898 46.7966 30.4253 46.5904 29.8118C46.3842 29.1984 45.7197 28.8682 45.1062 29.0744L18.75 37.9338C18.1365 38.14 17.8064 38.8045 18.0126 39.418Z" fill="#111928"/>
<path fill-rule="evenodd" clip-rule="evenodd" d="M18.0126 47.8516C18.2188 48.4651 18.8833 48.7952 19.4967 48.589L45.853 39.7296C46.4665 39.5234 46.7966 38.8589 46.5904 38.2454C46.3842 37.632 45.7197 37.3018 45.1062 37.508L18.75 46.3674C18.1365 46.5736 17.8064 47.2381 18.0126 47.8516Z" fill="#111928"/>
<path fill-rule="evenodd" clip-rule="evenodd" d="M18.0126 56.2861C18.2188 56.8996 18.8833 57.2298 19.4967 57.0236L23.8477 55.5611C24.4612 55.3549 24.7913 54.6904 24.5851 54.0769C24.3789 53.4634 23.7144 53.1333 23.1009 53.3395L18.75 54.802C18.1365 55.0082 17.8064 55.6727 18.0126 56.2861Z" fill="#111928"/>
<path fill-rule="evenodd" clip-rule="evenodd" d="M27.6112 53.0596C27.8174 53.6731 28.4819 54.0032 29.0954 53.797L45.8527 48.1642C46.4662 47.958 46.7964 47.2935 46.5901 46.68C46.3839 46.0665 45.7194 45.7364 45.106 45.9426L28.3486 51.5754C27.7351 51.7816 27.405 52.4461 27.6112 53.0596Z" fill="#111928"/>
<path fill-rule="evenodd" clip-rule="evenodd" d="M17.9521 77.0332C17.9521 77.6804 18.4768 78.2051 19.124 78.2051H33.0125C33.6597 78.2051 34.1843 77.6804 34.1843 77.0332V63.6843C34.1843 62.0098 32.5869 60.7968 30.9738 61.2473M30.9736 61.2473L20.0665 64.2923C20.0665 64.2923 20.0664 64.2923 20.0664 64.2923C18.8164 64.6412 17.9521 65.7801 17.9521 67.0777V77.0332M20.2959 75.8613V67.0777C20.2959 66.8316 20.4598 66.6158 20.6966 66.5497L20.6966 66.5497L31.604 63.5047L31.6041 63.5047C31.7228 63.4715 31.8406 63.5607 31.8406 63.6843V75.8613H20.2959Z" fill="#111928"/>
<path fill-rule="evenodd" clip-rule="evenodd" d="M49.8076 46.5179C49.8076 47.6093 50.6924 48.4941 51.7839 48.4941H63.2762C64.3676 48.4941 65.2526 47.6095 65.2526 46.5179V43.6971C65.2526 42.6055 64.3678 41.7207 63.2762 41.7207H51.7839C50.6923 41.7207 49.8076 42.6057 49.8076 43.6971V46.5179ZM52.1514 46.1504V44.0645H62.9089V46.1504H52.1514Z" fill="#111928"/>
<path fill-rule="evenodd" clip-rule="evenodd" d="M49.8076 55.4289C49.8076 56.5203 50.6923 57.4053 51.7839 57.4053H63.2762C64.3678 57.4053 65.2526 56.5205 65.2526 55.4289V52.6081C65.2526 51.5165 64.3676 50.6318 63.2762 50.6318H51.7839C50.6924 50.6318 49.8076 51.5167 49.8076 52.6081V55.4289ZM52.1514 55.0615V52.9756H62.9089V55.0615H52.1514Z" fill="#111928"/>
<path fill-rule="evenodd" clip-rule="evenodd" d="M49.8076 64.431C49.8076 65.5224 50.6924 66.4072 51.7839 66.4072H55.5851C56.6766 66.4072 57.5615 65.5226 57.5615 64.431V61.6102C57.5615 60.5186 56.6767 59.6338 55.5851 59.6338H51.7839C50.6923 59.6338 49.8076 60.5188 49.8076 61.6102V64.431ZM52.1514 64.0635V61.9775H55.2178V64.0635H52.1514Z" fill="#111928"/>
<path fill-rule="evenodd" clip-rule="evenodd" d="M26.0684 78.2051C26.7156 78.2051 27.2402 77.6804 27.2402 77.0332V63.8334C27.2402 63.1862 26.7156 62.6615 26.0684 62.6615C25.4212 62.6615 24.8965 63.1862 24.8965 63.8334V77.0332C24.8965 77.6804 25.4212 78.2051 26.0684 78.2051Z" fill="#111928"/>
</g>
</svg>
