<svg width="90" height="90" viewBox="0 0 90 90" fill="none" xmlns="http://www.w3.org/2000/svg">
<path fill-rule="evenodd" clip-rule="evenodd" d="M32.5 78.75H67.5C68.19 78.75 68.75 78.19 68.75 77.5V70C68.75 69.31 68.19 68.75 67.5 68.75H62.5C61.81 68.75 61.25 69.31 61.25 70V76.25H58.75V62.5C58.75 61.81 58.19 61.25 57.5 61.25H52.5C51.81 61.25 51.25 61.81 51.25 62.5V76.25H48.75V57.5C48.75 56.81 48.19 56.25 47.5 56.25H42.5C41.81 56.25 41.25 56.81 41.25 57.5V76.25H38.75V67.5C38.75 66.81 38.19 66.25 37.5 66.25H32.5C31.81 66.25 31.25 66.81 31.25 67.5V77.5C31.25 78.19 31.81 78.75 32.5 78.75ZM56.25 76.25H53.75V63.75H56.25V76.25ZM36.25 68.75V76.25H33.75V68.75H36.25ZM66.25 71.25V76.25H63.75V71.25H66.25ZM46.25 58.75V76.25H43.75V58.75H46.25Z" fill="#111928"/>
<path fill-rule="evenodd" clip-rule="evenodd" d="M52.5 51.25H32.5C31.81 51.25 31.25 51.81 31.25 52.5C31.25 53.19 31.81 53.75 32.5 53.75H52.5C53.19 53.75 53.75 53.19 53.75 52.5C53.75 51.81 53.19 51.25 52.5 51.25Z" fill="#111928"/>
<path fill-rule="evenodd" clip-rule="evenodd" d="M52.5 46.25H42.5C41.81 46.25 41.25 46.81 41.25 47.5C41.25 48.19 41.81 48.75 42.5 48.75H52.5C53.19 48.75 53.75 48.19 53.75 47.5C53.75 46.81 53.19 46.25 52.5 46.25Z" fill="#111928"/>
<path fill-rule="evenodd" clip-rule="evenodd" d="M32.5 48.75H37.5C38.19 48.75 38.75 48.19 38.75 47.5C38.75 46.81 38.19 46.25 37.5 46.25H32.5C31.81 46.25 31.25 46.81 31.25 47.5C31.25 48.19 31.81 48.75 32.5 48.75Z" fill="#111928"/>
<path fill-rule="evenodd" clip-rule="evenodd" d="M32.5 43.75H52.5C53.19 43.75 53.75 43.19 53.75 42.5C53.75 41.81 53.19 41.25 52.5 41.25H32.5C31.81 41.25 31.25 41.81 31.25 42.5C31.25 43.19 31.81 43.75 32.5 43.75Z" fill="#111928"/>
<path fill-rule="evenodd" clip-rule="evenodd" d="M32.5 38.75H55C55.69 38.75 56.25 38.19 56.25 37.5C56.25 36.81 55.69 36.25 55 36.25H32.5C31.81 36.25 31.25 36.81 31.25 37.5C31.25 38.19 31.81 38.75 32.5 38.75Z" fill="#111928"/>
<path fill-rule="evenodd" clip-rule="evenodd" d="M32.5 33.75H60C60.69 33.75 61.25 33.19 61.25 32.5C61.25 31.81 60.69 31.25 60 31.25H32.5C31.81 31.25 31.25 31.81 31.25 32.5C31.25 33.19 31.81 33.75 32.5 33.75Z" fill="#111928"/>
<path fill-rule="evenodd" clip-rule="evenodd" d="M76.25 59.7487V82.5C76.25 84.5712 74.5712 86.25 72.5 86.25H27.5C25.4288 86.25 23.75 84.5712 23.75 82.5V76.25H17.5C15.4288 76.25 13.75 74.5712 13.75 72.5C13.75 62.74 13.75 27.26 13.75 17.5C13.75 15.4288 15.4288 13.75 17.5 13.75H62.5C64.5712 13.75 66.25 15.4288 66.25 17.5V23.75H72.5C74.5712 23.75 76.25 25.4288 76.25 27.5V32.4975C82.12 34.9488 86.25 40.7463 86.25 47.5C86.25 48.19 85.69 48.75 85 48.75H83.6937C83.26 53.555 80.35 57.6512 76.25 59.7487ZM73.75 31.6862V27.5C73.75 26.81 73.19 26.25 72.5 26.25H27.5C26.81 26.25 26.25 26.81 26.25 27.5V82.5C26.25 83.19 26.81 83.75 27.5 83.75H72.5C73.19 83.75 73.75 83.19 73.75 82.5V60.7313C72.5575 61.0688 71.3 61.25 70 61.25C62.4112 61.25 56.25 55.0888 56.25 47.5C56.25 40.3325 61.7462 34.4387 68.75 33.8062V32.5C68.75 31.81 69.31 31.25 70 31.25C71.29 31.25 72.5463 31.4012 73.75 31.6862ZM63.75 23.75V17.5C63.75 16.81 63.19 16.25 62.5 16.25H17.5C16.81 16.25 16.25 16.81 16.25 17.5V72.5C16.25 73.19 16.81 73.75 17.5 73.75H23.75V27.5C23.75 25.4288 25.4288 23.75 27.5 23.75H63.75ZM68.75 36.3187C63.1287 36.9412 58.75 41.7137 58.75 47.5C58.75 53.7088 63.7912 58.75 70 58.75C75.7863 58.75 80.5588 54.3713 81.1813 48.75H70C69.31 48.75 68.75 48.19 68.75 47.5V36.3187ZM71.25 33.8062C77.8425 34.4012 83.0987 39.6575 83.6937 46.25H71.25V33.8062Z" fill="#111928"/>
<circle cx="23" cy="23" r="23" fill="white"/>
<path d="M22.9669 3C11.9256 3 3 11.9256 3 22.9669C3 34.0083 11.9256 43 22.9669 43C34.0083 43 43 34.0083 43 22.9669C43 11.9256 34.0083 3 22.9669 3ZM22.9669 40.0248C13.5785 40.0248 5.97521 32.3554 5.97521 22.9669C5.97521 13.5785 13.5785 5.97521 22.9669 5.97521C32.3554 5.97521 40.0248 13.6446 40.0248 23.0331C40.0248 32.3554 32.3554 40.0248 22.9669 40.0248Z" fill="#22AD5C"/>
<path d="M28.6523 16.8185L20.7846 24.4879L17.2143 20.9838C16.6193 20.3887 15.6937 20.4548 15.0986 20.9838C14.5036 21.5788 14.5697 22.5044 15.0986 23.0995L19.33 27.1986C19.7267 27.5953 20.2556 27.7937 20.7846 27.7937C21.3135 27.7937 21.8424 27.5953 22.2391 27.1986L30.768 19.0003C31.3631 18.4053 31.3631 17.4796 30.768 16.8846C30.173 16.2896 29.2474 16.2896 28.6523 16.8185Z" fill="#22AD5C"/>
</svg>
