<svg width="512" height="512" viewBox="0 0 512 512" fill="none" xmlns="http://www.w3.org/2000/svg">
<path d="M304 168H208C201.637 168.007 195.536 170.538 191.037 175.037C186.538 179.536 184.007 185.637 184 192V208C184.018 213.924 186.244 219.629 190.242 224C186.244 228.371 184.018 234.076 184 240V256C184.018 261.924 186.244 267.629 190.242 272C186.244 276.371 184.018 282.076 184 288V304C184.007 310.363 186.538 316.464 191.037 320.963C195.536 325.462 201.637 327.993 208 328H304C310.363 327.993 316.464 325.462 320.963 320.963C325.462 316.464 327.993 310.363 328 304V288C327.982 282.076 325.756 276.371 321.758 272C325.756 267.629 327.982 261.924 328 256V240C327.982 234.076 325.756 228.371 321.758 224C325.756 219.629 327.982 213.924 328 208V192C327.993 185.637 325.462 179.536 320.963 175.037C316.464 170.538 310.363 168.007 304 168ZM312 304C311.999 306.121 311.155 308.155 309.655 309.655C308.155 311.155 306.121 311.999 304 312H208C205.879 311.999 203.845 311.155 202.345 309.655C200.845 308.155 200.001 306.121 200 304V288C200.001 285.879 200.845 283.845 202.345 282.345C203.845 280.845 205.879 280.001 208 280H304C306.121 280.001 308.155 280.845 309.655 282.345C311.155 283.845 311.999 285.879 312 288V304ZM312 256C311.999 258.121 311.155 260.155 309.655 261.655C308.155 263.155 306.121 263.999 304 264H208C205.879 263.999 203.845 263.155 202.345 261.655C200.845 260.155 200.001 258.121 200 256V240C200.001 237.879 200.845 235.845 202.345 234.345C203.845 232.845 205.879 232.001 208 232H304C306.121 232.001 308.155 232.845 309.655 234.345C311.155 235.845 311.999 237.879 312 240V256ZM312 208C311.999 210.121 311.155 212.155 309.655 213.655C308.155 215.155 306.121 215.999 304 216H208C205.879 215.999 203.845 215.155 202.345 213.655C200.845 212.155 200.001 210.121 200 208V192C200.001 189.879 200.845 187.845 202.345 186.345C203.845 184.845 205.879 184.001 208 184H304C306.121 184.001 308.155 184.845 309.655 186.345C311.155 187.845 311.999 189.879 312 192V208Z" fill="#111928"/>
<path d="M208 192H224V208H208V192Z" fill="#111928"/>
<path d="M240 192H304V208H240V192Z" fill="#111928"/>
<path d="M208 240H224V256H208V240Z" fill="#111928"/>
<path d="M240 240H304V256H240V240Z" fill="#111928"/>
<path d="M208 288H224V304H208V288Z" fill="#111928"/>
<path d="M240 288H304V304H240V288Z" fill="#111928"/>
<path d="M424 440H408V408C408.001 406.949 407.794 405.909 407.392 404.938C406.99 403.967 406.401 403.085 405.658 402.342C404.915 401.599 404.033 401.009 403.062 400.608C402.091 400.206 401.051 399.999 400 400H264V375.595C297.19 373.516 328.268 358.602 350.654 334.011C373.04 309.42 384.977 277.081 383.937 243.843C382.898 210.604 368.963 179.075 345.084 155.931C321.204 132.787 289.255 119.845 256 119.845C222.745 119.845 190.796 132.787 166.916 155.931C143.037 179.075 129.102 210.604 128.063 243.843C127.023 277.081 138.96 309.42 161.346 334.011C183.732 358.602 214.81 373.516 248 375.595V400H112C110.949 399.999 109.909 400.206 108.938 400.608C107.967 401.009 107.085 401.599 106.342 402.342C105.599 403.085 105.01 403.967 104.608 404.938C104.206 405.909 103.999 406.949 104 408V440H88C86.9493 439.999 85.9087 440.206 84.9378 440.608C83.9669 441.009 83.0848 441.599 82.3418 442.342C81.5988 443.085 81.0096 443.967 80.6077 444.938C80.2059 445.909 79.9994 446.949 80 448V496C79.9994 497.051 80.2059 498.091 80.6077 499.062C81.0096 500.033 81.5988 500.915 82.3418 501.658C83.0848 502.401 83.9669 502.99 84.9378 503.392C85.9087 503.794 86.9493 504 88 504H136C137.051 504 138.091 503.794 139.062 503.392C140.033 502.99 140.915 502.401 141.658 501.658C142.401 500.915 142.99 500.033 143.392 499.062C143.794 498.091 144.001 497.051 144 496V448C144.001 446.949 143.794 445.909 143.392 444.938C142.99 443.967 142.401 443.085 141.658 442.342C140.915 441.599 140.033 441.009 139.062 440.608C138.091 440.206 137.051 439.999 136 440H120V416H248V440H232C230.949 439.999 229.909 440.206 228.938 440.608C227.967 441.009 227.085 441.599 226.342 442.342C225.599 443.085 225.01 443.967 224.608 444.938C224.206 445.909 223.999 446.949 224 448V496C223.999 497.051 224.206 498.091 224.608 499.062C225.01 500.033 225.599 500.915 226.342 501.658C227.085 502.401 227.967 502.99 228.938 503.392C229.909 503.794 230.949 504 232 504H280C281.051 504 282.091 503.794 283.062 503.392C284.033 502.99 284.915 502.401 285.658 501.658C286.401 500.915 286.99 500.033 287.392 499.062C287.794 498.091 288.001 497.051 288 496V448C288.001 446.949 287.794 445.909 287.392 444.938C286.99 443.967 286.401 443.085 285.658 442.342C284.915 441.599 284.033 441.009 283.062 440.608C282.091 440.206 281.051 439.999 280 440H264V416H392V440H376C374.949 439.999 373.909 440.206 372.938 440.608C371.967 441.009 371.085 441.599 370.342 442.342C369.599 443.085 369.01 443.967 368.608 444.938C368.206 445.909 367.999 446.949 368 448V496C367.999 497.051 368.206 498.091 368.608 499.062C369.01 500.033 369.599 500.915 370.342 501.658C371.085 502.401 371.967 502.99 372.938 503.392C373.909 503.794 374.949 504 376 504H424C425.051 504 426.091 503.794 427.062 503.392C428.033 502.99 428.915 502.401 429.658 501.658C430.401 500.915 430.99 500.033 431.392 499.062C431.794 498.091 432.001 497.051 432 496V448C432.001 446.949 431.794 445.909 431.392 444.938C430.99 443.967 430.401 443.085 429.658 442.342C428.915 441.599 428.033 441.009 427.062 440.608C426.091 440.206 425.051 439.999 424 440ZM128 456V488H96V456H128ZM272 456V488H240V456H272ZM256 360C233.848 360 212.194 353.431 193.776 341.124C175.358 328.818 161.003 311.326 152.525 290.86C144.048 270.395 141.831 247.876 146.152 226.15C150.474 204.424 161.141 184.467 176.804 168.804C192.468 153.14 212.424 142.473 234.15 138.152C255.876 133.83 278.395 136.048 298.861 144.525C319.326 153.002 336.818 167.358 349.125 185.776C361.431 204.194 368 225.848 368 248C367.967 277.694 356.156 306.162 335.159 327.159C314.162 348.156 285.694 359.966 256 360ZM416 488H384V456H416V488Z" fill="#111928"/>
<path d="M264 104V56H280C281.485 56.0007 282.942 55.5874 284.206 54.8066C285.469 54.0259 286.491 52.9085 287.155 51.5797C287.819 50.251 288.101 48.7634 287.967 47.2839C287.833 45.8043 287.29 44.3913 286.398 43.2032L262.398 11.2032C261.621 10.2578 260.644 9.4964 259.538 8.97361C258.432 8.45083 257.223 8.17969 256 8.17969C254.776 8.17969 253.568 8.45083 252.461 8.97361C251.355 9.4964 250.378 10.2578 249.601 11.2032L225.601 43.2032C224.709 44.3913 224.166 45.8043 224.032 47.2839C223.899 48.7634 224.18 50.251 224.844 51.5797C225.509 52.9085 226.53 54.0259 227.794 54.8066C229.058 55.5874 230.514 56.0007 232 56H248V104H264ZM256 29.3361L264 40H248L256 29.3361Z" fill="#111928"/>
<path d="M460.797 217.601C459.609 216.709 458.196 216.166 456.716 216.032C455.237 215.899 453.749 216.18 452.42 216.844C451.092 217.509 449.974 218.53 449.193 219.794C448.413 221.058 447.999 222.514 448 224V240H400V256H448V272C447.999 273.485 448.412 274.942 449.193 276.206C449.974 277.47 451.091 278.491 452.42 279.155C453.749 279.82 455.237 280.101 456.716 279.967C458.196 279.833 459.609 279.29 460.797 278.398L492.797 254.398C493.791 253.654 494.599 252.688 495.155 251.577C495.711 250.467 496 249.242 496 248C496 246.758 495.711 245.533 495.155 244.422C494.599 243.311 493.791 242.345 492.797 241.601L460.797 217.601ZM464 256V240L474.664 248L464 256Z" fill="#111928"/>
<path d="M112 240H64.0001V224C64.0007 222.514 63.5874 221.058 62.8067 219.794C62.0259 218.53 60.9085 217.509 59.5798 216.844C58.251 216.18 56.7635 215.899 55.2839 216.032C53.8044 216.166 52.3913 216.709 51.2032 217.601L19.2032 241.601C18.2088 242.345 17.4016 243.311 16.8455 244.422C16.2895 245.533 16 246.758 16 248C16 249.242 16.2895 250.467 16.8455 251.577C17.4016 252.688 18.2088 253.654 19.2032 254.398L51.2032 278.398C52.5856 279.439 54.2695 280.001 56.0001 280C57.0508 280 58.0912 279.793 59.062 279.391C60.0327 278.989 60.9148 278.4 61.6577 277.657C62.4007 276.914 62.9899 276.032 63.3919 275.062C63.7938 274.091 64.0004 273.05 64.0001 272V256H112V240ZM48.0001 256L37.3361 248L48.0001 240V256Z" fill="#111928"/>
<path d="M139.133 83.1253C138.665 81.7157 137.813 80.4646 136.673 79.5123C135.533 78.5601 134.151 77.9445 132.68 77.7347L93.0865 72.0787C91.8567 71.9039 90.6031 72.0176 89.4248 72.4108C88.2465 72.804 87.1758 73.466 86.2974 74.3443C85.4191 75.2227 84.7571 76.2933 84.3639 77.4716C83.9707 78.6499 83.857 79.9036 84.0319 81.1334L89.6879 120.735C89.8976 122.205 90.5132 123.588 91.4654 124.728C92.4176 125.868 93.6689 126.72 95.0785 127.188C95.894 127.463 96.749 127.603 97.6097 127.602C99.7312 127.601 101.765 126.758 103.266 125.258L114.581 113.94L148.524 147.883L159.836 136.571L125.892 102.627L137.203 91.3126C138.254 90.2619 138.991 88.9393 139.331 87.4932C139.672 86.0471 139.604 84.5346 139.133 83.1253ZM103.266 102.625L101.383 89.43L114.578 91.3128L103.266 102.625Z" fill="#111928"/>
<path d="M363.476 147.883L397.419 113.94L408.734 125.258C410.234 126.758 412.269 127.601 414.39 127.602C415.251 127.603 416.106 127.463 416.921 127.188C418.331 126.72 419.582 125.868 420.534 124.728C421.487 123.588 422.102 122.205 422.312 120.735L427.968 81.1334C428.143 79.9036 428.029 78.6499 427.636 77.4716C427.243 76.2933 426.581 75.2227 425.702 74.3443C424.824 73.466 423.753 72.804 422.575 72.4108C421.397 72.0176 420.143 71.9039 418.913 72.0787L379.319 77.7347C377.849 77.9462 376.467 78.5626 375.327 79.515C374.187 80.4673 373.335 81.7181 372.866 83.1272C372.396 84.5364 372.328 86.0483 372.669 87.494C373.01 88.9396 373.746 90.2619 374.796 91.3128L386.107 102.627L352.163 136.571L363.476 147.883ZM410.617 89.43L408.734 102.625L397.421 91.3128L410.617 89.43Z" fill="#111928"/>
</svg>
