<svg width="52" height="52" viewBox="0 0 52 52" fill="none" xmlns="http://www.w3.org/2000/svg">
<path d="M19.2912 9.48105L18.0839 8.39392L11.4116 15.8072L8.7596 12.4922L7.49048 13.5078L11.3385 18.3178L19.2912 9.48105Z" fill="#111928"/>
<path d="M10.5625 28.4375H12.1875V30.0625H10.5625V28.4375Z" fill="#111928"/>
<path d="M40.625 18.6875C39.2811 18.6875 38.1875 19.7811 38.1875 21.125C38.1875 22.4689 39.2811 23.5625 40.625 23.5625C41.9689 23.5625 43.0625 22.4689 43.0625 21.125C43.0625 19.7811 41.9689 18.6875 40.625 18.6875ZM40.625 21.9375C40.1765 21.9375 39.8125 21.5727 39.8125 21.125C39.8125 20.6773 40.1765 20.3125 40.625 20.3125C41.0735 20.3125 41.4375 20.6773 41.4375 21.125C41.4375 21.5727 41.0735 21.9375 40.625 21.9375Z" fill="#111928"/>
<path d="M51.1875 30.4151C51.1875 26.0796 49.2879 22.0236 45.9826 19.2343C45.5926 18.1326 44.8744 17.1868 43.9424 16.5149L44.9321 14.9484C45.1669 14.5755 45.24 14.1343 45.1376 13.7045C45.0353 13.2763 44.7712 12.9147 44.3934 12.688L42.6262 11.6277L43.1397 10.5999L43.6524 10.8989C43.9083 11.0484 44.1902 11.1199 44.4697 11.1199C44.9662 11.1199 45.4537 10.8924 45.7714 10.4699L47.2274 8.52883C47.5052 8.15833 47.6125 7.68545 47.5207 7.23208C47.4289 6.77789 47.1469 6.38302 46.7464 6.14983L38.4093 1.28783C37.6959 0.87183 36.7859 1.05627 36.2911 1.71602L34.8351 3.65708C34.5573 4.02758 34.45 4.50045 34.5418 4.95383C34.6336 5.40802 34.9156 5.80289 35.3161 6.03608L35.8597 6.35377L35.2316 7.19145L33.6091 6.21808C32.8461 5.76064 31.85 6.00602 31.3861 6.76408L24.0638 18.7452C23.8997 18.7111 23.7323 18.6875 23.5625 18.6875H21.8863C22.9418 17.0438 23.5625 15.0946 23.5625 13C23.5625 7.17602 18.824 2.43752 13 2.43752C7.176 2.43752 2.4375 7.17602 2.4375 13C2.4375 15.0946 3.05825 17.0438 4.11369 18.6875H3.25C1.90612 18.6875 0.8125 19.7811 0.8125 21.125V24.375C0.8125 25.7189 1.90612 26.8125 3.25 26.8125H3.92194L0.870187 45.8876C0.832 46.1265 0.8125 46.3694 0.8125 46.6115C0.8125 49.1351 2.86488 51.1875 5.3885 51.1875H14.625H15.4375H32.5C33.3962 51.1875 34.125 50.4587 34.125 49.5625V47.9375C34.125 47.9294 34.1226 47.9221 34.1226 47.914C43.5719 47.6686 51.1875 39.9222 51.1875 30.4151ZM44.6875 21.125C44.6875 23.3651 42.8651 25.1875 40.625 25.1875C38.3849 25.1875 36.5625 23.3651 36.5625 21.125C36.5625 18.885 38.3849 17.0625 40.625 17.0625C42.8651 17.0625 44.6875 18.885 44.6875 21.125ZM34.1226 41.4156C34.1112 40.53 33.3881 39.8125 32.5 39.8125H24.9698L23.4512 30.3209C23.6698 30.4249 23.9005 30.4972 24.1418 30.4972C24.2458 30.4972 24.3498 30.4875 24.4538 30.4671C24.9048 30.3786 25.2988 30.1023 25.5344 29.7083L26.8905 27.4487L27.9841 28.1564L26.4932 30.6418C26.0634 31.3585 26.2429 32.2774 26.9124 32.7779L28.8551 34.2355C29.1387 34.4476 29.4816 34.5605 29.8309 34.5605C29.9349 34.5605 30.0389 34.5508 30.1429 34.5305C30.5939 34.4419 30.9879 34.1656 31.2236 33.7716L32.7446 31.2366L33.8244 31.9353C34.0949 32.11 34.3996 32.1937 34.7019 32.1937C35.2292 32.1937 35.7476 31.9394 36.0588 31.4714L36.7827 30.3867C37.0264 30.0219 37.1109 29.584 37.0216 29.155C36.9501 28.8105 36.7705 28.509 36.5129 28.2799L37.8861 26.1065C38.6978 26.555 39.6321 26.8125 40.625 26.8125C41.6374 26.8125 42.5872 26.5436 43.4119 26.0772C44.2374 27.309 44.6875 28.7682 44.6875 30.2591V30.4452C44.6875 36.3626 39.9856 41.1889 34.1226 41.4156ZM26.9913 44.6875L27.3975 46.3125H19.7275L20.1338 44.6875H26.9913ZM14.625 43.0625V41.4375H32.5L32.5008 43.0625H14.625ZM22.9808 21.4297L35.4291 29.4848L34.7051 30.5703L22.2576 22.5152L22.9808 21.4297ZM31.3787 30.3526L29.8293 32.9347L27.8858 31.4771L29.3491 29.0388L31.3787 30.3526ZM23.4959 25.2517L25.5255 26.5647L24.1418 28.8722L22.1983 27.4146L23.4959 25.2517ZM37.5911 2.69183L45.9282 7.55464L44.4722 9.49652L36.1351 4.63289L37.5911 2.69183ZM37.2726 7.17764L41.7332 9.77927L41.2287 10.7884L36.6332 8.03077L37.2726 7.17764ZM32.773 7.61152L43.5565 14.0815L42.4962 15.7601C41.9096 15.5545 41.2815 15.4375 40.625 15.4375C37.4896 15.4375 34.9375 17.9888 34.9375 21.125C34.9375 22.6818 35.5672 24.0931 36.5836 25.1209L35.1601 27.3748L24.7943 20.6668L32.773 7.61152ZM13 4.06252C17.9278 4.06252 21.9375 8.0722 21.9375 13C21.9375 17.9278 17.9278 21.9375 13 21.9375C8.07219 21.9375 4.0625 17.9278 4.0625 13C4.0625 8.0722 8.07219 4.06252 13 4.06252ZM2.4375 24.375V21.125C2.4375 20.6773 2.8015 20.3125 3.25 20.3125H5.39581C7.319 22.3113 10.0141 23.5625 13 23.5625C15.9859 23.5625 18.681 22.3113 20.6042 20.3125H21.8075C21.7441 20.3791 21.6824 20.4498 21.6296 20.5286L20.9056 21.6133C20.6619 21.9781 20.5774 22.4161 20.6668 22.8451C20.7553 23.2741 21.0072 23.6413 21.3753 23.8786L22.1309 24.3677L21.6393 25.1875H3.25C2.8015 25.1875 2.4375 24.8227 2.4375 24.375ZM5.3885 49.5625C3.76106 49.5625 2.4375 48.239 2.4375 46.6115C2.4375 46.4555 2.4505 46.3003 2.47488 46.1451L3.48806 39.8125H9.75V38.1875H3.74806L4.26806 34.9375H12.1875V33.3125H4.52806L5.04806 30.0625H8.9375V28.4375H5.30806L5.56806 26.8125H20.6936C20.423 27.4853 20.6261 28.2669 21.2249 28.7146L21.5946 28.9916L23.3244 39.8125H14.625C13.7288 39.8125 13 40.5413 13 41.4375V43.0625C13 43.9587 13.7288 44.6875 14.625 44.6875H18.46L18.0537 46.3125H14.625C13.7288 46.3125 13 47.0413 13 47.9375V49.5625H5.3885ZM15.4375 49.5625H14.625V47.9375H32.5L32.5008 49.5625H15.4375ZM33.6651 46.3125H32.5H29.0712L28.665 44.6875H32.5C33.3962 44.6875 34.125 43.9587 34.125 43.0625V43.0406C40.8826 42.8115 46.3125 37.258 46.3125 30.446V30.26C46.3125 28.4099 45.7446 26.5988 44.7021 25.0819C45.5512 24.2068 46.1216 23.062 46.2711 21.788C48.3722 24.1516 49.5625 27.1928 49.5625 30.4151C49.5625 39.1812 42.4312 46.3125 33.6651 46.3125Z" fill="#111928"/>
</svg>
