<svg width="512" height="512" viewBox="0 0 512 512" fill="none" xmlns="http://www.w3.org/2000/svg">
<g clip-path="url(#clip0_6069_16722)">
<path d="M91.3601 187.748C87.1521 186.388 84.8761 181.852 86.1281 177.656C87.4921 173.46 92.0441 171.192 96.2521 172.556C109.568 176.752 121.168 184.916 129.704 195.576C136.416 203.968 141.312 213.944 143.588 224.944C146.544 224.492 149.504 224.264 152.464 224.264C169.644 224.264 185.344 231.296 196.612 242.52C207.876 253.744 214.816 269.28 214.816 286.516C214.816 290.936 211.292 294.452 206.852 294.452C202.416 294.452 198.776 290.936 198.776 286.516C198.776 273.704 193.656 262.136 185.236 253.856C176.816 245.464 165.324 240.252 152.468 240.252C144.5 240.252 137.108 242.292 130.624 245.696C123.908 249.324 118.22 254.54 113.896 260.78C111.508 264.524 106.5 265.428 102.86 263.044C99.1041 260.552 98.1921 255.56 100.584 251.932C106.272 243.428 114.008 236.512 123.112 231.632C124.704 230.724 126.412 229.932 128.116 229.252C126.412 220.408 122.656 212.244 117.196 205.556C110.588 197.272 101.6 191.036 91.3601 187.748ZM174.76 411.696C171.12 414.08 166.112 413.06 163.724 409.316C161.448 405.572 162.472 400.7 166.224 398.316C171.46 394.916 177.264 392.308 183.52 390.604C189.548 388.904 195.924 387.884 202.52 387.884C219.588 387.884 234.948 394.004 246.212 403.76C257.816 413.848 264.872 427.796 264.872 443.332C264.872 447.752 261.348 451.268 256.908 451.268C252.472 451.268 248.828 447.752 248.828 443.332C248.828 432.56 243.824 422.92 235.744 415.776C227.324 408.524 215.604 403.988 202.52 403.988C197.4 403.988 192.512 404.668 187.844 405.912C183.068 407.272 178.744 409.316 174.76 411.696ZM72.7001 282.996C77.0241 282.544 81.0081 285.72 81.4601 290.14C81.8001 294.56 78.6161 298.42 74.1801 298.876C68.0361 299.444 62.1201 299.444 56.4281 298.764C50.6241 298.084 45.0481 296.716 39.7041 294.68C35.6081 293.204 33.4481 288.556 35.0401 284.472C36.5161 280.388 41.1801 278.236 45.2801 279.824C49.2641 281.3 53.7001 282.32 58.3641 282.888C62.9161 283.448 67.6961 283.448 72.7001 282.996ZM167.592 37.6159C168.732 33.4199 173.056 30.8119 177.264 31.8359C181.588 32.8559 184.204 37.1639 183.18 41.4719C182.612 43.7399 182.156 47.2559 182.5 51.4519C182.728 54.5119 183.408 57.9159 184.776 61.0879C186.484 65.1719 184.436 69.8199 180.34 71.5199C176.356 73.1079 171.58 71.1799 169.988 67.0959C167.94 62.1079 166.916 57.2319 166.576 52.6959C166.116 46.6879 166.8 41.3599 167.592 37.6159ZM192.056 153.956C187.62 153.956 183.976 150.328 183.976 145.904C183.976 141.484 187.616 137.856 192.056 137.856C201.272 137.856 209.692 141.596 215.724 147.72C221.752 153.732 225.508 162.124 225.508 171.304C225.508 180.488 221.752 188.88 215.724 194.892C209.692 201.012 201.272 204.756 192.056 204.756C187.62 204.756 183.976 201.128 183.976 196.704C183.976 192.28 187.616 188.768 192.056 188.768C196.836 188.768 201.16 186.728 204.344 183.664C207.532 180.492 209.468 176.18 209.468 171.304C209.468 166.544 207.532 162.12 204.344 159.06C201.16 155.884 196.836 153.956 192.056 153.956ZM67.2441 380.404C65.0801 384.26 60.1881 385.62 56.3201 383.468C52.5681 381.312 51.2001 376.432 53.3601 372.576C56.6601 366.908 60.7561 361.58 65.4201 357.044C70.2001 352.504 75.5481 348.652 81.4641 345.592C85.3321 343.664 90.2241 345.14 92.2761 349.108C94.2081 352.964 92.7321 357.84 88.7481 359.876C84.3121 362.144 80.2161 365.092 76.5721 368.608C72.9281 372.12 69.7441 376.088 67.2441 380.404ZM185.572 346.384C189.328 344.232 194.224 345.476 196.496 349.332C198.656 353.076 197.404 358.064 193.536 360.216C183.752 365.888 172.6 367.02 162.476 364.3C152.464 361.58 143.36 355.116 137.672 345.368C131.984 335.616 130.844 324.504 133.576 314.416C136.308 304.324 142.908 295.248 152.692 289.692C156.448 287.424 161.34 288.78 163.612 292.636C165.776 296.38 164.408 301.256 160.656 303.528C154.74 306.932 150.756 312.372 149.052 318.492C147.46 324.616 148.14 331.42 151.552 337.316C154.968 343.212 160.544 347.18 166.688 348.884C172.828 350.464 179.544 349.784 185.572 346.384ZM126.176 116.992C123.444 113.476 124.012 108.488 127.54 105.764C130.956 103.044 136.076 103.608 138.804 107.124C139.488 108.032 140.284 108.94 140.968 109.62C144.044 112.572 147.684 114.84 151.892 115.18C156.216 115.632 161.448 114.044 167.476 109.28C169.068 107.92 170.776 106.56 172.368 104.972L172.48 104.744C180.332 97.3759 188.98 93.2919 197.396 91.7039C207.408 90.0039 216.968 91.7039 224.588 95.6719C228.572 97.7119 230.048 102.588 228 106.444C225.952 110.412 221.172 111.888 217.192 109.844C212.528 107.348 206.496 106.332 200.24 107.464C194.664 108.484 188.864 111.208 183.516 116.308C181.468 118.464 179.42 120.276 177.372 121.752C167.7 129.348 158.596 131.844 150.404 131.048C142.096 130.368 135.044 126.288 129.696 120.96C128.456 119.6 127.204 118.352 126.176 116.992Z" fill="#111928"/>
<path d="M262.828 97.4882C258.392 97.4882 254.864 93.8602 254.864 89.4362C254.864 85.0122 258.392 81.5002 262.828 81.5002H298.896C300.264 77.5322 302.424 74.1322 305.272 71.2962C309.936 66.6442 316.304 63.7002 323.476 63.7002C330.644 63.7002 337.016 66.6482 341.792 71.2962C346.46 75.9442 349.304 82.4082 349.304 89.4402C349.304 96.5842 346.46 103.044 341.792 107.692C337.016 112.344 330.644 115.18 323.476 115.18C316.304 115.18 309.936 112.348 305.272 107.692C302.424 104.86 300.264 101.344 298.896 97.4882H262.828ZM377.748 345.816C382.184 345.816 385.828 342.188 385.828 337.764C385.828 333.34 382.188 329.828 377.748 329.828C373.308 329.828 369.784 333.344 369.784 337.764C369.784 342.184 373.308 345.816 377.748 345.816ZM377.748 360.44C384 360.44 389.692 357.948 393.904 353.752C398 349.668 400.5 344 400.5 337.764C400.5 331.528 398 325.856 393.904 321.776C389.692 317.692 384 315.2 377.748 315.2C371.488 315.2 365.8 317.692 361.704 321.776C357.608 325.86 355.108 331.528 355.108 337.764C355.108 344 357.608 349.672 361.704 353.752C365.796 357.948 371.484 360.44 377.748 360.44ZM256.912 319.852C252.476 319.852 248.832 316.224 248.832 311.8C248.832 307.376 252.476 303.864 256.912 303.864H320.172C321.54 303.864 322.676 304.092 323.812 304.656L347.252 313.952C348.164 312.82 349.3 311.572 350.324 310.44C357.38 303.524 367.048 299.1 377.744 299.1C388.436 299.1 398.224 303.52 405.16 310.44C412.216 317.468 416.54 327.104 416.54 337.764C416.54 348.424 412.216 358.176 405.16 365.088C398.224 372.12 388.432 376.428 377.744 376.428C367.044 376.428 357.376 372.12 350.324 365.088C343.384 358.172 339.064 348.424 339.064 337.764C339.064 334.588 339.404 331.416 340.2 328.352L318.696 319.848L256.912 319.852ZM256.912 419.972C252.476 419.972 248.832 416.46 248.832 412.04C248.832 407.62 252.476 403.988 256.912 403.988H304.812C306.064 400.132 308.228 396.616 311.068 393.78C315.732 389.132 322.22 386.296 329.388 386.296C336.44 386.296 342.928 389.132 347.592 393.78C352.256 398.428 355.216 404.892 355.216 412.036C355.216 419.176 352.256 425.528 347.592 430.176C342.928 434.824 336.44 437.772 329.388 437.772C322.22 437.772 315.732 434.824 311.068 430.176C308.224 427.34 306.06 423.936 304.812 419.968L256.912 419.972ZM336.216 405.12C334.512 403.42 332.004 402.284 329.392 402.284C326.66 402.284 324.152 403.42 322.452 405.12C320.632 406.932 319.604 409.316 319.604 412.036C319.604 414.756 320.632 417.136 322.452 418.952C324.156 420.656 326.664 421.788 329.392 421.788C332.004 421.788 334.512 420.656 336.216 418.952C338.04 417.14 339.064 414.756 339.064 412.036C339.064 409.316 338.04 406.932 336.216 405.12ZM377.748 150.212C382.184 150.212 385.828 153.728 385.828 158.152C385.828 162.576 382.188 166.204 377.748 166.204C373.308 166.204 369.784 162.576 369.784 158.152C369.784 153.728 373.308 150.212 377.748 150.212ZM419.956 239.34C424.392 239.34 428.036 242.852 428.036 247.276C428.036 251.7 424.396 255.328 419.956 255.328C415.516 255.328 411.992 251.7 411.992 247.276C411.992 242.852 415.52 239.34 419.956 239.34ZM256.912 255.328C252.476 255.328 248.832 251.7 248.832 247.276C248.832 242.852 252.476 239.34 256.912 239.34H382.072C383.66 231.852 387.416 225.164 392.536 219.948C399.592 213.032 409.264 208.612 419.956 208.612C430.764 208.612 440.436 213.032 447.376 219.948C454.432 226.98 458.756 236.616 458.756 247.276C458.756 257.936 454.432 267.688 447.376 274.604C440.436 281.636 430.764 285.944 419.956 285.944C409.26 285.944 399.588 281.636 392.536 274.604C387.416 269.388 383.66 262.812 382.072 255.328H256.912ZM403.916 263.38C408.012 267.464 413.7 269.96 419.96 269.96C426.332 269.96 432.024 267.464 436.12 263.38C440.212 259.188 442.712 253.516 442.712 247.28C442.712 241.044 440.212 235.376 436.12 231.292C432.024 227.208 426.332 224.716 419.96 224.716C413.704 224.716 408.016 227.212 403.916 231.292C395.04 240.136 395.04 254.536 403.916 263.38ZM256.912 192.168C252.476 192.168 248.832 188.54 248.832 184.116C248.832 179.696 252.476 176.18 256.912 176.18H318.696L340.2 167.676C339.404 164.612 339.064 161.44 339.064 158.152C339.064 147.492 343.384 137.856 350.324 130.824C357.38 123.908 367.048 119.6 377.744 119.6C388.436 119.6 398.224 123.908 405.16 130.824C412.216 137.856 416.54 147.492 416.54 158.152C416.54 168.812 412.216 178.564 405.16 185.48C398.224 192.508 388.432 196.82 377.744 196.82C367.044 196.82 357.376 192.508 350.324 185.48C349.3 184.348 348.164 183.212 347.252 181.964L323.812 191.264C322.676 191.832 321.54 192.172 320.172 192.172L256.912 192.168ZM393.904 142.164C389.692 138.08 384 135.588 377.748 135.588C371.488 135.588 365.8 138.084 361.704 142.164C357.608 146.248 355.108 151.916 355.108 158.152C355.108 164.388 357.608 170.06 361.704 174.252C365.796 178.336 371.484 180.828 377.748 180.828C384 180.828 389.692 178.332 393.904 174.252C398 170.056 400.5 164.388 400.5 158.152C400.5 151.916 398 146.248 393.904 142.164ZM330.416 82.5202C328.592 80.8202 326.204 79.6842 323.476 79.6842C320.748 79.6842 318.356 80.8202 316.54 82.5202C314.828 84.3322 313.692 86.7122 313.692 89.4362C313.692 92.1562 314.828 94.5362 316.54 96.3522C318.356 98.0522 320.748 99.1842 323.476 99.1842C326.204 99.1842 328.592 98.0522 330.416 96.3522C332.12 94.5362 333.256 92.1562 333.256 89.4362C333.252 86.7162 332.116 84.3322 330.416 82.5202Z" fill="#111928"/>
<path d="M248.832 40.452V442.764C248.832 468.848 232.22 492.772 205.368 495.716C198.084 496.512 190.576 495.604 183.636 493.112C170.208 488.124 158.832 476.784 154.848 458.98C153.708 453.876 147.908 451.268 143.244 453.76C130.272 459.884 117.076 461.812 105.128 460.224C94.2041 458.864 84.1921 454.328 76.4561 447.524C68.7201 440.72 63.2601 431.424 60.9841 420.196C58.7081 408.52 59.9601 394.796 65.9881 379.376C67.5801 375.292 65.5361 370.644 61.3241 369.056C60.0721 368.604 58.8241 368.488 57.5681 368.604C47.7841 369.74 39.2521 365.66 32.9921 358.852C28.7801 354.204 25.5961 348.192 23.7761 341.732C21.9521 335.268 21.5001 328.24 22.7521 321.548C24.8001 310.78 31.5121 300.572 44.1441 294.448C50.5161 291.384 50.0601 282.428 43.6881 279.82C33.9041 275.4 26.5081 267.46 21.7281 257.936C17.4041 248.98 15.3561 238.66 16.2681 228.452C17.0641 218.364 20.5921 208.496 27.1921 200.332C34.1321 191.828 44.6001 185.024 58.9361 181.736C64.0561 180.488 66.5561 174.932 64.2801 170.4C59.9561 161.556 57.7961 151.348 58.0241 141.256C58.2561 132.184 60.4161 123.34 64.6241 115.632C68.7161 108.148 74.9761 101.8 83.2841 97.604C90.5681 93.976 99.5561 92.048 110.252 92.272C114.688 92.384 118.332 88.868 118.444 84.448C118.444 83.996 118.444 83.428 118.332 82.864C117.308 75.832 118.332 68.688 121.064 62.224C123.228 57.236 126.412 52.812 130.508 49.412C134.6 46.124 139.608 43.744 145.412 42.836C152.468 41.7 160.884 42.836 170.44 46.92C174.536 48.62 179.316 46.692 181.024 42.612C186.712 30.252 195.588 22.428 204.92 18.684C211.064 16.188 217.436 15.512 223.352 16.304C236.544 18 247.696 26.956 248.832 40.452ZM256.344 477.692C261.464 487.896 268.628 495.832 277.052 501.504C285.468 507.172 295.028 510.576 304.812 511.592C314.596 512.724 324.608 511.48 333.828 508.076C349.64 502.296 363.296 490.048 370.12 471.568C383.32 476.328 396.516 477.688 408.916 476.104C423.144 474.176 436.116 468.392 446.24 459.432C456.48 450.36 463.76 438.004 466.72 423.26C468.992 411.692 468.536 398.54 464.556 384.256C474.912 382.672 483.9 377.22 490.84 369.628C496.756 363.048 501.192 354.884 503.696 346.044C506.088 337.312 506.652 327.792 504.948 318.604C502.668 306.928 496.752 295.924 486.4 287.42C494.136 281.412 500.28 273.7 504.604 264.972C510.292 253.404 512.796 240.14 511.772 227.212C510.636 214.06 505.968 201.132 497.324 190.36C489.812 181.064 479.348 173.464 465.696 168.704C468.764 159.86 470.248 150.336 470.02 140.808C469.676 129.356 466.944 117.904 461.372 107.924C455.792 97.72 447.26 88.988 435.884 83.32C428.488 79.692 419.84 77.312 410.056 76.516C409.944 69.368 408.464 62.34 405.62 55.992C402.548 48.736 397.772 42.16 391.624 37.168C385.484 32.068 377.86 28.436 369.096 27.076C361.016 25.828 352.028 26.508 342.244 29.572C334.736 16.756 324.152 8.36798 312.888 3.83198C304.244 0.431984 295.14 -0.704016 286.604 0.431984C277.844 1.56398 269.768 5.07998 263.28 10.636C260.78 12.676 258.616 15.172 256.568 17.892C249.4 8.47999 238.02 2.13198 225.392 0.431984C216.86 -0.704016 207.756 0.431984 199.108 3.83198C187.844 8.36798 177.264 16.756 169.752 29.572C159.968 26.508 150.98 25.828 142.9 27.076C134.14 28.436 126.516 32.068 120.26 37.168C114.116 42.156 109.448 48.736 106.264 55.992C103.532 62.34 102.052 69.372 101.94 76.516C92.0401 77.308 83.5081 79.688 76.1121 83.32C64.6201 88.988 56.2001 97.72 50.6241 107.924C45.0481 117.904 42.3161 129.356 41.9761 140.808C41.7481 150.332 43.2281 159.86 46.3001 168.704C32.6441 173.464 22.1801 181.064 14.6681 190.36C5.90807 201.136 1.24407 214.06 0.220068 227.212C-0.803932 240.14 1.70007 253.404 7.38807 264.972C11.7121 273.704 17.8561 281.412 25.5921 287.42C15.1241 295.924 9.20807 306.928 7.04407 318.604C5.22407 327.792 5.79207 337.316 8.29607 346.044C10.8001 354.888 15.2361 363.052 21.1521 369.628C28.0921 377.22 37.0801 382.672 47.4361 384.256C43.4521 398.54 43.0001 411.692 45.2721 423.26C48.2321 438.004 55.5121 450.36 65.7521 459.432C75.8801 468.392 88.8481 474.176 103.072 476.104C115.36 477.688 128.672 476.332 141.872 471.568C148.7 490.048 162.352 502.296 178.168 508.076C187.384 511.48 197.396 512.724 207.184 511.592C229.376 509.096 246.784 495.832 256.344 477.692ZM264.876 40.452C265.676 32.74 268.856 26.728 273.636 22.648C277.728 19.248 282.968 16.98 288.656 16.3C294.572 15.508 300.944 16.188 306.972 18.68C317.556 22.876 326.66 32.288 330.98 42.72C332.8 46.804 337.464 48.616 341.564 46.916C351.124 42.832 359.544 41.7 366.596 42.832C372.4 43.74 377.408 46.12 381.504 49.408C385.6 52.808 388.788 57.232 390.948 62.22C393.68 68.684 394.7 75.828 393.68 82.86C392.764 87.848 396.636 92.384 401.644 92.272C412.452 92.044 421.44 93.972 428.724 97.604C437.028 101.8 443.288 108.148 447.384 115.632C451.592 123.344 453.756 132.188 453.98 141.256C454.212 151.348 452.048 161.556 447.608 170.4C445.56 175.616 447.496 180.38 453.072 181.736C467.404 185.024 477.876 191.828 484.816 200.332C491.416 208.496 494.944 218.36 495.736 228.452C496.532 238.66 494.596 248.976 490.276 257.936C485.496 267.46 478.104 275.4 468.2 279.82C466.492 280.616 464.9 281.976 464.104 283.788C462.176 287.756 463.764 292.52 467.748 294.448C480.492 300.572 487.092 310.78 489.252 321.548C490.504 328.24 490.044 335.268 488.228 341.732C484.016 356.816 471.616 370.648 454.548 368.604H454.436C453.184 368.492 451.816 368.604 450.564 369.056C446.472 370.644 444.424 375.296 446.012 379.376C452.044 394.796 453.296 408.52 450.908 420.196C448.748 431.424 443.168 440.72 435.548 447.524C427.808 454.328 417.796 458.864 406.876 460.224C394.812 461.808 381.728 459.884 368.644 453.76C364.092 451.268 358.288 453.872 357.152 458.98C353.168 476.784 341.788 488.124 328.364 493.112C321.428 495.604 313.916 496.516 306.632 495.716C299.352 494.924 292.296 492.432 286.04 488.236C273.752 480.072 264.876 464.876 264.876 442.764V40.452Z" fill="#111928"/>
</g>
<defs>
<clipPath id="clip0_6069_16722">
<rect width="512" height="512" fill="white"/>
</clipPath>
</defs>
</svg>
