<svg width="512" height="512" viewBox="0 0 512 512" fill="none" xmlns="http://www.w3.org/2000/svg">
<path d="M376 376H200C197.878 376 195.843 376.843 194.344 378.344C192.843 379.843 192 381.878 192 384V432C192 434.122 192.843 436.157 194.344 437.656C195.843 439.157 197.878 440 200 440H376C378.122 440 380.157 439.157 381.656 437.656C383.157 436.157 384 434.122 384 432V384C384 381.878 383.157 379.843 381.656 378.344C380.157 376.843 378.122 376 376 376ZM368 424H208V392H368V424Z" fill="#111928"/>
<path d="M472 153.472V40C472 31.513 468.628 23.3738 462.628 17.3726C456.626 11.3714 448.486 8 440 8H360C351.514 8 343.374 11.3714 337.372 17.3726C331.372 23.3738 328 31.513 328 40V153.472C323.337 155.12 319.297 158.17 316.433 162.203C313.569 166.235 312.02 171.054 312 176V288H232V224C231.976 206.299 225.439 189.225 213.636 176.034C201.833 162.843 185.59 154.456 168 152.472V136H184C186.122 136 188.157 135.157 189.656 133.657C191.157 132.157 192 130.122 192 128V80C192 77.8783 191.157 75.8434 189.656 74.3431C188.157 72.8428 186.122 72 184 72H160V40C160 31.513 156.628 23.3738 150.628 17.3726C144.626 11.3714 136.487 8 128 8C119.513 8 111.374 11.3714 105.373 17.3726C99.3714 23.3738 96 31.513 96 40V72H72C69.8783 72 67.8434 72.8428 66.3431 74.3431C64.8428 75.8434 64 77.8783 64 80V128C64 130.122 64.8428 132.157 66.3431 133.657C67.8434 135.157 69.8783 136 72 136H88V152.472C70.4107 154.456 54.1665 162.843 42.3634 176.034C30.5604 189.225 24.024 206.299 24 224V480C24 486.366 26.5286 492.47 31.0295 496.97C35.5302 501.471 41.6348 504 48 504H464C470.366 504 476.47 501.471 480.97 496.97C485.471 492.47 488 486.366 488 480V176C487.98 171.054 486.431 166.235 483.567 162.203C480.703 158.17 476.663 155.12 472 153.472ZM424 120H376V56H424V120ZM456 136V152H344V136H456ZM360 24H440C444.244 24 448.313 25.6858 451.314 28.6862C454.315 31.6868 456 35.7565 456 40V120H440V48C440 45.8783 439.157 43.8434 437.656 42.3431C436.157 40.8428 434.122 40 432 40H368C365.878 40 363.843 40.8428 362.344 42.3431C360.843 43.8434 360 45.8783 360 48V120H344V40C344 35.7565 345.685 31.6868 348.686 28.6862C351.687 25.6858 355.756 24 360 24ZM398.4 334.872C399.447 332.732 399.994 330.382 400 328V304C400 299.756 398.315 295.687 395.314 292.686C392.313 289.685 388.244 288 384 288H360V240C360 237.878 360.843 235.843 362.344 234.344C363.843 232.843 365.878 232 368 232H432C434.122 232 436.157 232.843 437.656 234.344C439.157 235.843 440 237.878 440 240V416C440 418.122 439.157 420.157 437.656 421.656C436.157 423.157 434.122 424 432 424H416V368C415.999 361.461 414.393 355.021 411.324 349.245C408.256 343.47 403.819 338.534 398.4 334.872ZM384 304V328.799C381.367 328.266 378.687 327.997 376 328H200C197.313 327.997 194.633 328.266 192 328.799V304H384ZM216 224V264H152V168H160C174.847 168.017 189.082 173.922 199.579 184.421C210.078 194.918 215.983 209.153 216 224ZM136 168V264.656C130.452 265.486 125.06 267.139 120 269.559V168H136ZM120 288C124.748 284.493 130.211 282.075 136 280.92V367.016L130.176 390.296C130.008 390.737 129.71 391.117 129.322 391.386C128.933 391.653 128.472 391.797 128 391.797C127.528 391.797 127.067 391.653 126.678 391.386C126.29 391.117 125.992 390.737 125.824 390.296L120 367.016V288ZM112 40C112 35.7565 113.686 31.6868 116.686 28.6862C119.687 25.6858 123.757 24 128 24C132.243 24 136.313 25.6858 139.314 28.6862C142.315 31.6868 144 35.7565 144 40V72H112V40ZM80 88H176V120H80V88ZM152 136V152H104V136H152ZM96 168H104V280C97.0687 285.178 88.6522 287.984 80 288H40V224C40.0169 209.153 45.9224 194.918 56.4207 184.421C66.9191 173.922 81.1531 168.017 96 168ZM40 480V304H80C88.3156 303.93 96.5123 302.017 104 298.399V368C103.999 368.653 104.08 369.303 104.24 369.936L110.296 394.185C111.282 398.133 113.561 401.638 116.769 404.144C119.977 406.649 123.93 408.01 128 408.01C132.07 408.01 136.023 406.649 139.231 404.144C142.44 401.638 144.718 398.133 145.704 394.185L151.76 369.944C151.92 369.308 152.001 368.656 152 368V280H216V288H192C187.756 288 183.687 289.685 180.686 292.686C177.685 295.687 176 299.756 176 304V328C176.006 330.382 176.553 332.732 177.6 334.872C172.181 338.534 167.744 343.47 164.676 349.245C161.607 355.021 160.001 361.461 160 368V480C160.027 482.732 160.525 485.439 161.472 488H48C45.8783 488 43.8434 487.157 42.3431 485.656C40.8428 484.157 40 482.122 40 480ZM184 488C181.878 488 179.843 487.157 178.344 485.656C176.843 484.157 176 482.122 176 480V368C176 361.634 178.529 355.53 183.03 351.03C187.53 346.529 193.634 344 200 344H376C382.366 344 388.47 346.529 392.97 351.03C397.471 355.53 400 361.634 400 368V480C400 482.122 399.157 484.157 397.656 485.656C396.157 487.157 394.122 488 392 488H184ZM472 480C472 482.122 471.157 484.157 469.656 485.656C468.157 487.157 466.122 488 464 488H414.528C415.475 485.439 415.973 482.732 416 480V440H432C438.366 440 444.47 437.471 448.97 432.97C453.471 428.47 456 422.366 456 416V240C456 233.634 453.471 227.53 448.97 223.03C444.47 218.529 438.366 216 432 216H368C361.634 216 355.53 218.529 351.03 223.03C346.529 227.53 344 233.634 344 240V288H328V176C328 173.878 328.843 171.843 330.344 170.344C331.843 168.843 333.878 168 336 168H464C466.122 168 468.157 168.843 469.656 170.344C471.157 171.843 472 173.878 472 176V480Z" fill="#111928"/>
<path d="M408 72H392V88H408V72Z" fill="#111928"/>
</svg>
