<svg width="512" height="512" viewBox="0 0 512 512" fill="none" xmlns="http://www.w3.org/2000/svg">
<path d="M7 283C38.123 283 38.123 305 69.2471 305C100.371 305 100.371 283 131.497 283C162.62 283 162.62 305 193.743 305C224.865 305 224.865 283 255.99 283C287.115 283 287.115 305 318.239 305C349.363 305 349.363 283 380.487 283C411.616 283 411.616 305 442.744 305C473.871 305 473.871 283 505 283" stroke="#111928" stroke-width="12" stroke-miterlimit="10" stroke-linecap="round" stroke-linejoin="round"/>
<path d="M11.6012 422C18.0084 422 23.2024 416.873 23.2024 410.548C23.2024 404.223 18.0084 399.096 11.6012 399.096C5.19405 399.096 0 404.223 0 410.548C0 416.873 5.19405 422 11.6012 422Z" fill="#111928"/>
<path d="M67.9206 368.904C74.3277 368.904 79.5218 363.777 79.5218 357.452C79.5218 351.127 74.3277 346 67.9206 346C61.5134 346 56.3193 351.127 56.3193 357.452C56.3193 363.777 61.5134 368.904 67.9206 368.904Z" fill="#111928"/>
<path d="M133.298 422C139.706 422 144.9 416.873 144.9 410.548C144.9 404.223 139.706 399.096 133.298 399.096C126.891 399.096 121.697 404.223 121.697 410.548C121.697 416.873 126.891 422 133.298 422Z" fill="#111928"/>
<path d="M189.619 368.904C196.026 368.904 201.221 363.777 201.221 357.452C201.221 351.127 196.026 346 189.619 346C183.212 346 178.018 351.127 178.018 357.452C178.018 363.777 183.212 368.904 189.619 368.904Z" fill="#111928"/>
<path d="M254.997 422C261.404 422 266.598 416.873 266.598 410.548C266.598 404.223 261.404 399.096 254.997 399.096C248.59 399.096 243.396 404.223 243.396 410.548C243.396 416.873 248.59 422 254.997 422Z" fill="#111928"/>
<path d="M311.317 368.904C317.724 368.904 322.918 363.777 322.918 357.452C322.918 351.127 317.724 346 311.317 346C304.909 346 299.715 351.127 299.715 357.452C299.715 363.777 304.909 368.904 311.317 368.904Z" fill="#111928"/>
<path d="M376.701 422C383.108 422 388.302 416.873 388.302 410.548C388.302 404.223 383.108 399.096 376.701 399.096C370.294 399.096 365.1 404.223 365.1 410.548C365.1 416.873 370.294 422 376.701 422Z" fill="#111928"/>
<path d="M433.02 368.904C439.427 368.904 444.621 363.777 444.621 357.452C444.621 351.127 439.427 346 433.02 346C426.612 346 421.418 351.127 421.418 357.452C421.418 363.777 426.612 368.904 433.02 368.904Z" fill="#111928"/>
<path d="M498.399 422C504.806 422 510 416.873 510 410.548C510 404.223 504.806 399.096 498.399 399.096C491.992 399.096 486.798 404.223 486.798 410.548C486.798 416.873 491.992 422 498.399 422Z" fill="#111928"/>
<path d="M506 234H6C4.4087 234 2.88258 233.368 1.75736 232.243C0.632141 231.117 0 229.591 0 228C0 226.409 0.632141 224.883 1.75736 223.757C2.88258 222.632 4.4087 222 6 222H506C507.591 222 509.117 222.632 510.243 223.757C511.368 224.883 512 226.409 512 228C512 229.591 511.368 231.117 510.243 232.243C509.117 233.368 507.591 234 506 234Z" fill="#111928"/>
<path d="M142.251 95.0701C142.252 95.8582 142.097 96.6387 141.795 97.3667C141.493 98.0947 141.051 98.7558 140.493 99.3121L110.277 129.534C109.721 130.099 109.059 130.548 108.329 130.855C107.599 131.163 106.816 131.323 106.024 131.326C105.232 131.329 104.447 131.175 103.715 130.873C102.982 130.572 102.317 130.128 101.757 129.568C101.197 129.008 100.753 128.342 100.452 127.61C100.15 126.877 99.9967 126.093 100 125.301C100.003 124.509 100.163 123.725 100.471 122.995C100.779 122.265 101.228 121.604 101.793 121.048L132.015 90.8321C132.854 89.9956 133.922 89.4262 135.084 89.1959C136.246 88.9655 137.451 89.0845 138.546 89.5378C139.641 89.991 140.577 90.7583 141.236 91.7429C141.895 92.7275 142.248 93.8852 142.251 95.0701Z" fill="#111928"/>
<path d="M172.466 125.292C172.466 126.478 172.114 127.638 171.455 128.625C170.795 129.611 169.858 130.38 168.762 130.834C167.666 131.288 166.46 131.407 165.296 131.175C164.132 130.944 163.063 130.373 162.224 129.534L132.014 99.3158C131.441 98.7623 130.984 98.1003 130.67 97.3682C130.355 96.6362 130.19 95.8489 130.183 95.0522C130.176 94.2555 130.328 93.4655 130.629 92.7281C130.931 91.9907 131.377 91.3208 131.94 90.7574C132.503 90.1941 133.173 89.7486 133.911 89.4469C134.648 89.1452 135.438 88.9934 136.235 89.0003C137.031 89.0072 137.819 89.1727 138.551 89.4872C139.283 89.8017 139.945 90.2587 140.498 90.8318L170.708 121.048C171.266 121.605 171.709 122.266 172.011 122.994C172.312 123.723 172.467 124.503 172.466 125.292Z" fill="#111928"/>
<path d="M480.251 95.0701C480.252 95.8582 480.097 96.6387 479.795 97.3667C479.493 98.0947 479.051 98.7558 478.493 99.3121L448.277 129.534C447.721 130.099 447.059 130.548 446.329 130.855C445.599 131.163 444.816 131.323 444.024 131.326C443.232 131.329 442.447 131.175 441.715 130.873C440.982 130.572 440.317 130.128 439.757 129.568C439.197 129.008 438.753 128.342 438.452 127.61C438.15 126.877 437.997 126.093 438 125.301C438.003 124.509 438.163 123.725 438.471 122.995C438.779 122.265 439.228 121.604 439.793 121.048L470.015 90.8321C470.854 89.9956 471.922 89.4262 473.084 89.1959C474.246 88.9655 475.451 89.0845 476.546 89.5378C477.641 89.991 478.577 90.7583 479.236 91.7429C479.895 92.7275 480.248 93.8852 480.251 95.0701Z" fill="#111928"/>
<path d="M510.466 125.292C510.466 126.478 510.114 127.638 509.455 128.625C508.795 129.611 507.858 130.38 506.762 130.834C505.666 131.288 504.46 131.407 503.296 131.175C502.132 130.944 501.063 130.373 500.224 129.534L470.014 99.3158C469.441 98.7623 468.984 98.1003 468.67 97.3682C468.355 96.6362 468.19 95.8489 468.183 95.0522C468.176 94.2555 468.328 93.4655 468.629 92.7281C468.931 91.9907 469.377 91.3208 469.94 90.7574C470.503 90.1941 471.173 89.7486 471.911 89.4469C472.648 89.1452 473.438 88.9934 474.235 89.0003C475.031 89.0072 475.819 89.1727 476.551 89.4872C477.283 89.8017 477.945 90.2587 478.498 90.8318L508.708 121.048C509.266 121.605 509.709 122.266 510.011 122.994C510.312 123.723 510.467 124.503 510.466 125.292Z" fill="#111928"/>
<path d="M297.251 95.0701C297.252 95.8582 297.097 96.6387 296.795 97.3667C296.493 98.0947 296.051 98.7558 295.493 99.3121L265.277 129.534C264.721 130.099 264.059 130.548 263.329 130.855C262.599 131.163 261.816 131.323 261.024 131.326C260.232 131.329 259.447 131.175 258.715 130.873C257.982 130.572 257.317 130.128 256.757 129.568C256.197 129.008 255.753 128.342 255.452 127.61C255.15 126.877 254.997 126.093 255 125.301C255.003 124.509 255.163 123.725 255.471 122.995C255.779 122.265 256.228 121.604 256.793 121.048L287.015 90.8321C287.854 89.9956 288.922 89.4262 290.084 89.1959C291.246 88.9655 292.451 89.0845 293.546 89.5378C294.641 89.991 295.577 90.7583 296.236 91.7429C296.895 92.7275 297.248 93.8852 297.251 95.0701Z" fill="#111928"/>
<path d="M327.466 125.292C327.466 126.478 327.114 127.638 326.455 128.625C325.795 129.611 324.858 130.38 323.762 130.834C322.666 131.288 321.46 131.407 320.296 131.175C319.132 130.944 318.063 130.373 317.224 129.534L287.014 99.3158C286.441 98.7623 285.984 98.1003 285.67 97.3682C285.355 96.6362 285.19 95.8489 285.183 95.0522C285.176 94.2555 285.328 93.4655 285.629 92.7281C285.931 91.9907 286.377 91.3208 286.94 90.7574C287.503 90.1941 288.173 89.7486 288.911 89.4469C289.648 89.1452 290.438 88.9934 291.235 89.0003C292.031 89.0072 292.819 89.1727 293.551 89.4872C294.283 89.8017 294.945 90.2587 295.498 90.8318L325.708 121.048C326.266 121.605 326.709 122.266 327.011 122.994C327.312 123.723 327.467 124.503 327.466 125.292Z" fill="#111928"/>
<path d="M6.00009 169.082H94.7321C107.422 169.069 119.589 164.022 128.563 155.049C137.537 146.076 142.585 133.91 142.6 121.22V108C142.6 106.409 141.968 104.883 140.843 103.757C139.718 102.632 138.191 102 136.6 102C135.009 102 133.483 102.632 132.357 103.757C131.232 104.883 130.6 106.409 130.6 108V121.22C130.589 130.728 126.807 139.844 120.083 146.567C113.36 153.29 104.244 157.071 94.7361 157.082H6.00009C4.40879 157.082 2.88266 157.714 1.75745 158.839C0.632228 159.965 9.15527e-05 161.491 9.15527e-05 163.082C9.15527e-05 164.673 0.632228 166.199 1.75745 167.325C2.88266 168.45 4.40879 169.082 6.00009 169.082Z" fill="#111928"/>
<path d="M344 169.082H432.732C445.422 169.069 457.589 164.022 466.563 155.049C475.537 146.076 480.585 133.91 480.6 121.22V108C480.6 106.409 479.968 104.883 478.843 103.757C477.718 102.632 476.191 102 474.6 102C473.009 102 471.483 102.632 470.357 103.757C469.232 104.883 468.6 106.409 468.6 108V121.22C468.589 130.728 464.807 139.844 458.083 146.567C451.36 153.29 442.244 157.071 432.736 157.082H344C342.409 157.082 340.883 157.714 339.757 158.839C338.632 159.965 338 161.491 338 163.082C338 164.673 338.632 166.199 339.757 167.325C340.883 168.45 342.409 169.082 344 169.082Z" fill="#111928"/>
<path d="M161 169.082H249.732C262.422 169.069 274.589 164.022 283.563 155.049C292.537 146.076 297.585 133.91 297.6 121.22V108C297.6 106.409 296.968 104.883 295.843 103.757C294.718 102.632 293.191 102 291.6 102C290.009 102 288.483 102.632 287.357 103.757C286.232 104.883 285.6 106.409 285.6 108V121.22C285.589 130.728 281.807 139.844 275.083 146.567C268.36 153.29 259.244 157.071 249.736 157.082H161C159.409 157.082 157.883 157.714 156.757 158.839C155.632 159.965 155 161.491 155 163.082C155 164.673 155.632 166.199 156.757 167.325C157.883 168.45 159.409 169.082 161 169.082Z" fill="#111928"/>
</svg>
