<svg width="512" height="512" viewBox="0 0 512 512" fill="none" xmlns="http://www.w3.org/2000/svg">
<path d="M26 91V31C26 28.239 28.239 26 31 26H91C93.761 26 96 28.239 96 31C96 33.761 93.761 36 91 36H36V91C36 93.761 33.761 96 31 96C28.239 96 26 93.761 26 91ZM51 426C48.239 426 46 428.238 46 431V461C46 463.762 48.239 466 51 466H81C83.761 466 86 463.762 86 461C86 458.238 83.761 456 81 456H56V431C56 428.239 53.761 426 51 426ZM91 476H36V421C36 418.238 33.761 416 31 416C28.239 416 26 418.238 26 421V481C26 483.762 28.239 486 31 486H91C93.761 486 96 483.762 96 481C96 478.238 93.761 476 91 476ZM56 81V56H81C83.761 56 86 53.761 86 51C86 48.239 83.761 46 81 46H51C48.239 46 46 48.239 46 51V81C46 83.761 48.239 86 51 86C53.761 86 56 83.761 56 81ZM256 186C258.762 186 261 183.761 261 181V151C261 148.239 258.762 146 256 146C253.239 146 251 148.239 251 151V181C251 183.761 253.239 186 256 186ZM466 51C466 48.239 463.762 46 461 46H431C428.238 46 426 48.239 426 51C426 53.761 428.238 56 431 56H456V81C456 83.761 458.238 86 461 86C463.762 86 466 83.761 466 81V51ZM461 426C458.238 426 456 428.238 456 431V456H431C428.238 456 426 458.238 426 461C426 463.762 428.238 466 431 466H461C463.762 466 466 463.762 466 461V431C466 428.239 463.762 426 461 426ZM481 416C478.238 416 476 418.238 476 421V476H421C418.238 476 416 478.238 416 481C416 483.762 418.238 486 421 486H481C483.762 486 486 483.762 486 481V421C486 418.239 483.762 416 481 416ZM481 26H421C418.238 26 416 28.239 416 31C416 33.761 418.238 36 421 36H476V91C476 93.761 478.238 96 481 96C483.762 96 486 93.761 486 91V31C486 28.239 483.762 26 481 26ZM372.93 317.057L339.2 297.787C336.799 296.418 333.747 297.251 332.378 299.648C331.009 302.046 331.842 305.1 334.239 306.47L367.969 325.74C370.323 327.081 373.429 326.263 374.791 323.879C376.16 321.481 375.327 318.427 372.93 317.057ZM431 386C421.667 386 413.316 381.717 407.81 375.012L284.166 445.666C285.353 448.89 286 452.37 286 456C286 472.542 272.542 486 256 486C239.458 486 226 472.542 226 456C226 452.368 226.649 448.885 227.836 445.66L104.19 375.012C98.684 381.717 90.333 386 81 386C64.458 386 51 372.542 51 356C51 341.161 61.83 328.804 76 326.417V185.584C61.83 183.196 51 170.839 51 156C51 139.458 64.458 126 81 126C90.118 126 98.298 130.088 103.805 136.528L227.725 66.032C226.608 62.895 226 59.517 226 56C226 39.458 239.458 26 256 26C272.542 26 286 39.458 286 56C286 59.629 285.353 63.109 284.167 66.331L407.812 136.986C413.317 130.282 421.668 126 431 126C447.542 126 461 139.458 461 156C461 170.839 450.17 183.196 436 185.583V326.416C450.17 328.803 461 341.16 461 355.999C461 372.542 447.542 386 431 386ZM411 156C411 167.028 419.972 176 431 176C442.028 176 451 167.028 451 156C451 144.972 442.028 136 431 136C419.972 136 411 144.972 411 156ZM236 56C236 67.028 244.972 76 256 76C267.028 76 276 67.028 276 56C276 44.972 267.028 36 256 36C244.972 36 236 44.972 236 56ZM108.953 145.105C110.274 148.484 111 152.158 111 156C111 159.634 110.35 163.12 109.162 166.346L232.59 237.26C237.102 231.635 243.595 227.665 251.001 226.417V211C251.001 208.239 253.24 206 256.001 206C258.763 206 261.001 208.239 261.001 211V226.417C268.351 227.655 274.802 231.575 279.309 237.133L402.838 166.341C401.648 163.116 401 159.633 401 156C401 152.368 401.648 148.885 402.836 145.661L279.194 75.007C274.692 80.491 268.288 84.356 261 85.584V111C261 113.761 258.762 116 256 116C253.239 116 251 113.761 251 111V85.584C243.604 84.338 237.117 80.375 232.606 74.762L108.953 145.105ZM256 236C244.972 236 236 244.972 236 256C236 267.028 244.972 276 256 276C267.028 276 276 267.028 276 256C276 244.972 267.028 236 256 236ZM81 176C91.743 176 101 166.729 101 156C101 144.972 92.028 136 81 136C69.972 136 61 144.972 61 156C61 167.028 69.972 176 81 176ZM101 356C101 344.972 92.028 336 81 336C69.972 336 61 344.972 61 356C61 367.028 69.972 376 81 376C92.028 376 101 367.029 101 356ZM251 426.417V285.583C243.62 284.34 237.146 280.392 232.636 274.798L223.591 280.277C221.23 281.711 218.154 280.953 216.724 278.59C215.293 276.229 216.049 273.153 218.411 271.724L227.741 266.073C226.613 262.923 226 259.532 226 256C226 252.493 226.605 249.124 227.716 245.993L104.184 175.019C99.683 180.496 93.282 184.356 85.999 185.583V326.416C93.306 327.646 99.723 331.527 104.227 337.033L128.823 322.913C131.218 321.535 134.273 322.365 135.649 324.76C137.024 327.155 136.197 330.21 133.802 331.585L109.185 345.718C110.359 348.927 111 352.391 111 356C111 359.631 110.352 363.112 109.165 366.336L232.812 436.985C237.313 431.507 243.716 427.644 251 426.417ZM276 456C276 444.972 267.028 436 256 436C244.972 436 236 444.972 236 456C236 467.028 244.972 476 256 476C267.028 476 276 467.029 276 456ZM426 326.417V185.584C418.716 184.356 412.313 180.495 407.812 175.016L284.228 245.839C285.375 249.013 286 252.435 286 256C286 259.631 285.352 263.112 284.165 266.336L308.2 280.073C310.597 281.443 311.429 284.498 310.059 286.895C308.689 289.291 305.637 290.125 303.237 288.754L279.19 275.01C274.689 280.491 268.286 284.355 261 285.582V426.416C268.287 427.644 274.69 431.507 279.192 436.989L402.835 366.336C401.648 363.114 401 359.631 401 356C401 352.369 401.648 348.888 402.835 345.664L388.148 337.275C385.751 335.905 384.918 332.851 386.287 330.453C387.657 328.055 390.709 327.223 393.109 328.592L407.808 336.989C412.311 331.508 418.714 327.645 426 326.417ZM431 376C442.028 376 451 367.028 451 356C451 344.972 442.028 336 431 336C419.972 336 411 344.972 411 356C411 366.895 420.109 376 431 376ZM193.52 285.948L158.516 305.948C156.119 307.318 155.285 310.373 156.655 312.77C157.991 315.107 161.114 315.98 163.477 314.631L198.481 294.631C200.878 293.261 201.712 290.206 200.342 287.809C198.972 285.412 195.917 284.58 193.52 285.948Z" fill="#111928"/>
</svg>
